<svg width="20" height="20" viewBox="0 0 20 20" fill="none" xmlns="http://www.w3.org/2000/svg">
<mask id="mask0_42_1566" style="mask-type:alpha" maskUnits="userSpaceOnUse" x="0" y="0" width="20" height="20">
<circle cx="9.6" cy="9.6" r="9.6" fill="#D9D9D9"/>
</mask>
<g mask="url(#mask0_42_1566)">
<path d="M0 2C0 0.895431 0.895431 0 2 0H26C27.1046 0 28 0.895431 28 2V18C28 19.1046 27.1046 20 26 20H2C0.895431 20 0 19.1046 0 18V2Z" fill="white"/>
<path d="M0 2C0 0.895431 0.895431 0 2 0H26C27.1046 0 28 0.895431 28 2V18C28 19.1046 27.1046 20 26 20H2C0.895431 20 0 19.1046 0 18V2Z" fill="white"/>
<path fill-rule="evenodd" clip-rule="evenodd" d="M0 5.33333H28V0H0V5.33333Z" fill="#DD172C"/>
<path fill-rule="evenodd" clip-rule="evenodd" d="M0 20H28V14.6667H0V20Z" fill="#DD172C"/>
<path fill-rule="evenodd" clip-rule="evenodd" d="M0 14.6667H28V5.33333H0V14.6667Z" fill="#FFD133"/>
<path fill-rule="evenodd" clip-rule="evenodd" d="M7.33333 9.33333H8.66667V10H7.33333V9.33333Z" fill="#FFEDB1"/>
<path fill-rule="evenodd" clip-rule="evenodd" d="M6 10H8.66667V10.6667H8L7.33333 12L6.66667 10.6667H6V10Z" fill="#A41517"/>
<path d="M4 8.66667C4 8.29848 4.29848 8 4.66667 8C5.03486 8 5.33333 8.29848 5.33333 8.66667V12C5.33333 12.3682 5.03486 12.6667 4.66667 12.6667C4.29848 12.6667 4 12.3682 4 12V8.66667Z" fill="#A41517"/>
<path d="M9.33333 8.66667C9.33333 8.29848 9.63181 8 10 8C10.3682 8 10.6667 8.29848 10.6667 8.66667V12C10.6667 12.3682 10.3682 12.6667 10 12.6667C9.63181 12.6667 9.33333 12.3682 9.33333 12V8.66667Z" fill="#A41517"/>
<path d="M6 7.73333C6 7.14423 6.47756 6.66667 7.06667 6.66667H7.6C8.1891 6.66667 8.66667 7.14423 8.66667 7.73333C8.66667 7.88061 8.54728 8 8.4 8H6.26667C6.11939 8 6 7.88061 6 7.73333Z" fill="#A41517"/>
</g>
</svg>
