<svg width="22" height="8" viewBox="0 0 22 8" fill="none" xmlns="http://www.w3.org/2000/svg">
<path d="M1 3.66016C0.723858 3.66016 0.5 3.88401 0.5 4.16016C0.5 4.4363 0.723858 4.66016 1 4.66016V3.66016ZM21.3536 4.51371C21.5488 4.31845 21.5488 4.00187 21.3536 3.8066L18.1716 0.624623C17.9763 0.42936 17.6597 0.42936 17.4645 0.624623C17.2692 0.819885 17.2692 1.13647 17.4645 1.33173L20.2929 4.16016L17.4645 6.98858C17.2692 7.18385 17.2692 7.50043 17.4645 7.69569C17.6597 7.89095 17.9763 7.89095 18.1716 7.69569L21.3536 4.51371ZM1 4.66016H21V3.66016H1V4.66016Z" fill="white"/>
</svg>
