<svg width="108" height="31" viewBox="0 0 108 31" fill="none" xmlns="http://www.w3.org/2000/svg">
<path d="M13.988 31H4.43593L4.49507 25.2514H13.988C15.9595 25.2514 17.6254 24.9107 18.9858 24.2294C20.3658 23.5481 21.4107 22.5332 22.1205 21.1848C22.8499 19.8221 23.2147 18.1472 23.2147 16.16V14.8187C23.2147 13.3283 23.0077 12.0224 22.5936 10.9011C22.1993 9.76557 21.6079 8.82166 20.8193 8.06937C20.0307 7.30288 19.0449 6.72802 17.862 6.34478C16.6988 5.96154 15.3582 5.76992 13.8401 5.76992H4.25849V0H13.8401C16.7579 0 19.4294 0.361951 21.8543 1.08585C24.299 1.79556 26.4085 2.81754 28.1829 4.15179C29.977 5.47184 31.3571 7.04029 32.3231 8.85714C33.3089 10.6598 33.8018 12.6612 33.8018 14.8613V16.16C33.8018 18.3459 33.3089 20.3473 32.3231 22.1641C31.3571 23.981 29.9869 25.5495 28.2125 26.8695C26.4381 28.1896 24.3384 29.2115 21.9135 29.9354C19.5082 30.6451 16.8664 31 13.988 31ZM10.3801 0V31H0V0H10.3801Z" fill="black"/>
<path d="M67.6627 25.2514V31H45.897V25.2514H67.6627ZM49.5936 0V31H39.2136V0H49.5936Z" fill="black"/>
<path d="M108 0V31H97.6495L82.4195 11.7102V31H72.0394V0H82.4195L97.6495 19.2898V0H108Z" fill="black"/>
</svg>
