<svg width="16" height="17" viewBox="0 0 16 17" fill="none" xmlns="http://www.w3.org/2000/svg">
<path fill-rule="evenodd" clip-rule="evenodd" d="M13.7609 3.39726C12.8964 2.51364 11.9341 2.24028 11.0303 2.30659C10.151 2.37111 9.35908 2.75343 8.78071 3.12117C8.3246 3.41117 7.67538 3.41118 7.21927 3.12118C6.64089 2.75344 5.84901 2.37112 4.96969 2.3066C4.06593 2.24029 3.10358 2.51364 2.23911 3.39726C1.21855 4.44043 0.898354 5.72819 1.02693 7.03079C1.15402 8.31838 1.7175 9.62729 2.46902 10.7871C3.22255 11.95 4.18511 12.9941 5.15077 13.7522C6.0952 14.4936 7.12277 15.0244 8.00001 15.0244C8.87725 15.0244 9.90482 14.4936 10.8492 13.7522C11.8149 12.9941 12.7775 11.95 13.531 10.7871C14.2825 9.62729 14.846 8.31838 14.9731 7.03079C15.1016 5.72819 14.7815 4.44043 13.7609 3.39726ZM9.30392 3.94789C9.81538 3.6227 10.4484 3.33093 11.1016 3.283C11.7303 3.23687 12.408 3.4127 13.0635 4.08272C13.847 4.88358 14.1064 5.8672 14.0011 6.9344C13.8942 8.01661 13.4103 9.17593 12.7118 10.2538C12.0154 11.3286 11.1254 12.2918 10.247 12.9814C9.34725 13.6878 8.53911 14.0454 8.00001 14.0454C7.46091 14.0454 6.65277 13.6878 5.75307 12.9814C4.8746 12.2918 3.98463 11.3286 3.28817 10.2538C2.58972 9.17593 2.10576 8.01662 1.99894 6.9344C1.8936 5.86721 2.15301 4.88358 2.93651 4.08272C3.592 3.41271 4.26965 3.23688 4.89838 3.28301C5.55154 3.33094 6.1846 3.6227 6.69606 3.9479C7.47156 4.44097 8.52842 4.44096 9.30392 3.94789Z" fill="black"/>
</svg>
