<svg width="15" height="15" viewBox="0 0 15 15" fill="none" xmlns="http://www.w3.org/2000/svg">
<path d="M3.40512 14.5V5.05422H0.189708V14.5H3.40512ZM1.79783 3.76379C2.9191 3.76379 3.61704 3.03846 3.61704 2.13205C3.59614 1.20519 2.91914 0.5 1.81911 0.5C0.719243 0.5 0 1.20521 0 2.13205C0 3.03851 0.697765 3.76379 1.77684 3.76379H1.79773H1.79783ZM5.18484 14.5H8.40025V9.22502C8.40025 8.94271 8.42114 8.66069 8.50605 8.45888C8.7385 7.89483 9.26756 7.31064 10.1558 7.31064C11.3193 7.31064 11.7848 8.17685 11.7848 9.44665V14.4999H15V9.08381C15 6.18244 13.4137 4.83246 11.2981 4.83246C9.56356 4.83246 8.80196 5.77917 8.37886 6.42397H8.40032V5.05403H5.18491C5.22711 5.94037 5.18491 14.4998 5.18491 14.4998L5.18484 14.5Z" fill="black"/>
</svg>
