<svg width="19" height="14" viewBox="0 0 19 14" fill="none" xmlns="http://www.w3.org/2000/svg">
<path d="M19 3.873V11C19 11.663 18.6872 12.2989 18.1305 12.7678C17.5737 13.2366 16.8186 13.5 16.0312 13.5H2.96875C2.18139 13.5 1.42628 13.2366 0.869527 12.7678C0.312778 12.2989 0 11.663 0 11V3.873L9.19838 8.431C9.28976 8.47638 9.39391 8.50032 9.5 8.50032C9.60609 8.50032 9.71024 8.47638 9.80162 8.431L19 3.873ZM16.0312 0.5C16.7617 0.499903 17.4666 0.726607 18.0111 1.13674C18.5555 1.54687 18.9013 2.11164 18.9822 2.723L9.5 7.42L0.0178126 2.723C0.0987505 2.11164 0.44451 1.54687 0.988944 1.13674C1.53338 0.726607 2.23826 0.499903 2.96875 0.5H16.0312Z" fill="black"/>
</svg>
