<svg width="10" height="10" viewBox="0 0 10 10" fill="none" xmlns="http://www.w3.org/2000/svg">
<path fill-rule="evenodd" clip-rule="evenodd" d="M5 0C2.24 0 0 2.24 0 5C0 7.76 2.24 10 5 10C7.76 10 10 7.76 10 5C10 2.24 7.76 0 5 0ZM2.535 8.14C2.75 7.69 4.06 7.25 5 7.25C5.94 7.25 7.255 7.69 7.465 8.14C6.785 8.68 5.93 9 5 9C4.07 9 3.215 8.68 2.535 8.14ZM5 6.25C5.73 6.25 7.465 6.545 8.18 7.415C8.69 6.745 9 5.91 9 5C9 2.795 7.205 1 5 1C2.795 1 1 2.795 1 5C1 5.91 1.31 6.745 1.82 7.415C2.535 6.545 4.27 6.25 5 6.25ZM5 2C4.03 2 3.25 2.78 3.25 3.75C3.25 4.72 4.03 5.5 5 5.5C5.97 5.5 6.75 4.72 6.75 3.75C6.75 2.78 5.97 2 5 2ZM4.25 3.75C4.25 4.165 4.585 4.5 5 4.5C5.415 4.5 5.75 4.165 5.75 3.75C5.75 3.335 5.415 3 5 3C4.585 3 4.25 3.335 4.25 3.75Z" fill="#616161"/>
</svg>
