<svg width="23" height="22" viewBox="0 0 23 22" fill="none" xmlns="http://www.w3.org/2000/svg">
<path d="M17.0142 12.8333C17.2974 12.8333 17.5777 12.8867 17.8393 12.9903C18.1008 13.094 18.3385 13.2459 18.5386 13.4375C18.7388 13.629 18.8975 13.8564 19.0057 14.1066C19.114 14.3568 19.1697 14.625 19.1695 14.8958V15.7373C19.1692 16.2627 18.9974 16.7748 18.6779 17.2021C17.1973 19.1858 14.7775 20.1676 11.5 20.1676C8.22153 20.1676 5.80366 19.1849 4.32591 17.2012C4.00786 16.7741 3.83701 16.2626 3.83716 15.7382V14.8949C3.83716 14.3484 4.06397 13.8243 4.46775 13.4378C4.87153 13.0512 5.41925 12.8338 5.99053 12.8333H17.0133H17.0142ZM11.5 1.83789C12.1292 1.83789 12.7523 1.95644 13.3337 2.18678C13.915 2.41711 14.4433 2.75472 14.8882 3.18032C15.3332 3.60592 15.6861 4.11118 15.9269 4.66726C16.1677 5.22333 16.2917 5.81933 16.2917 6.42122C16.2917 7.02312 16.1677 7.61911 15.9269 8.17519C15.6861 8.73126 15.3332 9.23653 14.8882 9.66213C14.4433 10.0877 13.915 10.4253 13.3337 10.6557C12.7523 10.886 12.1292 11.0046 11.5 11.0046C10.2292 11.0046 9.01038 10.5217 8.11177 9.66213C7.21316 8.80259 6.70832 7.6368 6.70832 6.42122C6.70832 5.20565 7.21316 4.03986 8.11177 3.18032C9.01038 2.32078 10.2292 1.83789 11.5 1.83789Z" fill="#BF2E00"/>
</svg>
