<svg width="103" height="103" viewBox="0 0 103 103" fill="none" xmlns="http://www.w3.org/2000/svg">
<path d="M51.5 103C79.9427 103 103 79.9427 103 51.5C103 23.0573 79.9427 0 51.5 0C23.0573 0 0 23.0573 0 51.5C0 79.9427 23.0573 103 51.5 103Z" fill="#FDE100"/>
<path d="M51.5 99.2546C77.8741 99.2546 99.2546 77.8741 99.2546 51.5C99.2546 25.1259 77.8741 3.74547 51.5 3.74547C25.1259 3.74547 3.74548 25.1259 3.74548 51.5C3.74548 77.8741 25.1259 99.2546 51.5 99.2546Z" stroke="black" stroke-width="3"/>
<path d="M36.0687 12.6053L48.7096 51.706H54.1592L66.6316 12.6053H59.0096L51.4063 38.7093L43.8592 12.6053H36.0687ZM16.5268 31.8551V70.4333H28.634C38.4471 70.4333 43.4098 58.5602 36.5931 51.2378C36.5931 51.2378 36.5931 51.2004 36.5931 51.1629C36.5931 51.1255 36.6493 51.1067 36.6493 51.1067C42.3236 44.7207 39.9265 33.4469 29.4018 31.8551H16.5268ZM66.6316 31.8551V70.4333H78.8043C88.5987 70.4333 93.5614 58.5602 86.7634 51.2378C86.7634 51.2378 86.7634 51.2004 86.7634 51.1629C86.7634 51.1255 86.8196 51.1067 86.8196 51.1067C92.4753 44.7207 90.0969 33.4469 79.5534 31.8551H66.6316ZM23.6151 39.0651H29.5703C33.4469 39.0651 34.2334 46.4811 29.8138 47.6609H23.6151V39.0651ZM73.8229 39.0651H79.7407C83.5985 39.0651 84.4038 46.4811 79.9654 47.6609H73.8229V39.0651ZM23.6151 54.5713H28.8774C33.2409 54.5713 34.8514 62.5117 29.1771 63.6353H23.6151V54.5713ZM73.8229 54.5713H79.0291C83.3925 54.5713 85.0031 62.5117 79.3287 63.6353H73.8229V54.5713ZM43.8592 71.2386C40.7318 71.2386 38.1849 73.8042 38.1849 76.9317V85.4713C38.1849 88.5987 40.7318 91.1457 43.8592 91.1457H43.9716C47.0991 91.1457 49.646 88.5987 49.646 85.4713V76.9317C49.646 73.8042 47.0991 71.2386 43.9716 71.2386H43.8592ZM58.8972 71.2386C55.7698 71.2386 53.1105 73.6731 53.1105 76.8006V78.2051C53.1105 81.3326 55.9571 83.8607 58.8972 83.9544C58.8972 83.9544 60.0958 83.9356 60.7138 83.5986L60.77 85.5275C60.77 86.5013 59.9834 87.3627 59.0096 87.344C58.2231 87.3066 57.1369 86.9133 57.1369 85.9395C57.1369 85.9395 57.3242 84.6473 56.3878 84.6473H53.1105C53.0731 84.9657 53.1105 85.1529 53.1105 85.5837C53.1105 88.5426 55.6387 91.1457 59.0658 91.1457C62.3056 91.1082 64.5716 88.6362 64.5716 85.4151V76.8567C64.5716 73.7293 62.1371 71.2386 59.0096 71.2386H58.8972ZM58.9534 75.2837C59.9834 75.2837 60.77 76.0702 60.77 77.044V78.1489C60.77 79.1227 59.9834 79.9093 59.0096 79.9093C57.9796 79.9093 57.1369 79.1227 57.1369 78.1489V77.044C57.1369 76.0702 57.9796 75.2837 58.9534 75.2837ZM43.8592 75.3398C44.8892 75.3398 45.732 76.1264 45.732 77.1002V85.5837C45.732 86.5575 44.8892 87.344 43.9154 87.344C42.8854 87.344 42.0989 86.5575 42.0989 85.5837V77.1002C42.0989 76.1264 42.8854 75.3398 43.8592 75.3398Z" fill="black"/>
</svg>
