<svg width="19" height="19" viewBox="0 0 19 19" fill="none" xmlns="http://www.w3.org/2000/svg">
<mask id="mask0_52_769" style="mask-type:alpha" maskUnits="userSpaceOnUse" x="0" y="0" width="19" height="19">
<circle cx="9.5" cy="9.5" r="9.5" fill="#D9D9D9"/>
</mask>
<g mask="url(#mask0_52_769)">
<rect x="-4.75" width="27.1429" height="19" rx="2" fill="white"/>
<mask id="mask1_52_769" style="mask-type:alpha" maskUnits="userSpaceOnUse" x="-5" y="0" width="28" height="19">
<rect x="-4.75" width="27.1429" height="19" rx="2" fill="white"/>
</mask>
<g mask="url(#mask1_52_769)">
<rect x="-4.75" width="27.1429" height="19" fill="#05AB41"/>
<path fill-rule="evenodd" clip-rule="evenodd" d="M2.95131 9.8605C2.5303 9.59987 2.5303 8.98745 2.95131 8.72682L9.0245 4.96723C9.2395 4.83413 9.5113 4.83413 9.72631 4.96723L15.7995 8.72682C16.2205 8.98745 16.2205 9.59987 15.7995 9.8605L9.72631 13.6201C9.5113 13.7532 9.2395 13.7532 9.0245 13.6201L2.95131 9.8605Z" fill="#FDD216"/>
<path fill-rule="evenodd" clip-rule="evenodd" d="M9.31259 12.4222C10.9969 12.4222 12.3622 11.0842 12.3622 9.43357C12.3622 7.78298 10.9969 6.44492 9.31259 6.44492C7.62831 6.44492 6.26294 7.78298 6.26294 9.43357C6.26294 11.0842 7.62831 12.4222 9.31259 12.4222Z" fill="#053087"/>
<mask id="mask2_52_769" style="mask-type:alpha" maskUnits="userSpaceOnUse" x="6" y="6" width="7" height="7">
<path fill-rule="evenodd" clip-rule="evenodd" d="M9.31259 12.4222C10.9969 12.4222 12.3622 11.0842 12.3622 9.43357C12.3622 7.78298 10.9969 6.44492 9.31259 6.44492C7.62831 6.44492 6.26294 7.78298 6.26294 9.43357C6.26294 11.0842 7.62831 12.4222 9.31259 12.4222Z" fill="white"/>
</mask>
<g mask="url(#mask2_52_769)">
<path d="M5.90123 8.6524C6.38005 8.27242 7.92514 8.63239 9.36745 9.00943C10.8098 9.38648 12.314 10.1768 12.6971 10.6403" stroke="white" stroke-width="1.33333" stroke-linecap="square"/>
</g>
</g>
</g>
</svg>
