<svg width="56" height="56" viewBox="0 0 56 56" fill="none" xmlns="http://www.w3.org/2000/svg">
<path d="M11.3178 13.4073L5.62568 19.0972C5.39635 19.326 5.26204 19.6331 5.24971 19.9568C5.23738 20.2805 5.34793 20.5969 5.55918 20.8425L27.0247 45.8733C27.1452 46.0142 27.2947 46.1273 27.4631 46.2049C27.6315 46.2824 27.8146 46.3226 28 46.3226C28.1854 46.3226 28.3686 46.2824 28.5369 46.2049C28.7053 46.1273 28.8549 46.0142 28.9753 45.8733L50.4397 20.8425C50.6509 20.5969 50.7615 20.2805 50.7491 19.9568C50.7368 19.6331 50.6025 19.326 50.3732 19.0972L41.7737 10.5H18.0892M5.83334 20.0083H50.75" stroke="#F8F8F8" stroke-linecap="round" stroke-linejoin="round"/>
<path d="M27.7667 45.5L16.3333 19.8333L18.6667 15.1667L28 10.85M16.6203 13.2848L18.6667 15.1667M28.2333 45.5L39.6667 19.8333L37.3333 15.1667L28 10.85M41.776 11.0833L37.3345 15.1667M13.9883 5.18701L15.3358 9.33334H19.6957L16.1677 11.8965L17.5152 16.044L13.9872 13.4808L10.4592 16.044L11.8067 11.8965L8.28101 9.33334H12.6408L13.9883 5.18701ZM40.6525 36.1037L42 40.25H46.3598L42.833 42.8132L44.1805 46.9595L40.6525 44.3963L37.1245 46.9595L38.472 42.8132L34.9452 40.25H39.305L40.6525 36.1037Z" stroke="#F8F8F8" stroke-linecap="round" stroke-linejoin="round"/>
</svg>
