<svg width="31" height="32" viewBox="0 0 31 32" fill="none" xmlns="http://www.w3.org/2000/svg">
<path d="M31 14.3929V29.4034C30.9989 29.8719 30.8724 30.3316 30.6337 30.7341C30.3951 31.1367 30.0532 31.4673 29.6438 31.6914C29.2683 31.8995 28.8454 32.0058 28.4167 31.9998H20.6667C20.3241 31.9998 19.9956 31.863 19.7533 31.6195C19.5111 31.3761 19.375 31.0459 19.375 30.7016V22.9124C19.375 22.5681 19.2389 22.2379 18.9967 21.9944C18.7545 21.7509 18.4259 21.6142 18.0833 21.6142H12.9167C12.5741 21.6142 12.2456 21.7509 12.0033 21.9944C11.7611 22.2379 11.625 22.5681 11.625 22.9124V30.7016C11.625 31.0459 11.4889 31.3761 11.2467 31.6195C11.0045 31.863 10.6759 31.9998 10.3334 31.9998H2.58336C2.21689 32.0012 1.85438 31.9237 1.52018 31.7725C1.18599 31.6214 0.887871 31.4001 0.645865 31.1235C0.225905 30.6248 -0.00311781 29.9918 3.20635e-05 29.3385V14.3929C0.000145966 14.0327 0.0748496 13.6764 0.219392 13.3468C0.363935 13.0171 0.575153 12.7213 0.839615 12.4781L13.7563 0.680729C14.2325 0.242845 14.8546 0 15.5 0C16.1455 0 16.7675 0.242845 17.2438 0.680729L30.1604 12.4781C30.4249 12.7213 30.6361 13.0171 30.7806 13.3468C30.9252 13.6764 30.9999 14.0327 31 14.3929Z" fill="#FF0617"/>
</svg>
