<svg width="52" height="52" viewBox="0 0 52 52" fill="none" xmlns="http://www.w3.org/2000/svg">
<path d="M33.5833 15.1667H18.4167C10.6387 15.1667 4.33334 21.472 4.33334 29.25C4.33334 37.028 10.6387 43.3333 18.4167 43.3333H33.5833C41.3614 43.3333 47.6667 37.028 47.6667 29.25C47.6667 21.472 41.3614 15.1667 33.5833 15.1667Z" stroke="#F8F8F8" stroke-width="4"/>
<path d="M26 43.3333C30.7865 43.3333 34.6667 37.028 34.6667 29.25C34.6667 21.472 30.7865 15.1667 26 15.1667C21.2135 15.1667 17.3333 21.472 17.3333 29.25C17.3333 37.028 21.2135 43.3333 26 43.3333Z" stroke="#F8F8F8" stroke-width="4"/>
<path d="M32.5 6.5H29.25C28.388 6.5 27.5614 6.84241 26.9519 7.4519C26.3424 8.0614 26 8.88805 26 9.75V15.1667" stroke="#F8F8F8" stroke-width="4" stroke-linecap="round" stroke-linejoin="round"/>
</svg>
