<svg width="45" height="44" xmlns="http://www.w3.org/2000/svg" xmlns:xlink="http://www.w3.org/1999/xlink">
  
 <g id="icon" width="45" height="44" viewBox="0 0 45 44" fill="none">
    <path d="M33.2888 25.6667C33.8427 25.6667 34.3912 25.7734 34.9029 25.9807C35.4147 26.188 35.8796 26.4919 36.2712 26.875C36.6628 27.258 36.9734 27.7128 37.1852 28.2132C37.397 28.7137 37.5059 29.2501 37.5056 29.7917V31.4747C37.5051 32.5254 37.1688 33.5496 36.5438 34.4043C33.6469 38.3717 28.9125 40.3352 22.5 40.3352C16.0856 40.3352 11.355 38.3698 8.46376 34.4025C7.84149 33.5482 7.50722 32.5254 7.50751 31.4765V29.7898C7.50751 28.6969 7.95127 27.6488 8.74128 26.8756C9.53128 26.1025 10.6029 25.6676 11.7206 25.6667H33.2869H33.2888ZM22.5 3.67584C23.7311 3.67584 24.9502 3.91294 26.0877 4.37361C27.2251 4.83428 28.2586 5.50949 29.1291 6.3607C29.9997 7.2119 30.6902 8.22243 31.1614 9.33458C31.6325 10.4467 31.875 11.6387 31.875 12.8425C31.875 14.0463 31.6325 15.2383 31.1614 16.3504C30.6902 17.4626 29.9997 18.4731 29.1291 19.3243C28.2586 20.1755 27.2251 20.8507 26.0877 21.3114C24.9502 21.7721 23.7311 22.0092 22.5 22.0092C20.0136 22.0092 17.629 21.0434 15.8709 19.3243C14.1127 17.6052 13.125 15.2737 13.125 12.8425C13.125 10.4114 14.1127 8.07978 15.8709 6.3607C17.629 4.64161 20.0136 3.67584 22.5 3.67584Z" fill="#ffffff"/>
  </g>

  
</svg>