<svg width="25" height="26" viewBox="0 0 25 26" fill="none" xmlns="http://www.w3.org/2000/svg">
<path d="M23.8192 13.6647C24.3278 12.9715 24.6094 12.1222 24.6094 11.2386C24.6094 9.83655 23.8495 8.5095 22.6265 7.76947C22.3116 7.57898 21.9531 7.47873 21.5881 7.47908H14.3285L14.5102 3.64154C14.5525 2.71416 14.2347 1.83362 13.6171 1.16228C13.314 0.831385 12.9484 0.568112 12.5427 0.388732C12.1371 0.209352 11.7001 0.117676 11.2588 0.11937C9.68457 0.11937 8.29199 1.21224 7.87422 2.77661L5.27373 12.4875H1.35938C0.823535 12.4875 0.390625 12.9341 0.390625 13.4867V24.8526C0.390625 25.4053 0.823535 25.8518 1.35938 25.8518H19.5628C19.8413 25.8518 20.1138 25.7956 20.365 25.6832C21.8061 25.0493 22.7354 23.5974 22.7354 21.9862C22.7354 21.5927 22.681 21.2055 22.572 20.8308C23.0806 20.1376 23.3621 19.2883 23.3621 18.4047C23.3621 18.0112 23.3076 17.624 23.1986 17.2493C23.7072 16.5561 23.9888 15.7068 23.9888 14.8232C23.9827 14.4297 23.9282 14.0394 23.8192 13.6647V13.6647ZM2.57031 23.6036V14.7357H5.02246V23.6036H2.57031ZM21.8363 12.5812L21.1733 13.1745L21.5941 13.9676C21.7328 14.2289 21.8047 14.5222 21.803 14.82C21.803 15.3353 21.5851 15.8255 21.2097 16.1627L20.5467 16.756L20.9675 17.5491C21.1061 17.8104 21.178 18.1037 21.1764 18.4015C21.1764 18.9168 20.9584 19.407 20.583 19.7442L19.92 20.3375L20.3408 21.1306C20.4795 21.3919 20.5513 21.6852 20.5497 21.983C20.5497 22.6825 20.1501 23.3132 19.5325 23.6005H6.95996V14.6358L9.97217 3.37925C10.0498 3.09073 10.2166 2.83619 10.4471 2.65419C10.6776 2.4722 10.9594 2.37267 11.2497 2.37068C11.4798 2.37068 11.7068 2.43938 11.8885 2.57989C12.1882 2.81095 12.3486 3.16067 12.3305 3.53225L12.0398 9.72727H21.5578C22.0967 10.0676 22.4297 10.6422 22.4297 11.2386C22.4297 11.7538 22.2117 12.2409 21.8363 12.5812Z" fill="#F23054"/>
</svg>
