<svg width="17" height="17" viewBox="0 0 17 17" fill="none" xmlns="http://www.w3.org/2000/svg">
<path d="M15.5446 9.10459C15.8793 8.67744 16.0645 8.15408 16.0645 7.60956C16.0645 6.74565 15.5645 5.9279 14.7598 5.47189C14.5526 5.35451 14.3167 5.29274 14.0766 5.29295H9.2999L9.41942 2.92824C9.4473 2.35678 9.23815 1.81419 8.83179 1.40051C8.63237 1.19661 8.39178 1.03437 8.12489 0.92384C7.85799 0.813305 7.57047 0.756814 7.28008 0.757857C6.24427 0.757857 5.32798 1.43129 5.05309 2.39526L3.34202 8.3792H0.766448C0.413875 8.3792 0.129028 8.65435 0.129028 8.99491V15.9986C0.129028 16.3392 0.413875 16.6143 0.766448 16.6143H12.744C12.9272 16.6143 13.1065 16.5797 13.2718 16.5104C14.22 16.1198 14.8315 15.2251 14.8315 14.2323C14.8315 13.9899 14.7956 13.7513 14.7239 13.5204C15.0586 13.0932 15.2438 12.5699 15.2438 12.0254C15.2438 11.7829 15.208 11.5443 15.1363 11.3134C15.4709 10.8863 15.6562 10.3629 15.6562 9.81843C15.6522 9.57599 15.6163 9.33548 15.5446 9.10459ZM1.56322 15.229V9.76455H3.17669V15.229H1.56322ZM14.2399 8.43693L13.8037 8.8025L14.0805 9.29123C14.1718 9.45222 14.2191 9.63298 14.218 9.8165C14.218 10.134 14.0746 10.4361 13.8276 10.6439L13.3913 11.0094L13.6682 11.4982C13.7594 11.6592 13.8067 11.8399 13.8057 12.0234C13.8057 12.3409 13.6622 12.643 13.4152 12.8508L12.979 13.2164L13.2559 13.7051C13.3471 13.8661 13.3944 14.0469 13.3933 14.2304C13.3933 14.6614 13.1304 15.05 12.724 15.2271H4.45153V9.70298L6.4335 2.76661C6.48461 2.58883 6.59432 2.43198 6.74601 2.31983C6.89769 2.20768 7.08309 2.14635 7.2741 2.14513C7.42549 2.14513 7.57488 2.18746 7.6944 2.27405C7.8916 2.41643 7.99717 2.63193 7.98522 2.86089L7.794 6.6783H14.0566C14.4112 6.88803 14.6303 7.24206 14.6303 7.60956C14.6303 7.92704 14.4869 8.2272 14.2399 8.43693Z" fill="#F23054"/>
</svg>
