<svg width="98" height="98" viewBox="0 0 98 98" fill="none" xmlns="http://www.w3.org/2000/svg">
<path d="M20.1268 87.7304L43.9979 63.8592C45.7345 64.3247 47.576 64.2041 49.2371 63.5162C50.8981 62.8283 52.2857 61.6116 53.1847 60.0547C54.0836 58.4977 54.4437 56.6877 54.2091 54.9052C53.9745 53.1228 53.1583 51.4676 51.887 50.1963C50.6158 48.9251 48.9605 48.1088 47.1781 47.8742C45.3956 47.6396 43.5856 47.9997 42.0287 48.8987C40.4717 49.7976 39.255 51.1852 38.5671 52.8463C37.8792 54.5073 37.7586 56.3489 38.2241 58.0854L14.3529 81.9566L10.0246 77.6282C21.5682 64.1532 25.9006 49.2327 31.6744 24.2101L57.6608 21.3231L80.7602 44.4226L77.8733 70.4089C52.8506 76.1827 37.9301 80.5151 24.4592 92.0628L20.1268 87.7345V87.7304ZM67.767 8.32997L93.6839 34.2428C93.951 34.5094 94.1389 34.8448 94.2269 35.2118C94.3148 35.5788 94.2994 35.9629 94.1822 36.3216C94.065 36.6803 93.8507 36.9996 93.5631 37.2438C93.2755 37.4881 92.9258 37.6479 92.5528 37.7055L86.534 38.6446L63.4387 15.5493L64.3043 9.48556C64.3582 9.11059 64.5152 8.75798 64.758 8.46719C65.0008 8.17639 65.3197 7.95887 65.679 7.83895C66.0383 7.71903 66.4239 7.70145 66.7927 7.78816C67.1614 7.87488 67.4988 8.06248 67.767 8.32997Z" fill="#F8F8F8"/>
</svg>
