<svg width="30" height="30" viewBox="0 0 30 30" fill="none" xmlns="http://www.w3.org/2000/svg">
<path d="M18.125 2.50001C18.8537 2.49992 19.5689 2.69582 20.1959 3.06717C20.8228 3.43853 21.3383 3.97167 21.6884 4.61073C22.0385 5.2498 22.2102 5.97125 22.1857 6.69951C22.1611 7.42776 21.9411 8.136 21.5487 8.75001H24.6875C25.55 8.75001 26.25 9.45001 26.25 10.3125V14.6875C26.2501 15.0477 26.1257 15.3969 25.8979 15.6759C25.6701 15.955 25.3529 16.1467 25 16.2188V23.4375C25.0001 24.4752 24.6031 25.4735 23.8904 26.2278C23.1778 26.982 22.2035 27.435 21.1675 27.4938L20.9375 27.5H9.0625C8.02483 27.5001 7.02646 27.1031 6.27221 26.3904C5.51796 25.6778 5.065 24.7035 5.00625 23.6675L5 23.4375V16.2188C4.2875 16.0738 3.75 15.4438 3.75 14.6875V10.3125C3.75 9.45001 4.45 8.75001 5.3125 8.75001H8.45125C7.89053 7.87883 7.68383 6.82633 7.87344 5.8078C8.06305 4.78926 8.63464 3.88165 9.47129 3.27061C10.3079 2.65956 11.3464 2.39125 12.3744 2.52057C13.4023 2.64988 14.342 3.16703 15.0013 3.96626C15.3818 3.50689 15.8592 3.13726 16.3991 2.88379C16.9391 2.63033 17.5285 2.49927 18.125 2.50001ZM14.0625 16.2488H6.875V23.4375C6.87502 23.9865 7.08146 24.5154 7.45335 24.9192C7.82524 25.3231 8.33537 25.5723 8.8825 25.6175L9.0625 25.625H14.0625V16.2488ZM23.125 16.2488H15.9375V25.625H20.9375C21.4867 25.625 22.0158 25.4183 22.4196 25.0462C22.8235 24.6741 23.0726 24.1636 23.1175 23.6163L23.125 23.4375V16.2488ZM14.0625 10.625H5.625V14.375L14.0625 14.3738V10.625ZM24.375 14.375V10.625H15.9375V14.3738L24.375 14.375ZM18.125 4.37501C17.5448 4.37501 16.9884 4.60548 16.5782 5.01571C16.168 5.42595 15.9375 5.98235 15.9375 6.56251V8.74876H18.155L18.305 8.74251C18.8675 8.69581 19.3901 8.43353 19.7637 8.01048C20.1373 7.58742 20.3329 7.03635 20.3097 6.47243C20.2864 5.90851 20.0461 5.3754 19.639 4.98453C19.2319 4.59365 18.6894 4.37526 18.125 4.37501ZM11.875 4.37501C11.3106 4.37526 10.7681 4.59365 10.361 4.98453C9.95388 5.3754 9.71358 5.90851 9.69034 6.47243C9.6671 7.03635 9.86272 7.58742 10.2363 8.01048C10.6099 8.43353 11.1325 8.69581 11.695 8.74251L11.845 8.74876H14.0625V6.56251L14.055 6.38251C14.0098 5.83538 13.7606 5.32524 13.3567 4.95336C12.9529 4.58147 12.424 4.37503 11.875 4.37501Z" fill="#F8F8F8"/>
</svg>
