<svg width="56" height="56" viewBox="0 0 56 56" fill="none" xmlns="http://www.w3.org/2000/svg">
<g clip-path="url(#clip0_11_29)">
<path d="M35.8447 25.3353L25.0413 36.1387L19.9453 31.0438" stroke="#F8F8F8" stroke-linecap="round" stroke-linejoin="round"/>
<path d="M28.0653 49.469C38.5138 49.469 46.984 40.9988 46.984 30.5503C46.984 20.1018 38.5138 11.6317 28.0653 11.6317C17.6168 11.6317 9.14667 20.1018 9.14667 30.5503C9.14667 40.9988 17.6168 49.469 28.0653 49.469Z" stroke="#F8F8F8" stroke-linecap="round" stroke-linejoin="round"/>
<path d="M28.2135 45.0847C36.2676 45.0847 42.7968 38.5555 42.7968 30.5014C42.7968 22.4472 36.2676 15.918 28.2135 15.918C20.1593 15.918 13.6302 22.4472 13.6302 30.5014C13.6302 38.5555 20.1593 45.0847 28.2135 45.0847Z" stroke="#F8F8F8" stroke-linecap="round" stroke-linejoin="round"/>
<path d="M46.2268 18.0693L49.1773 14.7443L39.4485 6.53101L36.5855 9.93067L46.2268 18.0693ZM9.77316 18.0693L6.82266 14.7443L16.5503 6.53101L19.4145 9.93067L9.77316 18.0693Z" stroke="#F8F8F8" stroke-linecap="round" stroke-linejoin="round"/>
</g>
<defs>
<clipPath id="clip0_11_29">
<rect width="56" height="56" fill="white"/>
</clipPath>
</defs>
</svg>
