<svg width="56" height="56" viewBox="0 0 56 56" fill="none" xmlns="http://www.w3.org/2000/svg">
<path fill-rule="evenodd" clip-rule="evenodd" d="M28 41.144L37.4613 46.0427C37.8347 46.2358 38.2484 46.3379 38.6687 46.3407C39.0891 46.3435 39.5041 46.2469 39.88 46.0587L47.8587 42.0694C48.3016 41.8481 48.6741 41.5078 48.9345 41.0868C49.195 40.6657 49.3331 40.1805 49.3333 39.6854V32.3147C49.3331 31.8196 49.195 31.3344 48.9345 30.9133C48.6741 30.4922 48.3016 30.152 47.8587 29.9307L38.6667 25.3334L29.44 30.112C29.006 30.3369 28.6422 30.6767 28.3882 31.0943C28.1343 31.5119 28 31.9913 28 32.48V41.144Z" stroke="#F8F8F8" stroke-linecap="round" stroke-linejoin="round"/>
<path fill-rule="evenodd" clip-rule="evenodd" d="M8.10666 41.888L16.128 46.0427C16.5014 46.2358 16.9151 46.3379 17.3354 46.3407C17.7557 46.3435 18.1708 46.2468 18.5467 46.0587L28 41.3333V32.3147C27.9997 31.8196 27.8616 31.3343 27.6012 30.9133C27.3407 30.4922 26.9682 30.152 26.5253 29.9307L17.3333 25.3333L8.10666 30.112C7.67267 30.3368 7.30882 30.6766 7.05487 31.0943C6.80091 31.5119 6.66662 31.9912 6.66666 32.48V39.52C6.66662 40.0088 6.80091 40.4882 7.05487 40.9058C7.30882 41.3234 7.67267 41.6632 8.10666 41.888V41.888ZM17.3333 25.144L26.7947 30.0427C27.168 30.2358 27.5817 30.3379 28.0021 30.3407C28.4224 30.3435 28.8374 30.2468 29.2133 30.0587L38.6667 25.3333V16.3147C38.6664 15.8196 38.5283 15.3343 38.2679 14.9133C38.0074 14.4922 37.6349 14.152 37.192 13.9307L29.2133 9.94135C28.8374 9.7532 28.4224 9.65658 28.0021 9.65936C27.5817 9.66214 27.168 9.76425 26.7947 9.95735L18.7733 14.112C18.3393 14.3369 17.9755 14.6766 17.7215 15.0943C17.4676 15.5119 17.3333 15.9912 17.3333 16.48V25.144Z" stroke="#F8F8F8" stroke-linecap="round" stroke-linejoin="round"/>
<path d="M18.256 15.128L26.808 19.4027C27.1781 19.5876 27.5862 19.6839 28 19.6839C28.4138 19.6839 28.8219 19.5876 29.192 19.4027L37.6533 15.1733M28.9227 31.128L37.4747 35.4027C37.8448 35.5876 38.2529 35.6839 38.6667 35.6839C39.0804 35.6839 39.4885 35.5876 39.8587 35.4027L48.3173 31.1733M7.58932 31.128L16.1413 35.4027C16.5115 35.5876 16.9196 35.6839 17.3333 35.6839C17.7471 35.6839 18.1552 35.5876 18.5253 35.4027L26.984 31.1733M28 20V30.6667M38.6667 36V45.3333M17.3333 36V45.3333" stroke="#F8F8F8" stroke-linecap="round" stroke-linejoin="round"/>
</svg>
