  <svg width="24" height="24" viewBox="0 0 24 24" fill="none" xmlns="http://www.w3.org/2000/svg">
    <path fill-rule="evenodd" clip-rule="evenodd" d="M18.4833 19.7902L18.484 19.7885L18.5014 19.745L21.5002 4.62592V4.57682C21.5002 4.20012 21.361 3.87126 21.0581 3.674C20.793 3.50133 20.4882 3.48904 20.2745 3.50526C20.0485 3.52241 19.8354 3.57883 19.6879 3.62579C19.612 3.64995 19.5484 3.67323 19.503 3.69083C19.4802 3.69967 19.4617 3.70717 19.4483 3.71276L19.4351 3.71831L2.71526 10.2772L2.71066 10.2789C2.70163 10.2822 2.68969 10.2866 2.67526 10.2923C2.64651 10.3034 2.60737 10.3195 2.56139 10.3403C2.47111 10.3812 2.34637 10.4444 2.21987 10.531C2.00502 10.6781 1.5959 11.0264 1.66499 11.5787C1.72221 12.0361 2.03751 12.3266 2.25008 12.477C2.36403 12.5576 2.47304 12.6157 2.55287 12.6538C2.59332 12.673 2.62767 12.6878 2.65326 12.6982C2.66609 12.7034 2.67682 12.7076 2.68512 12.7107L2.69574 12.7147L2.70253 12.7172L5.62777 13.702C5.6179 13.8856 5.6361 14.0727 5.68478 14.2573L7.15006 19.8157C7.3238 20.4748 7.92002 20.9339 8.60159 20.9334C9.21252 20.9329 9.75435 20.5633 9.98454 20.0119L12.2722 17.5658L16.2012 20.5781L16.2571 20.6025C16.614 20.7582 16.9475 20.8076 17.2525 20.7659C17.557 20.7243 17.7989 20.5966 17.9807 20.4512C18.1595 20.3081 18.2821 20.1466 18.3592 20.025C18.3984 19.9633 18.4276 19.909 18.4478 19.8681C18.458 19.8476 18.466 19.8302 18.472 19.8167L18.4796 19.7993L18.4822 19.7928L18.4833 19.7902ZM7.13518 13.875C7.10187 13.7486 7.15416 13.6153 7.26444 13.5452L17.1865 7.24432C17.1865 7.24432 17.77 6.89002 17.7492 7.24432C17.7492 7.24432 17.8533 7.30689 17.5406 7.59861C17.244 7.87569 10.4689 14.4167 9.7834 15.0786C9.74383 15.1168 9.72021 15.1607 9.70627 15.2139L8.60046 19.4334L7.13518 13.875Z" fill="#ffffff"/>
  </svg>