<svg width="19" height="19" viewBox="0 0 19 19" fill="none" xmlns="http://www.w3.org/2000/svg">
<path d="M15.8887 4.83708C15.0272 3.64751 13.8472 2.72545 12.4846 2.17708C11.2833 1.68812 9.98027 1.50179 8.6901 1.63447C7.39993 1.76715 6.16211 2.21478 5.0855 2.938C4.00888 3.66121 3.12644 4.63787 2.51576 5.78208C1.90509 6.9263 1.58489 8.20302 1.58331 9.5C1.58331 9.65042 1.58331 9.80083 1.58331 9.94333C1.6524 11.1816 2.01318 12.386 2.63623 13.4583C3.65372 15.2442 5.3259 16.5643 7.29915 17.1396C8.01634 17.3336 8.75706 17.4269 9.49998 17.4167C9.9996 17.419 10.4982 17.3712 10.9883 17.2742C12.6054 16.9611 14.0846 16.1515 15.2198 14.9581C16.355 13.7647 17.0898 12.247 17.3216 10.6163C17.3811 10.2471 17.4129 9.87393 17.4166 9.5C17.4235 7.8216 16.8876 6.18595 15.8887 4.83708ZM14.3054 5.44667L13.4583 7.71083L12.1758 8.05917L10.2916 6.72125V5.25667L12.2629 3.82375C13.0628 4.20949 13.7702 4.76301 14.3371 5.44667H14.3054ZM11.0833 9.23875L10.4658 11.0833H8.52623L7.91665 9.23875L9.49998 8.10667L11.0833 9.23875ZM9.49998 3.16667C9.7942 3.16998 10.0878 3.19378 10.3787 3.23792L9.49998 3.87125L8.62123 3.23792C8.91214 3.19378 9.20576 3.16998 9.49998 3.16667ZM3.86331 6.62625L4.17998 7.67125L3.2854 8.29667C3.39778 7.71525 3.59237 7.1528 3.86331 6.62625ZM4.9479 13.8858L6.0404 13.9254L6.33331 14.9783C5.8246 14.6779 5.35862 14.3105 4.9479 13.8858ZM6.33331 12.35L3.83956 12.2629C3.52492 11.645 3.31619 10.9787 3.22206 10.2917L5.19331 8.91417L6.33331 9.405L7.0379 11.59L6.33331 12.35ZM7.01415 7.97208L5.77915 7.41792L5.05873 5.04292C5.54431 4.54698 6.10877 4.13501 6.72915 3.82375L8.70831 5.25667V6.72125L7.01415 7.97208ZM10.2916 15.7779C9.59709 15.8603 8.89373 15.8282 8.20956 15.6829L7.55248 13.3712L8.20956 12.6667H10.64L11.1704 13.4583L10.2916 15.7779ZM12.1996 15.2238L12.5637 14.25L13.6404 14.3054C13.1975 14.6784 12.7045 14.9875 12.1758 15.2238H12.1996ZM14.9387 12.7538L12.4766 12.6667L11.9146 11.7958L12.6191 9.61083L13.8146 9.28625L15.6829 10.8696C15.5323 11.5356 15.2729 12.1722 14.915 12.7538H14.9387ZM14.9783 8.13833L15.3583 7.125C15.5812 7.6631 15.7226 8.23143 15.7779 8.81125L14.9783 8.13833Z" fill="black"/>
</svg>
