<svg width="48" height="48" xmlns="http://www.w3.org/2000/svg" xmlns:xlink="http://www.w3.org/1999/xlink">
  <g id="profile" width="20" height="20">
    <path fill-rule="evenodd" clip-rule="evenodd" d="M10.0002 2.70866C8.38936 2.70866 7.08353 4.0145 7.08353 5.62533C7.08353 7.23616 8.38936 8.54199 10.0002 8.54199C11.611 8.54199 12.9169 7.23616 12.9169 5.62533C12.9169 4.0145 11.611 2.70866 10.0002 2.70866ZM5.41686 5.62533C5.41686 3.09402 7.46889 1.04199 10.0002 1.04199C12.5315 1.04199 14.5835 3.09402 14.5835 5.62533C14.5835 8.15663 12.5315 10.2087 10.0002 10.2087C7.46889 10.2087 5.41686 8.15663 5.41686 5.62533Z"/>
    <path fill-rule="evenodd" clip-rule="evenodd" d="M5.08691 12.7087C4.50914 12.7087 4.05755 12.99 3.87424 13.3942C3.62053 13.9536 3.39078 14.6196 3.33656 15.2513C3.31233 15.5337 3.43006 15.7418 3.5923 15.8426C4.44993 16.3753 6.43719 17.292 10.0002 17.292C13.5632 17.292 15.5505 16.3753 16.4081 15.8426C16.5703 15.7418 16.6881 15.5337 16.6638 15.2513C16.6096 14.6196 16.3799 13.9536 16.1261 13.3942C15.9428 12.99 15.4912 12.7087 14.9135 12.7087H5.08691ZM2.35639 12.7058C2.86301 11.5887 3.99428 11.042 5.08691 11.042H14.9135C16.0061 11.042 17.1374 11.5887 17.644 12.7058C17.935 13.3474 18.2472 14.2099 18.3244 15.1088C18.3946 15.9273 18.0544 16.7819 17.2876 17.2583C16.1596 17.959 13.8665 18.9587 10.0002 18.9587C6.13386 18.9587 3.84078 17.959 2.71283 17.2583C1.94595 16.7819 1.60575 15.9273 1.676 15.1088C1.75315 14.2099 2.0654 13.3474 2.35639 12.7058Z"/>
  </g>
  <g id="games" width="48" height="48" fill="none">
    <path d="M33.2982 37.0005C32.9796 36.6697 32.3918 36.5748 31.9597 36.9883C31.9567 36.9912 31.9536 36.9942 31.9505 36.9972C31.5241 37.4165 31.6012 38.007 31.9221 38.3354C32.0925 38.51 32.3384 38.6175 32.596 38.6175C32.8233 38.6175 33.0595 38.5338 33.2607 38.3385C33.69 37.9222 33.617 37.3311 33.2982 37.0005Z" fill="#FF3F3A"/>
    <path d="M41.7867 18.9529C41.6067 18.4673 41.0676 18.2197 40.5821 18.3994C40.0966 18.5792 39.8488 19.1184 40.0286 19.6039C40.8379 21.7887 41.2481 24.0889 41.2481 26.4408C41.2481 37.295 32.4176 46.1255 21.5635 46.1255C17.5358 46.1255 13.664 44.9178 10.3664 42.633C9.94105 42.3381 9.35689 42.444 9.06205 42.8696C8.76711 43.2951 8.87305 43.8791 9.29868 44.1739C12.9114 46.6771 17.1525 48.0002 21.5636 48.0002C27.3224 48.0002 32.7363 45.7576 36.8084 41.6855C40.8805 37.6135 43.123 32.1994 43.123 26.4408C43.1229 23.866 42.6732 21.3467 41.7867 18.9529Z" fill="#FF3F3A"/>
    <path d="M28.8232 6.13401C26.4975 5.30245 24.055 4.88086 21.5634 4.88086C15.8046 4.88086 10.3906 7.12345 6.31852 11.1954C2.2465 15.2676 0.00390625 20.6816 0.00390625 26.4403C0.00390625 30.9061 1.35728 35.1906 3.91796 38.8308C4.1004 39.0903 4.39055 39.2289 4.68549 39.2289C4.87177 39.2289 5.05993 39.1735 5.2239 39.0581C5.64736 38.7602 5.74918 38.1755 5.45133 37.7521C3.11406 34.4294 1.87862 30.5179 1.87862 26.4402C1.87862 15.5861 10.7092 6.75557 21.5633 6.75557C23.8393 6.75557 26.0694 7.14032 28.1919 7.89923C28.6793 8.0736 29.2159 7.81973 29.3901 7.33223C29.5644 6.84482 29.3106 6.30839 28.8232 6.13401Z" fill="#FF3F3A"/>
    <path d="M47.9251 7.77379C47.78 7.42344 47.4383 7.19516 47.059 7.19516H42.1337L42.6634 6.66548C43.0294 6.29948 43.0294 5.70585 42.6634 5.33976C42.2973 4.97376 41.7039 4.97376 41.3377 5.33976L40.8012 5.8762V0.937456C40.8012 0.558426 40.5728 0.21652 40.2226 0.0713954C39.8723 -0.0737293 39.4691 0.0065205 39.2011 0.274551L30.9376 8.53804C30.7619 8.71382 30.663 8.95222 30.663 9.20085V12.4526C27.9592 10.6839 24.8421 9.75538 21.5626 9.75538C12.3624 9.75538 4.87744 17.2404 4.87744 26.4405C4.87744 35.6406 12.3624 43.1256 21.5626 43.1256C24.6162 43.1256 27.6036 42.2928 30.2019 40.7175C30.6446 40.4491 30.7858 39.8726 30.5175 39.4299C30.2491 38.9873 29.6727 38.8459 29.23 39.1144C26.9248 40.5121 24.2734 41.2508 21.5626 41.2508C13.3961 41.2508 6.75216 34.607 6.75216 26.4404C6.75216 18.2739 13.3961 11.63 21.5626 11.63C24.8972 11.63 28.0424 12.7108 30.663 14.7556V16.0142L28.9548 17.7224C26.9599 16.0283 24.3788 15.0044 21.5626 15.0044C15.2568 15.0044 10.1267 20.1345 10.1267 26.4403C10.1267 32.7461 15.2568 37.8762 21.5626 37.8762C27.8684 37.8762 32.9984 32.7461 32.9984 26.4403C32.9984 23.6242 31.9747 21.043 30.2805 19.048L31.9954 17.3331H33.2425C35.2633 19.9229 36.3729 23.1446 36.3729 26.4403C36.3729 29.2038 35.607 31.8992 34.1582 34.235C33.8853 34.6748 34.0208 35.2527 34.4609 35.5256C34.6147 35.621 34.7853 35.6665 34.954 35.6665C35.2677 35.6665 35.574 35.5091 35.7515 35.2232C37.3846 32.5904 38.2477 29.5534 38.2477 26.4403C38.2477 23.2025 37.2966 20.0278 35.5431 17.3331H38.7954C39.044 17.3331 39.2823 17.2343 39.4582 17.0585L47.7217 8.795C47.99 8.52725 48.0701 8.12404 47.9251 7.77379ZM31.1239 26.4405C31.1239 31.7125 26.8348 36.0017 21.5628 36.0017C16.2907 36.0017 12.0016 31.7125 12.0016 26.4405C12.0016 21.1685 16.2907 16.8793 21.5628 16.8793C23.862 16.8793 25.974 17.6952 27.6251 19.0525L25.4902 21.1874C24.3946 20.3661 23.0345 19.879 21.5628 19.879C17.9448 19.879 15.0013 22.8225 15.0013 26.4405C15.0013 30.0586 17.9449 33.0021 21.5628 33.0021C25.1809 33.0021 28.1244 30.0585 28.1244 26.4405C28.1244 24.9688 27.6373 23.6088 26.8159 22.513L28.9508 20.3782C30.308 22.0293 31.1239 24.1413 31.1239 26.4405ZM20.8999 27.1034C21.083 27.2865 21.3228 27.378 21.5628 27.378C21.8027 27.378 22.0425 27.2865 22.2256 27.1034L25.4711 23.8579C25.9624 24.599 26.2496 25.4867 26.2496 26.4405C26.2496 29.0248 24.1471 31.1273 21.5628 31.1273C18.9784 31.1273 16.8759 29.0248 16.8759 26.4405C16.8759 23.8562 18.9784 21.7537 21.5628 21.7537C22.5167 21.7537 23.4043 22.0408 24.1455 22.5322L20.8999 25.7777C20.5339 26.1437 20.5339 26.7372 20.8999 27.1034ZM32.538 14.1396V9.58916L38.9266 3.20048V7.75091L32.538 14.1396ZM38.4073 15.4586H33.8704L40.2591 9.06988H44.796L38.4073 15.4586Z" fill="#FF3F3A"/>
    <path d="M7.62444 40.3401C7.45016 40.1658 7.20838 40.0654 6.96182 40.0654C6.71423 40.0654 6.47244 40.1657 6.2991 40.3401C6.12379 40.5145 6.02441 40.7563 6.02441 41.0028C6.02441 41.2494 6.12379 41.4912 6.2991 41.6656C6.47338 41.8399 6.71432 41.9402 6.96182 41.9402C7.20838 41.9402 7.45016 41.8399 7.62444 41.6656C7.79882 41.4912 7.89922 41.2494 7.89922 41.0028C7.89922 40.7563 7.79891 40.5154 7.62444 40.3401Z" fill="#FF3F3A"/>
  </g>
  <g id="benefits" width="48" height="48" fill="none">
    <g clip-path="url(#clip0_20531_385)">
    <path d="M32.802 23.6183C32.6278 23.444 32.386 23.3438 32.1397 23.3438C31.8933 23.3438 31.6515 23.4439 31.4772 23.6183C31.303 23.7927 31.2026 24.0344 31.2026 24.2808C31.2026 24.5272 31.3028 24.7689 31.4772 24.9431C31.6515 25.1174 31.8933 25.2178 32.1397 25.2178C32.386 25.2178 32.6269 25.1176 32.802 24.9431C32.9763 24.7689 33.0767 24.5272 33.0767 24.2808C33.0767 24.0344 32.9764 23.7926 32.802 23.6183Z" fill="#FF3F3A"/>
    <path d="M38.9807 2.54199H8.9955C8.47809 2.54199 8.05847 2.96162 8.05847 3.47902V18.4716C8.05847 18.989 8.47809 19.4086 8.9955 19.4086H23.0511V23.3442H7.04353C6.52612 23.3442 6.1065 23.7638 6.1065 24.2812V31.5901H0.937031C0.419625 31.5901 0 32.0097 0 32.5271V44.5212C0 45.0386 0.419625 45.4582 0.937031 45.4582H12.9311C13.4485 45.4582 13.8682 45.0386 13.8682 44.5212V32.5271C13.8682 32.0097 13.4485 31.5901 12.9311 31.5901H7.98056V25.2182H23.0511V31.5901H18.003C17.4856 31.5901 17.066 32.0097 17.066 32.5271V44.5212C17.066 45.0386 17.4856 45.4582 18.003 45.4582H29.9971C30.5145 45.4582 30.9341 45.0386 30.9341 44.5212V32.5271C30.9341 32.0096 30.5145 31.5901 29.9971 31.5901H24.9252V25.2182H28.6733C29.1908 25.2182 29.6104 24.7986 29.6104 24.2812C29.6104 23.7638 29.1908 23.3442 28.6733 23.3442H24.9252V19.4086H38.9808C39.4982 19.4086 39.9178 18.989 39.9178 18.4716V3.47902C39.9177 2.96152 39.4981 2.54199 38.9807 2.54199ZM11.9941 33.4641V43.5841H1.87406V33.4641H11.9941ZM29.06 33.4641V43.5841H18.94V33.4641H29.06ZM38.0437 17.5345H9.93253V8.16418H16.2803C16.7978 8.16418 17.2174 7.74455 17.2174 7.22715C17.2174 6.70974 16.7978 6.29012 16.2803 6.29012H9.93253V4.41605H38.0436V17.5345H38.0437Z" fill="#FF3F3A"/>
    <path d="M47.0634 31.5896H41.8702V24.2808C41.8702 23.7634 41.4505 23.3438 40.9331 23.3438H35.7952C35.2778 23.3438 34.8581 23.7634 34.8581 24.2808C34.8581 24.7982 35.2778 25.2178 35.7952 25.2178H39.9961V31.5896H35.0694C34.5519 31.5896 34.1323 32.0092 34.1323 32.5267V44.5207C34.1323 45.0382 34.5519 45.4578 35.0694 45.4578H47.0634C47.5809 45.4578 48.0005 45.0382 48.0005 44.5207V32.5267C48.0005 32.0092 47.5809 31.5896 47.0634 31.5896ZM46.1264 43.5836H36.0064V33.4637H46.1264V43.5836Z" fill="#FF3F3A"/>
    <path d="M20.8847 6.56463C20.7103 6.39035 20.4686 6.29004 20.2223 6.29004C19.9749 6.29004 19.7341 6.39016 19.5588 6.56463C19.3846 6.73891 19.2852 6.98069 19.2852 7.22707C19.2852 7.47354 19.3845 7.71523 19.5588 7.88941C19.734 8.0637 19.9758 8.1641 20.2223 8.1641C20.4688 8.1641 20.7095 8.06388 20.8847 7.88941C21.059 7.71523 21.1593 7.47345 21.1593 7.22707C21.1593 6.98069 21.0592 6.73891 20.8847 6.56463Z" fill="#FF3F3A"/>
    </g>
    <defs>
    <clipPath id="clip0_20531_385">
    <rect width="48" height="48" fill="white"/>
    </clipPath>
    </defs>
  </g>
  <g id="about" width="48" height="48" fill="none">
    <path d="M45.3492 26.4414C47.0849 23.6908 47.9997 20.5243 47.9997 17.2499C47.9997 7.73831 40.2614 0 30.7498 0C27.5638 0 24.4509 0.875719 21.7479 2.53247C21.3065 2.80303 21.1679 3.38016 21.4386 3.82162C21.709 4.263 22.2862 4.40166 22.7277 4.131C25.1358 2.65509 27.9098 1.875 30.7499 1.875C39.2276 1.875 46.1248 8.77209 46.1248 17.2499C46.1248 20.3246 45.2204 23.2919 43.5092 25.8309C43.2822 26.1677 43.3016 26.6031 43.5352 26.9157L44.5625 30.7497L40.439 29.6448C40.1689 29.5724 39.8806 29.6242 39.6528 29.7864C37.043 31.6434 33.9644 32.6249 30.7499 32.6249C28.9187 32.6249 27.1276 32.305 25.4242 31.6757C24.225 27.2596 20.7406 23.7751 16.3245 22.576C15.6951 20.8726 15.375 19.0818 15.375 17.25C15.375 14.3784 16.1714 11.578 17.6782 9.1515C17.9513 8.71163 17.8161 8.13366 17.3762 7.86047C16.9365 7.58738 16.3583 7.72247 16.0852 8.16244C14.3938 10.8863 13.4999 14.0287 13.4999 17.25C13.4999 18.9363 13.742 20.5921 14.2192 22.1887C13.7974 22.1471 13.3699 22.1253 12.9374 22.1253C5.80369 22.1253 0 27.9291 0 35.0627C0 37.6229 0.74025 40.0806 2.14481 42.1991L1.1415 45.944C1.05478 46.2675 1.14731 46.6127 1.38412 46.8496C1.62094 47.0864 1.96603 47.1788 2.28966 47.0922L6.12731 46.0639C8.17106 47.3317 10.5163 48 12.9374 48C15.4016 48 17.7985 47.3044 19.869 45.9883C20.306 45.7105 20.435 45.1312 20.1573 44.6942C19.8795 44.2572 19.2999 44.1282 18.8632 44.4059C17.0937 45.5306 15.0448 46.125 12.9374 46.125C10.7437 46.125 8.62331 45.4839 6.80578 44.271C6.58144 44.1213 6.30347 44.0753 6.04275 44.1453L3.37275 44.8607L4.06781 42.2667C4.14028 41.9963 4.08806 41.7075 3.92541 41.4796C2.58394 39.5993 1.87491 37.3804 1.87491 35.0625C1.87491 28.9627 6.83756 24.0001 12.9373 24.0001C19.0371 24.0001 23.9998 28.9627 23.9998 35.0626C23.9998 36.3652 23.7758 37.6402 23.3341 38.852C23.1567 39.3383 23.4073 39.8765 23.8938 40.0538C24.3802 40.2311 24.9184 39.9806 25.0957 39.4942C25.6127 38.076 25.8748 36.585 25.8748 35.0626C25.8748 34.6301 25.8531 34.2027 25.8114 33.781C27.4082 34.2581 29.0642 34.4998 30.7499 34.4998C34.2069 34.4998 37.5243 33.4877 40.373 31.5682L45.6457 32.981C45.9694 33.0677 46.3144 32.9752 46.5513 32.7383C46.7881 32.5015 46.8806 32.1563 46.7939 31.8327L45.3492 26.4414Z" fill="#FF3F3A"/>
    <path d="M35.5824 19.2461H26.0337C25.5159 19.2461 25.0962 19.6658 25.0962 20.1836C25.0962 23.3331 27.6586 25.8955 30.8081 25.8955C33.9576 25.8955 36.52 23.3331 36.52 20.1836C36.5199 19.6658 36.1001 19.2461 35.5824 19.2461ZM30.8081 24.0204C29.0158 24.0204 27.5065 22.785 27.0871 21.121H34.5292C34.1096 22.785 32.6003 24.0204 30.8081 24.0204Z" fill="#FF3F3A"/>
    <path d="M38.1075 14.0455C37.8358 13.6046 37.2582 13.4675 36.8176 13.739L36.6953 13.8145C36.2549 14.0867 36.1184 14.6643 36.3906 15.1048C36.5679 15.3918 36.8749 15.5497 37.189 15.5497C37.3571 15.5497 37.5274 15.5045 37.6809 15.4096L37.801 15.3354C38.2418 15.0638 38.3791 14.4863 38.1075 14.0455Z" fill="#FF3F3A"/>
    <path d="M25.2266 14.0454C24.955 13.6046 24.3773 13.4675 23.9367 13.739L23.8145 13.8145C23.374 14.0867 23.2375 14.6644 23.5098 15.1048C23.6871 15.3918 23.994 15.5496 24.3082 15.5496C24.4763 15.5496 24.6465 15.5044 24.8001 15.4095L24.9202 15.3353C25.361 15.0637 25.4982 14.4862 25.2266 14.0454Z" fill="#FF3F3A"/>
    <path d="M8.44309 34.3997C8.26871 34.2253 8.02684 34.125 7.78027 34.125C7.53371 34.125 7.29193 34.2253 7.11746 34.3997C6.94309 34.5741 6.84277 34.8159 6.84277 35.0625C6.84277 35.3091 6.94309 35.5509 7.11746 35.7253C7.29184 35.8997 7.53371 36 7.78027 36C8.02684 36 8.26871 35.8997 8.44309 35.7253C8.61746 35.5509 8.71777 35.3091 8.71777 35.0625C8.71777 34.8159 8.61746 34.5741 8.44309 34.3997Z" fill="#FF3F3A"/>
    <path d="M13.5993 34.3997C13.425 34.2253 13.1831 34.125 12.9365 34.125C12.69 34.125 12.4482 34.2253 12.2737 34.3997C12.0993 34.5741 11.999 34.8159 11.999 35.0625C11.999 35.3091 12.0993 35.5509 12.2737 35.7253C12.4481 35.8997 12.69 36 12.9365 36C13.1831 36 13.425 35.8997 13.5993 35.7253C13.7737 35.5509 13.874 35.3091 13.874 35.0625C13.874 34.8159 13.7737 34.5741 13.5993 34.3997Z" fill="#FF3F3A"/>
    <path d="M18.7566 34.3997C18.5822 34.2253 18.3403 34.125 18.0938 34.125C17.8472 34.125 17.6054 34.2253 17.4309 34.3997C17.2566 34.5741 17.1562 34.8159 17.1562 35.0625C17.1562 35.3091 17.2566 35.5509 17.4309 35.7253C17.6053 35.8997 17.8472 36 18.0938 36C18.3403 36 18.5822 35.8997 18.7566 35.7253C18.9309 35.5509 19.0312 35.3091 19.0312 35.0625C19.0312 34.8159 18.9309 34.5741 18.7566 34.3997Z" fill="#FF3F3A"/>
    <path d="M22.9529 41.9182C22.7785 41.7439 22.5366 41.6436 22.29 41.6436C22.0425 41.6436 21.8016 41.7439 21.6272 41.9182C21.4529 42.0926 21.3525 42.3345 21.3525 42.5811C21.3525 42.8276 21.4529 43.0695 21.6272 43.2439C21.8016 43.4182 22.0425 43.5186 22.29 43.5186C22.5366 43.5186 22.7785 43.4182 22.9529 43.2439C23.1272 43.0695 23.2275 42.8276 23.2275 42.5811C23.2275 42.3345 23.1272 42.0926 22.9529 41.9182Z" fill="#FF3F3A"/>
    <path d="M19.9099 5.0218C19.7355 4.84742 19.4936 4.74805 19.2471 4.74805C18.9996 4.74805 18.7586 4.84742 18.5843 5.0218C18.4089 5.19711 18.3096 5.43805 18.3096 5.68555C18.3096 5.93211 18.4089 6.17398 18.5843 6.34836C18.7586 6.52273 18.9995 6.62211 19.2471 6.62211C19.4936 6.62211 19.7355 6.52273 19.9099 6.34836C20.0843 6.17398 20.1846 5.93211 20.1846 5.68555C20.1846 5.43805 20.0843 5.19711 19.9099 5.0218Z" fill="#FF3F3A"/>
  </g>

</svg>
