<svg width="31" height="26" viewBox="0 0 31 26" fill="none" xmlns="http://www.w3.org/2000/svg">
<path d="M9.6875 12.5662C10.4508 12.5662 11.2066 12.4158 11.9118 12.1237C12.6171 11.8316 13.2578 11.4035 13.7976 10.8637C14.3373 10.324 14.7654 9.68321 15.0575 8.97801C15.3497 8.2728 15.5 7.51697 15.5 6.75366C15.5 5.99035 15.3497 5.23452 15.0575 4.52931C14.7654 3.82411 14.3373 3.18334 13.7976 2.6436C13.2578 2.10386 12.6171 1.67572 11.9118 1.38361C11.2066 1.09151 10.4508 0.941162 9.6875 0.941162C8.14593 0.941162 6.6675 1.55355 5.57744 2.6436C4.48739 3.73366 3.875 5.21209 3.875 6.75366C3.875 8.29523 4.48739 9.77366 5.57744 10.8637C6.6675 11.9538 8.14593 12.5662 9.6875 12.5662ZM19.5042 22.4074C20.4897 22.7109 21.7181 22.8995 23.25 22.8995C31 22.8995 31 18.0557 31 18.0557C31 17.285 30.6938 16.5457 30.1488 16.0007C29.6038 15.4557 28.8645 15.1495 28.0938 15.1495H19.4964C20.2471 15.9306 20.6657 16.9724 20.6641 18.0557V18.7726L20.6602 18.8798C20.6328 19.3112 20.5662 19.7392 20.4613 20.1586C20.2618 20.953 19.9393 21.7113 19.5055 22.4061L19.5042 22.4074ZM27.7708 8.04533C27.7708 8.63901 27.6539 9.22688 27.4267 9.77538C27.1995 10.3239 26.8665 10.8222 26.4467 11.242C26.0269 11.6618 25.5285 11.9948 24.98 12.222C24.4316 12.4492 23.8437 12.5662 23.25 12.5662C22.6563 12.5662 22.0684 12.4492 21.52 12.222C20.9715 11.9948 20.4731 11.6618 20.0533 11.242C19.6335 10.8222 19.3005 10.3239 19.0733 9.77538C18.8461 9.22688 18.7292 8.63901 18.7292 8.04533C18.7292 6.84633 19.2055 5.69644 20.0533 4.84862C20.9011 4.0008 22.051 3.5245 23.25 3.5245C24.449 3.5245 25.5989 4.0008 26.4467 4.84862C27.2945 5.69644 27.7708 6.84633 27.7708 8.04533ZM0 18.0557C0 17.285 0.306193 16.5457 0.851221 16.0007C1.39625 15.4557 2.13546 15.1495 2.90625 15.1495H16.4688C17.2395 15.1495 17.9788 15.4557 18.5238 16.0007C19.0688 16.5457 19.375 17.285 19.375 18.0557V18.7016C19.375 18.7016 19.375 25.4828 9.6875 25.4828C0 25.4828 0 18.7016 0 18.7016V18.0557Z" fill="#FF0617"/>
</svg>
