<svg width="48" height="46" xmlns="http://www.w3.org/2000/svg" xmlns:xlink="http://www.w3.org/1999/xlink">
  
  <g id="tennis" width="48" height="46" viewBox="0 0 48 46" xmlns="http://www.w3.org/2000/svg">
    <path d="M21.7 12.6385C21.914 12.2053 22.148 11.776 22.406 11.3505L22.46 11.2623L22.49 11.2125C22.944 10.4765 23.446 9.79033 23.986 9.15208C26.086 6.67958 28.776 4.97374 31.526 4.24158C31.5353 4.23837 31.5447 4.23518 31.554 4.23199C34.162 3.54199 36.822 3.72408 39.094 4.94308L39.154 4.97758C44.446 7.87174 45.578 15.3602 41.684 21.7158C38.242 27.3317 32.024 30.1856 26.962 28.796L34 40.2692L30.512 42.1667L24 31.5522L17.496 42.1667L14 40.2653L22.652 26.151C20.864 24.1577 20.004 21.3862 20.16 18.4077C20.2775 16.407 20.8006 14.4475 21.7 12.6385ZM35.576 7.76058V22.9329C36.617 22.0354 37.5039 20.9863 38.204 19.8241C41.45 14.5283 39.784 9.72708 37.108 8.27233C36.6315 8.01926 36.1134 7.84618 35.576 7.76058ZM33.558 24.2918V7.73566C32.264 7.90241 30.864 8.40649 29.522 9.31691V25.3019C30.768 25.3211 32.17 25.0087 33.558 24.2918ZM25.522 23.3776C25.822 23.7705 26.158 24.1059 26.522 24.3742C26.8154 24.5936 27.1375 24.7754 27.48 24.9147L27.504 24.9243V11.0668C26.9138 11.7132 26.3894 12.4121 25.938 13.1541L25.908 13.2039L25.862 13.2787C25.742 13.478 25.628 13.6792 25.522 13.8786C23.434 17.7847 23.972 21.344 25.522 23.3776Z"/>
    <path d="M18.844 9.59482C17.388 8.50807 15.84 7.91582 14.422 7.73566V24.2324C15.422 24.748 16.428 25.0547 17.376 25.1773C17.5431 25.5551 17.728 25.9253 17.93 26.2871L16.332 28.8937C12.532 28.1999 8.73403 25.6182 6.31203 21.6698C2.42003 15.3237 3.56003 7.84299 8.85603 4.96416C12.54 2.96124 17.266 3.71066 21.112 6.48791C20.2559 7.4523 19.4965 8.4919 18.844 9.59291V9.59482ZM9.79203 19.78C10.4891 20.9364 11.372 21.9803 12.408 22.8735V7.75866C11.842 7.85449 11.328 8.02699 10.884 8.26849C8.21603 9.71749 6.55403 14.4996 9.79203 19.78Z"/>
  </g>

  <g id="tennis_2" width="36" height="33" viewBox="0 0 36 33" xmlns="http://www.w3.org/2000/svg">
    <path d="M16.275 9.06675C16.4355 8.756 16.611 8.448 16.8045 8.14275L16.845 8.0795L16.8675 8.04375C17.208 7.51575 17.5845 7.0235 17.9895 6.56563C19.5645 4.79188 21.582 3.56813 23.6445 3.04288C23.6515 3.04058 23.6585 3.03829 23.6655 3.036C25.6215 2.541 27.6165 2.67163 29.3205 3.54613L29.3655 3.57088C33.3345 5.64713 34.1835 11.0193 31.263 15.5788C28.6815 19.6075 24.018 21.6549 20.2215 20.658L25.5 28.8888L22.884 30.25L18 22.6353L13.122 30.25L10.5 28.886L16.989 18.7605C15.648 17.3305 15.003 15.3423 15.12 13.2055C15.2082 11.7703 15.6005 10.3645 16.275 9.06675ZM26.682 5.56738V16.4519C27.4628 15.808 28.1279 15.0554 28.653 14.2216C31.0875 10.4225 29.838 6.97813 27.831 5.9345C27.4736 5.75296 27.085 5.62879 26.682 5.56738ZM25.1685 17.4268V5.5495C24.198 5.66913 23.148 6.03075 22.1415 6.68388V18.1514C23.076 18.1651 24.1275 17.941 25.1685 17.4268ZM19.1415 16.7709C19.3665 17.0528 19.6185 17.2934 19.8915 17.4859C20.1115 17.6433 20.3531 17.7736 20.61 17.8736L20.628 17.8805V7.93925C20.1853 8.40292 19.792 8.90433 19.4535 9.43663L19.431 9.47238L19.3965 9.526C19.3065 9.669 19.221 9.81338 19.1415 9.95638C17.5755 12.7586 17.979 15.312 19.1415 16.7709Z"/>
    <path d="M14.133 6.88326C13.041 6.10363 11.88 5.67876 10.8165 5.54951V17.3841C11.5665 17.754 12.321 17.974 13.032 18.062C13.1573 18.333 13.296 18.5986 13.4475 18.8581L12.249 20.7281C9.39901 20.2304 6.5505 18.3783 4.734 15.5458C1.815 10.9931 2.67 5.62651 6.642 3.56126C9.405 2.12438 12.9495 2.66201 15.834 4.65438C15.1919 5.34623 14.6224 6.09203 14.133 6.88188V6.88326ZM7.344 14.19C7.86685 15.0196 8.52896 15.7685 9.306 16.4093V5.56601C8.88151 5.63476 8.496 5.75851 8.163 5.93176C6.162 6.97126 4.9155 10.4019 7.344 14.19Z"/>
  </g>


  <g id="footbal" width="46" height="46" viewBox="0 0 46 46" xmlns="http://www.w3.org/2000/svg">
    <path d="M36.5527 9.44726C34.7787 7.65912 32.6675 6.24069 30.3415 5.27408C28.0155 4.30748 25.5208 3.81192 23.0019 3.8161C20.4825 3.81215 17.9873 4.30781 15.6607 5.27438C13.3341 6.24095 11.2222 7.65926 9.44725 9.44726C1.97417 16.9184 1.97417 29.0797 9.44725 36.5528C11.2222 38.3412 13.3344 39.7599 15.6614 40.7265C17.9884 41.6931 20.4841 42.1884 23.0038 42.1839C25.5226 42.1884 28.0172 41.6931 30.3432 40.7268C32.6692 39.7606 34.7805 38.3425 36.5547 36.5547C44.0278 29.0835 44.0278 16.9223 36.5527 9.44726ZM23.3469 7.66668H22.6588C22.7757 7.66476 22.8869 7.64943 23.0038 7.64943C23.1208 7.64943 23.23 7.66476 23.3469 7.66668ZM34.9658 32.5833H30.6667L28.2555 37.4057C26.5735 38.0271 24.795 38.347 23.0019 38.3506C21.2055 38.3473 19.4237 38.0268 17.7388 37.4038L15.3333 32.6025H11.0496C9.46917 30.6377 8.40039 28.3118 7.93883 25.8328L11.5 21.0833L9.16933 16.4201C9.91301 14.8381 10.9238 13.3961 12.1574 12.1574C13.8839 10.4249 16.0001 9.13084 18.3291 8.38351L23 11.5L27.6728 8.38543C30.0011 9.13329 32.1171 10.4265 33.8445 12.1574C35.0767 13.3946 36.0869 14.8346 36.8307 16.4143L34.5 21.0833L38.0612 25.8328C37.6017 28.3038 36.5384 30.6228 34.9658 32.5833Z"/>
    <path d="M16.2917 21.0833L19.1667 28.75H26.8333L29.7083 21.0833L23 16.2917L16.2917 21.0833Z"/>
  </g>

  <g id="footbal_2" width="31" height="31" viewBox="0 0 31 31" xmlns="http://www.w3.org/2000/svg">
    <path d="M24.6334 6.36665C23.4378 5.1616 22.0151 4.2057 20.4475 3.55429C18.88 2.90288 17.1988 2.56892 15.5013 2.57173C13.8034 2.56908 12.1219 2.9031 10.554 3.55449C8.98602 4.20588 7.5628 5.16169 6.36663 6.36665C1.33043 11.4016 1.33043 19.5972 6.36663 24.6334C7.56283 25.8387 8.98623 26.7947 10.5544 27.4461C12.1226 28.0975 13.8045 28.4314 15.5026 28.4283C17.2 28.4313 18.8811 28.0975 20.4487 27.4464C22.0162 26.7952 23.439 25.8395 24.6347 24.6347C29.6709 19.5998 29.6709 11.4042 24.6334 6.36665ZM15.7338 5.16669H15.2701C15.3489 5.1654 15.4238 5.15507 15.5026 5.15507C15.5814 5.15507 15.655 5.1654 15.7338 5.16669ZM23.5639 21.9584H20.6667L19.0418 25.2082C17.9082 25.627 16.7097 25.8425 15.5013 25.845C14.2906 25.8428 13.0899 25.6268 11.9544 25.2069L10.3333 21.9713H7.44647C6.38141 20.6472 5.66114 19.0797 5.35009 17.4091L7.75001 14.2084L6.17934 11.0657C6.68052 9.99958 7.36173 9.02779 8.19305 8.19307C9.35656 7.02548 10.7827 6.15341 12.3522 5.64978L15.5 7.75003L18.6491 5.65107C20.2181 6.15506 21.6441 7.02658 22.8083 8.19307C23.6387 9.0268 24.3194 9.99723 24.8207 11.0619L23.25 14.2084L25.6499 17.4091C25.3403 19.0743 24.6237 20.6371 23.5639 21.9584Z"/>
    <path d="M10.9792 14.2084L12.9167 19.375H18.0834L20.0209 14.2084L15.5 10.9792L10.9792 14.2084Z"/>
  </g>


  <g id="games" width="46" height="46" viewBox="0 0 46 46" xmlns="http://www.w3.org/2000/svg">
    <path d="M10.7956 37.375C10.0966 37.3762 9.40046 37.2844 8.72563 37.1019C6.70006 36.5242 4.98157 35.1757 3.93885 33.3456C2.89613 31.5155 2.61226 29.3495 3.14813 27.3125L6.49751 14.605C6.75835 13.5766 7.22207 12.6106 7.86143 11.7639C8.50079 10.9172 9.30289 10.2068 10.2206 9.67439C11.1142 9.15681 12.1016 8.8217 13.1257 8.68845C14.1497 8.55521 15.19 8.62648 16.1863 8.89814C17.2453 9.19223 18.2317 9.70315 19.083 10.3985C19.9342 11.0938 20.6317 11.9584 21.1313 12.9375H24.8688C25.3661 11.9569 26.0629 11.091 26.9145 10.3954C27.7661 9.69978 28.7536 9.1898 29.8138 8.89814C30.81 8.62648 31.8503 8.55521 32.8744 8.68845C33.8984 8.8217 34.8858 9.15681 35.7794 9.67439C36.6927 10.2054 37.4918 10.912 38.1308 11.7533C38.7698 12.5945 39.236 13.554 39.5025 14.5763L42.8519 27.3125C43.3958 29.3555 43.1141 31.5304 42.0679 33.3674C41.0216 35.2045 39.2946 36.5562 37.26 37.1306C36.2637 37.4023 35.2234 37.4736 34.1994 37.3403C33.1754 37.2071 32.188 36.872 31.2944 36.3544C30.3796 35.8252 29.5793 35.1193 28.9401 34.2777C28.3009 33.4361 27.8356 32.4757 27.5713 31.4525L27.3125 30.1875H18.6875L18.3569 31.4238C18.0926 32.447 17.6273 33.4074 16.9881 34.249C16.3489 35.0905 15.5485 35.7965 14.6338 36.3256C13.4658 36.9993 12.1439 37.3607 10.7956 37.375ZM14.1306 11.5C13.2632 11.503 12.4113 11.7308 11.6581 12.1613C10.4777 12.8538 9.61973 13.9858 9.27188 15.3094L5.92251 28.0169C5.57203 29.3261 5.74912 30.7205 6.41574 31.9005C7.08235 33.0806 8.18528 33.952 9.48751 34.3275C10.1164 34.4991 10.7731 34.5442 11.4196 34.4603C12.066 34.3764 12.6895 34.1652 13.2538 33.8388C13.8413 33.4996 14.355 33.0463 14.7648 32.5057C15.1746 31.9651 15.4722 31.3479 15.64 30.6906L16.5313 27.3125H29.4688L30.3456 30.6906C30.5164 31.3467 30.8152 31.9625 31.2247 32.5028C31.6342 33.043 32.1464 33.4971 32.7319 33.8388C33.299 34.1648 33.9248 34.3758 34.5735 34.4597C35.2222 34.5436 35.8812 34.4987 36.5125 34.3275C37.8163 33.9555 38.9206 33.0839 39.5854 31.9023C40.2503 30.7207 40.4219 29.3244 40.0631 28.0169L36.7138 15.3094C36.5469 14.6536 36.2512 14.0375 35.844 13.4971C35.4368 12.9566 34.9262 12.5025 34.3419 12.1613C33.7748 11.8352 33.149 11.6242 32.5002 11.5403C31.8515 11.4564 31.1926 11.5014 30.5613 11.6725C29.7805 11.8951 29.0641 12.3007 28.4715 12.8558C27.879 13.4108 27.4274 14.0992 27.1544 14.8638L26.8094 15.8125H19.1906L18.8456 14.8638C18.5701 14.0982 18.116 13.4093 17.521 12.8543C16.926 12.2993 16.2073 11.8942 15.4244 11.6725C15.0025 11.5588 14.5676 11.5008 14.1306 11.5Z"/>
    <path d="M14.375 23C13.8064 23 13.2505 22.8314 12.7777 22.5155C12.3049 22.1996 11.9364 21.7506 11.7188 21.2252C11.5012 20.6999 11.4443 20.1218 11.5552 19.5641C11.6662 19.0064 11.94 18.4941 12.3421 18.0921C12.7441 17.69 13.2564 17.4162 13.8141 17.3052C14.3718 17.1943 14.9499 17.2512 15.4752 17.4688C16.0006 17.6864 16.4496 18.0549 16.7655 18.5277C17.0814 19.0005 17.25 19.5564 17.25 20.125C17.25 20.8875 16.9471 21.6188 16.4079 22.1579C15.8688 22.6971 15.1375 23 14.375 23Z"/>
    <path d="M31.625 18.6875C32.4189 18.6875 33.0625 18.0439 33.0625 17.25C33.0625 16.4561 32.4189 15.8125 31.625 15.8125C30.8311 15.8125 30.1875 16.4561 30.1875 17.25C30.1875 18.0439 30.8311 18.6875 31.625 18.6875Z"/>
    <path d="M31.625 24.4375C32.4189 24.4375 33.0625 23.7939 33.0625 23C33.0625 22.2061 32.4189 21.5625 31.625 21.5625C30.8311 21.5625 30.1875 22.2061 30.1875 23C30.1875 23.7939 30.8311 24.4375 31.625 24.4375Z"/>
    <path d="M28.75 21.5625C29.5439 21.5625 30.1875 20.9189 30.1875 20.125C30.1875 19.3311 29.5439 18.6875 28.75 18.6875C27.9561 18.6875 27.3125 19.3311 27.3125 20.125C27.3125 20.9189 27.9561 21.5625 28.75 21.5625Z"/>
    <path d="M34.5 21.5625C35.2939 21.5625 35.9375 20.9189 35.9375 20.125C35.9375 19.3311 35.2939 18.6875 34.5 18.6875C33.7061 18.6875 33.0625 19.3311 33.0625 20.125C33.0625 20.9189 33.7061 21.5625 34.5 21.5625Z"/>
  </g>

  <g id="games_2" width="41" height="41" viewBox="0 0 41 41" xmlns="http://www.w3.org/2000/svg">
    <path d="M9.62217 33.3125C8.9991 33.3136 8.37865 33.2317 7.77717 33.0691C5.97177 32.5542 4.44007 31.3523 3.51069 29.7211C2.58132 28.0899 2.3283 26.1594 2.80592 24.3438L5.79124 13.0175C6.02373 12.1009 6.43704 11.2399 7.00691 10.4853C7.57677 9.73058 8.29169 9.09738 9.10967 8.62284C9.90614 8.16153 10.7862 7.86284 11.6989 7.74407C12.6117 7.62531 13.5389 7.68883 14.4269 7.93097C15.3708 8.19309 16.25 8.64847 17.0087 9.26824C17.7674 9.888 18.3891 10.6586 18.8344 11.5313H22.1656C22.6089 10.6572 23.23 9.88547 23.989 9.26547C24.748 8.64547 25.6282 8.19092 26.5731 7.93097C27.4611 7.68883 28.3883 7.62531 29.301 7.74407C30.2138 7.86284 31.0938 8.16153 31.8903 8.62284C32.7043 9.09616 33.4166 9.72589 33.9861 10.4757C34.5557 11.2256 34.9712 12.0807 35.2087 12.9919L38.194 24.3438C38.6788 26.1647 38.4278 28.1032 37.4952 29.7406C36.5627 31.3779 35.0234 32.5827 33.21 33.0947C32.322 33.3368 31.3948 33.4004 30.4821 33.2816C29.5693 33.1628 28.6893 32.8642 27.8928 32.4028C27.0774 31.9312 26.3641 31.302 25.7944 30.5519C25.2247 29.8018 24.8099 28.9458 24.5744 28.0338L24.3437 26.9063H16.6562L16.3615 28.0082C16.126 28.9202 15.7112 29.7762 15.1415 30.5263C14.5718 31.2764 13.8585 31.9056 13.0431 32.3772C12.0021 32.9777 10.8239 33.2998 9.62217 33.3125ZM12.5947 10.25C11.8215 10.2527 11.0622 10.4557 10.3909 10.8394C9.33883 11.4567 8.57409 12.4656 8.26405 13.6453L5.27874 24.9716C4.96635 26.1385 5.1242 27.3813 5.71836 28.4331C6.31251 29.4849 7.29556 30.2616 8.45624 30.5963C9.01679 30.7492 9.6021 30.7894 10.1783 30.7146C10.7545 30.6399 11.3102 30.4516 11.8131 30.1607C12.3368 29.8583 12.7947 29.4544 13.1599 28.9725C13.5252 28.4906 13.7904 27.9406 13.94 27.3547L14.7344 24.3438H26.2656L27.0472 27.3547C27.1994 27.9395 27.4657 28.4884 27.8307 28.9699C28.1957 29.4514 28.6522 29.8561 29.174 30.1607C29.6795 30.4513 30.2373 30.6394 30.8155 30.7141C31.3937 30.7889 31.981 30.7488 32.5437 30.5963C33.7058 30.2647 34.6901 29.4879 35.2826 28.4347C35.8752 27.3815 36.0282 26.137 35.7084 24.9716L32.7231 13.6453C32.5744 13.0608 32.3109 12.5117 31.9479 12.03C31.585 11.5483 31.1299 11.1436 30.609 10.8394C30.1036 10.5488 29.5458 10.3607 28.9676 10.2859C28.3894 10.2112 27.8021 10.2512 27.2394 10.4038C26.5434 10.6022 25.9049 10.9637 25.3768 11.4584C24.8487 11.9531 24.4462 12.5667 24.2028 13.2482L23.8953 14.0938H17.1047L16.7972 13.2482C16.5516 12.5658 16.1469 11.9518 15.6166 11.4571C15.0862 10.9624 14.4456 10.6013 13.7478 10.4038C13.3718 10.3024 12.9841 10.2507 12.5947 10.25Z"/>
    <path d="M12.8125 20.5C12.3057 20.5 11.8103 20.3497 11.3889 20.0681C10.9675 19.7866 10.639 19.3864 10.4451 18.9181C10.2511 18.4499 10.2004 17.9347 10.2992 17.4376C10.3981 16.9405 10.6422 16.4839 11.0005 16.1255C11.3589 15.7672 11.8155 15.5231 12.3126 15.4242C12.8097 15.3254 13.3249 15.3761 13.7931 15.5701C14.2614 15.764 14.6616 16.0925 14.9431 16.5139C15.2247 16.9353 15.375 17.4307 15.375 17.9375C15.375 18.6171 15.105 19.2689 14.6245 19.7495C14.1439 20.23 13.4921 20.5 12.8125 20.5Z"/>
    <path d="M28.1875 16.6562C28.8951 16.6562 29.4688 16.0826 29.4688 15.375C29.4688 14.6674 28.8951 14.0938 28.1875 14.0938C27.4799 14.0938 26.9062 14.6674 26.9062 15.375C26.9062 16.0826 27.4799 16.6562 28.1875 16.6562Z"/>
    <path d="M28.1875 21.7812C28.8951 21.7812 29.4688 21.2076 29.4688 20.5C29.4688 19.7924 28.8951 19.2188 28.1875 19.2188C27.4799 19.2188 26.9062 19.7924 26.9062 20.5C26.9062 21.2076 27.4799 21.7812 28.1875 21.7812Z"/>
    <path d="M25.625 19.2188C26.3326 19.2188 26.9062 18.6451 26.9062 17.9375C26.9062 17.2299 26.3326 16.6562 25.625 16.6562C24.9174 16.6562 24.3438 17.2299 24.3438 17.9375C24.3438 18.6451 24.9174 19.2188 25.625 19.2188Z"/>
    <path d="M30.75 19.2188C31.4576 19.2188 32.0312 18.6451 32.0312 17.9375C32.0312 17.2299 31.4576 16.6562 30.75 16.6562C30.0424 16.6562 29.4688 17.2299 29.4688 17.9375C29.4688 18.6451 30.0424 19.2188 30.75 19.2188Z"/>
  </g>


  
</svg>

