<svg width="15" height="14" viewBox="0 0 15 14" fill="none" xmlns="http://www.w3.org/2000/svg">
<path fill-rule="evenodd" clip-rule="evenodd" d="M9.6075 4.87789L15 5.33474L10.9125 8.82L12.135 14L7.5 11.2516L2.865 14L4.095 8.82L0 5.33474L5.3925 4.88526L7.5 0L9.6075 4.87789ZM7.5 3.02105V9.87368L10.3275 11.5537L9.5775 8.4L12.0675 6.27789L8.7825 5.99789L7.5 3.02105Z" fill="#EDBB00"/>
<path fill-rule="evenodd" clip-rule="evenodd" d="M9.6075 4.87789L15 5.33474L10.9125 8.82L12.135 14L7.5 11.2516L2.865 14L4.095 8.82L0 5.33474L5.3925 4.88526L7.5 0L9.6075 4.87789ZM7.5 3.02105V9.87368L10.3275 11.5537L9.5775 8.4L12.0675 6.27789L8.7825 5.99789L7.5 3.02105Z" fill="#EDBB00"/>
</svg>
