<svg width="97" height="97" xmlns="http://www.w3.org/2000/svg" xmlns:xlink="http://www.w3.org/1999/xlink">

  <g id="all" width="31" height="31" viewBox="0 0 31 31" fill="none" xmlns="http://www.w3.org/2000/svg">
    <rect x="1" y="1" width="29" height="29"  stroke-width="2"/>
    <line y1="10" x2="30.3111" y2="10"  stroke-width="2"/>
    <line x1="20.9778" y1="4.37114e-08" x2="20.9778" y2="30.3111"  stroke-width="2"/>
    <line x1="9.95557" y1="4.37114e-08" x2="9.95557" y2="30.3111"  stroke-width="2"/>
    <line x1="0.688965" y1="19.6667" x2="31.0001" y2="19.6667"  stroke-width="2"/>
  </g>

  <g id="all_2" width="26" height="26" viewBox="0 0 26 26" fill="none" xmlns="http://www.w3.org/2000/svg">
    <rect x="1" y="1" width="24" height="24"  stroke-width="2"/>
    <line y1="8.22581" x2="25.4222" y2="8.22581"  stroke-width="2"/>
    <line x1="17.7556" y1="4.37114e-08" x2="17.7556" y2="25.4222"  stroke-width="2"/>
    <line x1="8.51123" y1="4.37114e-08" x2="8.51123" y2="25.4222" stroke-width="2"/>
    <line x1="0.577881" y1="16.3333" x2="26.0001" y2="16.3333"  stroke-width="2"/>
  </g>


  <g id="all_3" width="17" height="17" viewBox="0 0 17 17" fill="none" xmlns="http://www.w3.org/2000/svg">
    <rect x="0.5" y="0.5" width="15.8311" height="16"/>
    <line x1="0.542969" y1="5.53226" x2="17" y2="5.53226"/>
    <line x1="11.3462" y1="2.22557e-08" x2="11.3462" y2="16.6222"/>
    <line x1="5.3623" y1="2.22557e-08" x2="5.3623" y2="16.6222"/>
    <line x1="0.374023" y1="10.8333" x2="16.8311" y2="10.8333"/>
  </g>

  <g id="live" width="31" height="31" viewBox="0 0 31 31" xmlns="http://www.w3.org/2000/svg">
    <path d="M15.4226 3.875C14.065 3.89302 12.7693 4.44559 11.8166 5.41284C10.8638 6.38009 10.3309 7.68399 10.3334 9.04167C10.2559 11.16 10.088 13.5238 9.0805 14.9704C12.5422 17.0758 15.5001 16.7917 15.5001 16.7917C15.5001 16.7917 18.458 17.0758 21.9197 14.9704C20.8217 13.2008 20.5892 11.0308 20.6667 9.04167C20.6667 6.18708 18.3547 3.875 15.5001 3.875H15.4226ZM11.4442 17.205C7.75008 17.9929 5.16675 19.8271 5.16675 21.9583V27.125H15.5001L11.6251 21.9583H8.39591L11.4442 17.205ZM15.5001 27.125L17.7992 17.8379C17.7992 17.8379 16.7917 18.0833 15.5001 18.0833C14.2084 18.0833 13.2009 17.8379 13.2009 17.8379L15.5001 27.125ZM15.5001 27.125H25.8334V21.9583C25.8334 19.8271 23.2501 17.9929 19.5559 17.205L22.6042 21.9583H19.3751L15.5001 27.125Z"/>
  </g>

  <g id="live_2" width="26" height="26" viewBox="0 0 26 26" xmlns="http://www.w3.org/2000/svg">
    <path d="M12.9349 3.25C11.7963 3.26511 10.7096 3.72856 9.91053 4.5398C9.11146 5.35104 8.66449 6.44464 8.66658 7.58333C8.60158 9.36 8.46075 11.3425 7.61575 12.5558C10.5191 14.3217 12.9999 14.0833 12.9999 14.0833C12.9999 14.0833 15.4808 14.3217 18.3841 12.5558C17.4633 11.0717 17.2683 9.25167 17.3333 7.58333C17.3333 5.18917 15.3941 3.25 12.9999 3.25H12.9349ZM9.59825 14.43C6.49992 15.0908 4.33325 16.6292 4.33325 18.4167V22.75H12.9999L9.74992 18.4167H7.04158L9.59825 14.43ZM12.9999 22.75L14.9283 14.9608C14.9283 14.9608 14.0833 15.1667 12.9999 15.1667C11.9166 15.1667 11.0716 14.9608 11.0716 14.9608L12.9999 22.75ZM12.9999 22.75H21.6666V18.4167C21.6666 16.6292 19.4999 15.0908 16.4016 14.43L18.9583 18.4167H16.2499L12.9999 22.75Z"/>
  </g>

  <g id="live_3" width="17" height="17" viewBox="0 0 17 17" xmlns="http://www.w3.org/2000/svg">
    <path d="M8.45766 2.125C7.7132 2.13488 7.00265 2.43791 6.48018 2.96833C5.95771 3.49876 5.66546 4.2138 5.66683 4.95833C5.62433 6.12 5.53225 7.41625 4.97975 8.20958C6.87808 9.36417 8.50016 9.20833 8.50016 9.20833C8.50016 9.20833 10.1222 9.36417 12.0206 8.20958C11.4185 7.23917 11.291 6.04917 11.3335 4.95833C11.3335 3.39292 10.0656 2.125 8.50016 2.125H8.45766ZM6.276 9.435C4.25016 9.86708 2.8335 10.8729 2.8335 12.0417V14.875H8.50016L6.37516 12.0417H4.60433L6.276 9.435ZM8.50016 14.875L9.761 9.78208C9.761 9.78208 9.2085 9.91667 8.50016 9.91667C7.79183 9.91667 7.23933 9.78208 7.23933 9.78208L8.50016 14.875ZM8.50016 14.875H14.1668V12.0417C14.1668 10.8729 12.7502 9.86708 10.7243 9.435L12.396 12.0417H10.6252L8.50016 14.875Z"/>
  </g>


  <g id="roulette" width="32" height="28" viewBox="0 0 32 28" xmlns="http://www.w3.org/2000/svg">
    <path d="M31 22V17.5C29.1667 18.6667 26.5 22 15.5 22C4 22 2.16667 19 0 17.5V22C0 23.6667 3.39311 28 15 28C26.5 28 30.3333 24 31 22Z"/>
    <path d="M0 14C0 8.80001 9.66667 7.50001 14.5 7.50001V10C11 10.1667 4.4 10.7 4 13.5C3.5 17 12.5 17.5 15.5 17.5C18.5 17.5 27.5 16.5 27 14C26.4453 11.2265 20.3333 10 16.5 10V7.50001C20.2171 7.45123 30.5909 8.99998 31 13.5C31.5 19 20 20.5 16.5 20.5C15 20.5 0 20.5 0 14Z"/>
    <path d="M5.5 13.5C5.5 11.9 11.5 11.1667 14.5 11C14.5 12 14.7 14 15.5 14C16.3 14 16.5 12 16.5 11C19.5 11.1667 25.5 11.9 25.5 13.5C25.5 15.1 19.5 16.5 15.5 16.5C11 16.5 5.5 15.1 5.5 13.5Z"/>
    <path d="M14.5 7.5H16.5V5.5C17 5.5 18.5 4.5 18.5 3C18.5 1.5 17 0 15.5 0C14 0 12.5 1 12.5 3C12.5 4.6 13.8333 5.33333 14.5 5.5V7.5Z"/>
  </g>

  <g id="roulette_2" width="26" height="26" viewBox="0 0 26 26" xmlns="http://www.w3.org/2000/svg">
    <path d="M25.9867 20.4286V16.25C24.4499 17.3333 22.2145 20.4286 12.9934 20.4286C3.35313 20.4286 1.81628 17.6429 0 16.25V20.4286C0 21.9762 2.84438 26 12.5742 26C22.2145 26 25.4279 22.2857 25.9867 20.4286Z"/>
    <path d="M0 13C0 8.17144 8.10339 6.9643 12.1551 6.9643V9.28572C9.2211 9.44048 3.68844 9.93571 3.35313 12.5357C2.93399 15.7857 10.4785 16.25 12.9934 16.25C15.5082 16.25 23.0528 15.3214 22.6336 13C22.1686 10.4246 17.0451 9.28572 13.8317 9.28572V6.9643C16.9477 6.919 25.6438 8.35712 25.9867 12.5357C26.4059 17.6429 16.7656 19.0357 13.8317 19.0357C12.5742 19.0357 0 19.0357 0 13Z"/>
    <path d="M4.6106 12.5357C4.6106 11.05 9.64029 10.369 12.1551 10.2143C12.1551 11.1429 12.3228 13 12.9934 13C13.664 13 13.8317 11.1429 13.8317 10.2143C16.3465 10.369 21.3762 11.05 21.3762 12.5357C21.3762 14.0214 16.3465 15.3214 12.9934 15.3214C9.22115 15.3214 4.6106 14.0214 4.6106 12.5357Z"/>
    <path d="M12.1551 6.96429H13.8316V5.10714C14.2508 5.10714 15.5082 4.17857 15.5082 2.78571C15.5082 1.39286 14.2508 0 12.9934 0C11.7359 0 10.4785 0.928571 10.4785 2.78571C10.4785 4.27143 11.5962 4.95238 12.1551 5.10714V6.96429Z"/>
  </g>

  <g id="roulette_3" width="17" height="17" viewBox="0 0 17 17" xmlns="http://www.w3.org/2000/svg">
    <path d="M16.9913 13.3571V10.625C15.9865 11.3333 14.5248 13.3571 8.49567 13.3571C2.19243 13.3571 1.18757 11.5357 0 10.625V13.3571C0 14.369 1.85979 17 8.22161 17C14.5248 17 16.6259 14.5714 16.9913 13.3571Z"/>
    <path d="M0 8.50001C0 5.34286 5.29837 4.55358 7.94756 4.55358V6.07143C6.02918 6.17262 2.41167 6.49643 2.19243 8.19643C1.91838 10.3214 6.85134 10.625 8.49567 10.625C10.14 10.625 15.073 10.0179 14.7989 8.5C14.4949 6.81609 11.1449 6.07143 9.04377 6.07143V4.55358C11.0812 4.52396 16.7671 5.46427 16.9913 8.19643C17.2654 11.5357 10.9622 12.4464 9.04377 12.4464C8.22161 12.4464 0 12.4464 0 8.50001Z"/>
    <path d="M3.01465 8.19643C3.01465 7.225 6.30329 6.77976 7.94762 6.67857C7.94762 7.28572 8.05724 8.5 8.49572 8.5C8.93421 8.5 9.04383 7.28572 9.04383 6.67857C10.6882 6.77976 13.9768 7.225 13.9768 8.19643C13.9768 9.16786 10.6882 10.0179 8.49572 10.0179C6.02924 10.0179 3.01465 9.16786 3.01465 8.19643Z"/>
    <path d="M7.94778 4.55357H9.04399V3.33929C9.31805 3.33929 10.1402 2.73214 10.1402 1.82143C10.1402 0.910714 9.31805 0 8.49589 0C7.67372 0 6.85156 0.607143 6.85156 1.82143C6.85156 2.79286 7.58237 3.2381 7.94778 3.33929V4.55357Z"/>
  </g>

  <g id="blackjack" width="31" height="31" viewBox="0 0 31 31" xmlns="http://www.w3.org/2000/svg">
    <path d="M14.4537 2.90625C15.4612 2.91917 16.417 3.52625 16.7916 4.52083L23.2499 19.9562C23.3662 20.2921 23.4308 20.6667 23.4179 20.9896C23.4032 21.4885 23.2457 21.9727 22.9641 22.3848C22.6825 22.7969 22.2886 23.1196 21.8291 23.3146L12.3095 27.2542C11.9737 27.4092 11.6249 27.4479 11.2891 27.4479C10.7843 27.4367 10.2938 27.2779 9.87824 26.9909C9.46273 26.7039 9.14043 26.3015 8.95119 25.8333L2.54452 10.3979C2.00202 9.09333 2.63494 7.58208 3.95244 7.03958L13.4591 3.1C13.782 2.98375 14.1179 2.90625 14.4537 2.90625ZM18.9487 2.90625H20.8216C21.5068 2.90625 22.1638 3.17842 22.6483 3.66289C23.1328 4.14736 23.4049 4.80444 23.4049 5.48958V13.6917L18.9487 2.90625ZM26.0012 4.89542L27.732 5.63167C28.0454 5.75924 28.3304 5.94742 28.5709 6.18541C28.8113 6.4234 29.0024 6.70651 29.1332 7.01852C29.264 7.33052 29.332 7.66528 29.3331 8.00359C29.3343 8.3419 29.2686 8.67711 29.1399 8.99L26.0012 16.5592V4.89542ZM14.4537 5.45083L4.90827 9.41625L11.3279 24.9292L20.8862 20.9767L14.4537 5.45083ZM11.1729 11.0308L15.3449 14.1437L14.7766 19.3233L10.6045 16.1975L11.1729 11.0308Z"/>
  </g>

  <g id="blackjack_2" width="26" height="26" viewBox="0 0 26 26" xmlns="http://www.w3.org/2000/svg">
  <path d="M12.1225 2.4375C12.9675 2.44833 13.7692 2.9575 14.0833 3.79167L19.5 16.7375C19.5975 17.0192 19.6517 17.3333 19.6408 17.6042C19.6285 18.0226 19.4964 18.4287 19.2602 18.7744C19.024 19.12 18.6937 19.3906 18.3083 19.5542L10.3242 22.8583C10.0425 22.9883 9.74999 23.0208 9.46832 23.0208C9.0449 23.0115 8.63351 22.8782 8.28502 22.6375C7.93652 22.3969 7.66621 22.0593 7.50749 21.6667L2.13416 8.72083C1.67916 7.62667 2.20999 6.35917 3.31499 5.90417L11.2883 2.6C11.5592 2.5025 11.8408 2.4375 12.1225 2.4375ZM15.8925 2.4375H17.4633C18.038 2.4375 18.5891 2.66577 18.9954 3.0721C19.4017 3.47843 19.63 4.02953 19.63 4.60417V11.4833L15.8925 2.4375ZM21.8075 4.10583L23.2592 4.72333C23.522 4.83033 23.761 4.98816 23.9627 5.18776C24.1644 5.38737 24.3247 5.62482 24.4344 5.8865C24.5441 6.14818 24.6011 6.42894 24.602 6.71269C24.603 6.99644 24.5479 7.27758 24.44 7.54L21.8075 13.8883V4.10583ZM12.1225 4.57167L4.11666 7.8975L9.50082 20.9083L17.5175 17.5933L12.1225 4.57167ZM9.37082 9.25167L12.87 11.8625L12.3933 16.2067L8.89416 13.585L9.37082 9.25167Z"/>
  </g>

  <g id="blackjack_3"  width="17" height="17" viewBox="0 0 17 17" xmlns="http://www.w3.org/2000/svg">
    <path d="M7.92645 1.59375C8.47895 1.60083 9.00312 1.93375 9.20853 2.47917L12.7502 10.9437C12.8139 11.1279 12.8494 11.3333 12.8423 11.5104C12.8342 11.784 12.7479 12.0496 12.5934 12.2755C12.439 12.5015 12.223 12.6785 11.971 12.7854L6.75062 14.9458C6.56645 15.0308 6.3752 15.0521 6.19103 15.0521C5.91418 15.046 5.6452 14.9588 5.41733 14.8015C5.18947 14.6441 5.01273 14.4234 4.90895 14.1667L1.39562 5.70208C1.09812 4.98667 1.4452 4.15792 2.1677 3.86042L7.38103 1.7C7.55812 1.63625 7.74228 1.59375 7.92645 1.59375ZM10.3914 1.59375H11.4185C11.7943 1.59375 12.1546 1.74301 12.4203 2.00868C12.6859 2.27436 12.8352 2.63469 12.8352 3.01042V7.50833L10.3914 1.59375ZM14.2589 2.68458L15.2081 3.08833C15.3799 3.1583 15.5363 3.26149 15.6681 3.392C15.8 3.52251 15.9048 3.67776 15.9765 3.84886C16.0483 4.01996 16.0855 4.20354 16.0861 4.38907C16.0868 4.57459 16.0508 4.75842 15.9802 4.93L14.2589 9.08083V2.68458ZM7.92645 2.98917L2.69187 5.16375L6.21228 13.6708L11.4539 11.5033L7.92645 2.98917ZM6.12728 6.04917L8.4152 7.75625L8.10353 10.5967L5.81562 8.8825L6.12728 6.04917Z"/>
  </g>

  <g id="header-poker" width="55" height="46" viewBox="0 0 55 46" xmlns="http://www.w3.org/2000/svg">
    <path d="M43.4414 39.1406C47.5456 34.9693 49.8458 29.3519 49.8458 23.5C49.8458 17.6481 47.5456 12.0307 43.4414 7.85936C43.4028 7.79891 43.3515 7.74759 43.291 7.70897C43.2524 7.64852 43.2011 7.5972 43.1406 7.55858C38.9693 3.45437 33.3519 1.15421 27.5 1.15421C21.6481 1.15421 16.0307 3.45437 11.8594 7.55858C11.7989 7.5972 11.7476 7.64852 11.709 7.70897C11.6486 7.74759 11.5972 7.79891 11.5586 7.85936C7.4544 12.0307 5.15424 17.6481 5.15424 23.5C5.15424 29.3519 7.4544 34.9693 11.5586 39.1406L11.709 39.291C11.7476 39.3515 11.7989 39.4028 11.8594 39.4414C16.0307 43.5456 21.6481 45.8458 27.5 45.8458C33.3519 45.8458 38.9693 43.5456 43.1406 39.4414C43.2011 39.4028 43.2524 39.3515 43.291 39.291C43.3515 39.2524 43.4028 39.2011 43.4414 39.1406ZM8.67971 25.2187H13.8574C14.1668 27.6641 15.1319 29.9803 16.6504 31.9219L12.9766 35.5957C10.5203 32.6554 9.0211 29.0348 8.67971 25.2187ZM12.9766 11.4043L16.6504 15.0781C15.1319 17.0197 14.1668 19.3358 13.8574 21.7812H8.67971C9.0211 17.9652 10.5203 14.3446 12.9766 11.4043ZM46.3203 21.7812H41.1426C40.8332 19.3358 39.8682 17.0197 38.3496 15.0781L42.0235 11.4043C44.4797 14.3446 45.9789 17.9652 46.3203 21.7812ZM35.9219 12.6504C33.9803 11.1318 31.6642 10.1668 29.2188 9.85741V4.67968C33.0348 5.02107 36.6554 6.52029 39.5957 8.97655L35.9219 12.6504ZM25.7813 9.85741C23.3359 10.1668 21.0197 11.1318 19.0781 12.6504L15.4043 8.97655C18.3446 6.52029 21.9652 5.02107 25.7813 4.67968V9.85741ZM19.0781 34.3496C21.0197 35.8681 23.3359 36.8332 25.7813 37.1426V42.3203C21.9652 41.9789 18.3446 40.4797 15.4043 38.0234L19.0781 34.3496ZM29.2188 37.1426C31.6642 36.8332 33.9803 35.8681 35.9219 34.3496L39.5957 38.0234C36.6554 40.4797 33.0348 41.9789 29.2188 42.3203V37.1426ZM38.3496 31.9219C39.8682 29.9803 40.8332 27.6641 41.1426 25.2187H46.3203C45.9789 29.0348 44.4797 32.6554 42.0235 35.5957L38.3496 31.9219Z"/>
  </g>

  <g id="header-poker_2" width="30" height="30" viewBox="0 0 30 30" xmlns="http://www.w3.org/2000/svg">
    <path d="M25.701 25.499C28.456 22.699 30 18.9282 30 15C30 11.0718 28.456 7.30103 25.701 4.50096C25.675 4.46038 25.6406 4.42593 25.6 4.4C25.5741 4.35942 25.5396 4.32497 25.499 4.29905C22.699 1.54402 18.9282 0 15 0C11.0718 0 7.30103 1.54402 4.50096 4.29905C4.46038 4.32497 4.42593 4.35942 4.4 4.4C4.35942 4.42593 4.32497 4.46038 4.29905 4.50096C1.54402 7.30103 0 11.0718 0 15C0 18.9282 1.54402 22.699 4.29905 25.499L4.4 25.6C4.42593 25.6406 4.46038 25.675 4.50096 25.701C7.30103 28.456 11.0718 30 15 30C18.9282 30 22.699 28.456 25.499 25.701C25.5396 25.675 25.5741 25.6406 25.6 25.6C25.6406 25.5741 25.675 25.5396 25.701 25.499ZM2.36653 16.1537H5.84218C6.04984 17.7953 6.69766 19.35 7.71701 20.6533L5.25089 23.1195C3.60208 21.1457 2.5957 18.7153 2.36653 16.1537ZM5.25089 6.88055L7.71701 9.34667C6.69766 10.65 6.04984 12.2047 5.84218 13.8463H2.36653C2.5957 11.2847 3.60208 8.85428 5.25089 6.88055ZM27.6335 13.8463H24.1578C23.9502 12.2047 23.3023 10.65 22.283 9.34667L24.7491 6.88055C26.3979 8.85428 27.4043 11.2847 27.6335 13.8463ZM20.6533 7.71701C19.35 6.69766 17.7953 6.04984 16.1537 5.84218V2.36653C18.7153 2.5957 21.1457 3.60208 23.1195 5.25089L20.6533 7.71701ZM13.8463 5.84218C12.2047 6.04984 10.65 6.69766 9.34667 7.71701L6.88055 5.25089C8.85428 3.60208 11.2847 2.5957 13.8463 2.36653V5.84218ZM9.34667 22.283C10.65 23.3023 12.2047 23.9502 13.8463 24.1578V27.6335C11.2847 27.4043 8.85428 26.3979 6.88055 24.7491L9.34667 22.283ZM16.1537 24.1578C17.7953 23.9502 19.35 23.3023 20.6533 22.283L23.1195 24.7491C21.1457 26.3979 18.7153 27.4043 16.1537 27.6335V24.1578ZM22.283 20.6533C23.3023 19.35 23.9502 17.7953 24.1578 16.1537H27.6335C27.4043 18.7153 26.3979 21.1457 24.7491 23.1195L22.283 20.6533Z"/>
  </g>

  <g id="header-bonus" width="46" height="46" viewBox="0 0 46 46" xmlns="http://www.w3.org/2000/svg">
    <path d="M13.6562 0H13.8539C16.7199 0 19.3793 1.51926 20.8348 3.99355L23 7.67805L25.1652 3.99355C26.6207 1.51926 29.2801 0 32.1461 0H32.3438C36.7102 0 40.25 3.53984 40.25 7.90625C40.25 9.2 39.9355 10.341 39.3875 11.5H43.125C44.7152 11.5 46 12.7848 46 14.375V20.125C46 21.7152 44.7152 23 43.125 23H2.875C1.28746 23 0 21.7152 0 20.125V14.375C0 12.7848 1.28746 11.5 2.875 11.5H6.6125C6.06086 10.341 5.75 9.2 5.75 7.90625C5.75 3.53984 9.28984 0 13.6562 0ZM17.1152 6.17945C16.4324 5.02316 15.1926 4.3125 13.8539 4.3125H13.6562C11.6707 4.3125 10.0625 5.9216 10.0625 7.90625C10.0625 9.8918 11.6707 11.5 13.6562 11.5H20.2418L17.1152 6.17945ZM32.3438 4.3125H32.1461C30.8074 4.3125 29.5676 5.02316 28.8848 6.17945L25.7582 11.5H32.3438C34.3293 11.5 35.9375 9.8918 35.9375 7.90625C35.9375 5.9216 34.3293 4.3125 32.3438 4.3125ZM2.875 25.875H20.125V46H7.1875C4.80574 46 2.875 44.0684 2.875 41.6875V25.875ZM25.875 46V25.875H43.125V41.6875C43.125 44.0684 41.1934 46 38.8125 46H25.875Z"/>
  </g>

  <g id="header-bonus_2" width="30" height="30" viewBox="0 0 30 30" xmlns="http://www.w3.org/2000/svg">
    <path d="M8.90625 0H9.03516C10.9043 0 12.6387 0.99082 13.5879 2.60449L15 5.00742L16.4121 2.60449C17.3613 0.99082 19.0957 0 20.9648 0H21.0938C23.9414 0 26.25 2.30859 26.25 5.15625C26.25 6 26.0449 6.74414 25.6875 7.5H28.125C29.1621 7.5 30 8.33789 30 9.375V13.125C30 14.1621 29.1621 15 28.125 15H1.875C0.839648 15 0 14.1621 0 13.125V9.375C0 8.33789 0.839648 7.5 1.875 7.5H4.3125C3.95273 6.74414 3.75 6 3.75 5.15625C3.75 2.30859 6.05859 0 8.90625 0ZM11.1621 4.03008C10.7168 3.27598 9.9082 2.8125 9.03516 2.8125H8.90625C7.61133 2.8125 6.5625 3.86191 6.5625 5.15625C6.5625 6.45117 7.61133 7.5 8.90625 7.5H13.2012L11.1621 4.03008ZM21.0938 2.8125H20.9648C20.0918 2.8125 19.2832 3.27598 18.8379 4.03008L16.7988 7.5H21.0938C22.3887 7.5 23.4375 6.45117 23.4375 5.15625C23.4375 3.86191 22.3887 2.8125 21.0938 2.8125ZM1.875 16.875H13.125V30H4.6875C3.13418 30 1.875 28.7402 1.875 27.1875V16.875ZM16.875 30V16.875H28.125V27.1875C28.125 28.7402 26.8652 30 25.3125 30H16.875Z"/>
  </g>

  <g id="heart" width="49" height="44" viewBox="0 0 49 44" xmlns="http://www.w3.org/2000/svg">
    <path d="M47.8145 9.01693C47.0542 7.25242 45.958 5.65344 44.5872 4.3095C43.2153 2.96155 41.5978 1.89035 39.8227 1.15416C37.9821 0.387738 36.0078 -0.00455839 34.0147 3.99612e-05C31.2184 3.99612e-05 28.4902 0.767555 26.1193 2.21731C25.5521 2.56411 25.0133 2.94503 24.5028 3.36005C23.9923 2.94503 23.4535 2.56411 22.8863 2.21731C20.5154 0.767555 17.7872 3.99612e-05 14.991 3.99612e-05C12.9774 3.99612e-05 11.0263 0.386641 9.18288 1.15416C7.40189 1.89325 5.79673 2.9564 4.41845 4.3095C3.04582 5.65192 1.94932 7.25128 1.19111 9.01693C0.402708 10.8533 0 12.8033 0 14.8102C0 16.7035 0.385693 18.6763 1.15141 20.6832C1.79234 22.3603 2.71119 24.1 3.88528 25.8568C5.74568 28.6369 8.30373 31.5364 11.48 34.4757C16.7436 39.348 21.9561 42.7137 22.1773 42.8501L23.5216 43.7143C24.1171 44.0952 24.8828 44.0952 25.4784 43.7143L26.8226 42.8501C27.0438 42.708 32.2507 39.348 37.5199 34.4757C40.6962 31.5364 43.2543 28.6369 45.1147 25.8568C46.2887 24.1 47.2133 22.3603 47.8485 20.6832C48.6142 18.6763 48.9999 16.7035 48.9999 14.8102C49.0056 12.8033 48.6029 10.8533 47.8145 9.01693ZM24.5028 39.2172C24.5028 39.2172 4.31068 26.2491 4.31068 14.8102C4.31068 9.01693 9.09213 4.32087 14.991 4.32087C19.1371 4.32087 22.7332 6.64047 24.5028 10.0289C26.2725 6.64047 29.8685 4.32087 34.0147 4.32087C39.9135 4.32087 44.6949 9.01693 44.6949 14.8102C44.6949 26.2491 24.5028 39.2172 24.5028 39.2172Z"/>
  </g>

  <g id="heart_2" width="41" height="37" viewBox="0 0 41 37" xmlns="http://www.w3.org/2000/svg">
    <path d="M40.0081 7.58242C39.3719 6.09862 38.4547 4.75403 37.3076 3.6239C36.1597 2.49039 34.8064 1.58961 33.3211 0.97054C31.7809 0.326053 30.129 -0.00383319 28.4612 3.36038e-05C26.1215 3.36038e-05 23.8387 0.645444 21.8549 1.86455C21.3803 2.15618 20.9295 2.4765 20.5023 2.8255C20.0752 2.4765 19.6244 2.15618 19.1498 1.86455C17.166 0.645444 14.8832 3.36038e-05 12.5434 3.36038e-05C10.8587 3.36038e-05 9.22606 0.32513 7.68363 0.97054C6.19342 1.59205 4.85032 2.48606 3.69707 3.6239C2.54854 4.75275 1.63107 6.09767 0.996642 7.58242C0.33696 9.12662 0 10.7664 0 12.4541C0 14.0461 0.322722 15.705 0.963421 17.3927C1.49971 18.803 2.26855 20.2659 3.25095 21.7432C4.80761 24.081 6.94802 26.5192 9.60573 28.9909C14.0099 33.0881 18.3714 35.9183 18.5565 36.0331L19.6813 36.7598C20.1796 37.0801 20.8203 37.0801 21.3186 36.7598L22.4434 36.0331C22.6285 35.9136 26.9853 33.0881 31.3942 28.9909C34.0519 26.5192 36.1923 24.081 37.749 21.7432C38.7314 20.2659 39.505 18.803 40.0365 17.3927C40.6772 15.705 41 14.0461 41 12.4541C41.0047 10.7664 40.6677 9.12662 40.0081 7.58242ZM20.5023 32.9781C20.5023 32.9781 3.60689 22.0731 3.60689 12.4541C3.60689 7.58241 7.6077 3.63346 12.5434 3.63346C16.0127 3.63346 19.0216 5.58403 20.5023 8.4334C21.9831 5.58403 24.992 3.63346 28.4612 3.63346C33.397 3.63346 37.3978 7.58241 37.3978 12.4541C37.3978 22.0731 20.5023 32.9781 20.5023 32.9781Z"/>
  </g>

  <g id="heart_3" width="34" height="31" viewBox="0 0 34 31" xmlns="http://www.w3.org/2000/svg">
    <path d="M33.1774 6.35283C32.6499 5.10966 31.8892 3.98311 30.938 3.03624C29.9861 2.08654 28.8638 1.33184 27.6321 0.813155C26.3549 0.273179 24.985 -0.0032116 23.602 2.81545e-05C21.6617 2.81545e-05 19.7687 0.540778 18.1236 1.56219C17.73 1.80653 17.3562 2.0749 17.0019 2.36731C16.6477 2.0749 16.2739 1.80653 15.8803 1.56219C14.2352 0.540778 12.3422 2.81545e-05 10.4019 2.81545e-05C9.00473 2.81545e-05 7.65088 0.272406 6.37179 0.813155C5.136 1.33388 4.02222 2.08292 3.06586 3.03624C2.11342 3.98204 1.35259 5.10886 0.826484 6.35283C0.27943 7.64663 0 9.02053 0 10.4345C0 11.7683 0.267623 13.1583 0.798934 14.5722C1.24366 15.7539 1.88123 16.9796 2.69591 18.2173C3.9868 20.176 5.76177 22.2188 7.96573 24.2897C11.618 27.7225 15.2348 30.0937 15.3883 30.1899L16.3211 30.7987C16.7343 31.0671 17.2656 31.0671 17.6789 30.7987L18.6116 30.1899C18.7651 30.0897 22.378 27.7225 26.0342 24.2897C28.2382 22.2188 30.0132 20.176 31.304 18.2173C32.1187 16.9796 32.7602 15.7539 33.201 14.5722C33.7323 13.1583 34 11.7683 34 10.4345C34.0039 9.02053 33.7245 7.64663 33.1774 6.35283ZM17.0019 27.6303C17.0019 27.6303 2.99108 18.4937 2.99108 10.4345C2.99108 6.35283 6.30882 3.04425 10.4019 3.04425C13.2788 3.04425 15.774 4.67851 17.0019 7.06582C18.2299 4.67851 20.7251 3.04425 23.602 3.04425C27.6951 3.04425 31.0128 6.35283 31.0128 10.4345C31.0128 18.4937 17.0019 27.6303 17.0019 27.6303Z"/>
  </g>


 <g id="share" width="55" height="55" viewBox="0 0 55 55" fill="none" xmlns="http://www.w3.org/2000/svg">
    <path d="M50.4167 4.58331L25.2084 29.7916L50.4167 4.58331ZM50.4167 4.58331L34.375 50.4166L25.2084 29.7916L4.58337 20.625L50.4167 4.58331Z" stroke-width="2" stroke-linecap="round" stroke-linejoin="round"/>
 </g>

  <g id="share_2" width="40" height="40" viewBox="0 0 40 40" fill="none" xmlns="http://www.w3.org/2000/svg">
    <path d="M36.6666 3.33331L18.3333 21.6666L36.6666 3.33331ZM36.6666 3.33331L24.9999 36.6666L18.3333 21.6666L3.33325 15L36.6666 3.33331Z" stroke-width="2" stroke-linecap="round" stroke-linejoin="round"/>
  </g>

  <g id="share_3" width="34" height="34" viewBox="0 0 34 34" fill="none" xmlns="http://www.w3.org/2000/svg">
    <path d="M31.1668 2.83334L15.5835 18.4167L31.1668 2.83334ZM31.1668 2.83334L21.2502 31.1667L15.5835 18.4167L2.8335 12.75L31.1668 2.83334Z" stroke-width="2" stroke-linecap="round" stroke-linejoin="round"/>
  </g>


</svg>
