<svg width="17" height="17" viewBox="0 0 17 17" fill="none" xmlns="http://www.w3.org/2000/svg">
<g clip-path="url(#clip0_41_352)">
<path d="M4.95835 15.5833H2.83335C2.45763 15.5833 2.0973 15.4341 1.83162 15.1684C1.56594 14.9027 1.41669 14.5424 1.41669 14.1667V9.20833C1.41669 8.83261 1.56594 8.47228 1.83162 8.2066C2.0973 7.94092 2.45763 7.79167 2.83335 7.79167H4.95835M9.91669 6.375V3.54167C9.91669 2.97808 9.6928 2.43758 9.29429 2.03906C8.89577 1.64055 8.35527 1.41667 7.79169 1.41667L4.95835 7.79167V15.5833H12.9484C13.29 15.5872 13.6215 15.4675 13.8819 15.2462C14.1422 15.0249 14.3138 14.717 14.365 14.3792L15.3425 8.00417C15.3733 7.80113 15.3596 7.59382 15.3024 7.39659C15.2451 7.19937 15.1457 7.01696 15.0109 6.86199C14.8762 6.70702 14.7093 6.5832 14.522 6.49911C14.3346 6.41502 14.1312 6.37267 13.9259 6.375H9.91669Z" stroke="black" stroke-width="2" stroke-linecap="round" stroke-linejoin="round"/>
</g>
<defs>
<clipPath id="clip0_41_352">
<rect width="17" height="17" fill="white"/>
</clipPath>
</defs>
</svg>
