<svg width="31" height="42" viewBox="0 0 31 42" fill="none" xmlns="http://www.w3.org/2000/svg">
<path d="M17.1974 16.3716C17.4816 15.5065 18.6853 15.5065 18.9694 16.3716L20.6355 21.4491C21.0022 22.5652 21.6201 23.5794 22.4401 24.4111C23.2602 25.2429 24.2598 25.8693 25.3599 26.2409L30.3607 27.9316C31.2131 28.22 31.2131 29.4415 30.3607 29.7299L25.3573 31.4206C24.2574 31.7928 23.2581 32.4198 22.4385 33.252C21.6189 34.0842 21.0016 35.0987 20.6355 36.2151L18.9694 41.29C18.9082 41.4794 18.7895 41.6443 18.6304 41.7613C18.4713 41.8782 18.2799 41.9412 18.0834 41.9412C17.887 41.9412 17.6955 41.8782 17.5364 41.7613C17.3773 41.6443 17.2587 41.4794 17.1974 41.29L15.5314 36.2124C15.1649 35.0965 14.5474 34.0826 13.7279 33.2509C12.9083 32.4192 11.9091 31.7925 10.8095 31.4206L5.80616 29.7299C5.61951 29.6677 5.45697 29.5473 5.34173 29.3858C5.22649 29.2244 5.16445 29.0301 5.16445 28.8308C5.16445 28.6314 5.22649 28.4371 5.34173 28.2757C5.45697 28.1142 5.61951 27.9938 5.80616 27.9316L10.8095 26.2409C11.9091 25.869 12.9083 25.2424 13.7279 24.4106C14.5474 23.5789 15.1649 22.565 15.5314 21.4491L17.1974 16.3716ZM7.21909 3.00537C7.25613 2.89185 7.32748 2.79306 7.42301 2.72305C7.51853 2.65303 7.63337 2.61535 7.7512 2.61535C7.86904 2.61535 7.98387 2.65303 8.0794 2.72305C8.17492 2.79306 8.24627 2.89185 8.28331 3.00537L9.28295 6.05136C9.72982 7.40921 10.7785 8.47347 12.1166 8.92696L15.1181 9.94142C15.2299 9.97901 15.3273 10.0514 15.3963 10.1484C15.4653 10.2453 15.5024 10.3618 15.5024 10.4814C15.5024 10.601 15.4653 10.7175 15.3963 10.8145C15.3273 10.9114 15.2299 10.9838 15.1181 11.0214L12.1166 12.0359C11.4567 12.259 10.857 12.635 10.3652 13.1341C9.87335 13.6333 9.50281 14.2418 9.28295 14.9115L8.28331 17.9575C8.24627 18.071 8.17492 18.1698 8.0794 18.2398C7.98387 18.3098 7.86904 18.3475 7.7512 18.3475C7.63337 18.3475 7.51853 18.3098 7.42301 18.2398C7.32748 18.1698 7.25613 18.071 7.21909 17.9575L6.21945 14.9115C5.99959 14.2418 5.62906 13.6333 5.13722 13.1341C4.64537 12.635 4.04574 12.259 3.38584 12.0359L0.384325 11.0214C0.272465 10.9838 0.175122 10.9114 0.106128 10.8145C0.0371349 10.7175 0 10.601 0 10.4814C0 10.3618 0.0371349 10.2453 0.106128 10.1484C0.175122 10.0514 0.272465 9.97901 0.384325 9.94142L3.38584 8.92696C4.04574 8.70384 4.64537 8.32782 5.13722 7.82869C5.62906 7.32956 5.99959 6.72104 6.21945 6.05136L7.21909 3.00537ZM25.4787 0.255587C25.5042 0.180948 25.552 0.116226 25.6154 0.0704201C25.6788 0.0246141 25.7548 0 25.8326 0C25.9104 0 25.9863 0.0246141 26.0498 0.0704201C26.1132 0.116226 26.161 0.180948 26.1865 0.255587L26.8529 2.2845C27.15 3.19148 27.85 3.90186 28.7437 4.20332L30.743 4.87962C30.8165 4.9055 30.8803 4.95399 30.9254 5.01835C30.9706 5.08271 30.9948 5.15975 30.9948 5.23874C30.9948 5.31774 30.9706 5.39478 30.9254 5.45914C30.8803 5.5235 30.8165 5.57199 30.743 5.59787L28.7437 6.27417C28.3033 6.42286 27.903 6.67371 27.5748 7.00679C27.2466 7.33987 26.9994 7.74602 26.8529 8.19299L26.1865 10.2219C26.161 10.2965 26.1132 10.3613 26.0498 10.4071C25.9863 10.4529 25.9104 10.4775 25.8326 10.4775C25.7548 10.4775 25.6788 10.4529 25.6154 10.4071C25.552 10.3613 25.5042 10.2965 25.4787 10.2219L24.8123 8.19299C24.6658 7.74602 24.4186 7.33987 24.0904 7.00679C23.7621 6.67371 23.3619 6.42286 22.9215 6.27417L20.9248 5.59787C20.8512 5.57199 20.7875 5.5235 20.7423 5.45914C20.6972 5.39478 20.6729 5.31774 20.6729 5.23874C20.6729 5.15975 20.6972 5.08271 20.7423 5.01835C20.7875 4.95399 20.8512 4.9055 20.9248 4.87962L22.9241 4.20332C23.8178 3.90186 24.5178 3.19148 24.8149 2.2845L25.4787 0.258208V0.255587Z" fill="#FF0617"/>
</svg>
