<svg width="35" height="35" viewBox="0 0 35 35" fill="none" xmlns="http://www.w3.org/2000/svg">
<path d="M33 20.5412H20.6V32.9412H33V20.5412ZM8.975 1.94116L15.95 14.3412H2L8.975 1.94116ZM26.8 14.3412C28.4443 14.3412 30.0213 13.6879 31.1841 12.5252C32.3468 11.3625 33 9.7855 33 8.14116C33 6.49682 32.3468 4.91983 31.1841 3.7571C30.0213 2.59437 28.4443 1.94116 26.8 1.94116C25.1557 1.94116 23.5787 2.59437 22.4159 3.7571C21.2532 4.91983 20.6 6.49682 20.6 8.14116C20.6 9.7855 21.2532 11.3625 22.4159 12.5252C23.5787 13.6879 25.1557 14.3412 26.8 14.3412Z" stroke="#FF0617" stroke-width="3" stroke-linejoin="round"/>
<path d="M2 20.5411L14.4 32.9411M14.4 20.5411L2 32.9411" stroke="#FF0617" stroke-width="3" stroke-linecap="round" stroke-linejoin="round"/>
</svg>
