<svg width="88" height="88" viewBox="0 0 88 88" fill="none" xmlns="http://www.w3.org/2000/svg">
<path d="M20.6525 71.5C19.3152 71.5023 17.9835 71.3266 16.6925 70.9775C12.8175 69.8725 9.52994 67.2926 7.53518 63.7915C5.54042 60.2904 4.99735 56.1469 6.0225 52.25L12.43 27.94C12.929 25.9726 13.8161 24.1247 15.0392 22.5049C16.2624 20.8851 17.7968 19.526 19.5525 18.5075C21.262 17.5174 23.1509 16.8763 25.1099 16.6214C27.0689 16.3665 29.0591 16.5028 30.965 17.0225C32.991 17.5851 34.8781 18.5625 36.5066 19.8927C38.135 21.223 39.4694 22.877 40.425 24.75H47.575C48.5265 22.874 49.8595 21.2175 51.4886 19.8868C53.1177 18.5561 55.0068 17.5805 57.035 17.0225C58.9409 16.5028 60.931 16.3665 62.8901 16.6214C64.8491 16.8763 66.738 17.5174 68.4475 18.5075C70.1946 19.5234 71.7235 20.875 72.9459 22.4845C74.1683 24.0939 75.0601 25.9293 75.57 27.885L81.9775 52.25C83.018 56.1583 82.4792 60.319 80.4776 63.8334C78.476 67.3477 75.1723 69.9336 71.28 71.0325C69.3741 71.5522 67.3839 71.6885 65.4249 71.4336C63.4659 71.1787 61.577 70.5376 59.8675 69.5475C58.1175 68.5352 56.5864 67.1847 55.3636 65.5747C54.1408 63.9647 53.2506 62.1275 52.745 60.17L52.25 57.75H35.75L35.1175 60.115C34.6119 62.0725 33.7217 63.9097 32.4989 65.5197C31.2761 67.1297 29.745 68.4802 27.995 69.4925C25.7606 70.7813 23.2318 71.4726 20.6525 71.5ZM27.0325 22C25.373 22.0056 23.7433 22.4415 22.3025 23.265C20.0443 24.5899 18.403 26.7554 17.7375 29.2875L11.33 53.5975C10.6595 56.102 10.9983 58.7697 12.2736 61.0271C13.5488 63.2845 15.6588 64.9516 18.15 65.67C19.3531 65.9982 20.6094 66.0845 21.8461 65.924C23.0829 65.7635 24.2755 65.3594 25.355 64.735C26.4789 64.0861 27.4618 63.219 28.2457 62.1848C29.0297 61.1505 29.5989 59.97 29.92 58.7125L31.625 52.25H56.375L58.0525 58.7125C58.3792 59.9676 58.9507 61.1457 59.7341 62.1792C60.5175 63.2127 61.4974 64.0813 62.6175 64.735C63.7023 65.3588 64.8996 65.7625 66.1406 65.9229C67.3817 66.0834 68.6422 65.9974 69.85 65.67C72.3442 64.9583 74.4568 63.291 75.7286 61.0305C77.0005 58.7699 77.3289 56.0988 76.6425 53.5975L70.235 29.2875C69.9157 28.0329 69.3502 26.8544 68.5712 25.8205C67.7922 24.7865 66.8153 23.9179 65.6975 23.265C64.6127 22.6412 63.4154 22.2375 62.1744 22.0771C60.9333 21.9167 59.6728 22.0026 58.465 22.33C56.9713 22.7558 55.6008 23.5318 54.4673 24.5936C53.3337 25.6554 52.4699 26.9723 51.9475 28.435L51.2875 30.25H36.7125L36.0525 28.435C35.5255 26.9704 34.6568 25.6525 33.5185 24.5908C32.3802 23.529 31.0052 22.754 29.5075 22.33C28.7004 22.1124 27.8684 22.0014 27.0325 22Z" fill="#F8F8F8"/>
<path d="M27.5 44C26.4122 44 25.3488 43.6774 24.4444 43.0731C23.5399 42.4687 22.8349 41.6098 22.4187 40.6048C22.0024 39.5998 21.8935 38.4939 22.1057 37.427C22.3179 36.3601 22.8417 35.3801 23.6109 34.6109C24.3801 33.8417 25.3601 33.3179 26.427 33.1057C27.4939 32.8935 28.5998 33.0024 29.6048 33.4187C30.6098 33.8349 31.4687 34.5399 32.0731 35.4444C32.6774 36.3488 33 37.4122 33 38.5C33 39.9587 32.4205 41.3576 31.3891 42.3891C30.3576 43.4205 28.9587 44 27.5 44Z" fill="#F8F8F8"/>
<path d="M60.5 35.75C62.0188 35.75 63.25 34.5188 63.25 33C63.25 31.4812 62.0188 30.25 60.5 30.25C58.9812 30.25 57.75 31.4812 57.75 33C57.75 34.5188 58.9812 35.75 60.5 35.75Z" fill="#F8F8F8"/>
<path d="M60.5 46.75C62.0188 46.75 63.25 45.5188 63.25 44C63.25 42.4812 62.0188 41.25 60.5 41.25C58.9812 41.25 57.75 42.4812 57.75 44C57.75 45.5188 58.9812 46.75 60.5 46.75Z" fill="#F8F8F8"/>
<path d="M55 41.25C56.5188 41.25 57.75 40.0188 57.75 38.5C57.75 36.9812 56.5188 35.75 55 35.75C53.4812 35.75 52.25 36.9812 52.25 38.5C52.25 40.0188 53.4812 41.25 55 41.25Z" fill="#F8F8F8"/>
<path d="M66 41.25C67.5188 41.25 68.75 40.0188 68.75 38.5C68.75 36.9812 67.5188 35.75 66 35.75C64.4812 35.75 63.25 36.9812 63.25 38.5C63.25 40.0188 64.4812 41.25 66 41.25Z" fill="#F8F8F8"/>
</svg>
