<svg width="16" height="14" viewBox="0 0 16 14" fill="none" xmlns="http://www.w3.org/2000/svg">
<path fill-rule="evenodd" clip-rule="evenodd" d="M1.29388 8.20001H12.5573L9.10851 12.4147C8.77246 12.8245 8.82752 13.4345 9.23002 13.7757C9.63348 14.1179 10.2315 14.0619 10.5676 13.652L15.3141 7.85201C15.3511 7.80658 15.3691 7.75341 15.3967 7.70314C15.4195 7.66254 15.447 7.62774 15.4641 7.58328C15.5068 7.47211 15.5324 7.35514 15.5324 7.23721C15.5324 7.23624 15.5334 7.23431 15.5334 7.23334C15.5334 7.23238 15.5324 7.23044 15.5324 7.22948C15.5324 7.11154 15.5068 6.99458 15.4641 6.88341C15.447 6.83894 15.4195 6.80414 15.3967 6.76354C15.3691 6.71328 15.3511 6.66011 15.3141 6.61468L10.5676 0.814675C10.3787 0.585575 10.1091 0.466675 9.83758 0.466675C9.62303 0.466675 9.40754 0.540141 9.23002 0.690942C8.82752 1.03217 8.77246 1.64214 9.10851 2.05201L12.5573 6.26668H1.29388C0.769864 6.26668 0.344578 6.69974 0.344578 7.23334C0.344578 7.76694 0.769864 8.20001 1.29388 8.20001Z" fill="white" fill-opacity="0.5"/>
</svg>
