<svg width="100" height="100" xmlns="http://www.w3.org/2000/svg" xmlns:xlink="http://www.w3.org/1999/xlink">

  <g id="phone" width="24" height="24" viewBox="0 0 24 24" xmlns="http://www.w3.org/2000/svg">
    <path fill-rule="evenodd" clip-rule="evenodd" d="M11.5317 12.4724C15.5208 16.4604 16.4258 11.8467 18.9656 14.3848C21.4143 16.8328 22.8216 17.3232 19.7192 20.4247C19.3306 20.737 16.8616 24.4943 8.1846 15.8197C-0.493478 7.144 3.26158 4.67244 3.57397 4.28395C6.68387 1.17385 7.16586 2.58938 9.61449 5.03733C12.1544 7.5765 7.54266 8.48441 11.5317 12.4724Z"/>
  </g>


  <g id="telegram" width="24" height="24" viewBox="0 0 24 24" xmlns="http://www.w3.org/2000/svg">
    <path fill-rule="evenodd" clip-rule="evenodd" d="M18.4833 19.7902L18.484 19.7885L18.5014 19.745L21.5002 4.62592V4.57682C21.5002 4.20012 21.361 3.87126 21.0581 3.674C20.793 3.50133 20.4882 3.48904 20.2745 3.50526C20.0485 3.52241 19.8354 3.57883 19.6879 3.62579C19.612 3.64995 19.5484 3.67323 19.503 3.69083C19.4802 3.69967 19.4617 3.70717 19.4483 3.71276L19.4351 3.71831L2.71526 10.2772L2.71066 10.2789C2.70163 10.2822 2.68969 10.2866 2.67526 10.2923C2.64651 10.3034 2.60737 10.3195 2.56139 10.3403C2.47111 10.3812 2.34637 10.4444 2.21987 10.531C2.00502 10.6781 1.5959 11.0264 1.66499 11.5787C1.72221 12.0361 2.03751 12.3266 2.25008 12.477C2.36403 12.5576 2.47304 12.6157 2.55287 12.6538C2.59332 12.673 2.62767 12.6878 2.65326 12.6982C2.66609 12.7034 2.67682 12.7076 2.68512 12.7107L2.69574 12.7147L2.70253 12.7172L5.62777 13.702C5.6179 13.8856 5.6361 14.0727 5.68478 14.2573L7.15006 19.8157C7.3238 20.4748 7.92002 20.9339 8.60159 20.9334C9.21252 20.9329 9.75435 20.5633 9.98454 20.0119L12.2722 17.5658L16.2012 20.5781L16.2571 20.6025C16.614 20.7582 16.9475 20.8076 17.2525 20.7659C17.557 20.7243 17.7989 20.5966 17.9807 20.4512C18.1595 20.3081 18.2821 20.1466 18.3592 20.025C18.3984 19.9633 18.4276 19.909 18.4478 19.8681C18.458 19.8476 18.466 19.8302 18.472 19.8167L18.4796 19.7993L18.4822 19.7928L18.4833 19.7902ZM7.13518 13.875C7.10187 13.7486 7.15416 13.6153 7.26444 13.5452L17.1865 7.24432C17.1865 7.24432 17.77 6.89002 17.7492 7.24432C17.7492 7.24432 17.8533 7.30689 17.5406 7.59861C17.244 7.87569 10.4689 14.4167 9.7834 15.0786C9.74383 15.1168 9.72021 15.1607 9.70627 15.2139L8.60046 19.4334L7.13518 13.875Z"/>
  </g>

  <g id="telegram_2" width="21" height="20" viewBox="0 0 21 20" xmlns="http://www.w3.org/2000/svg">
    <path fill-rule="evenodd" clip-rule="evenodd" d="M15.9026 16.4917L15.9032 16.4903L15.9177 16.454L18.4167 3.85477V3.81385C18.4167 3.49993 18.3007 3.22588 18.0483 3.0615C17.8273 2.91762 17.5734 2.90737 17.3953 2.92089C17.2069 2.93518 17.0293 2.98219 16.9064 3.02133C16.8431 3.04146 16.7902 3.06086 16.7523 3.07553C16.7333 3.0829 16.7179 3.08914 16.7067 3.0938L16.6957 3.09843L2.76256 8.56421L2.75872 8.56559C2.7512 8.56833 2.74124 8.57204 2.72922 8.57672C2.70526 8.58604 2.67265 8.59939 2.63433 8.61676C2.5591 8.65085 2.45515 8.70347 2.34973 8.77566C2.17069 8.89827 1.82976 9.18854 1.88733 9.64873C1.93501 10.0299 2.19776 10.272 2.3749 10.3973C2.46986 10.4645 2.5607 10.513 2.62723 10.5446C2.66093 10.5607 2.68957 10.573 2.71089 10.5817C2.72158 10.586 2.73052 10.5895 2.73743 10.5921L2.74629 10.5954L2.75195 10.5975L5.18965 11.4182C5.18142 11.5711 5.19659 11.7271 5.23715 11.8809L6.45822 16.5129C6.603 17.0622 7.09986 17.4447 7.66783 17.4443C8.17694 17.4439 8.62846 17.136 8.82028 16.6764L10.7267 14.638L14.0008 17.1482L14.0474 17.1685C14.3449 17.2984 14.6228 17.3395 14.8769 17.3048C15.1306 17.2701 15.3323 17.1637 15.4837 17.0425C15.6328 16.9233 15.7349 16.7887 15.7992 16.6874C15.8318 16.6359 15.8562 16.5906 15.873 16.5566C15.8815 16.5395 15.8882 16.525 15.8932 16.5137L15.8995 16.4992L15.9017 16.4939L15.9026 16.4917ZM6.44582 11.5623C6.41807 11.457 6.46163 11.3459 6.55354 11.2875L14.8219 6.03677C14.8219 6.03677 15.3082 5.74152 15.2908 6.03677C15.2908 6.03677 15.3776 6.08891 15.117 6.33201C14.8698 6.56291 9.22395 12.0138 8.65267 12.5654C8.6197 12.5972 8.60001 12.6337 8.58839 12.6781L7.66689 16.1943L6.44582 11.5623Z"/>
  </g>

   <g id="whatsapp" width="100" height="100" viewBox="0 0 100 100"  xmlns="http://www.w3.org/2000/svg">
    <path d="M4.25895 16.5936C3.14076 14.7086 2.74916 12.4802 3.15768 10.327C3.56621 8.17366 4.74675 6.24356 6.47764 4.89909C8.20852 3.55462 10.3707 2.88826 12.5581 3.02514C14.7455 3.16202 16.8078 4.09273 18.3575 5.6425C19.9073 7.19226 20.838 9.25448 20.9749 11.4419C21.1118 13.6293 20.4455 15.7915 19.101 17.5224C17.7565 19.2533 15.8264 20.4338 13.6732 20.8424C11.5199 21.2509 9.29149 20.8593 7.40649 19.7411L4.29808 20.6292C4.16948 20.6659 4.03338 20.6676 3.90391 20.634C3.77443 20.6005 3.65628 20.5329 3.56171 20.4384C3.46713 20.3438 3.39956 20.2256 3.36601 20.0961C3.33246 19.9667 3.33415 19.8306 3.37089 19.702L4.25895 16.5936Z" stroke-width="2" stroke-linecap="round" stroke-linejoin="round"/>
    <path  d="M14.2607 17.25C13.274 17.2514 12.2967 17.0581 11.3848 16.6811C10.4729 16.3042 9.64441 15.751 8.9467 15.0533C8.24899 14.3556 7.69582 13.5271 7.31887 12.6152C6.94192 11.7033 6.74861 10.726 6.75001 9.73934C6.75224 9.04482 7.02986 8.37953 7.52196 7.88943C8.01406 7.39932 8.68047 7.12441 9.375 7.125C9.48892 7.125 9.60081 7.15512 9.69934 7.21229C9.79787 7.26947 9.87953 7.35168 9.93605 7.45059L11.0321 9.36865C11.0982 9.48432 11.1323 9.61551 11.1309 9.74873C11.1294 9.88195 11.0926 10.0124 11.024 10.1266L10.1438 11.5937C10.5967 12.5986 11.4014 13.4033 12.4063 13.8562L13.8734 12.976C13.9876 12.9074 14.118 12.8706 14.2513 12.8691C14.3845 12.8677 14.5157 12.9018 14.6313 12.9679L16.5494 14.064C16.6483 14.1205 16.7305 14.2021 16.7877 14.3007C16.8449 14.3992 16.875 14.5111 16.875 14.625C16.873 15.3187 16.5973 15.9837 16.1077 16.4752C15.6182 16.9667 14.9544 17.2452 14.2607 17.25Z" fill="#4b4b4b"/>
  </g>

  <g id="whatsapp_2" width="21" height="20" viewBox="0 0 21 20" xmlns="http://www.w3.org/2000/svg">
    <path d="M3.72658 13.8279C2.74816 12.2571 2.40551 10.4001 2.76297 8.60571C3.12043 6.8113 4.15341 5.20288 5.66793 4.08249C7.18246 2.9621 9.07435 2.4068 10.9883 2.52087C12.9023 2.63494 14.7068 3.41053 16.0628 4.702C17.4189 5.99347 18.2333 7.71198 18.3531 9.53484C18.4728 11.3577 17.8898 13.1595 16.7134 14.6019C15.537 16.0443 13.8481 17.0281 11.964 17.3686C10.0799 17.709 8.13006 17.3827 6.48068 16.4509L3.76082 17.1909C3.64829 17.2215 3.52921 17.2229 3.41592 17.195C3.30263 17.167 3.19925 17.1107 3.11649 17.0319C3.03374 16.9531 2.97462 16.8546 2.94526 16.7467C2.91591 16.6388 2.91738 16.5254 2.94953 16.4182L3.72658 13.8279Z" stroke-width="2" stroke-linecap="round" stroke-linejoin="round"/>
    <path d="M12.4781 14.375C11.6147 14.3762 10.7596 14.2151 9.9617 13.9009C9.16382 13.5868 8.43886 13.1258 7.82836 12.5444C7.21787 11.963 6.73384 11.2726 6.40401 10.5127C6.07418 9.75278 5.90503 8.93837 5.90626 8.11612C5.90821 7.53735 6.15112 6.98294 6.58172 6.57452C7.01231 6.1661 7.59541 5.93701 8.20313 5.9375C8.3028 5.9375 8.40071 5.9626 8.48692 6.01025C8.57313 6.05789 8.64459 6.1264 8.69404 6.20883L9.65307 7.80721C9.71091 7.9036 9.74074 8.01293 9.7395 8.12394C9.73826 8.23496 9.706 8.34366 9.64602 8.43886L8.87582 9.66139C9.27207 10.4989 9.97619 11.1695 10.8555 11.5468L12.1392 10.8133C12.2392 10.7562 12.3533 10.7255 12.4699 10.7243C12.5864 10.7231 12.7012 10.7515 12.8024 10.8066L14.4807 11.72C14.5673 11.7671 14.6392 11.8351 14.6892 11.9172C14.7393 11.9993 14.7656 12.0926 14.7656 12.1875C14.7639 12.7656 14.5226 13.3197 14.0943 13.7293C13.6659 14.139 13.0851 14.371 12.4781 14.375Z" fill="#3A3833"/>
  </g>

  <g id="instagram" width="24" height="24" viewBox="0 0 24 24" xmlns="http://www.w3.org/2000/svg">
    <path d="M12.0002 8.75005C10.2053 8.75005 8.75018 10.2051 8.75018 12C8.75018 13.795 10.2053 15.25 12.0002 15.25C13.7951 15.25 15.2502 13.795 15.2502 12C15.2502 10.2051 13.7951 8.75005 12.0002 8.75005Z"/>
    <path fill-rule="evenodd" clip-rule="evenodd" d="M6.76972 3.08151C10.2178 2.69614 13.7825 2.69614 17.2307 3.08151C19.1291 3.29369 20.6603 4.78947 20.8831 6.69452C21.2954 10.2195 21.2954 13.7806 20.8831 17.3056C20.6603 19.2106 19.1291 20.7064 17.2307 20.9186C13.7825 21.304 10.2178 21.304 6.76972 20.9186C4.87132 20.7064 3.34013 19.2106 3.11732 17.3056C2.70504 13.7806 2.70504 10.2195 3.11732 6.69452C3.34013 4.78947 4.87132 3.29369 6.76972 3.08151ZM17.0002 6.00005C16.4479 6.00005 16.0002 6.44776 16.0002 7.00005C16.0002 7.55233 16.4479 8.00005 17.0002 8.00005C17.5525 8.00005 18.0002 7.55233 18.0002 7.00005C18.0002 6.44776 17.5525 6.00005 17.0002 6.00005ZM7.25018 12C7.25018 9.37669 9.37683 7.25005 12.0002 7.25005C14.6235 7.25005 16.7502 9.37669 16.7502 12C16.7502 14.6234 14.6235 16.75 12.0002 16.75C9.37683 16.75 7.25018 14.6234 7.25018 12Z"/>
  </g>

  <g id="instagram_2" width="21" height="20" viewBox="0 0 21 20" xmlns="http://www.w3.org/2000/svg">
    <path d="M10.5 7.29179C9.00426 7.29179 7.7917 8.50435 7.7917 10.0001C7.7917 11.4959 9.00426 12.7085 10.5 12.7085C11.9958 12.7085 13.2084 11.4959 13.2084 10.0001C13.2084 8.50435 11.9958 7.29179 10.5 7.29179Z"/>
    <path fill-rule="evenodd" clip-rule="evenodd" d="M6.14131 2.56801C9.01475 2.24686 11.9853 2.24686 14.8588 2.56801C16.4408 2.74482 17.7168 3.9913 17.9024 5.57885C18.246 8.51635 18.246 11.4839 17.9024 14.4214C17.7168 16.0089 16.4408 17.2554 14.8588 17.4322C11.9853 17.7534 9.01475 17.7534 6.14131 17.4322C4.55931 17.2554 3.28332 16.0089 3.09764 14.4214C2.75407 11.4839 2.75407 8.51635 3.09764 5.57885C3.28332 3.9913 4.55931 2.74482 6.14131 2.56801ZM14.6667 5.00012C14.2065 5.00012 13.8334 5.37322 13.8334 5.83345C13.8334 6.29369 14.2065 6.66679 14.6667 6.66679C15.1269 6.66679 15.5 6.29369 15.5 5.83345C15.5 5.37322 15.1269 5.00012 14.6667 5.00012ZM6.5417 10.0001C6.5417 7.81399 8.3139 6.04179 10.5 6.04179C12.6862 6.04179 14.4584 7.81399 14.4584 10.0001C14.4584 12.1862 12.6862 13.9585 10.5 13.9585C8.3139 13.9585 6.5417 12.1862 6.5417 10.0001Z"/>
  </g>
  
</svg>