<svg width="89" height="72" viewBox="0 0 89 72" fill="none" xmlns="http://www.w3.org/2000/svg">
<path d="M57.85 45.4737H64.525C65.6375 45.4737 66.75 44.5737 66.75 43.6737V24.7737C66.75 23.8737 65.6375 22.9737 64.525 22.9737H57.85C56.7375 22.9737 55.625 23.8737 55.625 24.7737V43.6737C55.625 44.5737 56.7375 45.4737 57.85 45.4737ZM74.5375 45.4737H81.2125C82.325 45.4737 83.4375 44.5737 83.4375 43.6737V11.2737C83.4375 10.3737 82.325 9.47369 81.2125 9.47369H74.5375C73.425 9.47369 72.3125 10.3737 72.3125 11.2737V43.6737C72.3125 44.5737 73.425 45.4737 74.5375 45.4737ZM24.475 45.4737H31.15C32.2625 45.4737 33.375 44.5737 33.375 43.6737V33.7737C33.375 32.8737 32.2625 31.9737 31.15 31.9737H24.475C23.3625 31.9737 22.25 32.8737 22.25 33.7737V43.6737C22.25 44.5737 23.3625 45.4737 24.475 45.4737ZM41.1625 45.4737H47.8375C48.95 45.4737 50.0625 44.5737 50.0625 43.6737V15.7737C50.0625 14.8737 48.95 13.9737 47.8375 13.9737H41.1625C40.05 13.9737 38.9375 14.8737 38.9375 15.7737V43.6737C38.9375 44.5737 40.05 45.4737 41.1625 45.4737ZM86.2188 54.4737L9.5 54V11.7237C9.5 10.4806 8.03664 9.47369 6.5 9.47369H2.78125C1.24461 9.47369 0 10.4806 0 11.7237V58.9737C0 61.4585 2.49096 63.4737 5.5625 63.4737H86.2188C87.7554 63.4737 89 62.4668 89 61.2237V56.7237C89 55.4806 87.7554 54.4737 86.2188 54.4737Z" fill="url(#paint0_linear_9_209)"/>
<defs>
<linearGradient id="paint0_linear_9_209" x1="-4.35415e-06" y1="9.00001" x2="89" y2="63" gradientUnits="userSpaceOnUse">
<stop stop-color="#B938C2"/>
<stop offset="1" stop-color="#6A92FF"/>
</linearGradient>
</defs>
</svg>
