<svg width="68" height="68" xmlns="http://www.w3.org/2000/svg" xmlns:xlink="http://www.w3.org/1999/xlink">

  <g id="bonus" width="68" height="68" viewBox="0 0 68 68" xmlns="http://www.w3.org/2000/svg">
    <g filter="url(#filter0_d_17_1061)">
    <path d="M21.8125 1H22.0703C25.8086 1 29.2773 2.98164 31.1758 6.20898L34 11.0148L36.8242 6.20898C38.7227 2.98164 42.1914 1 45.9297 1H46.1875C51.8828 1 56.5 5.61719 56.5 11.3125C56.5 13 56.0898 14.4883 55.375 16H60.25C62.3242 16 64 17.6758 64 19.75V27.25C64 29.3242 62.3242 31 60.25 31H7.75C5.6793 31 4 29.3242 4 27.25V19.75C4 17.6758 5.6793 16 7.75 16H12.625C11.9055 14.4883 11.5 13 11.5 11.3125C11.5 5.61719 16.1172 1 21.8125 1ZM26.3242 9.06016C25.4336 7.55195 23.8164 6.625 22.0703 6.625H21.8125C19.2227 6.625 17.125 8.72383 17.125 11.3125C17.125 13.9023 19.2227 16 21.8125 16H30.4023L26.3242 9.06016ZM46.1875 6.625H45.9297C44.1836 6.625 42.5664 7.55195 41.6758 9.06016L37.5977 16H46.1875C48.7773 16 50.875 13.9023 50.875 11.3125C50.875 8.72383 48.7773 6.625 46.1875 6.625ZM7.75 34.75H30.25V61H13.375C10.2684 61 7.75 58.4805 7.75 55.375V34.75ZM37.75 61V34.75H60.25V55.375C60.25 58.4805 57.7305 61 54.625 61H37.75Z"/>
    </g>
    <defs>
    <filter id="filter0_d_17_1061" x="0" y="0" width="68" height="68" filterUnits="userSpaceOnUse" color-interpolation-filters="sRGB">
    <feFlood flood-opacity="0" result="BackgroundImageFix"/>
    <feColorMatrix in="SourceAlpha" type="matrix" values="0 0 0 0 0 0 0 0 0 0 0 0 0 0 0 0 0 0 127 0" result="hardAlpha"/>
    <feOffset dy="3"/>
    <feGaussianBlur stdDeviation="2"/>
    <feComposite in2="hardAlpha" operator="out"/>
    <feColorMatrix type="matrix" values="0 0 0 0 0 0 0 0 0 0 0 0 0 0 0 0 0 0 0.25 0"/>
    <feBlend mode="normal" in2="BackgroundImageFix" result="effect1_dropShadow_17_1061"/>
    <feBlend mode="normal" in="SourceGraphic" in2="effect1_dropShadow_17_1061" result="shape"/>
    </filter>
    </defs>
  </g>
  <g id="bonus_320" width="38" height="38" viewBox="0 0 38 38" xmlns="http://www.w3.org/2000/svg">
    <g filter="url(#filter0_d_22_1286)">
    <path d="M12.9062 3H13.0352C14.9043 3 16.6387 3.99082 17.5879 5.60449L19 8.00742L20.4121 5.60449C21.3613 3.99082 23.0957 3 24.9648 3H25.0938C27.9414 3 30.25 5.30859 30.25 8.15625C30.25 9 30.0449 9.74414 29.6875 10.5H32.125C33.1621 10.5 34 11.3379 34 12.375V16.125C34 17.1621 33.1621 18 32.125 18H5.875C4.83965 18 4 17.1621 4 16.125V12.375C4 11.3379 4.83965 10.5 5.875 10.5H8.3125C7.95273 9.74414 7.75 9 7.75 8.15625C7.75 5.30859 10.0586 3 12.9062 3ZM15.1621 7.03008C14.7168 6.27598 13.9082 5.8125 13.0352 5.8125H12.9062C11.6113 5.8125 10.5625 6.86191 10.5625 8.15625C10.5625 9.45117 11.6113 10.5 12.9062 10.5H17.2012L15.1621 7.03008ZM25.0938 5.8125H24.9648C24.0918 5.8125 23.2832 6.27598 22.8379 7.03008L20.7988 10.5H25.0938C26.3887 10.5 27.4375 9.45117 27.4375 8.15625C27.4375 6.86191 26.3887 5.8125 25.0938 5.8125ZM5.875 19.875H17.125V33H8.6875C7.13418 33 5.875 31.7402 5.875 30.1875V19.875ZM20.875 33V19.875H32.125V30.1875C32.125 31.7402 30.8652 33 29.3125 33H20.875Z"/>
    </g>
    <defs>
    <filter id="filter0_d_22_1286" x="0" y="0" width="38" height="38" filterUnits="userSpaceOnUse" color-interpolation-filters="sRGB">
    <feFlood flood-opacity="0" result="BackgroundImageFix"/>
    <feColorMatrix in="SourceAlpha" type="matrix" values="0 0 0 0 0 0 0 0 0 0 0 0 0 0 0 0 0 0 127 0" result="hardAlpha"/>
    <feOffset dy="1"/>
    <feGaussianBlur stdDeviation="2"/>
    <feComposite in2="hardAlpha" operator="out"/>
    <feColorMatrix type="matrix" values="0 0 0 0 0 0 0 0 0 0 0 0 0 0 0 0 0 0 0.25 0"/>
    <feBlend mode="normal" in2="BackgroundImageFix" result="effect1_dropShadow_22_1286"/>
    <feBlend mode="normal" in="SourceGraphic" in2="effect1_dropShadow_22_1286" result="shape"/>
    </filter>
    </defs>
  </g>

  <g id="spin" width="60" height="60" viewBox="0 0 60 60" xmlns="http://www.w3.org/2000/svg">
    <g clip-path="url(#clip0_77_850)">
    <g filter="url(#filter0_d_77_850)">
    <path d="M57.5 30C57.5 45.2 45.2 57.5 30 57.5C14.8 57.5 2.5 45.2 2.5 30C2.5 14.8 14.8 2.5 30 2.5C45.2 2.5 57.5 14.8 57.5 30ZM32.5 10.15C37.825 10.825 42.675 13.625 45.925 17.9L50.275 15.4C48.2207 12.5036 45.573 10.078 42.5081 8.28471C39.4432 6.49146 36.0315 5.37171 32.5 5V10.15ZM9.725 15.4L14.075 17.9C15.6866 15.782 17.7036 14.006 20.0084 12.6755C22.3133 11.3449 24.86 10.4864 27.5 10.15V5C23.9685 5.37171 20.5568 6.49146 17.4919 8.28471C14.427 10.078 11.7793 12.5036 9.725 15.4ZM7.225 40.25L11.55 37.75C10.5227 35.2953 9.99372 32.6609 9.99372 30C9.99372 27.3391 10.5227 24.7047 11.55 22.25L7.225 19.75C5.75478 22.9671 4.99385 26.4629 4.99385 30C4.99385 33.5371 5.75478 37.0329 7.225 40.25ZM27.5 49.85C24.86 49.5136 22.3133 48.6551 20.0084 47.3245C17.7036 45.994 15.6866 44.218 14.075 42.1L9.725 44.6C11.7793 47.4964 14.427 49.922 17.4919 51.7153C20.5568 53.5085 23.9685 54.6283 27.5 55V49.85ZM50.275 44.6L45.925 42.1C44.3134 44.218 42.2964 45.994 39.9916 47.3245C37.6867 48.6551 35.14 49.5136 32.5 49.85V54.85C39.625 54.125 46.1 50.4 50.275 44.6ZM52.775 40.25C55.75 33.75 55.75 26.25 52.775 19.75L48.45 22.25C49.4773 24.7047 50.0063 27.3391 50.0063 30C50.0063 32.6609 49.4773 35.2953 48.45 37.75L52.775 40.25ZM37.5 30L30 17.5L22.5 30L30 42.5L37.5 30Z"/>
    </g>
    </g>
    <defs>
    <filter id="filter0_d_77_850" x="-1.5" y="0.5" width="63" height="63" filterUnits="userSpaceOnUse" color-interpolation-filters="sRGB">
    <feFlood flood-opacity="0" result="BackgroundImageFix"/>
    <feColorMatrix in="SourceAlpha" type="matrix" values="0 0 0 0 0 0 0 0 0 0 0 0 0 0 0 0 0 0 127 0" result="hardAlpha"/>
    <feOffset dy="2"/>
    <feGaussianBlur stdDeviation="2"/>
    <feComposite in2="hardAlpha" operator="out"/>
    <feColorMatrix type="matrix" values="0 0 0 0 0 0 0 0 0 0 0 0 0 0 0 0 0 0 0.25 0"/>
    <feBlend mode="normal" in2="BackgroundImageFix" result="effect1_dropShadow_77_850"/>
    <feBlend mode="normal" in="SourceGraphic" in2="effect1_dropShadow_77_850" result="shape"/>
    </filter>
    <clipPath id="clip0_77_850">
    <rect width="60" height="60" fill="white"/>
    </clipPath>
    </defs>
  </g>
  <g id="spin_320" width="38" height="38" viewBox="0 0 38 38" xmlns="http://www.w3.org/2000/svg">
    <g filter="url(#filter0_d_77_2105)">
    <path d="M34 20C34 28.2909 27.2909 35 19 35C10.7091 35 4 28.2909 4 20C4 11.7091 10.7091 5 19 5C27.2909 5 34 11.7091 34 20ZM20.3636 9.17273C23.2682 9.54091 25.9136 11.0682 27.6864 13.4L30.0591 12.0364C28.9386 10.4565 27.4944 9.13343 25.8226 8.1553C24.1508 7.17716 22.2899 6.56639 20.3636 6.36364V9.17273ZM7.94091 12.0364L10.3136 13.4C11.1927 12.2448 12.2929 11.276 13.5501 10.5503C14.8073 9.8245 16.1964 9.35622 17.6364 9.17273V6.36364C15.7101 6.56639 13.8492 7.17716 12.1774 8.1553C10.5056 9.13343 9.06141 10.4565 7.94091 12.0364ZM6.57727 25.5909L8.93636 24.2273C8.37604 22.8884 8.08749 21.4514 8.08749 20C8.08749 18.5486 8.37604 17.1116 8.93636 15.7727L6.57727 14.4091C5.77533 16.1639 5.36028 18.0707 5.36028 20C5.36028 21.9293 5.77533 23.8361 6.57727 25.5909ZM17.6364 30.8273C16.1964 30.6438 14.8073 30.1755 13.5501 29.4497C12.2929 28.724 11.1927 27.7552 10.3136 26.6L7.94091 27.9636C9.06141 29.5435 10.5056 30.8666 12.1774 31.8447C13.8492 32.8228 15.7101 33.4336 17.6364 33.6364V30.8273ZM30.0591 27.9636L27.6864 26.6C26.8073 27.7552 25.7071 28.724 24.4499 29.4497C23.1927 30.1755 21.8036 30.6438 20.3636 30.8273V33.5545C24.25 33.1591 27.7818 31.1273 30.0591 27.9636ZM31.4227 25.5909C33.0455 22.0455 33.0455 17.9545 31.4227 14.4091L29.0636 15.7727C29.624 17.1116 29.9125 18.5486 29.9125 20C29.9125 21.4514 29.624 22.8884 29.0636 24.2273L31.4227 25.5909ZM23.0909 20L19 13.1818L14.9091 20L19 26.8182L23.0909 20Z"/>
    </g>
    <defs>
    <filter id="filter0_d_77_2105" x="0" y="0" width="38" height="38" filterUnits="userSpaceOnUse" color-interpolation-filters="sRGB">
    <feFlood flood-opacity="0" result="BackgroundImageFix"/>
    <feColorMatrix in="SourceAlpha" type="matrix" values="0 0 0 0 0 0 0 0 0 0 0 0 0 0 0 0 0 0 127 0" result="hardAlpha"/>
    <feOffset dy="-1"/>
    <feGaussianBlur stdDeviation="2"/>
    <feComposite in2="hardAlpha" operator="out"/>
    <feColorMatrix type="matrix" values="0 0 0 0 0 0 0 0 0 0 0 0 0 0 0 0 0 0 0.29 0"/>
    <feBlend mode="normal" in2="BackgroundImageFix" result="effect1_dropShadow_77_2105"/>
    <feBlend mode="normal" in="SourceGraphic" in2="effect1_dropShadow_77_2105" result="shape"/>
    </filter>
    </defs>
  </g>


</svg>
