<svg width="62" height="62" viewBox="0 0 62 62" fill="none" xmlns="http://www.w3.org/2000/svg">
<g clip-path="url(#clip0_25_21)">
<path d="M62 9.6875C62 11.8684 60.2684 13.8773 57.35 15.5C53.8262 17.4496 48.5828 18.8301 42.5402 19.2418C42.1043 19.0359 41.6441 18.8301 41.184 18.6363C36.4008 16.6383 30.0555 15.5 23.25 15.5C22.2449 15.5 21.2641 15.5242 20.2832 15.5727L20.15 15.5C17.2316 13.8773 15.5 11.8684 15.5 9.6875C15.5 4.33758 25.8051 0 38.75 0C51.5859 0 62 4.33758 62 9.6875ZM19.4598 19.5082C20.6949 19.4234 21.9543 19.375 23.25 19.375C30.782 19.375 37.4664 20.8645 41.7168 23.1773C44.7199 24.8121 46.5 26.8465 46.5 29.0625C46.5 29.4379 46.4152 30.0191 46.2457 30.4793C45.6887 32.0777 44.0902 33.543 42.0074 34.7902C41.9953 34.7902 41.9711 34.8023 41.959 34.8145C41.9227 34.8387 41.8863 34.8508 41.85 34.875C37.6117 37.2242 30.8547 38.75 23.25 38.75C16.0328 38.75 9.57367 37.3816 5.30875 35.2262C5.0823 35.1051 4.86191 34.8871 4.64879 34.875C1.72922 33.2523 0 31.2422 0 29.0625C0 24.8484 6.47004 21.252 15.5 19.932C16.7715 19.7383 18.0914 19.593 19.4598 19.5082ZM47.4566 22.5961C50.8836 22.0633 54.0199 21.2156 56.684 20.1137C58.6578 19.2902 60.4863 18.273 62 17.0258V21.3125C62 23.6496 60.002 25.8051 56.6961 27.4762C54.916 28.3723 52.7727 29.123 50.3508 29.7043C50.3629 29.4984 50.375 29.2805 50.375 29.0625C50.375 26.4105 49.0914 24.2309 47.4566 22.5961ZM46.5 40.6875C46.5 42.8672 44.7684 44.8773 41.85 46.5C41.632 46.5121 41.4141 46.7301 41.1961 46.8512C36.9215 49.0066 30.4672 50.375 23.25 50.375C15.6453 50.375 8.8907 48.8492 4.64879 46.5C1.72922 44.8773 0 42.8672 0 40.6875V36.4008C1.50762 37.648 3.34461 38.6652 5.31965 39.4887C10.1041 41.4867 16.4445 42.625 23.25 42.625C30.0555 42.625 36.4008 41.4867 41.184 39.4887C42.1285 39.1012 43.0367 38.6531 43.8965 38.1688C44.6352 37.757 45.3254 37.2969 45.9793 36.8125C46.1609 36.6793 46.3305 36.534 46.5 36.4008V40.6875ZM50.375 33.6762C52.5668 33.0707 54.7949 32.5258 56.684 31.7387C58.6578 30.9152 60.4863 29.898 62 28.6508V32.9375C62 34.209 61.3945 35.4805 60.1957 36.6793C58.2219 38.6531 54.7465 40.2758 50.3508 41.3293C50.3629 41.1234 50.375 40.9055 50.375 40.6875V33.6762ZM23.25 54.25C30.0555 54.25 36.4008 53.1117 41.184 51.1137C43.1578 50.2902 44.9863 49.273 46.5 48.0258V52.3125C46.5 57.6648 36.0859 62 23.25 62C10.4092 62 0 57.6648 0 52.3125V48.0258C1.50762 49.273 3.34461 50.2902 5.31965 51.1137C10.1041 53.1117 16.4445 54.25 23.25 54.25Z" fill="#F8F8F8"/>
</g>
<defs>
<clipPath id="clip0_25_21">
<rect width="62" height="62" fill="white"/>
</clipPath>
</defs>
</svg>
