<svg width="67" height="48" viewBox="0 0 67 48" fill="none" xmlns="http://www.w3.org/2000/svg">
<path d="M56.28 20.4681C56.7092 19.3427 56.95 18.1121 56.95 16.8289C56.95 11.2543 52.4484 6.73155 46.9 6.73155C44.8377 6.73155 42.9114 7.36264 41.3202 8.43548C38.4203 3.38681 33.008 0 26.8 0C17.5456 0 10.05 7.53093 10.05 16.8289C10.05 17.1129 10.0605 17.3969 10.0709 17.6808C4.20844 19.7529 0 25.3695 0 31.9749C0 40.3367 6.75234 47.1209 15.075 47.1209H53.6C61.0014 47.1209 67 41.094 67 33.6578C67 27.1471 62.3937 21.7093 56.28 20.4681ZM42.367 29.7976L31.333 40.8837C30.6839 41.5358 29.6161 41.5358 28.967 40.8837L17.933 29.7976C16.8756 28.7353 17.6294 26.9262 19.1159 26.9262H25.9625V15.146C25.9625 14.2204 26.7162 13.4631 27.6375 13.4631H32.6625C33.5837 13.4631 34.3375 14.2204 34.3375 15.146V26.9262H41.1841C42.6706 26.9262 43.4244 28.7353 42.367 29.7976Z" fill="#FFEC00"/>
</svg>
