<svg width="93" height="93" viewBox="0 0 93 93" fill="none" xmlns="http://www.w3.org/2000/svg">
<path d="M46.9132 1.7611L5.03646 12.7238C3.50543 13.1265 2.19664 14.12 1.39722 15.4864C0.597814 16.8529 0.373066 18.4806 0.772289 20.0125L11.735 61.889C11.9335 62.6476 12.2796 63.3596 12.7534 63.9844C13.2271 64.6093 13.8193 65.1347 14.4962 65.5306C15.173 65.9266 15.9212 66.1853 16.698 66.2921C17.4749 66.3989 18.2651 66.3516 19.0237 66.153L36.5687 61.56L37.485 85.6294C37.547 87.2112 38.2339 88.7038 39.395 89.7797C40.5561 90.8557 42.0966 91.4271 43.6785 91.3687L86.9353 89.7221C88.517 89.6601 90.0096 88.9732 91.0856 87.812C92.1616 86.6509 92.733 85.1104 92.6746 83.5285L91.0279 40.2717C90.9659 38.69 90.279 37.1974 89.1179 36.1214C87.9568 35.0454 86.4163 34.474 84.8344 34.5324L61.8928 35.4057L54.2018 6.02528C53.7991 4.49429 52.8056 3.18553 51.4392 2.38612C50.0728 1.58671 48.4452 1.36194 46.9132 1.7611ZM85.0615 40.4989L86.7081 83.7556L43.4514 85.4023L42.4849 60.0111L60.8999 55.1905C62.2128 54.8463 63.3694 54.0654 64.1795 52.9765C64.9896 51.8875 65.4049 50.5552 65.3571 49.1988C65.3401 48.7609 65.2754 48.326 65.1641 47.9021L63.4411 41.3204L85.0613 40.4951L85.0615 40.4989ZM48.4254 7.53672L59.3879 49.4143L17.511 60.3768L6.54789 18.4998L48.4238 7.53361L48.4254 7.53672Z" fill="url(#paint0_linear_9_211)"/>
<path d="M51.2247 79.1925C50.121 79.2345 49.1921 78.3738 49.1501 77.27L49.0168 73.7677C48.9748 72.664 49.8355 71.7351 50.9392 71.6931L54.4069 71.5611C55.5106 71.5191 56.4395 72.3798 56.4815 73.4836L56.6148 76.9859C56.6568 78.0896 55.7961 79.0185 54.6923 79.0605L51.2247 79.1925ZM75.1118 78.2832C74.0081 78.3252 73.0792 77.4645 73.0372 76.3607L72.9039 72.8584C72.8619 71.7547 73.7226 70.8258 74.8263 70.7838L78.294 70.6518C79.3977 70.6098 80.3266 71.4705 80.3686 72.5743L80.5019 76.0765C80.5439 77.1803 79.6832 78.1092 78.5794 78.1512L75.1118 78.2832ZM74.1983 54.2852C73.0945 54.3272 72.1657 53.4665 72.1237 52.3627L71.9903 48.8604C71.9483 47.7566 72.809 46.8278 73.9128 46.7858L77.3804 46.6538C78.4842 46.6118 79.413 47.4725 79.4551 48.5763L79.5884 52.0785C79.6304 53.1823 78.7697 54.1111 77.6659 54.1532L74.1983 54.2852ZM62.7115 66.7388C61.6077 66.7808 60.6789 65.9201 60.6369 64.8164L60.5036 61.3141C60.4615 60.2103 61.3223 59.2815 62.426 59.2394L65.8936 59.1074C66.9974 59.0654 67.9263 59.9261 67.9683 61.0299L68.1016 64.5322C68.1436 65.636 67.2829 66.5648 66.1791 66.6068L62.7115 66.7388ZM23.7323 52.4935C22.6625 52.7745 21.5677 52.1338 21.2889 51.0634L20.4056 47.6736C20.1275 46.6061 20.766 45.5151 21.8329 45.2349L25.1908 44.3529C26.2606 44.072 27.3553 44.7127 27.6342 45.783L28.5175 49.1729C28.7956 50.2403 28.157 51.3314 27.0902 51.6116L23.7323 52.4935ZM40.7862 23.1789C39.7164 23.46 38.6216 22.8195 38.3425 21.7492L37.4587 18.3592C37.1804 17.2918 37.8188 16.2007 38.8856 15.9203L42.2434 15.0378C43.3132 14.7567 44.408 15.3973 44.6871 16.4676L45.5709 19.8575C45.8492 20.9249 45.2108 22.0161 44.144 22.2964L40.7862 23.1789ZM32.2521 37.834C31.1824 38.1152 30.0875 37.4746 29.8084 36.4043L28.9246 33.0146C28.6464 31.9472 29.2848 30.856 30.3516 30.5757L33.7092 29.6932C34.779 29.4121 35.8738 30.0526 36.1529 31.1229L37.0367 34.5126C37.3149 35.5799 36.6766 36.6711 35.6098 36.9515L32.2521 37.834Z" fill="url(#paint1_linear_9_211)"/>
<defs>
<linearGradient id="paint0_linear_9_211" x1="1.7034" y1="48.1543" x2="91.1983" y2="44.7475" gradientUnits="userSpaceOnUse">
<stop stop-color="#B938C2"/>
<stop offset="1" stop-color="#6A92FF"/>
</linearGradient>
<linearGradient id="paint1_linear_9_211" x1="19.985" y1="47.9156" x2="79.3439" y2="45.656" gradientUnits="userSpaceOnUse">
<stop stop-color="#B938C2"/>
<stop offset="1" stop-color="#6A92FF"/>
</linearGradient>
</defs>
</svg>
