<svg width="260" height="50" viewBox="0 0 260 50" fill="none" xmlns="http://www.w3.org/2000/svg">
<path d="M2.66445 13.4701H10.0309L19.6438 27.5934V13.4701H27.0799V39H19.6438L10.0831 24.9812V39H2.66445V13.4701ZM51.3134 31.5117H37.1031C37.2308 32.6494 37.5384 33.497 38.026 34.0542C38.711 34.8553 39.605 35.2558 40.7079 35.2558C41.4045 35.2558 42.0662 35.0817 42.6932 34.7334C43.0763 34.5128 43.4884 34.1239 43.9296 33.5666L50.9129 34.211C49.8448 36.0685 48.5561 37.4037 47.0468 38.2163C45.5376 39.0174 43.3723 39.418 40.5512 39.418C38.1015 39.418 36.1743 39.0755 34.7695 38.3905C33.3647 37.6939 32.1979 36.5968 31.2691 35.0991C30.352 33.5898 29.8934 31.8193 29.8934 29.7876C29.8934 26.8968 30.8163 24.5574 32.6623 22.7695C34.5199 20.9816 37.0798 20.0876 40.3422 20.0876C42.9892 20.0876 45.079 20.4882 46.6115 21.2893C48.144 22.0903 49.3108 23.2513 50.1118 24.7722C50.9129 26.2931 51.3134 28.2725 51.3134 30.7106V31.5117ZM44.1038 28.1158C43.9644 26.7459 43.5929 25.7648 42.9892 25.1727C42.3971 24.5806 41.6135 24.2846 40.6382 24.2846C39.5121 24.2846 38.6123 24.7316 37.939 25.6255C37.5094 26.1828 37.2366 27.0129 37.1205 28.1158H44.1038ZM51.4103 20.5056H58.2717L61.2496 32.156L65.0111 20.5056H71.4023L75.3032 32.156L78.2811 20.5056H85.0903L78.2811 39H71.977L68.2329 27.872L64.6106 39H58.2717L51.4103 20.5056Z" fill="#F46B25"/>
<path d="M86.6151 13.4701H106.12V18.9557H94.5388V23.4138H104.43V28.5686H94.5388V39H86.6151V13.4701ZM109.09 13.4701H116.178V18.2939H109.09V13.4701ZM109.09 20.5056H116.178V39H109.09V20.5056ZM119.635 20.5056H126.236V23.5183C127.222 22.2877 128.221 21.4112 129.231 20.8887C130.241 20.3547 131.472 20.0876 132.923 20.0876C134.885 20.0876 136.417 20.6739 137.52 21.8465C138.635 23.0075 139.192 24.807 139.192 27.2451V39H132.07V28.8298C132.07 27.6688 131.855 26.8503 131.425 26.3743C130.996 25.8867 130.392 25.6429 129.614 25.6429C128.755 25.6429 128.058 25.968 127.524 26.6182C126.99 27.2683 126.723 28.4351 126.723 30.1185V39H119.635V20.5056Z" fill="#0372E6"/>
<path d="M142.929 13.4701H154.649C156.959 13.4701 158.822 13.7835 160.239 14.4105C161.667 15.0374 162.845 15.9371 163.774 17.1097C164.703 18.2823 165.376 19.6465 165.794 21.2022C166.212 22.7579 166.421 24.4065 166.421 26.148C166.421 28.8763 166.108 30.995 165.481 32.5043C164.865 34.002 164.006 35.2616 162.903 36.2833C161.8 37.2934 160.616 37.9667 159.351 38.3034C157.621 38.7678 156.054 39 154.649 39H142.929V13.4701ZM150.818 19.2517V33.2009H152.751C154.399 33.2009 155.572 33.021 156.268 32.6611C156.965 32.2895 157.511 31.651 157.905 30.7454C158.3 29.8283 158.497 28.348 158.497 26.3047C158.497 23.5996 158.056 21.7478 157.174 20.7494C156.292 19.751 154.829 19.2517 152.785 19.2517H150.818ZM169.304 13.4701H176.392V18.2939H169.304V13.4701ZM169.304 20.5056H176.392V39H169.304V20.5056ZM192.719 20.5056H199.354V37.9725L199.372 38.791C199.372 39.952 199.122 41.0549 198.623 42.0998C198.135 43.1563 197.479 44.0096 196.655 44.6598C195.842 45.3099 194.803 45.7801 193.538 46.0704C192.284 46.3606 190.844 46.5057 189.219 46.5057C185.504 46.5057 182.95 45.9485 181.557 44.8339C180.175 43.7194 179.484 42.2275 179.484 40.3583C179.484 40.1262 179.496 39.8127 179.519 39.418L186.398 40.2016C186.572 40.8402 186.839 41.2813 187.199 41.5251C187.721 41.885 188.377 42.065 189.167 42.065C190.188 42.065 190.949 41.7922 191.448 41.2465C191.959 40.7008 192.214 39.7488 192.214 38.3905V35.5867C191.518 36.411 190.821 37.0089 190.125 37.3804C189.033 37.9609 187.855 38.2512 186.589 38.2512C184.117 38.2512 182.12 37.1715 180.599 35.012C179.519 33.4795 178.979 31.4536 178.979 28.9343C178.979 26.0551 179.676 23.8608 181.069 22.3516C182.462 20.8423 184.285 20.0876 186.537 20.0876C187.977 20.0876 189.161 20.3314 190.09 20.8191C191.03 21.3067 191.907 22.1136 192.719 23.2397V20.5056ZM186.05 29.4742C186.05 30.8093 186.334 31.8019 186.903 32.4521C187.472 33.0906 188.221 33.4099 189.149 33.4099C190.032 33.4099 190.769 33.079 191.361 32.4172C191.965 31.7439 192.267 30.7338 192.267 29.3871C192.267 28.0404 191.953 27.0129 191.326 26.3047C190.699 25.5849 189.933 25.225 189.027 25.225C188.122 25.225 187.396 25.5559 186.851 26.2176C186.317 26.8678 186.05 27.9533 186.05 29.4742ZM223.1 31.5117H208.89C209.018 32.6494 209.325 33.497 209.813 34.0542C210.498 34.8553 211.392 35.2558 212.495 35.2558C213.191 35.2558 213.853 35.0817 214.48 34.7334C214.863 34.5128 215.275 34.1239 215.717 33.5666L222.7 34.211C221.632 36.0685 220.343 37.4037 218.834 38.2163C217.324 39.0174 215.159 39.418 212.338 39.418C209.888 39.418 207.961 39.0755 206.556 38.3905C205.152 37.6939 203.985 36.5968 203.056 35.0991C202.139 33.5898 201.68 31.8193 201.68 29.7876C201.68 26.8968 202.603 24.5574 204.449 22.7695C206.307 20.9816 208.867 20.0876 212.129 20.0876C214.776 20.0876 216.866 20.4882 218.398 21.2893C219.931 22.0903 221.098 23.2513 221.899 24.7722C222.7 26.2931 223.1 28.2725 223.1 30.7106V31.5117ZM215.891 28.1158C215.751 26.7459 215.38 25.7648 214.776 25.1727C214.184 24.5806 213.4 24.2846 212.425 24.2846C211.299 24.2846 210.399 24.7316 209.726 25.6255C209.296 26.1828 209.023 27.0129 208.907 28.1158H215.891ZM224.033 33.8801L231.069 33.2183C231.359 34.0542 231.765 34.6521 232.288 35.012C232.81 35.3719 233.507 35.5519 234.377 35.5519C235.329 35.5519 236.067 35.3487 236.589 34.9424C236.995 34.6405 237.199 34.2632 237.199 33.8104C237.199 33.2996 236.932 32.9049 236.398 32.6262C236.014 32.4289 234.999 32.185 233.35 31.8948C230.889 31.4652 229.176 31.0705 228.213 30.7106C227.261 30.3391 226.454 29.718 225.792 28.8472C225.142 27.9765 224.817 26.9839 224.817 25.8693C224.817 24.6503 225.171 23.5996 225.879 22.7173C226.587 21.8349 227.562 21.179 228.805 20.7494C230.047 20.3082 231.713 20.0876 233.803 20.0876C236.009 20.0876 237.634 20.256 238.679 20.5927C239.735 20.9294 240.612 21.4518 241.308 22.16C242.017 22.8682 242.603 23.826 243.067 25.0334L236.345 25.6952C236.171 25.1031 235.881 24.6677 235.475 24.3891C234.917 24.0176 234.244 23.8318 233.454 23.8318C232.653 23.8318 232.067 23.9769 231.696 24.2672C231.336 24.5458 231.156 24.8883 231.156 25.2946C231.156 25.7474 231.388 26.0899 231.852 26.3221C232.317 26.5543 233.327 26.7633 234.882 26.949C237.239 27.2161 238.992 27.5876 240.142 28.0636C241.291 28.5396 242.168 29.2187 242.771 30.1011C243.387 30.9834 243.694 31.9529 243.694 33.0093C243.694 34.0774 243.369 35.1165 242.719 36.1266C242.081 37.1366 241.065 37.9435 239.671 38.5472C238.29 39.1393 236.403 39.4354 234.012 39.4354C230.633 39.4354 228.224 38.9536 226.785 37.9899C225.357 37.0263 224.439 35.6564 224.033 33.8801ZM254.571 13.4701V20.5056H258.472V25.6778H254.571V32.2431C254.571 33.0326 254.646 33.555 254.797 33.8104C255.029 34.2052 255.436 34.4025 256.016 34.4025C256.539 34.4025 257.27 34.2516 258.21 33.9497L258.733 38.8433C256.98 39.2264 255.343 39.418 253.822 39.418C252.057 39.418 250.757 39.1916 249.921 38.7388C249.085 38.286 248.464 37.601 248.058 36.6838C247.663 35.7551 247.466 34.2574 247.466 32.1909V25.6778H244.853V20.5056H247.466V17.1097L254.571 13.4701Z" fill="white"/>
<path d="M16.8621 24.1076L2.67505 38.9964L16.9039 26.1987L19.2217 28.2062L29.7042 18.838L31.1659 22.1419L33.5255 13.3174L24.7553 15.6804L27.6578 16.9769L19.1591 25.2995L16.8621 24.1076Z" fill="#0371E5"/>
</svg>
