<svg width="38" height="23" viewBox="0 0 38 23" fill="none" xmlns="http://www.w3.org/2000/svg">
<path d="M1.5 9.90527C0.671573 9.90527 8.9407e-08 10.5768 8.9407e-08 11.4053C8.9407e-08 12.2337 0.671573 12.9053 1.5 12.9053V9.90527ZM37.5607 12.4659C38.1464 11.8801 38.1464 10.9304 37.5607 10.3446L28.0147 0.798672C27.4289 0.212886 26.4792 0.212886 25.8934 0.798672C25.3076 1.38446 25.3076 2.33421 25.8934 2.91999L34.3787 11.4053L25.8934 19.8906C25.3076 20.4763 25.3076 21.4261 25.8934 22.0119C26.4792 22.5977 27.4289 22.5977 28.0147 22.0119L37.5607 12.4659ZM1.5 12.9053H36.5V9.90527H1.5V12.9053Z" fill="white"/>
</svg>
