<svg width="360" height="80" viewBox="0 0 360 80" fill="none" xmlns="http://www.w3.org/2000/svg">
<rect width="360" height="80" fill="black"/>
<path d="M10 56V25H20.9416V49.236H36.5369V56H10Z" fill="white"/>
<path d="M44.7206 56V25H55.6622V49.236H71.2575V56H44.7206Z" fill="white"/>
<path d="M118 56H103.651L88.8593 34.1601H88.61C88.9609 37.5951 89.1363 40.2173 89.1363 42.0267V56H79.4412V25H93.7346L108.471 46.5431H108.637C108.379 43.4191 108.25 40.9099 108.25 39.0157V25H118V56Z" fill="white"/>
<rect x="325" y="32" width="25" height="2" rx="1" fill="white"/>
<rect x="325" y="39" width="25" height="2" rx="1" fill="white"/>
<rect x="325" y="46" width="25" height="2" rx="1" fill="white"/>
</svg>
