<svg width="137" height="30" viewBox="0 0 137 30" fill="none" xmlns="http://www.w3.org/2000/svg">
<path d="M50.4342 30H36.6283L32.4895 16.9289C32.2925 16.3817 31.9771 15.2941 31.5435 13.6662C31.1296 12.0383 30.8242 10.6772 30.6271 9.58276C30.4694 10.472 30.2132 11.58 29.8584 12.907C29.5037 14.2202 29.1489 15.4309 28.7942 16.539C28.4591 17.6471 27.0303 22.1341 24.5076 30H10.7017L0 0H11.2634L15.9639 15.041C17.0282 18.3653 17.7574 21.0123 18.1516 22.9822C18.4078 21.5869 18.8611 19.6922 19.5115 17.2982C20.1815 14.9042 20.8024 12.9207 21.3739 11.3475L25.1875 0H36.0075L39.7029 11.3475C40.3335 13.1669 40.9741 15.2668 41.6244 17.6471C42.2748 20.0274 42.7084 21.8057 42.9252 22.9822C43.1814 21.4637 43.8811 18.8304 45.0242 15.0821L49.8133 0H61.0768L50.4342 30Z" fill="black"/>
<path d="M63.6369 30V0H75.3142V23.4542H91.9581V30H63.6369Z" fill="black"/>
<path d="M137 30H121.686L105.9 8.86457H105.634C106.008 12.1888 106.196 14.7264 106.196 16.4774V30H95.8486V0H111.103L126.83 20.8482H127.008C126.732 17.8249 126.594 15.3967 126.594 13.5636V0H137V30Z" fill="black"/>
</svg>
