<svg width="1919" height="101" viewBox="0 0 1919 101" fill="none" xmlns="http://www.w3.org/2000/svg">
<rect width="1919" height="101" fill="black"/>
<path d="M360 66V35H370.942V59.236H386.537V66H360Z" fill="white"/>
<path d="M394.721 66V35H405.662V59.236H421.257V66H394.721Z" fill="white"/>
<path d="M468 66H453.651L438.859 44.1601H438.61C438.961 47.5951 439.136 50.2173 439.136 52.0267V66H429.441V35H443.735L458.471 56.5431H458.637C458.379 53.4191 458.25 50.9099 458.25 49.0157V35H468V66Z" fill="white"/>
<path d="M619.758 44.5059H622.868C624.285 44.5059 625.313 44.7087 625.951 45.1143C626.594 45.5153 626.915 46.1556 626.915 47.0352C626.915 47.6322 626.774 48.1221 626.491 48.5049C626.213 48.8877 625.842 49.1178 625.377 49.1953V49.2637C626.01 49.4049 626.466 49.6693 626.744 50.0566C627.027 50.444 627.168 50.959 627.168 51.6016C627.168 52.513 626.838 53.224 626.177 53.7344C625.521 54.2448 624.627 54.5 623.497 54.5H619.758V44.5059ZM621.877 48.4639H623.107C623.682 48.4639 624.096 48.375 624.352 48.1973C624.611 48.0195 624.741 47.7256 624.741 47.3154C624.741 46.9326 624.6 46.6592 624.317 46.4951C624.039 46.3265 623.597 46.2422 622.991 46.2422H621.877V48.4639ZM621.877 50.1455V52.75H623.258C623.841 52.75 624.272 52.6383 624.55 52.415C624.828 52.1917 624.967 51.8499 624.967 51.3896C624.967 50.5602 624.374 50.1455 623.189 50.1455H621.877ZM634.834 54.5L634.554 53.5225H634.444C634.221 53.8779 633.904 54.1536 633.494 54.3496C633.084 54.541 632.617 54.6367 632.093 54.6367C631.195 54.6367 630.518 54.3975 630.063 53.9189C629.607 53.4359 629.379 52.7432 629.379 51.8408V46.8574H631.464V51.3213C631.464 51.8727 631.562 52.2874 631.758 52.5654C631.954 52.8389 632.266 52.9756 632.694 52.9756C633.278 52.9756 633.699 52.7819 633.959 52.3945C634.219 52.0026 634.349 51.3555 634.349 50.4531V46.8574H636.434V54.5H634.834ZM644.373 52.2305C644.373 53.0143 644.1 53.6113 643.553 54.0215C643.011 54.4316 642.197 54.6367 641.112 54.6367C640.556 54.6367 640.083 54.598 639.691 54.5205C639.299 54.4476 638.932 54.3382 638.59 54.1924V52.4697C638.977 52.652 639.413 52.8047 639.896 52.9277C640.383 53.0508 640.812 53.1123 641.181 53.1123C641.937 53.1123 642.316 52.8936 642.316 52.4561C642.316 52.292 642.265 52.1598 642.165 52.0596C642.065 51.9548 641.892 51.8385 641.646 51.7109C641.4 51.5788 641.071 51.4261 640.661 51.2529C640.073 51.0068 639.64 50.779 639.362 50.5693C639.089 50.3597 638.889 50.1204 638.761 49.8516C638.638 49.5781 638.576 49.2432 638.576 48.8467C638.576 48.1676 638.838 47.6436 639.362 47.2744C639.891 46.9007 640.639 46.7139 641.605 46.7139C642.525 46.7139 643.421 46.9144 644.291 47.3154L643.662 48.8193C643.279 48.6553 642.922 48.5208 642.589 48.416C642.256 48.3112 641.917 48.2588 641.57 48.2588C640.955 48.2588 640.648 48.4251 640.648 48.7578C640.648 48.9447 640.746 49.1064 640.942 49.2432C641.142 49.3799 641.577 49.5827 642.247 49.8516C642.844 50.0931 643.282 50.3187 643.56 50.5283C643.838 50.738 644.043 50.9795 644.175 51.2529C644.307 51.5264 644.373 51.8522 644.373 52.2305ZM646.331 44.8818C646.331 44.2028 646.71 43.8633 647.466 43.8633C648.223 43.8633 648.601 44.2028 648.601 44.8818C648.601 45.2054 648.505 45.4583 648.314 45.6406C648.127 45.8184 647.844 45.9072 647.466 45.9072C646.71 45.9072 646.331 45.5654 646.331 44.8818ZM648.505 54.5H646.42V46.8574H648.505V54.5ZM658.174 54.5H656.089V50.0361C656.089 49.4847 655.991 49.0723 655.795 48.7988C655.599 48.5208 655.287 48.3818 654.859 48.3818C654.275 48.3818 653.854 48.5778 653.594 48.9697C653.334 49.3571 653.204 50.002 653.204 50.9043V54.5H651.119V46.8574H652.712L652.993 47.835H653.109C653.341 47.4658 653.66 47.1878 654.066 47.001C654.476 46.8096 654.941 46.7139 655.46 46.7139C656.349 46.7139 657.023 46.9554 657.484 47.4385C657.944 47.917 658.174 48.6097 658.174 49.5166V54.5ZM663.906 48.1973C663.464 48.1973 663.117 48.3385 662.867 48.6211C662.616 48.8991 662.472 49.2956 662.436 49.8105H665.362C665.353 49.2956 665.218 48.8991 664.958 48.6211C664.699 48.3385 664.348 48.1973 663.906 48.1973ZM664.2 54.6367C662.969 54.6367 662.008 54.2972 661.315 53.6182C660.622 52.9391 660.276 51.9775 660.276 50.7334C660.276 49.4528 660.595 48.4639 661.233 47.7666C661.875 47.0648 662.762 46.7139 663.892 46.7139C664.972 46.7139 665.813 47.0215 666.414 47.6367C667.016 48.252 667.317 49.1019 667.317 50.1865V51.1982H662.388C662.411 51.7907 662.586 52.2533 662.914 52.5859C663.243 52.9186 663.703 53.085 664.295 53.085C664.756 53.085 665.191 53.0371 665.601 52.9414C666.011 52.8457 666.44 52.693 666.886 52.4834V54.0967C666.522 54.279 666.132 54.4134 665.717 54.5C665.302 54.5911 664.797 54.6367 664.2 54.6367ZM674.764 52.2305C674.764 53.0143 674.491 53.6113 673.944 54.0215C673.402 54.4316 672.588 54.6367 671.503 54.6367C670.947 54.6367 670.473 54.598 670.082 54.5205C669.69 54.4476 669.323 54.3382 668.981 54.1924V52.4697C669.368 52.652 669.804 52.8047 670.287 52.9277C670.774 53.0508 671.203 53.1123 671.572 53.1123C672.328 53.1123 672.707 52.8936 672.707 52.4561C672.707 52.292 672.656 52.1598 672.556 52.0596C672.456 51.9548 672.283 51.8385 672.037 51.7109C671.791 51.5788 671.462 51.4261 671.052 51.2529C670.464 51.0068 670.031 50.779 669.753 50.5693C669.48 50.3597 669.279 50.1204 669.152 49.8516C669.029 49.5781 668.967 49.2432 668.967 48.8467C668.967 48.1676 669.229 47.6436 669.753 47.2744C670.282 46.9007 671.029 46.7139 671.996 46.7139C672.916 46.7139 673.812 46.9144 674.682 47.3154L674.053 48.8193C673.67 48.6553 673.313 48.5208 672.98 48.416C672.647 48.3112 672.308 48.2588 671.961 48.2588C671.346 48.2588 671.039 48.4251 671.039 48.7578C671.039 48.9447 671.137 49.1064 671.333 49.2432C671.533 49.3799 671.968 49.5827 672.638 49.8516C673.235 50.0931 673.673 50.3187 673.951 50.5283C674.229 50.738 674.434 50.9795 674.566 51.2529C674.698 51.5264 674.764 51.8522 674.764 52.2305ZM682.143 52.2305C682.143 53.0143 681.87 53.6113 681.323 54.0215C680.78 54.4316 679.967 54.6367 678.882 54.6367C678.326 54.6367 677.852 54.598 677.461 54.5205C677.069 54.4476 676.702 54.3382 676.36 54.1924V52.4697C676.747 52.652 677.183 52.8047 677.666 52.9277C678.153 53.0508 678.582 53.1123 678.951 53.1123C679.707 53.1123 680.086 52.8936 680.086 52.4561C680.086 52.292 680.035 52.1598 679.935 52.0596C679.835 51.9548 679.662 51.8385 679.416 51.7109C679.169 51.5788 678.841 51.4261 678.431 51.2529C677.843 51.0068 677.41 50.779 677.132 50.5693C676.859 50.3597 676.658 50.1204 676.531 49.8516C676.408 49.5781 676.346 49.2432 676.346 48.8467C676.346 48.1676 676.608 47.6436 677.132 47.2744C677.661 46.9007 678.408 46.7139 679.375 46.7139C680.295 46.7139 681.191 46.9144 682.061 47.3154L681.432 48.8193C681.049 48.6553 680.692 48.5208 680.359 48.416C680.026 48.3112 679.687 48.2588 679.34 48.2588C678.725 48.2588 678.418 48.4251 678.418 48.7578C678.418 48.9447 678.516 49.1064 678.711 49.2432C678.912 49.3799 679.347 49.5827 680.017 49.8516C680.614 50.0931 681.052 50.3187 681.33 50.5283C681.608 50.738 681.813 50.9795 681.945 51.2529C682.077 51.5264 682.143 51.8522 682.143 52.2305Z" fill="white"/>
<rect x="618.5" y="59.5" width="65" height="2" fill="#D70000"/>
<path d="M718.613 54.5H716.494V46.2695H713.78V44.5059H721.327V46.2695H718.613V54.5ZM726.286 48.1973C725.844 48.1973 725.498 48.3385 725.247 48.6211C724.996 48.8991 724.853 49.2956 724.816 49.8105H727.742C727.733 49.2956 727.599 48.8991 727.339 48.6211C727.079 48.3385 726.728 48.1973 726.286 48.1973ZM726.58 54.6367C725.35 54.6367 724.388 54.2972 723.695 53.6182C723.003 52.9391 722.656 51.9775 722.656 50.7334C722.656 49.4528 722.975 48.4639 723.613 47.7666C724.256 47.0648 725.142 46.7139 726.273 46.7139C727.353 46.7139 728.193 47.0215 728.795 47.6367C729.397 48.252 729.697 49.1019 729.697 50.1865V51.1982H724.769C724.791 51.7907 724.967 52.2533 725.295 52.5859C725.623 52.9186 726.083 53.085 726.676 53.085C727.136 53.085 727.571 53.0371 727.982 52.9414C728.392 52.8457 728.82 52.693 729.267 52.4834V54.0967C728.902 54.279 728.512 54.4134 728.098 54.5C727.683 54.5911 727.177 54.6367 726.58 54.6367ZM734.916 54.6367C732.537 54.6367 731.348 53.3311 731.348 50.7197C731.348 49.4209 731.671 48.4297 732.319 47.7461C732.966 47.0579 733.893 46.7139 735.101 46.7139C735.985 46.7139 736.778 46.887 737.48 47.2334L736.864 48.8467C736.536 48.7145 736.231 48.6074 735.948 48.5254C735.666 48.4388 735.383 48.3955 735.101 48.3955C734.016 48.3955 733.474 49.1657 733.474 50.7061C733.474 52.2008 734.016 52.9482 735.101 52.9482C735.502 52.9482 735.873 52.8958 736.215 52.791C736.557 52.6816 736.899 52.513 737.24 52.2852V54.0693C736.903 54.2835 736.561 54.4316 736.215 54.5137C735.873 54.5957 735.44 54.6367 734.916 54.6367ZM746.492 54.5H744.407V50.0361C744.407 48.9333 743.997 48.3818 743.177 48.3818C742.594 48.3818 742.172 48.5801 741.912 48.9766C741.653 49.373 741.523 50.0156 741.523 50.9043V54.5H739.438V43.8633H741.523V46.0303C741.523 46.1989 741.507 46.5954 741.475 47.2197L741.427 47.835H741.536C742.001 47.0876 742.739 46.7139 743.751 46.7139C744.649 46.7139 745.33 46.9554 745.795 47.4385C746.26 47.9215 746.492 48.6143 746.492 49.5166V54.5Z" fill="white"/>
<path d="M789.492 54.5H787.079L785.726 49.25C785.675 49.0632 785.589 48.6781 785.466 48.0947C785.347 47.5068 785.279 47.1126 785.261 46.9121C785.233 47.1582 785.165 47.5547 785.056 48.1016C784.946 48.6439 784.862 49.0312 784.803 49.2637L783.456 54.5H781.05L778.5 44.5059H780.585L781.863 49.9609C782.087 50.9681 782.248 51.8408 782.349 52.5791C782.376 52.3193 782.438 51.9183 782.533 51.376C782.633 50.8291 782.727 50.4053 782.813 50.1045L784.27 44.5059H786.272L787.729 50.1045C787.792 50.3551 787.872 50.738 787.968 51.2529C788.063 51.7679 788.136 52.21 788.187 52.5791C788.232 52.2236 788.305 51.7816 788.405 51.2529C788.506 50.7197 788.597 50.2891 788.679 49.9609L789.95 44.5059H792.035L789.492 54.5ZM795.21 50.665C795.21 51.4215 795.333 51.9935 795.579 52.3809C795.83 52.7682 796.235 52.9619 796.796 52.9619C797.352 52.9619 797.751 52.7705 797.992 52.3877C798.238 52.0003 798.361 51.4261 798.361 50.665C798.361 49.9085 798.238 49.3411 797.992 48.9629C797.746 48.5846 797.343 48.3955 796.782 48.3955C796.226 48.3955 795.825 48.5846 795.579 48.9629C795.333 49.3366 795.21 49.904 795.21 50.665ZM800.494 50.665C800.494 51.9092 800.166 52.8822 799.51 53.584C798.854 54.2858 797.94 54.6367 796.769 54.6367C796.035 54.6367 795.388 54.4772 794.827 54.1582C794.267 53.8346 793.836 53.3721 793.535 52.7705C793.234 52.1689 793.084 51.4671 793.084 50.665C793.084 49.4163 793.41 48.4456 794.062 47.7529C794.713 47.0602 795.629 46.7139 796.81 46.7139C797.543 46.7139 798.191 46.8734 798.751 47.1924C799.312 47.5114 799.742 47.9694 800.043 48.5664C800.344 49.1634 800.494 49.863 800.494 50.665ZM806.903 46.7139C807.185 46.7139 807.42 46.7344 807.607 46.7754L807.449 48.7305C807.281 48.6849 807.076 48.6621 806.834 48.6621C806.169 48.6621 805.649 48.833 805.276 49.1748C804.906 49.5166 804.722 49.9951 804.722 50.6104V54.5H802.637V46.8574H804.216L804.524 48.1426H804.626C804.863 47.7142 805.182 47.3701 805.583 47.1104C805.989 46.846 806.429 46.7139 806.903 46.7139ZM811.499 54.5H809.414V43.8633H811.499V54.5ZM816.534 54.6367C815.636 54.6367 814.929 54.2881 814.414 53.5908C813.904 52.8936 813.649 51.9274 813.649 50.6924C813.649 49.4391 813.909 48.4639 814.428 47.7666C814.952 47.0648 815.672 46.7139 816.588 46.7139C817.55 46.7139 818.284 47.0876 818.789 47.835H818.858C818.753 47.2653 818.701 46.7572 818.701 46.3105V43.8633H820.792V54.5H819.193L818.789 53.5088H818.701C818.227 54.2607 817.504 54.6367 816.534 54.6367ZM817.265 52.9756C817.798 52.9756 818.188 52.8206 818.434 52.5107C818.685 52.2008 818.821 51.6745 818.844 50.9316V50.7061C818.844 49.8857 818.716 49.2979 818.461 48.9424C818.211 48.5869 817.8 48.4092 817.231 48.4092C816.766 48.4092 816.404 48.6074 816.144 49.0039C815.889 49.3958 815.761 49.9678 815.761 50.7197C815.761 51.4717 815.891 52.0368 816.151 52.415C816.41 52.7887 816.782 52.9756 817.265 52.9756Z" fill="white"/>
<path d="M861.947 54.5H859.835V50.1865H855.877V54.5H853.758V44.5059H855.877V48.4229H859.835V44.5059H861.947V54.5ZM867.898 48.1973C867.455 48.1973 867.109 48.3385 866.858 48.6211C866.608 48.8991 866.464 49.2956 866.428 49.8105H869.354C869.344 49.2956 869.21 48.8991 868.95 48.6211C868.691 48.3385 868.34 48.1973 867.898 48.1973ZM868.191 54.6367C866.961 54.6367 865.999 54.2972 865.307 53.6182C864.614 52.9391 864.268 51.9775 864.268 50.7334C864.268 49.4528 864.587 48.4639 865.225 47.7666C865.867 47.0648 866.754 46.7139 867.884 46.7139C868.964 46.7139 869.805 47.0215 870.406 47.6367C871.008 48.252 871.309 49.1019 871.309 50.1865V51.1982H866.38C866.403 51.7907 866.578 52.2533 866.906 52.5859C867.234 52.9186 867.695 53.085 868.287 53.085C868.747 53.085 869.183 53.0371 869.593 52.9414C870.003 52.8457 870.431 52.693 870.878 52.4834V54.0967C870.513 54.279 870.124 54.4134 869.709 54.5C869.294 54.5911 868.788 54.6367 868.191 54.6367ZM878.278 54.5L877.874 53.4609H877.819C877.469 53.903 877.106 54.2106 876.733 54.3838C876.363 54.5524 875.88 54.6367 875.283 54.6367C874.55 54.6367 873.971 54.4271 873.547 54.0078C873.128 53.5885 872.918 52.9915 872.918 52.2168C872.918 51.4056 873.201 50.8086 873.766 50.4258C874.335 50.0384 875.192 49.8242 876.336 49.7832L877.662 49.7422V49.4072C877.662 48.6325 877.266 48.2451 876.473 48.2451C875.862 48.2451 875.144 48.4297 874.319 48.7988L873.629 47.3906C874.509 46.9303 875.484 46.7002 876.555 46.7002C877.58 46.7002 878.366 46.9235 878.913 47.3701C879.46 47.8167 879.734 48.4958 879.734 49.4072V54.5H878.278ZM877.662 50.959L876.856 50.9863C876.25 51.0046 875.798 51.1139 875.502 51.3145C875.206 51.515 875.058 51.8203 875.058 52.2305C875.058 52.8184 875.395 53.1123 876.069 53.1123C876.553 53.1123 876.938 52.9733 877.225 52.6953C877.516 52.4173 877.662 52.0482 877.662 51.5879V50.959ZM884.392 54.5H882.307V43.8633H884.392V54.5ZM890.226 52.9756C890.59 52.9756 891.028 52.8958 891.538 52.7363V54.2881C891.019 54.5205 890.381 54.6367 889.624 54.6367C888.79 54.6367 888.182 54.4271 887.799 54.0078C887.421 53.584 887.232 52.9505 887.232 52.1074V48.4229H886.234V47.541L887.382 46.8438L887.984 45.2305H889.317V46.8574H891.456V48.4229H889.317V52.1074C889.317 52.4036 889.399 52.6224 889.563 52.7637C889.731 52.9049 889.952 52.9756 890.226 52.9756ZM900.565 54.5H898.48V50.0361C898.48 48.9333 898.07 48.3818 897.249 48.3818C896.666 48.3818 896.245 48.5801 895.985 48.9766C895.725 49.373 895.595 50.0156 895.595 50.9043V54.5H893.51V43.8633H895.595V46.0303C895.595 46.1989 895.579 46.5954 895.547 47.2197L895.499 47.835H895.609C896.074 47.0876 896.812 46.7139 897.824 46.7139C898.721 46.7139 899.403 46.9554 899.868 47.4385C900.332 47.9215 900.565 48.6143 900.565 49.5166V54.5Z" fill="white"/>
<path d="M938.003 46.126C937.205 46.126 936.588 46.4268 936.15 47.0283C935.713 47.6253 935.494 48.4593 935.494 49.5303C935.494 51.7588 936.33 52.873 938.003 52.873C938.705 52.873 939.555 52.6976 940.553 52.3467V54.124C939.732 54.4658 938.816 54.6367 937.805 54.6367C936.351 54.6367 935.239 54.1969 934.469 53.3174C933.699 52.4333 933.313 51.1663 933.313 49.5166C933.313 48.4775 933.503 47.5684 933.881 46.7891C934.259 46.0052 934.801 45.4059 935.508 44.9912C936.219 44.5719 937.05 44.3623 938.003 44.3623C938.974 44.3623 939.949 44.597 940.929 45.0664L940.245 46.7891C939.871 46.6113 939.495 46.4564 939.117 46.3242C938.739 46.1921 938.368 46.126 938.003 46.126ZM944.603 50.665C944.603 51.4215 944.726 51.9935 944.972 52.3809C945.222 52.7682 945.628 52.9619 946.189 52.9619C946.745 52.9619 947.143 52.7705 947.385 52.3877C947.631 52.0003 947.754 51.4261 947.754 50.665C947.754 49.9085 947.631 49.3411 947.385 48.9629C947.139 48.5846 946.735 48.3955 946.175 48.3955C945.619 48.3955 945.218 48.5846 944.972 48.9629C944.726 49.3366 944.603 49.904 944.603 50.665ZM949.887 50.665C949.887 51.9092 949.559 52.8822 948.902 53.584C948.246 54.2858 947.332 54.6367 946.161 54.6367C945.427 54.6367 944.78 54.4772 944.22 54.1582C943.659 53.8346 943.229 53.3721 942.928 52.7705C942.627 52.1689 942.477 51.4671 942.477 50.665C942.477 49.4163 942.802 48.4456 943.454 47.7529C944.106 47.0602 945.022 46.7139 946.202 46.7139C946.936 46.7139 947.583 46.8734 948.144 47.1924C948.704 47.5114 949.135 47.9694 949.436 48.5664C949.736 49.1634 949.887 49.863 949.887 50.665ZM956.295 46.7139C956.578 46.7139 956.812 46.7344 956.999 46.7754L956.842 48.7305C956.673 48.6849 956.468 48.6621 956.227 48.6621C955.561 48.6621 955.042 48.833 954.668 49.1748C954.299 49.5166 954.114 49.9951 954.114 50.6104V54.5H952.029V46.8574H953.609L953.916 48.1426H954.019C954.256 47.7142 954.575 47.3701 954.976 47.1104C955.381 46.846 955.821 46.7139 956.295 46.7139ZM960.468 50.665C960.468 51.4215 960.591 51.9935 960.837 52.3809C961.088 52.7682 961.493 52.9619 962.054 52.9619C962.61 52.9619 963.009 52.7705 963.25 52.3877C963.496 52.0003 963.619 51.4261 963.619 50.665C963.619 49.9085 963.496 49.3411 963.25 48.9629C963.004 48.5846 962.601 48.3955 962.04 48.3955C961.484 48.3955 961.083 48.5846 960.837 48.9629C960.591 49.3366 960.468 49.904 960.468 50.665ZM965.752 50.665C965.752 51.9092 965.424 52.8822 964.768 53.584C964.112 54.2858 963.198 54.6367 962.027 54.6367C961.293 54.6367 960.646 54.4772 960.085 54.1582C959.525 53.8346 959.094 53.3721 958.793 52.7705C958.492 52.1689 958.342 51.4671 958.342 50.665C958.342 49.4163 958.668 48.4456 959.32 47.7529C959.971 47.0602 960.887 46.7139 962.068 46.7139C962.801 46.7139 963.448 46.8734 964.009 47.1924C964.57 47.5114 965 47.9694 965.301 48.5664C965.602 49.1634 965.752 49.863 965.752 50.665ZM974.95 54.5H972.865V50.0361C972.865 49.4847 972.767 49.0723 972.571 48.7988C972.375 48.5208 972.062 48.3818 971.634 48.3818C971.051 48.3818 970.629 48.5778 970.369 48.9697C970.11 49.3571 969.98 50.002 969.98 50.9043V54.5H967.895V46.8574H969.488L969.768 47.835H969.884C970.117 47.4658 970.436 47.1878 970.841 47.001C971.251 46.8096 971.716 46.7139 972.236 46.7139C973.124 46.7139 973.799 46.9554 974.259 47.4385C974.719 47.917 974.95 48.6097 974.95 49.5166V54.5ZM982.37 54.5L981.966 53.4609H981.912C981.561 53.903 981.198 54.2106 980.825 54.3838C980.455 54.5524 979.972 54.6367 979.375 54.6367C978.642 54.6367 978.063 54.4271 977.639 54.0078C977.22 53.5885 977.01 52.9915 977.01 52.2168C977.01 51.4056 977.293 50.8086 977.858 50.4258C978.427 50.0384 979.284 49.8242 980.428 49.7832L981.754 49.7422V49.4072C981.754 48.6325 981.358 48.2451 980.565 48.2451C979.954 48.2451 979.236 48.4297 978.412 48.7988L977.721 47.3906C978.601 46.9303 979.576 46.7002 980.647 46.7002C981.672 46.7002 982.458 46.9235 983.005 47.3701C983.552 47.8167 983.826 48.4958 983.826 49.4072V54.5H982.37ZM981.754 50.959L980.948 50.9863C980.342 51.0046 979.89 51.1139 979.594 51.3145C979.298 51.515 979.15 51.8203 979.15 52.2305C979.15 52.8184 979.487 53.1123 980.162 53.1123C980.645 53.1123 981.03 52.9733 981.317 52.6953C981.608 52.4173 981.754 52.0482 981.754 51.5879V50.959ZM988.217 54.5L985.305 46.8574H987.486L988.962 51.2119C989.126 51.7633 989.229 52.2852 989.27 52.7773H989.311C989.334 52.3398 989.436 51.818 989.619 51.2119L991.088 46.8574H993.269L990.357 54.5H988.217ZM994.701 44.8818C994.701 44.2028 995.079 43.8633 995.836 43.8633C996.592 43.8633 996.97 44.2028 996.97 44.8818C996.97 45.2054 996.875 45.4583 996.683 45.6406C996.496 45.8184 996.214 45.9072 995.836 45.9072C995.079 45.9072 994.701 45.5654 994.701 44.8818ZM996.875 54.5H994.79V46.8574H996.875V54.5ZM1003.75 46.7139C1004.04 46.7139 1004.27 46.7344 1004.46 46.7754L1004.3 48.7305C1004.13 48.6849 1003.93 48.6621 1003.69 48.6621C1003.02 48.6621 1002.5 48.833 1002.13 49.1748C1001.76 49.5166 1001.57 49.9951 1001.57 50.6104V54.5H999.489V46.8574H1001.07L1001.38 48.1426H1001.48C1001.72 47.7142 1002.03 47.3701 1002.44 47.1104C1002.84 46.846 1003.28 46.7139 1003.75 46.7139ZM1011.68 54.5L1011.4 53.5225H1011.29C1011.07 53.8779 1010.75 54.1536 1010.34 54.3496C1009.93 54.541 1009.46 54.6367 1008.94 54.6367C1008.04 54.6367 1007.36 54.3975 1006.91 53.9189C1006.45 53.4359 1006.23 52.7432 1006.23 51.8408V46.8574H1008.31V51.3213C1008.31 51.8727 1008.41 52.2874 1008.6 52.5654C1008.8 52.8389 1009.11 52.9756 1009.54 52.9756C1010.12 52.9756 1010.55 52.7819 1010.81 52.3945C1011.07 52.0026 1011.2 51.3555 1011.2 50.4531V46.8574H1013.28V54.5H1011.68ZM1021.22 52.2305C1021.22 53.0143 1020.95 53.6113 1020.4 54.0215C1019.86 54.4316 1019.04 54.6367 1017.96 54.6367C1017.4 54.6367 1016.93 54.598 1016.54 54.5205C1016.14 54.4476 1015.78 54.3382 1015.44 54.1924V52.4697C1015.82 52.652 1016.26 52.8047 1016.74 52.9277C1017.23 53.0508 1017.66 53.1123 1018.03 53.1123C1018.78 53.1123 1019.16 52.8936 1019.16 52.4561C1019.16 52.292 1019.11 52.1598 1019.01 52.0596C1018.91 51.9548 1018.74 51.8385 1018.49 51.7109C1018.25 51.5788 1017.92 51.4261 1017.51 51.2529C1016.92 51.0068 1016.49 50.779 1016.21 50.5693C1015.94 50.3597 1015.73 50.1204 1015.61 49.8516C1015.48 49.5781 1015.42 49.2432 1015.42 48.8467C1015.42 48.1676 1015.68 47.6436 1016.21 47.2744C1016.74 46.9007 1017.48 46.7139 1018.45 46.7139C1019.37 46.7139 1020.27 46.9144 1021.14 47.3154L1020.51 48.8193C1020.13 48.6553 1019.77 48.5208 1019.44 48.416C1019.1 48.3112 1018.76 48.2588 1018.42 48.2588C1017.8 48.2588 1017.49 48.4251 1017.49 48.7578C1017.49 48.9447 1017.59 49.1064 1017.79 49.2432C1017.99 49.3799 1018.42 49.5827 1019.09 49.8516C1019.69 50.0931 1020.13 50.3187 1020.41 50.5283C1020.68 50.738 1020.89 50.9795 1021.02 51.2529C1021.15 51.5264 1021.22 51.8522 1021.22 52.2305Z" fill="white"/>
<path d="M1058 46.126C1057.21 46.126 1056.59 46.4268 1056.15 47.0283C1055.71 47.6253 1055.49 48.4593 1055.49 49.5303C1055.49 51.7588 1056.33 52.873 1058 52.873C1058.7 52.873 1059.55 52.6976 1060.55 52.3467V54.124C1059.73 54.4658 1058.82 54.6367 1057.8 54.6367C1056.35 54.6367 1055.24 54.1969 1054.47 53.3174C1053.7 52.4333 1053.31 51.1663 1053.31 49.5166C1053.31 48.4775 1053.5 47.5684 1053.88 46.7891C1054.26 46.0052 1054.8 45.4059 1055.51 44.9912C1056.22 44.5719 1057.05 44.3623 1058 44.3623C1058.97 44.3623 1059.95 44.597 1060.93 45.0664L1060.25 46.7891C1059.87 46.6113 1059.5 46.4564 1059.12 46.3242C1058.74 46.1921 1058.37 46.126 1058 46.126ZM1065.03 54.5H1062.94V43.8633H1065.03V54.5ZM1067.55 44.8818C1067.55 44.2028 1067.93 43.8633 1068.69 43.8633C1069.44 43.8633 1069.82 44.2028 1069.82 44.8818C1069.82 45.2054 1069.73 45.4583 1069.53 45.6406C1069.35 45.8184 1069.06 45.9072 1068.69 45.9072C1067.93 45.9072 1067.55 45.5654 1067.55 44.8818ZM1069.73 54.5H1067.64V46.8574H1069.73V54.5ZM1079.18 54.5H1077.1V50.0361C1077.1 49.4847 1077 49.0723 1076.82 48.7988C1076.64 48.5208 1076.35 48.3818 1075.95 48.3818C1075.42 48.3818 1075.03 48.5778 1074.79 48.9697C1074.55 49.3617 1074.43 50.0065 1074.43 50.9043V54.5H1072.34V46.8574H1073.93L1074.21 47.835H1074.33C1074.53 47.484 1074.83 47.2106 1075.22 47.0146C1075.61 46.8141 1076.05 46.7139 1076.55 46.7139C1077.69 46.7139 1078.47 47.0876 1078.88 47.835H1079.06C1079.26 47.4795 1079.57 47.2038 1079.96 47.0078C1080.36 46.8118 1080.81 46.7139 1081.32 46.7139C1082.18 46.7139 1082.84 46.9372 1083.28 47.3838C1083.72 47.8258 1083.95 48.5368 1083.95 49.5166V54.5H1081.86V50.0361C1081.86 49.4847 1081.76 49.0723 1081.58 48.7988C1081.39 48.5208 1081.1 48.3818 1080.71 48.3818C1080.2 48.3818 1079.81 48.5641 1079.56 48.9287C1079.31 49.2933 1079.18 49.8721 1079.18 50.665V54.5ZM1091.37 54.5L1090.96 53.4609H1090.91C1090.56 53.903 1090.2 54.2106 1089.82 54.3838C1089.45 54.5524 1088.97 54.6367 1088.37 54.6367C1087.64 54.6367 1087.06 54.4271 1086.64 54.0078C1086.22 53.5885 1086.01 52.9915 1086.01 52.2168C1086.01 51.4056 1086.29 50.8086 1086.86 50.4258C1087.43 50.0384 1088.28 49.8242 1089.43 49.7832L1090.75 49.7422V49.4072C1090.75 48.6325 1090.36 48.2451 1089.56 48.2451C1088.95 48.2451 1088.23 48.4297 1087.41 48.7988L1086.72 47.3906C1087.6 46.9303 1088.57 46.7002 1089.64 46.7002C1090.67 46.7002 1091.46 46.9235 1092 47.3701C1092.55 47.8167 1092.82 48.4958 1092.82 49.4072V54.5H1091.37ZM1090.75 50.959L1089.95 50.9863C1089.34 51.0046 1088.89 51.1139 1088.59 51.3145C1088.3 51.515 1088.15 51.8203 1088.15 52.2305C1088.15 52.8184 1088.49 53.1123 1089.16 53.1123C1089.64 53.1123 1090.03 52.9733 1090.31 52.6953C1090.61 52.4173 1090.75 52.0482 1090.75 51.5879V50.959ZM1098.62 52.9756C1098.98 52.9756 1099.42 52.8958 1099.93 52.7363V54.2881C1099.41 54.5205 1098.77 54.6367 1098.02 54.6367C1097.18 54.6367 1096.57 54.4271 1096.19 54.0078C1095.81 53.584 1095.62 52.9505 1095.62 52.1074V48.4229H1094.62V47.541L1095.77 46.8438L1096.37 45.2305H1097.71V46.8574H1099.85V48.4229H1097.71V52.1074C1097.71 52.4036 1097.79 52.6224 1097.95 52.7637C1098.12 52.9049 1098.34 52.9756 1098.62 52.9756ZM1105.07 48.1973C1104.62 48.1973 1104.28 48.3385 1104.03 48.6211C1103.78 48.8991 1103.63 49.2956 1103.6 49.8105H1106.52C1106.51 49.2956 1106.38 48.8991 1106.12 48.6211C1105.86 48.3385 1105.51 48.1973 1105.07 48.1973ZM1105.36 54.6367C1104.13 54.6367 1103.17 54.2972 1102.48 53.6182C1101.78 52.9391 1101.44 51.9775 1101.44 50.7334C1101.44 49.4528 1101.76 48.4639 1102.39 47.7666C1103.04 47.0648 1103.92 46.7139 1105.05 46.7139C1106.13 46.7139 1106.97 47.0215 1107.57 47.6367C1108.18 48.252 1108.48 49.1019 1108.48 50.1865V51.1982H1103.55C1103.57 51.7907 1103.75 52.2533 1104.07 52.5859C1104.4 52.9186 1104.86 53.085 1105.46 53.085C1105.92 53.085 1106.35 53.0371 1106.76 52.9414C1107.17 52.8457 1107.6 52.693 1108.05 52.4834V54.0967C1107.68 54.279 1107.29 54.4134 1106.88 54.5C1106.46 54.5911 1105.96 54.6367 1105.36 54.6367Z" fill="white"/>
<path d="M1146.66 51.7246C1146.66 52.627 1146.33 53.3379 1145.68 53.8574C1145.03 54.377 1144.13 54.6367 1142.97 54.6367C1141.91 54.6367 1140.96 54.4362 1140.14 54.0352V52.0664C1140.82 52.3672 1141.39 52.5791 1141.85 52.7021C1142.32 52.8252 1142.75 52.8867 1143.14 52.8867C1143.6 52.8867 1143.96 52.7979 1144.2 52.6201C1144.45 52.4424 1144.58 52.1781 1144.58 51.8271C1144.58 51.6312 1144.52 51.458 1144.42 51.3076C1144.31 51.1527 1144.14 51.0046 1143.93 50.8633C1143.72 50.722 1143.29 50.4964 1142.64 50.1865C1142.03 49.8994 1141.57 49.6237 1141.26 49.3594C1140.96 49.0951 1140.71 48.7874 1140.53 48.4365C1140.35 48.0856 1140.26 47.6755 1140.26 47.2061C1140.26 46.3219 1140.56 45.627 1141.15 45.1211C1141.76 44.6152 1142.59 44.3623 1143.64 44.3623C1144.16 44.3623 1144.66 44.4238 1145.13 44.5469C1145.6 44.6699 1146.09 44.8431 1146.61 45.0664L1145.93 46.7139C1145.39 46.4951 1144.95 46.3424 1144.6 46.2559C1144.25 46.1693 1143.91 46.126 1143.57 46.126C1143.17 46.126 1142.87 46.2194 1142.65 46.4062C1142.44 46.5931 1142.33 46.8369 1142.33 47.1377C1142.33 47.3245 1142.37 47.4886 1142.46 47.6299C1142.55 47.7666 1142.68 47.901 1142.87 48.0332C1143.06 48.1608 1143.51 48.3932 1144.22 48.7305C1145.15 49.1771 1145.79 49.626 1146.14 50.0771C1146.48 50.5238 1146.66 51.0729 1146.66 51.7246ZM1151.83 54.6367C1149.45 54.6367 1148.26 53.3311 1148.26 50.7197C1148.26 49.4209 1148.58 48.4297 1149.23 47.7461C1149.88 47.0579 1150.81 46.7139 1152.01 46.7139C1152.9 46.7139 1153.69 46.887 1154.39 47.2334L1153.78 48.8467C1153.45 48.7145 1153.14 48.6074 1152.86 48.5254C1152.58 48.4388 1152.3 48.3955 1152.01 48.3955C1150.93 48.3955 1150.39 49.1657 1150.39 50.7061C1150.39 52.2008 1150.93 52.9482 1152.01 52.9482C1152.41 52.9482 1152.79 52.8958 1153.13 52.791C1153.47 52.6816 1153.81 52.513 1154.15 52.2852V54.0693C1153.82 54.2835 1153.47 54.4316 1153.13 54.5137C1152.79 54.5957 1152.35 54.6367 1151.83 54.6367ZM1156.26 44.8818C1156.26 44.2028 1156.64 43.8633 1157.4 43.8633C1158.15 43.8633 1158.53 44.2028 1158.53 44.8818C1158.53 45.2054 1158.43 45.4583 1158.24 45.6406C1158.06 45.8184 1157.77 45.9072 1157.4 45.9072C1156.64 45.9072 1156.26 45.5654 1156.26 44.8818ZM1158.43 54.5H1156.35V46.8574H1158.43V54.5ZM1164.21 48.1973C1163.77 48.1973 1163.43 48.3385 1163.18 48.6211C1162.92 48.8991 1162.78 49.2956 1162.74 49.8105H1165.67C1165.66 49.2956 1165.53 48.8991 1165.27 48.6211C1165.01 48.3385 1164.66 48.1973 1164.21 48.1973ZM1164.51 54.6367C1163.28 54.6367 1162.32 54.2972 1161.62 53.6182C1160.93 52.9391 1160.58 51.9775 1160.58 50.7334C1160.58 49.4528 1160.9 48.4639 1161.54 47.7666C1162.18 47.0648 1163.07 46.7139 1164.2 46.7139C1165.28 46.7139 1166.12 47.0215 1166.72 47.6367C1167.32 48.252 1167.63 49.1019 1167.63 50.1865V51.1982H1162.7C1162.72 51.7907 1162.89 52.2533 1163.22 52.5859C1163.55 52.9186 1164.01 53.085 1164.6 53.085C1165.06 53.085 1165.5 53.0371 1165.91 52.9414C1166.32 52.8457 1166.75 52.693 1167.19 52.4834V54.0967C1166.83 54.279 1166.44 54.4134 1166.03 54.5C1165.61 54.5911 1165.11 54.6367 1164.51 54.6367ZM1176.8 54.5H1174.71V50.0361C1174.71 49.4847 1174.61 49.0723 1174.42 48.7988C1174.22 48.5208 1173.91 48.3818 1173.48 48.3818C1172.9 48.3818 1172.47 48.5778 1172.22 48.9697C1171.96 49.3571 1171.83 50.002 1171.83 50.9043V54.5H1169.74V46.8574H1171.33L1171.61 47.835H1171.73C1171.96 47.4658 1172.28 47.1878 1172.69 47.001C1173.1 46.8096 1173.56 46.7139 1174.08 46.7139C1174.97 46.7139 1175.64 46.9554 1176.1 47.4385C1176.57 47.917 1176.8 48.6097 1176.8 49.5166V54.5ZM1182.47 54.6367C1180.09 54.6367 1178.9 53.3311 1178.9 50.7197C1178.9 49.4209 1179.22 48.4297 1179.87 47.7461C1180.51 47.0579 1181.44 46.7139 1182.65 46.7139C1183.53 46.7139 1184.33 46.887 1185.03 47.2334L1184.41 48.8467C1184.09 48.7145 1183.78 48.6074 1183.5 48.5254C1183.21 48.4388 1182.93 48.3955 1182.65 48.3955C1181.57 48.3955 1181.02 49.1657 1181.02 50.7061C1181.02 52.2008 1181.57 52.9482 1182.65 52.9482C1183.05 52.9482 1183.42 52.8958 1183.76 52.791C1184.11 52.6816 1184.45 52.513 1184.79 52.2852V54.0693C1184.45 54.2835 1184.11 54.4316 1183.76 54.5137C1183.42 54.5957 1182.99 54.6367 1182.47 54.6367ZM1190.15 48.1973C1189.71 48.1973 1189.36 48.3385 1189.11 48.6211C1188.86 48.8991 1188.72 49.2956 1188.68 49.8105H1191.61C1191.6 49.2956 1191.46 48.8991 1191.2 48.6211C1190.94 48.3385 1190.59 48.1973 1190.15 48.1973ZM1190.45 54.6367C1189.22 54.6367 1188.25 54.2972 1187.56 53.6182C1186.87 52.9391 1186.52 51.9775 1186.52 50.7334C1186.52 49.4528 1186.84 48.4639 1187.48 47.7666C1188.12 47.0648 1189.01 46.7139 1190.14 46.7139C1191.22 46.7139 1192.06 47.0215 1192.66 47.6367C1193.26 48.252 1193.56 49.1019 1193.56 50.1865V51.1982H1188.63C1188.66 51.7907 1188.83 52.2533 1189.16 52.5859C1189.49 52.9186 1189.95 53.085 1190.54 53.085C1191 53.085 1191.44 53.0371 1191.85 52.9414C1192.26 52.8457 1192.69 52.693 1193.13 52.4834V54.0967C1192.77 54.279 1192.38 54.4134 1191.96 54.5C1191.55 54.5911 1191.04 54.6367 1190.45 54.6367Z" fill="white"/>
<path d="M1227.84 54.5H1225.76V44.5059H1231.49V46.2422H1227.84V48.8193H1231.23V50.5488H1227.84V54.5ZM1239.11 54.5L1238.83 53.5225H1238.72C1238.5 53.8779 1238.18 54.1536 1237.77 54.3496C1237.36 54.541 1236.89 54.6367 1236.37 54.6367C1235.47 54.6367 1234.8 54.3975 1234.34 53.9189C1233.88 53.4359 1233.66 52.7432 1233.66 51.8408V46.8574H1235.74V51.3213C1235.74 51.8727 1235.84 52.2874 1236.04 52.5654C1236.23 52.8389 1236.54 52.9756 1236.97 52.9756C1237.56 52.9756 1237.98 52.7819 1238.24 52.3945C1238.5 52.0026 1238.63 51.3555 1238.63 50.4531V46.8574H1240.71V54.5H1239.11ZM1246.54 52.9756C1246.9 52.9756 1247.34 52.8958 1247.85 52.7363V54.2881C1247.33 54.5205 1246.69 54.6367 1245.94 54.6367C1245.1 54.6367 1244.49 54.4271 1244.11 54.0078C1243.73 53.584 1243.54 52.9505 1243.54 52.1074V48.4229H1242.55V47.541L1243.69 46.8438L1244.3 45.2305H1245.63V46.8574H1247.77V48.4229H1245.63V52.1074C1245.63 52.4036 1245.71 52.6224 1245.88 52.7637C1246.04 52.9049 1246.26 52.9756 1246.54 52.9756ZM1255.24 54.5L1254.96 53.5225H1254.85C1254.62 53.8779 1254.31 54.1536 1253.9 54.3496C1253.49 54.541 1253.02 54.6367 1252.5 54.6367C1251.6 54.6367 1250.92 54.3975 1250.47 53.9189C1250.01 53.4359 1249.78 52.7432 1249.78 51.8408V46.8574H1251.87V51.3213C1251.87 51.8727 1251.96 52.2874 1252.16 52.5654C1252.36 52.8389 1252.67 52.9756 1253.1 52.9756C1253.68 52.9756 1254.1 52.7819 1254.36 52.3945C1254.62 52.0026 1254.75 51.3555 1254.75 50.4531V46.8574H1256.84V54.5H1255.24ZM1263.71 46.7139C1263.99 46.7139 1264.23 46.7344 1264.41 46.7754L1264.26 48.7305C1264.09 48.6849 1263.88 48.6621 1263.64 48.6621C1262.98 48.6621 1262.46 48.833 1262.08 49.1748C1261.71 49.5166 1261.53 49.9951 1261.53 50.6104V54.5H1259.44V46.8574H1261.02L1261.33 48.1426H1261.43C1261.67 47.7142 1261.99 47.3701 1262.39 47.1104C1262.8 46.846 1263.24 46.7139 1263.71 46.7139ZM1269.39 48.1973C1268.94 48.1973 1268.6 48.3385 1268.35 48.6211C1268.1 48.8991 1267.95 49.2956 1267.92 49.8105H1270.84C1270.83 49.2956 1270.7 48.8991 1270.44 48.6211C1270.18 48.3385 1269.83 48.1973 1269.39 48.1973ZM1269.68 54.6367C1268.45 54.6367 1267.49 54.2972 1266.8 53.6182C1266.1 52.9391 1265.76 51.9775 1265.76 50.7334C1265.76 49.4528 1266.08 48.4639 1266.71 47.7666C1267.36 47.0648 1268.24 46.7139 1269.37 46.7139C1270.45 46.7139 1271.29 47.0215 1271.89 47.6367C1272.5 48.252 1272.8 49.1019 1272.8 50.1865V51.1982H1267.87C1267.89 51.7907 1268.07 52.2533 1268.39 52.5859C1268.72 52.9186 1269.18 53.085 1269.78 53.085C1270.24 53.085 1270.67 53.0371 1271.08 52.9414C1271.49 52.8457 1271.92 52.693 1272.37 52.4834V54.0967C1272 54.279 1271.61 54.4134 1271.2 54.5C1270.78 54.5911 1270.28 54.6367 1269.68 54.6367Z" fill="white"/>
<path d="M1431.16 53.2246C1431.16 54.127 1430.83 54.8379 1430.18 55.3574C1429.53 55.877 1428.63 56.1367 1427.47 56.1367C1426.41 56.1367 1425.46 55.9362 1424.64 55.5352V53.5664C1425.32 53.8672 1425.89 54.0791 1426.35 54.2021C1426.82 54.3252 1427.25 54.3867 1427.64 54.3867C1428.1 54.3867 1428.46 54.2979 1428.7 54.1201C1428.95 53.9424 1429.08 53.6781 1429.08 53.3271C1429.08 53.1312 1429.02 52.958 1428.92 52.8076C1428.81 52.6527 1428.64 52.5046 1428.43 52.3633C1428.22 52.222 1427.79 51.9964 1427.14 51.6865C1426.53 51.3994 1426.07 51.1237 1425.76 50.8594C1425.46 50.5951 1425.21 50.2874 1425.03 49.9365C1424.85 49.5856 1424.76 49.1755 1424.76 48.7061C1424.76 47.8219 1425.06 47.127 1425.65 46.6211C1426.26 46.1152 1427.09 45.8623 1428.14 45.8623C1428.66 45.8623 1429.16 45.9238 1429.63 46.0469C1430.1 46.1699 1430.59 46.3431 1431.11 46.5664L1430.43 48.2139C1429.89 47.9951 1429.45 47.8424 1429.1 47.7559C1428.75 47.6693 1428.41 47.626 1428.07 47.626C1427.67 47.626 1427.37 47.7194 1427.15 47.9062C1426.94 48.0931 1426.83 48.3369 1426.83 48.6377C1426.83 48.8245 1426.87 48.9886 1426.96 49.1299C1427.05 49.2666 1427.18 49.401 1427.37 49.5332C1427.56 49.6608 1428.01 49.8932 1428.72 50.2305C1429.65 50.6771 1430.29 51.126 1430.64 51.5771C1430.98 52.0238 1431.16 52.5729 1431.16 53.2246ZM1433.14 46.3818C1433.14 45.7028 1433.51 45.3633 1434.27 45.3633C1435.03 45.3633 1435.41 45.7028 1435.41 46.3818C1435.41 46.7054 1435.31 46.9583 1435.12 47.1406C1434.93 47.3184 1434.65 47.4072 1434.27 47.4072C1433.51 47.4072 1433.14 47.0654 1433.14 46.3818ZM1435.31 56H1433.22V48.3574H1435.31V56ZM1444.58 48.3574V49.417L1443.38 49.7246C1443.6 50.0664 1443.71 50.4492 1443.71 50.873C1443.71 51.6934 1443.42 52.3337 1442.85 52.7939C1442.28 53.2497 1441.48 53.4775 1440.47 53.4775L1440.09 53.457L1439.78 53.4229C1439.57 53.5869 1439.46 53.7692 1439.46 53.9697C1439.46 54.2705 1439.84 54.4209 1440.61 54.4209H1441.91C1442.75 54.4209 1443.39 54.6009 1443.82 54.9609C1444.27 55.321 1444.49 55.8496 1444.49 56.5469C1444.49 57.4401 1444.11 58.1328 1443.37 58.625C1442.62 59.1172 1441.55 59.3633 1440.16 59.3633C1439.09 59.3633 1438.28 59.1764 1437.71 58.8027C1437.15 58.4336 1436.87 57.9141 1436.87 57.2441C1436.87 56.7839 1437.01 56.3988 1437.3 56.0889C1437.59 55.779 1438.01 55.5579 1438.57 55.4258C1438.35 55.3346 1438.17 55.1865 1438.01 54.9814C1437.85 54.7718 1437.77 54.5508 1437.77 54.3184C1437.77 54.0267 1437.85 53.7852 1438.02 53.5938C1438.19 53.3978 1438.43 53.2064 1438.75 53.0195C1438.35 52.8464 1438.03 52.5684 1437.79 52.1855C1437.56 51.8027 1437.45 51.3516 1437.45 50.832C1437.45 49.998 1437.72 49.3532 1438.26 48.8975C1438.8 48.4417 1439.58 48.2139 1440.58 48.2139C1440.8 48.2139 1441.05 48.2344 1441.34 48.2754C1441.64 48.3118 1441.83 48.3392 1441.91 48.3574H1444.58ZM1438.68 57.0801C1438.68 57.3672 1438.81 57.5928 1439.09 57.7568C1439.36 57.9209 1439.75 58.0029 1440.25 58.0029C1441 58.0029 1441.58 57.9004 1442.01 57.6953C1442.43 57.4902 1442.64 57.21 1442.64 56.8545C1442.64 56.5674 1442.52 56.3691 1442.26 56.2598C1442.01 56.1504 1441.63 56.0957 1441.1 56.0957H1440.02C1439.64 56.0957 1439.32 56.1846 1439.06 56.3623C1438.8 56.5446 1438.68 56.7839 1438.68 57.0801ZM1439.43 50.8594C1439.43 51.2741 1439.53 51.6022 1439.72 51.8438C1439.91 52.0853 1440.2 52.2061 1440.58 52.2061C1440.98 52.2061 1441.26 52.0853 1441.44 51.8438C1441.63 51.6022 1441.72 51.2741 1441.72 50.8594C1441.72 49.9388 1441.34 49.4785 1440.58 49.4785C1439.82 49.4785 1439.43 49.9388 1439.43 50.8594ZM1453.31 56H1451.23V51.5361C1451.23 50.9847 1451.13 50.5723 1450.94 50.2988C1450.74 50.0208 1450.43 49.8818 1450 49.8818C1449.42 49.8818 1448.99 50.0778 1448.73 50.4697C1448.47 50.8571 1448.34 51.502 1448.34 52.4043V56H1446.26V48.3574H1447.85L1448.13 49.335H1448.25C1448.48 48.9658 1448.8 48.6878 1449.21 48.501C1449.62 48.3096 1450.08 48.2139 1450.6 48.2139C1451.49 48.2139 1452.16 48.4554 1452.62 48.9385C1453.08 49.417 1453.31 50.1097 1453.31 51.0166V56ZM1460.1 56V46.0059H1462.22V56H1460.1ZM1472.05 56H1469.96V51.5361C1469.96 50.9847 1469.86 50.5723 1469.67 50.2988C1469.47 50.0208 1469.16 49.8818 1468.73 49.8818C1468.15 49.8818 1467.73 50.0778 1467.47 50.4697C1467.21 50.8571 1467.08 51.502 1467.08 52.4043V56H1464.99V48.3574H1466.59L1466.87 49.335H1466.98C1467.21 48.9658 1467.53 48.6878 1467.94 48.501C1468.35 48.3096 1468.81 48.2139 1469.33 48.2139C1470.22 48.2139 1470.9 48.4554 1471.36 48.9385C1471.82 49.417 1472.05 50.1097 1472.05 51.0166V56Z" fill="white"/>
<path d="M1511.16 53.2246C1511.16 54.127 1510.83 54.8379 1510.18 55.3574C1509.53 55.877 1508.63 56.1367 1507.47 56.1367C1506.41 56.1367 1505.46 55.9362 1504.64 55.5352V53.5664C1505.32 53.8672 1505.89 54.0791 1506.35 54.2021C1506.82 54.3252 1507.25 54.3867 1507.64 54.3867C1508.1 54.3867 1508.46 54.2979 1508.7 54.1201C1508.95 53.9424 1509.08 53.6781 1509.08 53.3271C1509.08 53.1312 1509.02 52.958 1508.92 52.8076C1508.81 52.6527 1508.64 52.5046 1508.43 52.3633C1508.22 52.222 1507.79 51.9964 1507.14 51.6865C1506.53 51.3994 1506.07 51.1237 1505.76 50.8594C1505.46 50.5951 1505.21 50.2874 1505.03 49.9365C1504.85 49.5856 1504.76 49.1755 1504.76 48.7061C1504.76 47.8219 1505.06 47.127 1505.65 46.6211C1506.26 46.1152 1507.09 45.8623 1508.14 45.8623C1508.66 45.8623 1509.16 45.9238 1509.63 46.0469C1510.1 46.1699 1510.59 46.3431 1511.11 46.5664L1510.43 48.2139C1509.89 47.9951 1509.45 47.8424 1509.1 47.7559C1508.75 47.6693 1508.41 47.626 1508.07 47.626C1507.67 47.626 1507.37 47.7194 1507.15 47.9062C1506.94 48.0931 1506.83 48.3369 1506.83 48.6377C1506.83 48.8245 1506.87 48.9886 1506.96 49.1299C1507.05 49.2666 1507.18 49.401 1507.37 49.5332C1507.56 49.6608 1508.01 49.8932 1508.72 50.2305C1509.65 50.6771 1510.29 51.126 1510.64 51.5771C1510.98 52.0238 1511.16 52.5729 1511.16 53.2246ZM1513.14 46.3818C1513.14 45.7028 1513.51 45.3633 1514.27 45.3633C1515.03 45.3633 1515.41 45.7028 1515.41 46.3818C1515.41 46.7054 1515.31 46.9583 1515.12 47.1406C1514.93 47.3184 1514.65 47.4072 1514.27 47.4072C1513.51 47.4072 1513.14 47.0654 1513.14 46.3818ZM1515.31 56H1513.22V48.3574H1515.31V56ZM1524.58 48.3574V49.417L1523.38 49.7246C1523.6 50.0664 1523.71 50.4492 1523.71 50.873C1523.71 51.6934 1523.42 52.3337 1522.85 52.7939C1522.28 53.2497 1521.48 53.4775 1520.47 53.4775L1520.09 53.457L1519.78 53.4229C1519.57 53.5869 1519.46 53.7692 1519.46 53.9697C1519.46 54.2705 1519.84 54.4209 1520.61 54.4209H1521.91C1522.75 54.4209 1523.39 54.6009 1523.82 54.9609C1524.27 55.321 1524.49 55.8496 1524.49 56.5469C1524.49 57.4401 1524.11 58.1328 1523.37 58.625C1522.62 59.1172 1521.55 59.3633 1520.16 59.3633C1519.09 59.3633 1518.28 59.1764 1517.71 58.8027C1517.15 58.4336 1516.87 57.9141 1516.87 57.2441C1516.87 56.7839 1517.01 56.3988 1517.3 56.0889C1517.59 55.779 1518.01 55.5579 1518.57 55.4258C1518.35 55.3346 1518.17 55.1865 1518.01 54.9814C1517.85 54.7718 1517.77 54.5508 1517.77 54.3184C1517.77 54.0267 1517.85 53.7852 1518.02 53.5938C1518.19 53.3978 1518.43 53.2064 1518.75 53.0195C1518.35 52.8464 1518.03 52.5684 1517.79 52.1855C1517.56 51.8027 1517.45 51.3516 1517.45 50.832C1517.45 49.998 1517.72 49.3532 1518.26 48.8975C1518.8 48.4417 1519.58 48.2139 1520.58 48.2139C1520.8 48.2139 1521.05 48.2344 1521.34 48.2754C1521.64 48.3118 1521.83 48.3392 1521.91 48.3574H1524.58ZM1518.68 57.0801C1518.68 57.3672 1518.81 57.5928 1519.09 57.7568C1519.36 57.9209 1519.75 58.0029 1520.25 58.0029C1521 58.0029 1521.58 57.9004 1522.01 57.6953C1522.43 57.4902 1522.64 57.21 1522.64 56.8545C1522.64 56.5674 1522.52 56.3691 1522.26 56.2598C1522.01 56.1504 1521.63 56.0957 1521.1 56.0957H1520.02C1519.64 56.0957 1519.32 56.1846 1519.06 56.3623C1518.8 56.5446 1518.68 56.7839 1518.68 57.0801ZM1519.43 50.8594C1519.43 51.2741 1519.53 51.6022 1519.72 51.8438C1519.91 52.0853 1520.2 52.2061 1520.58 52.2061C1520.98 52.2061 1521.26 52.0853 1521.44 51.8438C1521.63 51.6022 1521.72 51.2741 1521.72 50.8594C1521.72 49.9388 1521.34 49.4785 1520.58 49.4785C1519.82 49.4785 1519.43 49.9388 1519.43 50.8594ZM1533.31 56H1531.23V51.5361C1531.23 50.9847 1531.13 50.5723 1530.94 50.2988C1530.74 50.0208 1530.43 49.8818 1530 49.8818C1529.42 49.8818 1528.99 50.0778 1528.73 50.4697C1528.47 50.8571 1528.34 51.502 1528.34 52.4043V56H1526.26V48.3574H1527.85L1528.13 49.335H1528.25C1528.48 48.9658 1528.8 48.6878 1529.21 48.501C1529.62 48.3096 1530.08 48.2139 1530.6 48.2139C1531.49 48.2139 1532.16 48.4554 1532.62 48.9385C1533.08 49.417 1533.31 50.1097 1533.31 51.0166V56ZM1548.24 46.0059V52.4727C1548.24 53.2109 1548.07 53.8581 1547.74 54.4141C1547.41 54.9701 1546.93 55.3962 1546.31 55.6924C1545.68 55.9886 1544.95 56.1367 1544.09 56.1367C1542.81 56.1367 1541.81 55.8086 1541.1 55.1523C1540.39 54.4915 1540.03 53.5892 1540.03 52.4453V46.0059H1542.15V52.124C1542.15 52.8942 1542.3 53.4593 1542.61 53.8193C1542.92 54.1794 1543.43 54.3594 1544.15 54.3594C1544.84 54.3594 1545.34 54.1794 1545.65 53.8193C1545.97 53.4548 1546.12 52.8851 1546.12 52.1104V46.0059H1548.24ZM1555.14 56.1367C1554.24 56.1367 1553.54 55.8109 1553.02 55.1592H1552.92C1552.99 55.7972 1553.02 56.1663 1553.02 56.2666V59.3633H1550.94V48.3574H1552.64L1552.93 49.3486H1553.02C1553.51 48.5921 1554.23 48.2139 1555.19 48.2139C1556.09 48.2139 1556.8 48.5625 1557.31 49.2598C1557.82 49.957 1558.08 50.9255 1558.08 52.165C1558.08 52.9808 1557.96 53.6895 1557.71 54.291C1557.48 54.8926 1557.14 55.3506 1556.7 55.665C1556.25 55.9795 1555.73 56.1367 1555.14 56.1367ZM1554.52 49.8818C1554.01 49.8818 1553.63 50.0413 1553.39 50.3604C1553.16 50.6748 1553.03 51.1966 1553.02 51.9258V52.1514C1553.02 52.9717 1553.15 53.5596 1553.39 53.915C1553.63 54.2705 1554.02 54.4482 1554.55 54.4482C1555.48 54.4482 1555.95 53.6781 1555.95 52.1377C1555.95 51.3857 1555.83 50.8229 1555.6 50.4492C1555.37 50.071 1555.01 49.8818 1554.52 49.8818Z" fill="white"/>
</svg>
