<svg width="768" height="100" viewBox="0 0 768 100" fill="none" xmlns="http://www.w3.org/2000/svg">
<rect width="768" height="100" fill="black"/>
<path d="M303.113 56H300.994V47.7695H298.28V46.0059H305.827V47.7695H303.113V56ZM310.786 49.6973C310.344 49.6973 309.998 49.8385 309.747 50.1211C309.496 50.3991 309.353 50.7956 309.316 51.3105H312.242C312.233 50.7956 312.099 50.3991 311.839 50.1211C311.579 49.8385 311.228 49.6973 310.786 49.6973ZM311.08 56.1367C309.85 56.1367 308.888 55.7972 308.195 55.1182C307.503 54.4391 307.156 53.4775 307.156 52.2334C307.156 50.9528 307.475 49.9639 308.113 49.2666C308.756 48.5648 309.642 48.2139 310.773 48.2139C311.853 48.2139 312.693 48.5215 313.295 49.1367C313.897 49.752 314.197 50.6019 314.197 51.6865V52.6982H309.269C309.291 53.2907 309.467 53.7533 309.795 54.0859C310.123 54.4186 310.583 54.585 311.176 54.585C311.636 54.585 312.071 54.5371 312.482 54.4414C312.892 54.3457 313.32 54.193 313.767 53.9834V55.5967C313.402 55.779 313.012 55.9134 312.598 56C312.183 56.0911 311.677 56.1367 311.08 56.1367ZM319.416 56.1367C317.037 56.1367 315.848 54.8311 315.848 52.2197C315.848 50.9209 316.171 49.9297 316.819 49.2461C317.466 48.5579 318.393 48.2139 319.601 48.2139C320.485 48.2139 321.278 48.387 321.98 48.7334L321.364 50.3467C321.036 50.2145 320.731 50.1074 320.448 50.0254C320.166 49.9388 319.883 49.8955 319.601 49.8955C318.516 49.8955 317.974 50.6657 317.974 52.2061C317.974 53.7008 318.516 54.4482 319.601 54.4482C320.002 54.4482 320.373 54.3958 320.715 54.291C321.057 54.1816 321.399 54.013 321.74 53.7852V55.5693C321.403 55.7835 321.061 55.9316 320.715 56.0137C320.373 56.0957 319.94 56.1367 319.416 56.1367ZM330.992 56H328.907V51.5361C328.907 50.4333 328.497 49.8818 327.677 49.8818C327.094 49.8818 326.672 50.0801 326.412 50.4766C326.153 50.873 326.023 51.5156 326.023 52.4043V56H323.938V45.3633H326.023V47.5303C326.023 47.6989 326.007 48.0954 325.975 48.7197L325.927 49.335H326.036C326.501 48.5876 327.239 48.2139 328.251 48.2139C329.149 48.2139 329.83 48.4554 330.295 48.9385C330.76 49.4215 330.992 50.1143 330.992 51.0166V56Z" fill="white"/>
<path d="M370.992 56H368.579L367.226 50.75C367.175 50.5632 367.089 50.1781 366.966 49.5947C366.847 49.0068 366.779 48.6126 366.761 48.4121C366.733 48.6582 366.665 49.0547 366.556 49.6016C366.446 50.1439 366.362 50.5312 366.303 50.7637L364.956 56H362.55L360 46.0059H362.085L363.363 51.4609C363.587 52.4681 363.748 53.3408 363.849 54.0791C363.876 53.8193 363.938 53.4183 364.033 52.876C364.133 52.3291 364.227 51.9053 364.313 51.6045L365.77 46.0059H367.772L369.229 51.6045C369.292 51.8551 369.372 52.238 369.468 52.7529C369.563 53.2679 369.636 53.71 369.687 54.0791C369.732 53.7236 369.805 53.2816 369.905 52.7529C370.006 52.2197 370.097 51.7891 370.179 51.4609L371.45 46.0059H373.535L370.992 56ZM376.71 52.165C376.71 52.9215 376.833 53.4935 377.079 53.8809C377.33 54.2682 377.735 54.4619 378.296 54.4619C378.852 54.4619 379.251 54.2705 379.492 53.8877C379.738 53.5003 379.861 52.9261 379.861 52.165C379.861 51.4085 379.738 50.8411 379.492 50.4629C379.246 50.0846 378.843 49.8955 378.282 49.8955C377.726 49.8955 377.325 50.0846 377.079 50.4629C376.833 50.8366 376.71 51.404 376.71 52.165ZM381.994 52.165C381.994 53.4092 381.666 54.3822 381.01 55.084C380.354 55.7858 379.44 56.1367 378.269 56.1367C377.535 56.1367 376.888 55.9772 376.327 55.6582C375.767 55.3346 375.336 54.8721 375.035 54.2705C374.734 53.6689 374.584 52.9671 374.584 52.165C374.584 50.9163 374.91 49.9456 375.562 49.2529C376.213 48.5602 377.129 48.2139 378.31 48.2139C379.043 48.2139 379.691 48.3734 380.251 48.6924C380.812 49.0114 381.242 49.4694 381.543 50.0664C381.844 50.6634 381.994 51.363 381.994 52.165ZM388.403 48.2139C388.685 48.2139 388.92 48.2344 389.107 48.2754L388.949 50.2305C388.781 50.1849 388.576 50.1621 388.334 50.1621C387.669 50.1621 387.149 50.333 386.776 50.6748C386.406 51.0166 386.222 51.4951 386.222 52.1104V56H384.137V48.3574H385.716L386.024 49.6426H386.126C386.363 49.2142 386.682 48.8701 387.083 48.6104C387.489 48.346 387.929 48.2139 388.403 48.2139ZM392.999 56H390.914V45.3633H392.999V56ZM398.034 56.1367C397.136 56.1367 396.429 55.7881 395.914 55.0908C395.404 54.3936 395.149 53.4274 395.149 52.1924C395.149 50.9391 395.409 49.9639 395.928 49.2666C396.452 48.5648 397.172 48.2139 398.088 48.2139C399.05 48.2139 399.784 48.5876 400.289 49.335H400.358C400.253 48.7653 400.201 48.2572 400.201 47.8105V45.3633H402.292V56H400.693L400.289 55.0088H400.201C399.727 55.7607 399.004 56.1367 398.034 56.1367ZM398.765 54.4756C399.298 54.4756 399.688 54.3206 399.934 54.0107C400.185 53.7008 400.321 53.1745 400.344 52.4316V52.2061C400.344 51.3857 400.216 50.7979 399.961 50.4424C399.711 50.0869 399.3 49.9092 398.731 49.9092C398.266 49.9092 397.904 50.1074 397.644 50.5039C397.389 50.8958 397.261 51.4678 397.261 52.2197C397.261 52.9717 397.391 53.5368 397.651 53.915C397.91 54.2887 398.282 54.4756 398.765 54.4756Z" fill="white"/>
<path d="M440.447 56H438.335V51.6865H434.377V56H432.258V46.0059H434.377V49.9229H438.335V46.0059H440.447V56ZM446.398 49.6973C445.955 49.6973 445.609 49.8385 445.358 50.1211C445.108 50.3991 444.964 50.7956 444.928 51.3105H447.854C447.844 50.7956 447.71 50.3991 447.45 50.1211C447.191 49.8385 446.84 49.6973 446.398 49.6973ZM446.691 56.1367C445.461 56.1367 444.499 55.7972 443.807 55.1182C443.114 54.4391 442.768 53.4775 442.768 52.2334C442.768 50.9528 443.087 49.9639 443.725 49.2666C444.367 48.5648 445.254 48.2139 446.384 48.2139C447.464 48.2139 448.305 48.5215 448.906 49.1367C449.508 49.752 449.809 50.6019 449.809 51.6865V52.6982H444.88C444.903 53.2907 445.078 53.7533 445.406 54.0859C445.734 54.4186 446.195 54.585 446.787 54.585C447.247 54.585 447.683 54.5371 448.093 54.4414C448.503 54.3457 448.931 54.193 449.378 53.9834V55.5967C449.013 55.779 448.624 55.9134 448.209 56C447.794 56.0911 447.288 56.1367 446.691 56.1367ZM456.778 56L456.374 54.9609H456.319C455.969 55.403 455.606 55.7106 455.233 55.8838C454.863 56.0524 454.38 56.1367 453.783 56.1367C453.05 56.1367 452.471 55.9271 452.047 55.5078C451.628 55.0885 451.418 54.4915 451.418 53.7168C451.418 52.9056 451.701 52.3086 452.266 51.9258C452.835 51.5384 453.692 51.3242 454.836 51.2832L456.162 51.2422V50.9072C456.162 50.1325 455.766 49.7451 454.973 49.7451C454.362 49.7451 453.644 49.9297 452.819 50.2988L452.129 48.8906C453.009 48.4303 453.984 48.2002 455.055 48.2002C456.08 48.2002 456.866 48.4235 457.413 48.8701C457.96 49.3167 458.234 49.9958 458.234 50.9072V56H456.778ZM456.162 52.459L455.356 52.4863C454.75 52.5046 454.298 52.6139 454.002 52.8145C453.706 53.015 453.558 53.3203 453.558 53.7305C453.558 54.3184 453.895 54.6123 454.569 54.6123C455.053 54.6123 455.438 54.4733 455.725 54.1953C456.016 53.9173 456.162 53.5482 456.162 53.0879V52.459ZM462.892 56H460.807V45.3633H462.892V56ZM468.726 54.4756C469.09 54.4756 469.528 54.3958 470.038 54.2363V55.7881C469.519 56.0205 468.881 56.1367 468.124 56.1367C467.29 56.1367 466.682 55.9271 466.299 55.5078C465.921 55.084 465.732 54.4505 465.732 53.6074V49.9229H464.734V49.041L465.882 48.3438L466.484 46.7305H467.817V48.3574H469.956V49.9229H467.817V53.6074C467.817 53.9036 467.899 54.1224 468.063 54.2637C468.231 54.4049 468.452 54.4756 468.726 54.4756ZM479.065 56H476.98V51.5361C476.98 50.4333 476.57 49.8818 475.749 49.8818C475.166 49.8818 474.745 50.0801 474.485 50.4766C474.225 50.873 474.095 51.5156 474.095 52.4043V56H472.01V45.3633H474.095V47.5303C474.095 47.6989 474.079 48.0954 474.047 48.7197L473.999 49.335H474.109C474.574 48.5876 475.312 48.2139 476.324 48.2139C477.221 48.2139 477.903 48.4554 478.368 48.9385C478.832 49.4215 479.065 50.1143 479.065 51.0166V56Z" fill="white"/>
<path d="M512.503 47.626C511.705 47.626 511.088 47.9268 510.65 48.5283C510.213 49.1253 509.994 49.9593 509.994 51.0303C509.994 53.2588 510.83 54.373 512.503 54.373C513.205 54.373 514.055 54.1976 515.053 53.8467V55.624C514.232 55.9658 513.316 56.1367 512.305 56.1367C510.851 56.1367 509.739 55.6969 508.969 54.8174C508.199 53.9333 507.813 52.6663 507.813 51.0166C507.813 49.9775 508.003 49.0684 508.381 48.2891C508.759 47.5052 509.301 46.9059 510.008 46.4912C510.719 46.0719 511.55 45.8623 512.503 45.8623C513.474 45.8623 514.449 46.097 515.429 46.5664L514.745 48.2891C514.371 48.1113 513.995 47.9564 513.617 47.8242C513.239 47.6921 512.868 47.626 512.503 47.626ZM519.103 52.165C519.103 52.9215 519.226 53.4935 519.472 53.8809C519.722 54.2682 520.128 54.4619 520.689 54.4619C521.245 54.4619 521.643 54.2705 521.885 53.8877C522.131 53.5003 522.254 52.9261 522.254 52.165C522.254 51.4085 522.131 50.8411 521.885 50.4629C521.639 50.0846 521.235 49.8955 520.675 49.8955C520.119 49.8955 519.718 50.0846 519.472 50.4629C519.226 50.8366 519.103 51.404 519.103 52.165ZM524.387 52.165C524.387 53.4092 524.059 54.3822 523.402 55.084C522.746 55.7858 521.832 56.1367 520.661 56.1367C519.927 56.1367 519.28 55.9772 518.72 55.6582C518.159 55.3346 517.729 54.8721 517.428 54.2705C517.127 53.6689 516.977 52.9671 516.977 52.165C516.977 50.9163 517.302 49.9456 517.954 49.2529C518.606 48.5602 519.522 48.2139 520.702 48.2139C521.436 48.2139 522.083 48.3734 522.644 48.6924C523.204 49.0114 523.635 49.4694 523.936 50.0664C524.236 50.6634 524.387 51.363 524.387 52.165ZM530.795 48.2139C531.078 48.2139 531.312 48.2344 531.499 48.2754L531.342 50.2305C531.173 50.1849 530.968 50.1621 530.727 50.1621C530.061 50.1621 529.542 50.333 529.168 50.6748C528.799 51.0166 528.614 51.4951 528.614 52.1104V56H526.529V48.3574H528.109L528.416 49.6426H528.519C528.756 49.2142 529.075 48.8701 529.476 48.6104C529.881 48.346 530.321 48.2139 530.795 48.2139ZM534.968 52.165C534.968 52.9215 535.091 53.4935 535.337 53.8809C535.588 54.2682 535.993 54.4619 536.554 54.4619C537.11 54.4619 537.509 54.2705 537.75 53.8877C537.996 53.5003 538.119 52.9261 538.119 52.165C538.119 51.4085 537.996 50.8411 537.75 50.4629C537.504 50.0846 537.101 49.8955 536.54 49.8955C535.984 49.8955 535.583 50.0846 535.337 50.4629C535.091 50.8366 534.968 51.404 534.968 52.165ZM540.252 52.165C540.252 53.4092 539.924 54.3822 539.268 55.084C538.612 55.7858 537.698 56.1367 536.527 56.1367C535.793 56.1367 535.146 55.9772 534.585 55.6582C534.025 55.3346 533.594 54.8721 533.293 54.2705C532.992 53.6689 532.842 52.9671 532.842 52.165C532.842 50.9163 533.168 49.9456 533.82 49.2529C534.471 48.5602 535.387 48.2139 536.568 48.2139C537.301 48.2139 537.948 48.3734 538.509 48.6924C539.07 49.0114 539.5 49.4694 539.801 50.0664C540.102 50.6634 540.252 51.363 540.252 52.165ZM549.45 56H547.365V51.5361C547.365 50.9847 547.267 50.5723 547.071 50.2988C546.875 50.0208 546.562 49.8818 546.134 49.8818C545.551 49.8818 545.129 50.0778 544.869 50.4697C544.61 50.8571 544.48 51.502 544.48 52.4043V56H542.395V48.3574H543.988L544.268 49.335H544.384C544.617 48.9658 544.936 48.6878 545.341 48.501C545.751 48.3096 546.216 48.2139 546.736 48.2139C547.624 48.2139 548.299 48.4554 548.759 48.9385C549.219 49.417 549.45 50.1097 549.45 51.0166V56ZM556.87 56L556.466 54.9609H556.412C556.061 55.403 555.698 55.7106 555.325 55.8838C554.955 56.0524 554.472 56.1367 553.875 56.1367C553.142 56.1367 552.563 55.9271 552.139 55.5078C551.72 55.0885 551.51 54.4915 551.51 53.7168C551.51 52.9056 551.793 52.3086 552.358 51.9258C552.927 51.5384 553.784 51.3242 554.928 51.2832L556.254 51.2422V50.9072C556.254 50.1325 555.858 49.7451 555.065 49.7451C554.454 49.7451 553.736 49.9297 552.912 50.2988L552.221 48.8906C553.101 48.4303 554.076 48.2002 555.147 48.2002C556.172 48.2002 556.958 48.4235 557.505 48.8701C558.052 49.3167 558.326 49.9958 558.326 50.9072V56H556.87ZM556.254 52.459L555.448 52.4863C554.842 52.5046 554.39 52.6139 554.094 52.8145C553.798 53.015 553.65 53.3203 553.65 53.7305C553.65 54.3184 553.987 54.6123 554.662 54.6123C555.145 54.6123 555.53 54.4733 555.817 54.1953C556.108 53.9173 556.254 53.5482 556.254 53.0879V52.459ZM562.717 56L559.805 48.3574H561.986L563.462 52.7119C563.626 53.2633 563.729 53.7852 563.77 54.2773H563.811C563.834 53.8398 563.936 53.318 564.119 52.7119L565.588 48.3574H567.769L564.857 56H562.717ZM569.201 46.3818C569.201 45.7028 569.579 45.3633 570.336 45.3633C571.092 45.3633 571.47 45.7028 571.47 46.3818C571.47 46.7054 571.375 46.9583 571.183 47.1406C570.996 47.3184 570.714 47.4072 570.336 47.4072C569.579 47.4072 569.201 47.0654 569.201 46.3818ZM571.375 56H569.29V48.3574H571.375V56ZM578.255 48.2139C578.537 48.2139 578.772 48.2344 578.959 48.2754L578.801 50.2305C578.633 50.1849 578.428 50.1621 578.186 50.1621C577.521 50.1621 577.001 50.333 576.628 50.6748C576.258 51.0166 576.074 51.4951 576.074 52.1104V56H573.989V48.3574H575.568L575.876 49.6426H575.978C576.215 49.2142 576.534 48.8701 576.935 48.6104C577.341 48.346 577.781 48.2139 578.255 48.2139ZM586.18 56L585.9 55.0225H585.791C585.567 55.3779 585.251 55.6536 584.841 55.8496C584.43 56.041 583.963 56.1367 583.439 56.1367C582.541 56.1367 581.865 55.8975 581.409 55.4189C580.953 54.9359 580.725 54.2432 580.725 53.3408V48.3574H582.81V52.8213C582.81 53.3727 582.908 53.7874 583.104 54.0654C583.3 54.3389 583.612 54.4756 584.041 54.4756C584.624 54.4756 585.046 54.2819 585.305 53.8945C585.565 53.5026 585.695 52.8555 585.695 51.9531V48.3574H587.78V56H586.18ZM595.72 53.7305C595.72 54.5143 595.446 55.1113 594.899 55.5215C594.357 55.9316 593.543 56.1367 592.459 56.1367C591.903 56.1367 591.429 56.098 591.037 56.0205C590.645 55.9476 590.278 55.8382 589.936 55.6924V53.9697C590.324 54.152 590.759 54.3047 591.242 54.4277C591.73 54.5508 592.158 54.6123 592.527 54.6123C593.284 54.6123 593.662 54.3936 593.662 53.9561C593.662 53.792 593.612 53.6598 593.512 53.5596C593.411 53.4548 593.238 53.3385 592.992 53.2109C592.746 53.0788 592.418 52.9261 592.008 52.7529C591.42 52.5068 590.987 52.279 590.709 52.0693C590.435 51.8597 590.235 51.6204 590.107 51.3516C589.984 51.0781 589.923 50.7432 589.923 50.3467C589.923 49.6676 590.185 49.1436 590.709 48.7744C591.237 48.4007 591.985 48.2139 592.951 48.2139C593.872 48.2139 594.767 48.4144 595.637 48.8154L595.009 50.3193C594.626 50.1553 594.268 50.0208 593.935 49.916C593.603 49.8112 593.263 49.7588 592.917 49.7588C592.302 49.7588 591.994 49.9251 591.994 50.2578C591.994 50.4447 592.092 50.6064 592.288 50.7432C592.488 50.8799 592.924 51.0827 593.594 51.3516C594.191 51.5931 594.628 51.8187 594.906 52.0283C595.184 52.238 595.389 52.4795 595.521 52.7529C595.653 53.0264 595.72 53.3522 595.72 53.7305Z" fill="white"/>
<path d="M625.503 47.626C624.705 47.626 624.088 47.9268 623.65 48.5283C623.213 49.1253 622.994 49.9593 622.994 51.0303C622.994 53.2588 623.83 54.373 625.503 54.373C626.205 54.373 627.055 54.1976 628.053 53.8467V55.624C627.232 55.9658 626.316 56.1367 625.305 56.1367C623.851 56.1367 622.739 55.6969 621.969 54.8174C621.199 53.9333 620.813 52.6663 620.813 51.0166C620.813 49.9775 621.003 49.0684 621.381 48.2891C621.759 47.5052 622.301 46.9059 623.008 46.4912C623.719 46.0719 624.55 45.8623 625.503 45.8623C626.474 45.8623 627.449 46.097 628.429 46.5664L627.745 48.2891C627.371 48.1113 626.995 47.9564 626.617 47.8242C626.239 47.6921 625.868 47.626 625.503 47.626ZM632.526 56H630.441V45.3633H632.526V56ZM635.052 46.3818C635.052 45.7028 635.43 45.3633 636.187 45.3633C636.943 45.3633 637.321 45.7028 637.321 46.3818C637.321 46.7054 637.226 46.9583 637.034 47.1406C636.847 47.3184 636.565 47.4072 636.187 47.4072C635.43 47.4072 635.052 47.0654 635.052 46.3818ZM637.226 56H635.141V48.3574H637.226V56ZM646.683 56H644.598V51.5361C644.598 50.9847 644.504 50.5723 644.318 50.2988C644.135 50.0208 643.846 49.8818 643.449 49.8818C642.916 49.8818 642.529 50.0778 642.287 50.4697C642.046 50.8617 641.925 51.5065 641.925 52.4043V56H639.84V48.3574H641.433L641.713 49.335H641.829C642.034 48.984 642.331 48.7106 642.718 48.5146C643.105 48.3141 643.55 48.2139 644.051 48.2139C645.195 48.2139 645.97 48.5876 646.375 49.335H646.56C646.765 48.9795 647.066 48.7038 647.462 48.5078C647.863 48.3118 648.314 48.2139 648.816 48.2139C649.682 48.2139 650.336 48.4372 650.778 48.8838C651.224 49.3258 651.448 50.0368 651.448 51.0166V56H649.356V51.5361C649.356 50.9847 649.262 50.5723 649.075 50.2988C648.893 50.0208 648.604 49.8818 648.207 49.8818C647.697 49.8818 647.314 50.0641 647.059 50.4287C646.808 50.7933 646.683 51.3721 646.683 52.165V56ZM658.868 56L658.464 54.9609H658.409C658.059 55.403 657.696 55.7106 657.323 55.8838C656.953 56.0524 656.47 56.1367 655.873 56.1367C655.14 56.1367 654.561 55.9271 654.137 55.5078C653.718 55.0885 653.508 54.4915 653.508 53.7168C653.508 52.9056 653.791 52.3086 654.356 51.9258C654.925 51.5384 655.782 51.3242 656.926 51.2832L658.252 51.2422V50.9072C658.252 50.1325 657.856 49.7451 657.063 49.7451C656.452 49.7451 655.734 49.9297 654.909 50.2988L654.219 48.8906C655.099 48.4303 656.074 48.2002 657.145 48.2002C658.17 48.2002 658.956 48.4235 659.503 48.8701C660.05 49.3167 660.324 49.9958 660.324 50.9072V56H658.868ZM658.252 52.459L657.446 52.4863C656.84 52.5046 656.388 52.6139 656.092 52.8145C655.796 53.015 655.648 53.3203 655.648 53.7305C655.648 54.3184 655.985 54.6123 656.659 54.6123C657.143 54.6123 657.528 54.4733 657.815 54.1953C658.106 53.9173 658.252 53.5482 658.252 53.0879V52.459ZM666.117 54.4756C666.481 54.4756 666.919 54.3958 667.429 54.2363V55.7881C666.91 56.0205 666.272 56.1367 665.515 56.1367C664.681 56.1367 664.073 55.9271 663.69 55.5078C663.312 55.084 663.122 54.4505 663.122 53.6074V49.9229H662.124V49.041L663.273 48.3438L663.874 46.7305H665.207V48.3574H667.347V49.9229H665.207V53.6074C665.207 53.9036 665.289 54.1224 665.454 54.2637C665.622 54.4049 665.843 54.4756 666.117 54.4756ZM672.566 49.6973C672.124 49.6973 671.777 49.8385 671.527 50.1211C671.276 50.3991 671.133 50.7956 671.096 51.3105H674.022C674.013 50.7956 673.878 50.3991 673.619 50.1211C673.359 49.8385 673.008 49.6973 672.566 49.6973ZM672.86 56.1367C671.629 56.1367 670.668 55.7972 669.975 55.1182C669.282 54.4391 668.936 53.4775 668.936 52.2334C668.936 50.9528 669.255 49.9639 669.893 49.2666C670.536 48.5648 671.422 48.2139 672.552 48.2139C673.632 48.2139 674.473 48.5215 675.075 49.1367C675.676 49.752 675.977 50.6019 675.977 51.6865V52.6982H671.048C671.071 53.2907 671.247 53.7533 671.575 54.0859C671.903 54.4186 672.363 54.585 672.956 54.585C673.416 54.585 673.851 54.5371 674.261 54.4414C674.671 54.3457 675.1 54.193 675.546 53.9834V55.5967C675.182 55.779 674.792 55.9134 674.377 56C673.963 56.0911 673.457 56.1367 672.86 56.1367Z" fill="white"/>
<path d="M709.157 53.2246C709.157 54.127 708.831 54.8379 708.18 55.3574C707.533 55.877 706.63 56.1367 705.473 56.1367C704.406 56.1367 703.463 55.9362 702.643 55.5352V53.5664C703.317 53.8672 703.887 54.0791 704.352 54.2021C704.821 54.3252 705.249 54.3867 705.637 54.3867C706.102 54.3867 706.457 54.2979 706.703 54.1201C706.954 53.9424 707.079 53.6781 707.079 53.3271C707.079 53.1312 707.024 52.958 706.915 52.8076C706.806 52.6527 706.644 52.5046 706.43 52.3633C706.22 52.222 705.789 51.9964 705.138 51.6865C704.527 51.3994 704.069 51.1237 703.764 50.8594C703.458 50.5951 703.215 50.2874 703.032 49.9365C702.85 49.5856 702.759 49.1755 702.759 48.7061C702.759 47.8219 703.057 47.127 703.654 46.6211C704.256 46.1152 705.085 45.8623 706.143 45.8623C706.662 45.8623 707.157 45.9238 707.626 46.0469C708.1 46.1699 708.594 46.3431 709.109 46.5664L708.426 48.2139C707.893 47.9951 707.451 47.8424 707.1 47.7559C706.753 47.6693 706.411 47.626 706.074 47.626C705.673 47.626 705.366 47.7194 705.151 47.9062C704.937 48.0931 704.83 48.3369 704.83 48.6377C704.83 48.8245 704.873 48.9886 704.96 49.1299C705.047 49.2666 705.183 49.401 705.37 49.5332C705.562 49.6608 706.01 49.8932 706.717 50.2305C707.651 50.6771 708.291 51.126 708.638 51.5771C708.984 52.0238 709.157 52.5729 709.157 53.2246ZM714.328 56.1367C711.949 56.1367 710.76 54.8311 710.76 52.2197C710.76 50.9209 711.083 49.9297 711.731 49.2461C712.378 48.5579 713.305 48.2139 714.513 48.2139C715.397 48.2139 716.19 48.387 716.892 48.7334L716.276 50.3467C715.948 50.2145 715.643 50.1074 715.36 50.0254C715.078 49.9388 714.795 49.8955 714.513 49.8955C713.428 49.8955 712.886 50.6657 712.886 52.2061C712.886 53.7008 713.428 54.4482 714.513 54.4482C714.914 54.4482 715.285 54.3958 715.627 54.291C715.969 54.1816 716.311 54.013 716.652 53.7852V55.5693C716.315 55.7835 715.973 55.9316 715.627 56.0137C715.285 56.0957 714.852 56.1367 714.328 56.1367ZM718.761 46.3818C718.761 45.7028 719.139 45.3633 719.896 45.3633C720.652 45.3633 721.03 45.7028 721.03 46.3818C721.03 46.7054 720.935 46.9583 720.743 47.1406C720.556 47.3184 720.274 47.4072 719.896 47.4072C719.139 47.4072 718.761 47.0654 718.761 46.3818ZM720.935 56H718.85V48.3574H720.935V56ZM726.714 49.6973C726.272 49.6973 725.926 49.8385 725.675 50.1211C725.424 50.3991 725.281 50.7956 725.244 51.3105H728.17C728.161 50.7956 728.027 50.3991 727.767 50.1211C727.507 49.8385 727.156 49.6973 726.714 49.6973ZM727.008 56.1367C725.778 56.1367 724.816 55.7972 724.123 55.1182C723.431 54.4391 723.084 53.4775 723.084 52.2334C723.084 50.9528 723.403 49.9639 724.041 49.2666C724.684 48.5648 725.57 48.2139 726.7 48.2139C727.781 48.2139 728.621 48.5215 729.223 49.1367C729.824 49.752 730.125 50.6019 730.125 51.6865V52.6982H725.197C725.219 53.2907 725.395 53.7533 725.723 54.0859C726.051 54.4186 726.511 54.585 727.104 54.585C727.564 54.585 727.999 54.5371 728.409 54.4414C728.82 54.3457 729.248 54.193 729.695 53.9834V55.5967C729.33 55.779 728.94 55.9134 728.526 56C728.111 56.0911 727.605 56.1367 727.008 56.1367ZM739.295 56H737.21V51.5361C737.21 50.9847 737.112 50.5723 736.916 50.2988C736.72 50.0208 736.408 49.8818 735.98 49.8818C735.396 49.8818 734.975 50.0778 734.715 50.4697C734.455 50.8571 734.326 51.502 734.326 52.4043V56H732.241V48.3574H733.833L734.114 49.335H734.23C734.462 48.9658 734.781 48.6878 735.187 48.501C735.597 48.3096 736.062 48.2139 736.581 48.2139C737.47 48.2139 738.145 48.4554 738.605 48.9385C739.065 49.417 739.295 50.1097 739.295 51.0166V56ZM744.965 56.1367C742.586 56.1367 741.397 54.8311 741.397 52.2197C741.397 50.9209 741.72 49.9297 742.368 49.2461C743.015 48.5579 743.942 48.2139 745.15 48.2139C746.034 48.2139 746.827 48.387 747.529 48.7334L746.913 50.3467C746.585 50.2145 746.28 50.1074 745.997 50.0254C745.715 49.9388 745.432 49.8955 745.15 49.8955C744.065 49.8955 743.523 50.6657 743.523 52.2061C743.523 53.7008 744.065 54.4482 745.15 54.4482C745.551 54.4482 745.922 54.3958 746.264 54.291C746.606 54.1816 746.948 54.013 747.289 53.7852V55.5693C746.952 55.7835 746.61 55.9316 746.264 56.0137C745.922 56.0957 745.489 56.1367 744.965 56.1367ZM752.652 49.6973C752.21 49.6973 751.863 49.8385 751.613 50.1211C751.362 50.3991 751.219 50.7956 751.182 51.3105H754.108C754.099 50.7956 753.964 50.3991 753.705 50.1211C753.445 49.8385 753.094 49.6973 752.652 49.6973ZM752.946 56.1367C751.715 56.1367 750.754 55.7972 750.061 55.1182C749.368 54.4391 749.022 53.4775 749.022 52.2334C749.022 50.9528 749.341 49.9639 749.979 49.2666C750.622 48.5648 751.508 48.2139 752.638 48.2139C753.718 48.2139 754.559 48.5215 755.161 49.1367C755.762 49.752 756.063 50.6019 756.063 51.6865V52.6982H751.134C751.157 53.2907 751.333 53.7533 751.661 54.0859C751.989 54.4186 752.449 54.585 753.041 54.585C753.502 54.585 753.937 54.5371 754.347 54.4414C754.757 54.3457 755.186 54.193 755.632 53.9834V55.5967C755.268 55.779 754.878 55.9134 754.463 56C754.049 56.0911 753.543 56.1367 752.946 56.1367Z" fill="white"/>
<path d="M209.258 46.0059H212.368C213.785 46.0059 214.813 46.2087 215.451 46.6143C216.094 47.0153 216.415 47.6556 216.415 48.5352C216.415 49.1322 216.274 49.6221 215.991 50.0049C215.713 50.3877 215.342 50.6178 214.877 50.6953V50.7637C215.51 50.9049 215.966 51.1693 216.244 51.5566C216.527 51.944 216.668 52.459 216.668 53.1016C216.668 54.013 216.338 54.724 215.677 55.2344C215.021 55.7448 214.127 56 212.997 56H209.258V46.0059ZM211.377 49.9639H212.607C213.182 49.9639 213.596 49.875 213.852 49.6973C214.111 49.5195 214.241 49.2256 214.241 48.8154C214.241 48.4326 214.1 48.1592 213.817 47.9951C213.539 47.8265 213.097 47.7422 212.491 47.7422H211.377V49.9639ZM211.377 51.6455V54.25H212.758C213.341 54.25 213.772 54.1383 214.05 53.915C214.328 53.6917 214.467 53.3499 214.467 52.8896C214.467 52.0602 213.874 51.6455 212.689 51.6455H211.377ZM224.334 56L224.054 55.0225H223.944C223.721 55.3779 223.404 55.6536 222.994 55.8496C222.584 56.041 222.117 56.1367 221.593 56.1367C220.695 56.1367 220.018 55.8975 219.563 55.4189C219.107 54.9359 218.879 54.2432 218.879 53.3408V48.3574H220.964V52.8213C220.964 53.3727 221.062 53.7874 221.258 54.0654C221.454 54.3389 221.766 54.4756 222.194 54.4756C222.778 54.4756 223.199 54.2819 223.459 53.8945C223.719 53.5026 223.849 52.8555 223.849 51.9531V48.3574H225.934V56H224.334ZM233.873 53.7305C233.873 54.5143 233.6 55.1113 233.053 55.5215C232.511 55.9316 231.697 56.1367 230.612 56.1367C230.056 56.1367 229.583 56.098 229.191 56.0205C228.799 55.9476 228.432 55.8382 228.09 55.6924V53.9697C228.477 54.152 228.913 54.3047 229.396 54.4277C229.883 54.5508 230.312 54.6123 230.681 54.6123C231.437 54.6123 231.816 54.3936 231.816 53.9561C231.816 53.792 231.765 53.6598 231.665 53.5596C231.565 53.4548 231.392 53.3385 231.146 53.2109C230.9 53.0788 230.571 52.9261 230.161 52.7529C229.573 52.5068 229.14 52.279 228.862 52.0693C228.589 51.8597 228.389 51.6204 228.261 51.3516C228.138 51.0781 228.076 50.7432 228.076 50.3467C228.076 49.6676 228.338 49.1436 228.862 48.7744C229.391 48.4007 230.139 48.2139 231.105 48.2139C232.025 48.2139 232.921 48.4144 233.791 48.8154L233.162 50.3193C232.779 50.1553 232.422 50.0208 232.089 49.916C231.756 49.8112 231.417 49.7588 231.07 49.7588C230.455 49.7588 230.148 49.9251 230.148 50.2578C230.148 50.4447 230.246 50.6064 230.442 50.7432C230.642 50.8799 231.077 51.0827 231.747 51.3516C232.344 51.5931 232.782 51.8187 233.06 52.0283C233.338 52.238 233.543 52.4795 233.675 52.7529C233.807 53.0264 233.873 53.3522 233.873 53.7305ZM235.831 46.3818C235.831 45.7028 236.21 45.3633 236.966 45.3633C237.723 45.3633 238.101 45.7028 238.101 46.3818C238.101 46.7054 238.005 46.9583 237.814 47.1406C237.627 47.3184 237.344 47.4072 236.966 47.4072C236.21 47.4072 235.831 47.0654 235.831 46.3818ZM238.005 56H235.92V48.3574H238.005V56ZM247.674 56H245.589V51.5361C245.589 50.9847 245.491 50.5723 245.295 50.2988C245.099 50.0208 244.787 49.8818 244.359 49.8818C243.775 49.8818 243.354 50.0778 243.094 50.4697C242.834 50.8571 242.704 51.502 242.704 52.4043V56H240.619V48.3574H242.212L242.493 49.335H242.609C242.841 48.9658 243.16 48.6878 243.566 48.501C243.976 48.3096 244.441 48.2139 244.96 48.2139C245.849 48.2139 246.523 48.4554 246.984 48.9385C247.444 49.417 247.674 50.1097 247.674 51.0166V56ZM253.406 49.6973C252.964 49.6973 252.617 49.8385 252.367 50.1211C252.116 50.3991 251.972 50.7956 251.936 51.3105H254.862C254.853 50.7956 254.718 50.3991 254.458 50.1211C254.199 49.8385 253.848 49.6973 253.406 49.6973ZM253.7 56.1367C252.469 56.1367 251.508 55.7972 250.815 55.1182C250.122 54.4391 249.776 53.4775 249.776 52.2334C249.776 50.9528 250.095 49.9639 250.733 49.2666C251.375 48.5648 252.262 48.2139 253.392 48.2139C254.472 48.2139 255.313 48.5215 255.914 49.1367C256.516 49.752 256.817 50.6019 256.817 51.6865V52.6982H251.888C251.911 53.2907 252.086 53.7533 252.414 54.0859C252.743 54.4186 253.203 54.585 253.795 54.585C254.256 54.585 254.691 54.5371 255.101 54.4414C255.511 54.3457 255.94 54.193 256.386 53.9834V55.5967C256.022 55.779 255.632 55.9134 255.217 56C254.802 56.0911 254.297 56.1367 253.7 56.1367ZM264.264 53.7305C264.264 54.5143 263.991 55.1113 263.444 55.5215C262.902 55.9316 262.088 56.1367 261.003 56.1367C260.447 56.1367 259.973 56.098 259.582 56.0205C259.19 55.9476 258.823 55.8382 258.481 55.6924V53.9697C258.868 54.152 259.304 54.3047 259.787 54.4277C260.274 54.5508 260.703 54.6123 261.072 54.6123C261.828 54.6123 262.207 54.3936 262.207 53.9561C262.207 53.792 262.156 53.6598 262.056 53.5596C261.956 53.4548 261.783 53.3385 261.537 53.2109C261.291 53.0788 260.962 52.9261 260.552 52.7529C259.964 52.5068 259.531 52.279 259.253 52.0693C258.98 51.8597 258.779 51.6204 258.652 51.3516C258.529 51.0781 258.467 50.7432 258.467 50.3467C258.467 49.6676 258.729 49.1436 259.253 48.7744C259.782 48.4007 260.529 48.2139 261.496 48.2139C262.416 48.2139 263.312 48.4144 264.182 48.8154L263.553 50.3193C263.17 50.1553 262.813 50.0208 262.48 49.916C262.147 49.8112 261.808 49.7588 261.461 49.7588C260.846 49.7588 260.539 49.9251 260.539 50.2578C260.539 50.4447 260.637 50.6064 260.833 50.7432C261.033 50.8799 261.468 51.0827 262.138 51.3516C262.735 51.5931 263.173 51.8187 263.451 52.0283C263.729 52.238 263.934 52.4795 264.066 52.7529C264.198 53.0264 264.264 53.3522 264.264 53.7305ZM271.643 53.7305C271.643 54.5143 271.37 55.1113 270.823 55.5215C270.28 55.9316 269.467 56.1367 268.382 56.1367C267.826 56.1367 267.352 56.098 266.961 56.0205C266.569 55.9476 266.202 55.8382 265.86 55.6924V53.9697C266.247 54.152 266.683 54.3047 267.166 54.4277C267.653 54.5508 268.082 54.6123 268.451 54.6123C269.207 54.6123 269.586 54.3936 269.586 53.9561C269.586 53.792 269.535 53.6598 269.435 53.5596C269.335 53.4548 269.162 53.3385 268.916 53.2109C268.669 53.0788 268.341 52.9261 267.931 52.7529C267.343 52.5068 266.91 52.279 266.632 52.0693C266.359 51.8597 266.158 51.6204 266.031 51.3516C265.908 51.0781 265.846 50.7432 265.846 50.3467C265.846 49.6676 266.108 49.1436 266.632 48.7744C267.161 48.4007 267.908 48.2139 268.875 48.2139C269.795 48.2139 270.691 48.4144 271.561 48.8154L270.932 50.3193C270.549 50.1553 270.192 50.0208 269.859 49.916C269.526 49.8112 269.187 49.7588 268.84 49.7588C268.225 49.7588 267.918 49.9251 267.918 50.2578C267.918 50.4447 268.016 50.6064 268.211 50.7432C268.412 50.8799 268.847 51.0827 269.517 51.3516C270.114 51.5931 270.552 51.8187 270.83 52.0283C271.108 52.238 271.313 52.4795 271.445 52.7529C271.577 53.0264 271.643 53.3522 271.643 53.7305Z" fill="white"/>
<rect x="208" y="61" width="65" height="4" fill="#FF0000"/>
<path d="M15 66V35H25.9416V59.236H41.5369V66H15Z" fill="white"/>
<path d="M49.7206 66V35H60.6622V59.236H76.2575V66H49.7206Z" fill="white"/>
<path d="M123 66H108.651L93.8593 44.1601H93.61C93.9609 47.5951 94.1363 50.2173 94.1363 52.0267V66H84.4412V35H98.7346L113.471 56.5431H113.637C113.379 53.4191 113.25 50.9099 113.25 49.0157V35H123V66Z" fill="white"/>
</svg>
