<svg width="109" height="30" viewBox="0 0 109 30" fill="none" xmlns="http://www.w3.org/2000/svg">
<path d="M30.4118 20.7385C30.4118 22.322 29.8178 23.8257 28.6298 25.2495C27.4419 26.66 25.5906 27.8044 23.0761 28.6826C20.5814 29.5609 17.3541 30 13.3942 30C11.4143 30 9.67197 29.9401 8.16722 29.8204C6.68227 29.7006 5.29632 29.5077 4.00936 29.2415C2.72241 28.9621 1.38595 28.6028 0 28.1637V21.1377C2.35612 21.9361 4.73204 22.5482 7.12775 22.9741C9.52347 23.3866 11.6915 23.5928 13.6318 23.5928C14.8 23.5928 15.7504 23.4997 16.4829 23.3134C17.2353 23.1271 17.7897 22.8743 18.1461 22.5549C18.5025 22.2222 18.6807 21.843 18.6807 21.4172C18.6807 20.9115 18.4134 20.4857 17.8788 20.1397C17.364 19.7804 16.5324 19.4079 15.3841 19.022C14.2357 18.6361 12.7211 18.157 10.8401 17.5848C9.23638 17.0792 7.78113 16.5602 6.47438 16.0279C5.18742 15.4957 4.07866 14.8902 3.14809 14.2116C2.23732 13.5196 1.53445 12.7146 1.03946 11.7964C0.544481 10.8782 0.29699 9.79375 0.29699 8.54291C0.29699 6.66667 0.980066 5.09647 2.34622 3.83234C3.73217 2.55489 5.65271 1.59681 8.10782 0.958084C10.5827 0.319361 13.4338 0 16.6611 0C19.4924 0 22.0366 0.212907 24.2938 0.638723C26.5707 1.06454 28.61 1.55023 30.4118 2.09581L26.8182 8.18363C24.957 7.61144 23.1256 7.15902 21.3239 6.82635C19.5221 6.48037 17.8491 6.30739 16.3047 6.30739C15.295 6.30739 14.4634 6.39388 13.81 6.56687C13.1764 6.72655 12.7013 6.94611 12.3845 7.22555C12.0875 7.50499 11.939 7.82435 11.939 8.18363C11.939 8.63606 12.1964 9.04192 12.7112 9.4012C13.2457 9.76048 14.1268 10.153 15.3544 10.5788C16.6017 10.9914 18.2946 11.5303 20.4329 12.1956C22.5514 12.8343 24.3532 13.5263 25.8381 14.2715C27.3231 15.0033 28.4516 15.8882 29.2238 16.9261C30.0158 17.9508 30.4118 19.2216 30.4118 20.7385Z" fill="white"/>
<path d="M34.6908 29.6008V0.419162H46.4219V23.2335H63.1424V29.6008H34.6908Z" fill="white"/>
<path d="M109 29.6008H93.6159L77.7567 9.04192H77.4894C77.5884 9.66733 77.6775 10.4192 77.7567 11.2974C77.8359 12.1756 77.9052 13.0739 77.9646 13.992C78.024 14.8969 78.0537 15.7152 78.0537 16.4471V29.6008H67.659V0.419162H82.9837L98.7835 20.6986H98.9617C98.9023 20.0599 98.8429 19.3214 98.7835 18.483C98.7242 17.6314 98.6648 16.7731 98.6054 15.9082C98.5658 15.0432 98.546 14.2781 98.546 13.6128V0.419162H109V29.6008Z" fill="white"/>
</svg>
