<svg width="18" height="16" viewBox="0 0 18 16" fill="none" xmlns="http://www.w3.org/2000/svg">
<path d="M17.9914 2.27928C17.3298 2.57995 16.619 2.78311 15.8718 2.87494C16.6428 2.40182 17.2196 1.65718 17.4946 0.779967C16.7703 1.22122 15.9775 1.53181 15.1508 1.69824C14.5949 1.08947 13.8585 0.685967 13.056 0.550377C12.2536 0.414787 11.4299 0.554698 10.7129 0.948388C9.99597 1.34208 9.42579 1.96752 9.09091 2.72761C8.75604 3.4877 8.67523 4.33991 8.86101 5.15194C7.3933 5.07636 5.95749 4.68512 4.64676 4.00361C3.33603 3.3221 2.17967 2.36555 1.25273 1.19604C0.935782 1.75675 0.753538 2.40686 0.753538 3.09922C0.753185 3.72251 0.902845 4.33625 1.18924 4.88599C1.47564 5.43573 1.88992 5.90447 2.39532 6.25062C1.80919 6.23149 1.23599 6.06906 0.723428 5.77685V5.82561C0.723369 6.69979 1.01821 7.54707 1.55793 8.22369C2.09765 8.9003 2.849 9.36457 3.68449 9.53772C3.14076 9.68864 2.5707 9.71087 2.01736 9.60273C2.25308 10.3549 2.71226 11.0127 3.3306 11.4839C3.94894 11.9552 4.69548 12.2163 5.46573 12.2308C4.15819 13.2835 2.5434 13.8545 0.881109 13.852C0.586651 13.8521 0.292443 13.8344 0 13.7992C1.68732 14.9118 3.65148 15.5023 5.65748 15.5C12.448 15.5 16.1603 9.73194 16.1603 4.72937C16.1603 4.56684 16.1563 4.40269 16.1492 4.24016C16.8712 3.70461 17.4945 3.04144 17.9898 2.28171L17.9914 2.27928Z" fill="black"/>
</svg>
