<svg width="16" height="16" viewBox="0 0 16 16" fill="none" xmlns="http://www.w3.org/2000/svg">
<g clip-path="url(#clip0_42_767)">
<path d="M13.3333 8V14.6667H2.66666V8" stroke="#193050" stroke-linecap="round" stroke-linejoin="round"/>
<path d="M14.6667 4.66663H1.33334V7.99996H14.6667V4.66663Z" stroke="#193050" stroke-linecap="round" stroke-linejoin="round"/>
<path d="M8 14.6666V4.66663" stroke="#193050" stroke-linecap="round" stroke-linejoin="round"/>
<path d="M8 4.66671H11C11.442 4.66671 11.866 4.49111 12.1785 4.17855C12.4911 3.86599 12.6667 3.44207 12.6667 3.00004C12.6667 2.55801 12.4911 2.13409 12.1785 1.82153C11.866 1.50897 11.442 1.33337 11 1.33337C8.66667 1.33337 8 4.66671 8 4.66671Z" stroke="#193050" stroke-linecap="round" stroke-linejoin="round"/>
<path d="M8.00001 4.66671H5.00001C4.55798 4.66671 4.13406 4.49111 3.8215 4.17855C3.50894 3.86599 3.33334 3.44207 3.33334 3.00004C3.33334 2.55801 3.50894 2.13409 3.8215 1.82153C4.13406 1.50897 4.55798 1.33337 5.00001 1.33337C7.33334 1.33337 8.00001 4.66671 8.00001 4.66671Z" stroke="#193050" stroke-linecap="round" stroke-linejoin="round"/>
</g>
<defs>
<clipPath id="clip0_42_767">
<rect width="16" height="16" fill="white"/>
</clipPath>
</defs>
</svg>
