<svg width="97" height="97" xmlns="http://www.w3.org/2000/svg" xmlns:xlink="http://www.w3.org/1999/xlink">
  <g id="profile" width="30" height="31" viewBox="0 0 30 31">
    <path d="M25.6066 19.4044C23.9729 17.7703 22.0283 16.5606 19.9066 15.8283C22.179 14.2629 23.6719 11.643 23.6719 8.68062C23.6719 3.89796 19.7817 0.00692749 15 0.00692749C10.2183 0.00692749 6.32812 3.89796 6.32812 8.68062C6.32812 11.643 7.82103 14.2629 10.0935 15.8283C7.9718 16.5606 6.02719 17.7703 4.39342 19.4044C1.56029 22.2381 0 26.0057 0 30.0132H2.34375C2.34375 23.0331 8.02131 17.3543 15 17.3543C21.9787 17.3543 27.6562 23.0331 27.6562 30.0132H30C30 26.0057 28.4397 22.2381 25.6066 19.4044ZM15 15.0101C11.5107 15.0101 8.67188 12.1707 8.67188 8.68062C8.67188 5.19051 11.5107 2.35117 15 2.35117C18.4893 2.35117 21.3281 5.19051 21.3281 8.68062C21.3281 12.1707 18.4893 15.0101 15 15.0101Z"/>
  </g>
  <g id="main" width="25" height="23" viewBox="0 0 25 23">
    <path d="M20.6023 8.86835V20.4261H16.2047V15.4274C16.2047 14.9892 15.8467 14.634 15.4051 14.634H9.78142C9.33977 14.634 8.98186 14.9892 8.98186 15.4274V20.4261H4.61087V8.86835H3.01175V21.2195C3.01175 21.6578 3.36971 22.0129 3.81131 22.0129H9.78147C10.2231 22.0129 10.581 21.6577 10.581 21.2195V16.2209H14.6055V21.2196C14.6055 21.6578 14.9635 22.013 15.4051 22.013H21.4019C21.8436 22.013 22.2015 21.6578 22.2015 21.2196V8.86835H20.6023Z"/>
    <path d="M24.7468 10.9868L13.153 0.222564C12.8478 -0.0612274 12.3734 -0.0630687 12.0656 0.217525L0.258541 10.9818C-0.0666058 11.2783 -0.0879437 11.7801 0.210835 12.1027C0.368355 12.2733 0.583687 12.3595 0.799849 12.3595C0.993062 12.3595 1.1871 12.2902 1.34062 12.1503L12.6018 1.88374L23.6543 12.1456C23.9773 12.4452 24.4827 12.428 24.7844 12.1082C25.0858 11.7882 25.0693 11.2862 24.7468 10.9868Z"/>
  </g>
  <g id="social-casino" width="24" height="24" viewBox="0 0 24 24">
    <path d="M24 12C24 5.37176 18.6277 0 12 0C5.37176 0 0 5.37233 0 12C0 18.6282 5.37233 24 12 24C18.6282 24 24 18.6277 24 12ZM1.43586 12.7059H3.7008C3.84984 14.4731 4.55285 16.0848 5.63525 17.3665L4.03426 18.9675C2.54758 17.27 1.59393 15.0951 1.43586 12.7059ZM4.03426 5.03247L5.63529 6.63351C4.55285 7.91525 3.84984 9.52692 3.7008 11.2941H1.43586C1.59393 8.90494 2.54758 6.73002 4.03426 5.03247ZM22.5641 11.2941H20.2992C20.1502 9.52692 19.4472 7.91525 18.3648 6.63351L19.9658 5.03247C21.4524 6.73002 22.4061 8.90494 22.5641 11.2941ZM12 18.9176C8.1856 18.9176 5.08235 15.8144 5.08235 12C5.08235 8.1856 8.1856 5.08235 12 5.08235C15.8144 5.08235 18.9176 8.1856 18.9176 12C18.9176 15.8144 15.8144 18.9176 12 18.9176ZM17.3665 5.63529C16.0848 4.55285 14.4731 3.84984 12.7059 3.7008V1.43586C15.095 1.59393 17.27 2.54758 18.9675 4.03426L17.3665 5.63529ZM11.2941 3.7008C9.52692 3.84984 7.91525 4.55285 6.63351 5.63529L5.03247 4.03426C6.73002 2.54758 8.90499 1.59393 11.2941 1.43586V3.7008ZM6.63351 18.3647C7.91525 19.4471 9.52692 20.1502 11.2941 20.2992V22.5641C8.90499 22.406 6.73002 21.4523 5.03252 19.9657L6.63351 18.3647ZM12.7059 20.2992C14.4731 20.1502 16.0848 19.4472 17.3665 18.3648L18.9675 19.9658C17.27 21.4524 15.0951 22.4061 12.7059 22.5642V20.2992H12.7059ZM18.3648 17.3665C19.4472 16.0848 20.1502 14.4731 20.2992 12.7059H22.5641C22.4061 15.0951 21.4524 17.27 19.9657 18.9675L18.3648 17.3665Z"/>
    <path d="M12.8219 11.2941H11.178C10.7532 11.2941 10.4076 10.9485 10.4076 10.5237C10.4076 10.1027 10.746 9.75322 11.1837 9.75332L12.7611 9.76499C13.1412 9.76781 13.4905 9.96066 13.6951 10.2806L13.7034 10.2936C13.9134 10.6221 14.3499 10.7182 14.6784 10.5083C15.0068 10.2984 15.103 9.86188 14.893 9.53336L14.8845 9.52004C14.4444 8.83209 13.6959 8.36009 12.7059 8.3528V7.61525C12.7059 7.22541 12.3898 6.90936 12 6.90936C11.6102 6.90936 11.2941 7.22541 11.2941 7.61525V8.34235C9.8657 8.33186 8.99591 9.39543 8.99591 10.5237C8.99591 11.727 9.97483 12.7059 11.1781 12.7059H12.822C13.2468 12.7059 13.5924 13.0515 13.5924 13.4763C13.5924 13.8971 13.2538 14.2478 12.8163 14.2467L11.0954 14.234C10.7656 14.2315 10.4553 14.0848 10.2441 13.8313C9.99459 13.5317 9.54951 13.4912 9.25003 13.7408C8.9505 13.9903 8.90998 14.4354 9.15953 14.7349C9.63714 15.3082 10.339 15.6401 11.085 15.6457L11.2942 15.6472V16.3848C11.2942 16.7746 11.6102 17.0907 12.0001 17.0907C12.3899 17.0907 12.7059 16.7746 12.7059 16.3848V15.6577C14.1186 15.6681 15.0042 14.621 15.0042 13.4763C15.0041 12.273 14.0252 11.2941 12.8219 11.2941Z"/>
  </g>
  <g id="slots" width="35" height="18" viewBox="0 0 35 18">
    <path d="M32.0625 0H2.8125C1.26169 0 0 1.26169 0 2.8125V15.1875C0 16.7383 1.26169 18 2.8125 18H32.0625C33.6133 18 34.875 16.7383 34.875 15.1875V2.8125C34.875 1.26169 33.6133 0 32.0625 0ZM33.75 15.1875C33.75 16.118 32.993 16.875 32.0625 16.875H23.625V7.875C23.625 7.56436 23.3731 7.3125 23.0625 7.3125C22.7519 7.3125 22.5 7.56436 22.5 7.875V16.875H12.375V7.875C12.375 7.56436 12.1231 7.3125 11.8125 7.3125C11.5019 7.3125 11.25 7.56436 11.25 7.875V16.875H2.8125C1.88198 16.875 1.125 16.118 1.125 15.1875V2.8125C1.125 1.88198 1.88198 1.125 2.8125 1.125H11.25V2.25C11.25 2.56064 11.5019 2.8125 11.8125 2.8125C12.1231 2.8125 12.375 2.56064 12.375 2.25V1.125H22.5V2.25C22.5 2.56064 22.7519 2.8125 23.0625 2.8125C23.3731 2.8125 23.625 2.56064 23.625 2.25V1.125H32.0625C32.993 1.125 33.75 1.88198 33.75 2.8125V15.1875Z"/>
    <path d="M11.8125 3.9375C11.5019 3.9375 11.25 4.18936 11.25 4.5V5.625C11.25 5.93564 11.5019 6.1875 11.8125 6.1875C12.1231 6.1875 12.375 5.93564 12.375 5.625V4.5C12.375 4.18936 12.1231 3.9375 11.8125 3.9375Z"/>
    <path d="M23.0625 3.9375C22.7519 3.9375 22.5 4.18936 22.5 4.5V5.625C22.5 5.93564 22.7519 6.1875 23.0625 6.1875C23.3731 6.1875 23.625 5.93564 23.625 5.625V4.5C23.625 4.18936 23.3731 3.9375 23.0625 3.9375Z"/>
    <path d="M10.0656 5.37342C9.97031 5.18287 9.77555 5.0625 9.5625 5.0625H3.37233C2.75351 5.0625 2.25 5.56601 2.25 6.18483V9C2.25 9.31064 2.50186 9.5625 2.8125 9.5625H3.93483C4.55576 9.5625 5.06109 9.05808 5.0625 8.4375H5.33974C4.37393 9.96602 4.4936 12.282 4.50091 12.4078C4.51835 12.7052 4.76459 12.9375 5.0625 12.9375H7.875C8.18564 12.9375 8.4375 12.6856 8.4375 12.375C8.4375 8.94572 10.4019 7.25217 10.4838 7.18327C10.6853 7.01634 10.7452 6.73249 10.6282 6.49849L10.0656 5.37342ZM7.32846 11.8125H5.61846C5.64764 10.7113 5.92017 8.88567 6.98899 8.38427C7.22756 8.27234 7.35645 8.00979 7.29907 7.75266C7.2417 7.49545 7.01353 7.3125 6.75 7.3125H4.5C4.18936 7.3125 3.9375 7.56436 3.9375 7.875L3.93483 8.4375H3.37444L3.37233 6.1875H9.2148L9.43762 6.63314C8.80805 7.30041 7.48821 9.01709 7.32846 11.8125Z"/>
    <path d="M21.3156 5.37342C21.2203 5.18287 21.0256 5.0625 20.8125 5.0625H14.6223C14.0034 5.0625 13.5 5.56601 13.5 6.18483V9C13.5 9.31064 13.7519 9.5625 14.0625 9.5625H15.1848C15.8058 9.5625 16.3111 9.05808 16.3125 8.4375H16.5897C15.6239 9.96602 15.7436 12.282 15.7509 12.4078C15.7683 12.7052 16.0146 12.9375 16.3124 12.9375H19.1249C19.4356 12.9375 19.6874 12.6856 19.6874 12.375C19.6874 8.94572 21.6518 7.25217 21.7337 7.18327C21.9353 7.01634 21.9951 6.73249 21.8781 6.49849L21.3156 5.37342ZM18.5785 11.8125H16.8685C16.8976 10.7113 17.1702 8.88567 18.239 8.38427C18.4776 8.27234 18.6064 8.00979 18.5491 7.75266C18.4917 7.49545 18.2635 7.3125 18 7.3125H15.75C15.4394 7.3125 15.1875 7.56436 15.1875 7.875L15.1848 8.4375H14.6244L14.6223 6.1875H20.4648L20.6876 6.63314C20.0581 7.30041 18.7382 9.01709 18.5785 11.8125Z"/>
    <path d="M32.5656 5.37342C32.4703 5.18287 32.2756 5.0625 32.0625 5.0625H25.8723C25.2534 5.0625 24.75 5.56601 24.75 6.18483V9C24.75 9.31064 25.0019 9.5625 25.3125 9.5625H26.4348C27.0558 9.5625 27.5611 9.05808 27.5625 8.4375H27.8397C26.8739 9.96602 26.9936 12.282 27.0009 12.4078C27.0183 12.7052 27.2646 12.9375 27.5624 12.9375H30.3749C30.6856 12.9375 30.9374 12.6856 30.9374 12.375C30.9374 8.94572 32.9018 7.25217 32.9837 7.18327C33.1853 7.01634 33.2451 6.73249 33.1281 6.49849L32.5656 5.37342ZM29.8285 11.8125H28.1185C28.1476 10.7113 28.4202 8.88567 29.489 8.38427C29.7276 8.27234 29.8564 8.00979 29.7991 7.75266C29.7417 7.49545 29.5135 7.3125 29.25 7.3125H27C26.6894 7.3125 26.4375 7.56436 26.4375 7.875L26.4348 8.4375H25.8744L25.8723 6.1875H31.7148L31.9376 6.63314C31.3081 7.30041 29.9882 9.01709 29.8285 11.8125Z"/>
  </g>
  <svg id="games" width="35" height="18" viewBox="0 0 35 18">
   <path d="M32.0625 0H2.8125C1.26169 0 0 1.26169 0 2.8125V15.1875C0 16.7383 1.26169 18 2.8125 18H32.0625C33.6133 18 34.875 16.7383 34.875 15.1875V2.8125C34.875 1.26169 33.6133 0 32.0625 0ZM33.75 15.1875C33.75 16.118 32.993 16.875 32.0625 16.875H23.625V7.875C23.625 7.56436 23.3731 7.3125 23.0625 7.3125C22.7519 7.3125 22.5 7.56436 22.5 7.875V16.875H12.375V7.875C12.375 7.56436 12.1231 7.3125 11.8125 7.3125C11.5019 7.3125 11.25 7.56436 11.25 7.875V16.875H2.8125C1.88198 16.875 1.125 16.118 1.125 15.1875V2.8125C1.125 1.88198 1.88198 1.125 2.8125 1.125H11.25V2.25C11.25 2.56064 11.5019 2.8125 11.8125 2.8125C12.1231 2.8125 12.375 2.56064 12.375 2.25V1.125H22.5V2.25C22.5 2.56064 22.7519 2.8125 23.0625 2.8125C23.3731 2.8125 23.625 2.56064 23.625 2.25V1.125H32.0625C32.993 1.125 33.75 1.88198 33.75 2.8125V15.1875Z"/>
   <path d="M11.8125 3.9375C11.5019 3.9375 11.25 4.18936 11.25 4.5V5.625C11.25 5.93564 11.5019 6.1875 11.8125 6.1875C12.1231 6.1875 12.375 5.93564 12.375 5.625V4.5C12.375 4.18936 12.1231 3.9375 11.8125 3.9375Z"/>
   <path d="M30.1755 9.67422C30.1397 9.67422 30.1041 9.67527 30.0688 9.67714C29.9078 8.75361 29.499 7.95494 28.8511 7.29805H29.4334C30.462 7.29805 31.2958 6.53808 31.2958 5.60061V5H30.3624C29.3338 5 28.5 5.75997 28.5 6.69744C28.5 5.75997 27.6661 5 26.6376 5H25.7041V5.60059C25.7041 6.53806 26.538 7.29803 27.5666 7.29803H28.2362C28.1771 8.17634 27.8153 8.98495 27.1603 9.70297C27.0503 9.68402 26.938 9.67422 26.8245 9.67422C25.8185 9.67422 25 10.4202 25 11.3371C25 12.254 25.8185 13 26.8245 13C27.3417 13 27.8367 12.7965 28.1808 12.449C27.9626 12.1251 27.8366 11.7443 27.8366 11.3371C27.8366 10.9299 27.9626 10.5491 28.1808 10.2252C28.0358 10.0788 27.864 9.95808 27.6751 9.86723C28.2027 9.24945 28.54 8.57184 28.682 7.84475C29.1438 8.39153 29.4396 9.03689 29.5643 9.7703C28.8579 9.99988 28.351 10.6155 28.351 11.3371C28.351 12.254 29.1694 13 30.1755 13C31.1815 13 32 12.254 32 11.3371C32 10.4202 31.1815 9.67422 30.1755 9.67422Z"/>
   <path d="M19.1755 9.67422C19.1397 9.67422 19.1041 9.67527 19.0688 9.67714C18.9078 8.75361 18.499 7.95494 17.8511 7.29805H18.4334C19.462 7.29805 20.2958 6.53808 20.2958 5.60061V5H19.3624C18.3338 5 17.5 5.75997 17.5 6.69744C17.5 5.75997 16.6661 5 15.6376 5H14.7041V5.60059C14.7041 6.53806 15.538 7.29803 16.5666 7.29803H17.2362C17.1771 8.17634 16.8153 8.98495 16.1603 9.70297C16.0503 9.68402 15.938 9.67422 15.8245 9.67422C14.8185 9.67422 14 10.4202 14 11.3371C14 12.254 14.8185 13 15.8245 13C16.3417 13 16.8367 12.7965 17.1808 12.449C16.9626 12.1251 16.8366 11.7443 16.8366 11.3371C16.8366 10.9299 16.9626 10.5491 17.1808 10.2252C17.0358 10.0788 16.864 9.95808 16.6751 9.86723C17.2027 9.24945 17.54 8.57184 17.682 7.84475C18.1438 8.39153 18.4396 9.03689 18.5643 9.7703C17.8579 9.99988 17.351 10.6155 17.351 11.3371C17.351 12.254 18.1694 13 19.1755 13C20.1815 13 21 12.254 21 11.3371C21 10.4202 20.1815 9.67422 19.1755 9.67422Z"/>
   <path d="M8.17547 9.67422C8.13965 9.67422 8.1041 9.67527 8.06878 9.67714C7.9078 8.75361 7.49896 7.95494 6.85112 7.29805H7.4334C8.46199 7.29805 9.29582 6.53808 9.29582 5.60061V5H8.3624C7.33382 5 6.49998 5.75997 6.49998 6.69744C6.49998 5.75997 5.66615 5 4.63756 5H3.70414V5.60059C3.70414 6.53806 4.53798 7.29803 5.56656 7.29803H6.23621C6.17706 8.17634 5.81532 8.98495 5.16026 9.70297C5.05031 9.68402 4.93795 9.67422 4.82451 9.67422C3.81847 9.67422 3 10.4202 3 11.3371C2.99998 12.254 3.81846 13 4.8245 13C5.34174 13 5.83671 12.7965 6.1808 12.449C5.96263 12.1251 5.83664 11.7443 5.83664 11.3371C5.83664 10.9299 5.96261 10.5491 6.1808 10.2252C6.03582 10.0788 5.86399 9.95808 5.67508 9.86723C6.20275 9.24945 6.53996 8.57184 6.68196 7.84475C7.1438 8.39153 7.43959 9.03689 7.56426 9.7703C6.85794 9.99988 6.35097 10.6155 6.35097 11.3371C6.35097 12.254 7.16944 13 8.17549 13C9.18153 13 10 12.254 10 11.3371C9.99998 10.4202 9.18151 9.67422 8.17547 9.67422Z"/>
   <path d="M23.0625 3.9375C22.7519 3.9375 22.5 4.18936 22.5 4.5V5.625C22.5 5.93564 22.7519 6.1875 23.0625 6.1875C23.3731 6.1875 23.625 5.93564 23.625 5.625V4.5C23.625 4.18936 23.3731 3.9375 23.0625 3.9375Z"/>
  </svg>
  <g id="about" width="18" height="22" viewBox="0 0 18 22">
    <path d="M17.3553 0H0.786621C0.430668 0 0.14209 0.288578 0.14209 0.644531V21.3555C0.14209 21.5789 0.257762 21.7863 0.447769 21.9037C0.63782 22.0212 0.875094 22.0318 1.07486 21.932L9.071 17.9339L17.0671 21.9319C17.1581 21.9774 17.2568 22 17.3554 22C17.4732 22 17.5908 21.9677 17.6943 21.9037C17.8843 21.7863 17.9999 21.5788 17.9999 21.3554V0.644531C17.9999 0.288578 17.7113 0 17.3553 0ZM16.7108 20.3126L9.35919 16.6368C9.26848 16.5914 9.16969 16.5688 9.07095 16.5688C8.97221 16.5688 8.87343 16.5915 8.78272 16.6368L1.43115 20.3126V1.28906H16.7108V20.3126H16.7108Z"/>
    <path d="M14.2229 7.50294C14.1408 7.25014 13.9222 7.06587 13.6592 7.02765L10.9215 6.62984L9.69706 4.1489C9.57946 3.91048 9.33672 3.75955 9.07089 3.75955C8.80511 3.75955 8.56233 3.91048 8.44468 4.14885L7.22047 6.62974L4.48262 7.02756C4.21954 7.06578 4.00101 7.25005 3.91889 7.50284C3.83677 7.75564 3.90529 8.03316 4.09561 8.21868L6.07676 10.1498L5.60897 12.8763C5.56405 13.1383 5.67173 13.4031 5.88677 13.5593C6.00841 13.6477 6.15255 13.6927 6.29734 13.6927C6.40846 13.6927 6.52001 13.6662 6.6222 13.6125L9.07094 12.3253L11.5199 13.6125C11.622 13.6663 11.7336 13.6928 11.8447 13.6928C11.8455 13.6928 11.8463 13.6928 11.8471 13.6928C12.2321 13.692 12.544 13.3796 12.544 12.9944C12.544 12.9408 12.538 12.8886 12.5265 12.8384L12.0654 10.1498L14.0463 8.21877C14.2366 8.03325 14.3051 7.75573 14.2229 7.50294ZM10.8276 9.40594C10.663 9.56637 10.5879 9.79752 10.6268 10.0241L10.9173 11.718L9.39585 10.9183C9.29412 10.8648 9.18253 10.8381 9.07094 10.8381C8.9593 10.8381 8.84776 10.8648 8.74599 10.9183L7.2248 11.7179L7.51545 10.0241C7.55432 9.79752 7.47918 9.56637 7.31456 9.40594L6.08379 8.2063L7.78467 7.95913C8.01214 7.92608 8.20874 7.7832 8.31046 7.57705L9.07099 6.03588L9.8316 7.5771C9.93332 7.7832 10.13 7.92608 10.3574 7.95913L12.0582 8.2063L10.8276 9.40594Z"/>
  </g>
  <g id="about-icon" width="97" height="97" viewBox="0 0 97 97" fill="none">
    <path d="M83.2297 66.0887L83.0933 65.9506C82.3552 65.209 81.1554 65.2066 80.4138 65.9447C79.6723 66.6828 79.6697 67.8826 80.408 68.6241L80.5209 68.7382C80.8922 69.1176 81.3836 69.308 81.8755 69.308C82.3531 69.308 82.8314 69.1285 83.1999 68.7679C83.9479 68.0363 83.9613 66.8368 83.2297 66.0887Z" fill="#492A78"/>
    <path d="M83.2297 66.0887L83.0933 65.9506C82.3552 65.209 81.1554 65.2066 80.4138 65.9447C79.6723 66.6828 79.6697 67.8826 80.408 68.6241L80.5209 68.7382C80.8922 69.1176 81.3836 69.308 81.8755 69.308C82.3531 69.308 82.8314 69.1285 83.1999 68.7679C83.9479 68.0363 83.9613 66.8368 83.2297 66.0887Z" fill="url(#paint0_linear_392_28)" fill-opacity="0.1"/>
    <path d="M83.2297 66.0887L83.0933 65.9506C82.3552 65.209 81.1554 65.2066 80.4138 65.9447C79.6723 66.6828 79.6697 67.8826 80.408 68.6241L80.5209 68.7382C80.8922 69.1176 81.3836 69.308 81.8755 69.308C82.3531 69.308 82.8314 69.1285 83.1999 68.7679C83.9479 68.0363 83.9613 66.8368 83.2297 66.0887Z" fill="url(#paint1_linear_392_28)" fill-opacity="0.2"/>
    <path d="M95.1055 93.2109H89.8008V82.2007C89.8008 78.6003 88.9435 75.0043 87.3212 71.801C86.8485 70.8674 85.708 70.4942 84.7753 70.9669C83.8417 71.4396 83.4685 72.5795 83.9412 73.5127C85.2958 76.1878 86.0119 79.1922 86.0119 82.2005V93.2109H10.9883V82.1886C10.9883 73.2168 17.3488 65.3096 26.1121 63.3872L32.5905 61.966C33.8236 61.6954 34.973 61.2176 36.0071 60.5763C39.4779 63.5818 43.8628 65.2219 48.4998 65.2219C53.1202 65.2219 57.4901 63.5935 60.9548 60.6089C61.9749 61.2322 63.1051 61.6977 64.3165 61.9625L70.8746 63.3963C72.4912 63.7496 74.0538 64.3082 75.519 65.0563C75.7949 65.1971 76.0891 65.2639 76.379 65.2639C77.0682 65.2639 77.7328 64.8866 78.0678 64.2305C78.5437 63.2986 78.1739 62.1577 77.2419 61.6818C75.4878 60.786 73.6177 60.1176 71.6839 59.6948L65.126 58.261C61.8127 57.5365 59.4078 54.549 59.4078 51.1575V50.4267C63.6616 48.0044 66.7462 43.7578 67.5908 38.7591H68.4793C71.4608 38.7591 73.8865 36.3333 73.8865 33.3517V29.7678C73.8865 26.7864 71.4608 24.3606 68.4793 24.3606H67.8242V16.6088C67.8242 7.45062 60.3736 0 51.2154 0H45.7846C36.6264 0 29.1758 7.45062 29.1758 16.6088V24.3604H28.5205C25.539 24.3604 23.1133 26.7862 23.1133 29.7676V33.3515C23.1133 36.3331 25.539 38.7589 28.5205 38.7589H29.409C30.247 43.7184 33.2899 47.9379 37.492 50.3695V51.1626C37.492 54.5519 35.0892 57.5388 31.7789 58.265L25.3005 59.6863C20.1885 60.8076 15.5666 63.671 12.2864 67.749C9.00584 71.827 7.19922 76.9549 7.19922 82.1886V93.2109H1.89453C0.848371 93.2109 0 94.0593 0 95.1055C0 96.1516 0.848371 97 1.89453 97H9.09375H87.9062H95.1055C96.1516 97 97 96.1516 97 95.1055C97 94.0593 96.1516 93.2109 95.1055 93.2109ZM67.8242 28.1495H68.4795C69.3719 28.1495 70.0977 28.8753 70.0977 29.7676V33.3515C70.0977 34.2438 69.3719 34.9698 68.4795 34.9698H67.8242V28.1495ZM29.1758 34.9698H28.5205C27.6281 34.9698 26.9023 34.2438 26.9023 33.3515V29.7676C26.9023 28.8753 27.6281 28.1495 28.5205 28.1495H29.1758V34.9698ZM48.5 61.4332C44.9506 61.4332 41.5863 60.233 38.8673 58.0276C40.2241 56.3189 41.0833 54.2156 41.2492 51.963C42.6914 52.3726 44.2129 52.5922 45.7846 52.5922H51.2154C52.7517 52.5922 54.2397 52.3815 55.6528 51.9893C55.8263 54.2529 56.6986 56.3648 58.0725 58.0746C55.3639 60.2493 52.0236 61.4332 48.5 61.4332ZM32.9648 16.6088C32.9648 9.53991 38.7157 3.78906 45.7846 3.78906H51.2154C57.6239 3.78906 62.9492 8.51592 63.8881 14.6661C63.7398 14.7491 63.5996 14.8522 63.4734 14.9782C57.4232 21.0285 49.3791 24.3603 40.823 24.3603H32.9648V16.6088ZM32.9648 35.9836V28.1495H40.823C45.551 28.1495 50.1632 27.232 54.5312 25.4227C58.0083 23.9825 61.1936 22.0317 64.0352 19.6103V26.255V35.9836C64.0352 43.0525 58.2843 48.8031 51.2154 48.8031H45.7846C38.7157 48.8031 32.9648 43.0523 32.9648 35.9836Z" fill="#492A78"/>
    <path d="M95.1055 93.2109H89.8008V82.2007C89.8008 78.6003 88.9435 75.0043 87.3212 71.801C86.8485 70.8674 85.708 70.4942 84.7753 70.9669C83.8417 71.4396 83.4685 72.5795 83.9412 73.5127C85.2958 76.1878 86.0119 79.1922 86.0119 82.2005V93.2109H10.9883V82.1886C10.9883 73.2168 17.3488 65.3096 26.1121 63.3872L32.5905 61.966C33.8236 61.6954 34.973 61.2176 36.0071 60.5763C39.4779 63.5818 43.8628 65.2219 48.4998 65.2219C53.1202 65.2219 57.4901 63.5935 60.9548 60.6089C61.9749 61.2322 63.1051 61.6977 64.3165 61.9625L70.8746 63.3963C72.4912 63.7496 74.0538 64.3082 75.519 65.0563C75.7949 65.1971 76.0891 65.2639 76.379 65.2639C77.0682 65.2639 77.7328 64.8866 78.0678 64.2305C78.5437 63.2986 78.1739 62.1577 77.2419 61.6818C75.4878 60.786 73.6177 60.1176 71.6839 59.6948L65.126 58.261C61.8127 57.5365 59.4078 54.549 59.4078 51.1575V50.4267C63.6616 48.0044 66.7462 43.7578 67.5908 38.7591H68.4793C71.4608 38.7591 73.8865 36.3333 73.8865 33.3517V29.7678C73.8865 26.7864 71.4608 24.3606 68.4793 24.3606H67.8242V16.6088C67.8242 7.45062 60.3736 0 51.2154 0H45.7846C36.6264 0 29.1758 7.45062 29.1758 16.6088V24.3604H28.5205C25.539 24.3604 23.1133 26.7862 23.1133 29.7676V33.3515C23.1133 36.3331 25.539 38.7589 28.5205 38.7589H29.409C30.247 43.7184 33.2899 47.9379 37.492 50.3695V51.1626C37.492 54.5519 35.0892 57.5388 31.7789 58.265L25.3005 59.6863C20.1885 60.8076 15.5666 63.671 12.2864 67.749C9.00584 71.827 7.19922 76.9549 7.19922 82.1886V93.2109H1.89453C0.848371 93.2109 0 94.0593 0 95.1055C0 96.1516 0.848371 97 1.89453 97H9.09375H87.9062H95.1055C96.1516 97 97 96.1516 97 95.1055C97 94.0593 96.1516 93.2109 95.1055 93.2109ZM67.8242 28.1495H68.4795C69.3719 28.1495 70.0977 28.8753 70.0977 29.7676V33.3515C70.0977 34.2438 69.3719 34.9698 68.4795 34.9698H67.8242V28.1495ZM29.1758 34.9698H28.5205C27.6281 34.9698 26.9023 34.2438 26.9023 33.3515V29.7676C26.9023 28.8753 27.6281 28.1495 28.5205 28.1495H29.1758V34.9698ZM48.5 61.4332C44.9506 61.4332 41.5863 60.233 38.8673 58.0276C40.2241 56.3189 41.0833 54.2156 41.2492 51.963C42.6914 52.3726 44.2129 52.5922 45.7846 52.5922H51.2154C52.7517 52.5922 54.2397 52.3815 55.6528 51.9893C55.8263 54.2529 56.6986 56.3648 58.0725 58.0746C55.3639 60.2493 52.0236 61.4332 48.5 61.4332ZM32.9648 16.6088C32.9648 9.53991 38.7157 3.78906 45.7846 3.78906H51.2154C57.6239 3.78906 62.9492 8.51592 63.8881 14.6661C63.7398 14.7491 63.5996 14.8522 63.4734 14.9782C57.4232 21.0285 49.3791 24.3603 40.823 24.3603H32.9648V16.6088ZM32.9648 35.9836V28.1495H40.823C45.551 28.1495 50.1632 27.232 54.5312 25.4227C58.0083 23.9825 61.1936 22.0317 64.0352 19.6103V26.255V35.9836C64.0352 43.0525 58.2843 48.8031 51.2154 48.8031H45.7846C38.7157 48.8031 32.9648 43.0523 32.9648 35.9836Z" fill="url(#paint2_linear_392_28)" fill-opacity="0.1"/>
    <path d="M95.1055 93.2109H89.8008V82.2007C89.8008 78.6003 88.9435 75.0043 87.3212 71.801C86.8485 70.8674 85.708 70.4942 84.7753 70.9669C83.8417 71.4396 83.4685 72.5795 83.9412 73.5127C85.2958 76.1878 86.0119 79.1922 86.0119 82.2005V93.2109H10.9883V82.1886C10.9883 73.2168 17.3488 65.3096 26.1121 63.3872L32.5905 61.966C33.8236 61.6954 34.973 61.2176 36.0071 60.5763C39.4779 63.5818 43.8628 65.2219 48.4998 65.2219C53.1202 65.2219 57.4901 63.5935 60.9548 60.6089C61.9749 61.2322 63.1051 61.6977 64.3165 61.9625L70.8746 63.3963C72.4912 63.7496 74.0538 64.3082 75.519 65.0563C75.7949 65.1971 76.0891 65.2639 76.379 65.2639C77.0682 65.2639 77.7328 64.8866 78.0678 64.2305C78.5437 63.2986 78.1739 62.1577 77.2419 61.6818C75.4878 60.786 73.6177 60.1176 71.6839 59.6948L65.126 58.261C61.8127 57.5365 59.4078 54.549 59.4078 51.1575V50.4267C63.6616 48.0044 66.7462 43.7578 67.5908 38.7591H68.4793C71.4608 38.7591 73.8865 36.3333 73.8865 33.3517V29.7678C73.8865 26.7864 71.4608 24.3606 68.4793 24.3606H67.8242V16.6088C67.8242 7.45062 60.3736 0 51.2154 0H45.7846C36.6264 0 29.1758 7.45062 29.1758 16.6088V24.3604H28.5205C25.539 24.3604 23.1133 26.7862 23.1133 29.7676V33.3515C23.1133 36.3331 25.539 38.7589 28.5205 38.7589H29.409C30.247 43.7184 33.2899 47.9379 37.492 50.3695V51.1626C37.492 54.5519 35.0892 57.5388 31.7789 58.265L25.3005 59.6863C20.1885 60.8076 15.5666 63.671 12.2864 67.749C9.00584 71.827 7.19922 76.9549 7.19922 82.1886V93.2109H1.89453C0.848371 93.2109 0 94.0593 0 95.1055C0 96.1516 0.848371 97 1.89453 97H9.09375H87.9062H95.1055C96.1516 97 97 96.1516 97 95.1055C97 94.0593 96.1516 93.2109 95.1055 93.2109ZM67.8242 28.1495H68.4795C69.3719 28.1495 70.0977 28.8753 70.0977 29.7676V33.3515C70.0977 34.2438 69.3719 34.9698 68.4795 34.9698H67.8242V28.1495ZM29.1758 34.9698H28.5205C27.6281 34.9698 26.9023 34.2438 26.9023 33.3515V29.7676C26.9023 28.8753 27.6281 28.1495 28.5205 28.1495H29.1758V34.9698ZM48.5 61.4332C44.9506 61.4332 41.5863 60.233 38.8673 58.0276C40.2241 56.3189 41.0833 54.2156 41.2492 51.963C42.6914 52.3726 44.2129 52.5922 45.7846 52.5922H51.2154C52.7517 52.5922 54.2397 52.3815 55.6528 51.9893C55.8263 54.2529 56.6986 56.3648 58.0725 58.0746C55.3639 60.2493 52.0236 61.4332 48.5 61.4332ZM32.9648 16.6088C32.9648 9.53991 38.7157 3.78906 45.7846 3.78906H51.2154C57.6239 3.78906 62.9492 8.51592 63.8881 14.6661C63.7398 14.7491 63.5996 14.8522 63.4734 14.9782C57.4232 21.0285 49.3791 24.3603 40.823 24.3603H32.9648V16.6088ZM32.9648 35.9836V28.1495H40.823C45.551 28.1495 50.1632 27.232 54.5312 25.4227C58.0083 23.9825 61.1936 22.0317 64.0352 19.6103V26.255V35.9836C64.0352 43.0525 58.2843 48.8031 51.2154 48.8031H45.7846C38.7157 48.8031 32.9648 43.0523 32.9648 35.9836Z" fill="url(#paint3_linear_392_28)" fill-opacity="0.2"/>
    <path d="M23.6981 70.4162C23.0488 69.5963 21.8575 69.4572 21.0366 70.1065C17.3201 73.0477 15.1886 77.4516 15.1886 82.1884C15.1886 83.2346 16.037 84.083 17.0831 84.083C18.1293 84.083 18.9777 83.2346 18.9777 82.1884C18.9777 78.6165 20.5852 75.2958 23.3881 73.0776C24.2085 72.4282 24.3473 71.2367 23.6981 70.4162Z" fill="#492A78"/>
    <path d="M23.6981 70.4162C23.0488 69.5963 21.8575 69.4572 21.0366 70.1065C17.3201 73.0477 15.1886 77.4516 15.1886 82.1884C15.1886 83.2346 16.037 84.083 17.0831 84.083C18.1293 84.083 18.9777 83.2346 18.9777 82.1884C18.9777 78.6165 20.5852 75.2958 23.3881 73.0776C24.2085 72.4282 24.3473 71.2367 23.6981 70.4162Z" fill="url(#paint4_linear_392_28)" fill-opacity="0.1"/>
    <path d="M23.6981 70.4162C23.0488 69.5963 21.8575 69.4572 21.0366 70.1065C17.3201 73.0477 15.1886 77.4516 15.1886 82.1884C15.1886 83.2346 16.037 84.083 17.0831 84.083C18.1293 84.083 18.9777 83.2346 18.9777 82.1884C18.9777 78.6165 20.5852 75.2958 23.3881 73.0776C24.2085 72.4282 24.3473 71.2367 23.6981 70.4162Z" fill="url(#paint5_linear_392_28)" fill-opacity="0.2"/>
    <path d="M29.5467 68.5863C29.3212 67.5646 28.3105 66.9197 27.2882 67.1447L27.2005 67.1643C26.1789 67.3912 25.535 68.4033 25.7619 69.4246C25.958 70.3077 26.741 70.9086 27.6095 70.9086C27.7457 70.9086 27.8838 70.8938 28.0223 70.8631L28.1053 70.8448C29.127 70.6193 29.7723 69.6082 29.5467 68.5863Z" fill="#492A78"/>
    <path d="M29.5467 68.5863C29.3212 67.5646 28.3105 66.9197 27.2882 67.1447L27.2005 67.1643C26.1789 67.3912 25.535 68.4033 25.7619 69.4246C25.958 70.3077 26.741 70.9086 27.6095 70.9086C27.7457 70.9086 27.8838 70.8938 28.0223 70.8631L28.1053 70.8448C29.127 70.6193 29.7723 69.6082 29.5467 68.5863Z" fill="url(#paint6_linear_392_28)" fill-opacity="0.1"/>
    <path d="M29.5467 68.5863C29.3212 67.5646 28.3105 66.9197 27.2882 67.1447L27.2005 67.1643C26.1789 67.3912 25.535 68.4033 25.7619 69.4246C25.958 70.3077 26.741 70.9086 27.6095 70.9086C27.7457 70.9086 27.8838 70.8938 28.0223 70.8631L28.1053 70.8448C29.127 70.6193 29.7723 69.6082 29.5467 68.5863Z" fill="url(#paint7_linear_392_28)" fill-opacity="0.2"/>
    <defs>
    <linearGradient id="paint0_linear_392_28" x1="81.8129" y1="65.3928" x2="81.8129" y2="69.308" gradientUnits="userSpaceOnUse">
    <stop stop-color="white"/>
    <stop offset="1" stop-color="white" stop-opacity="0"/>
    </linearGradient>
    <linearGradient id="paint1_linear_392_28" x1="81.8129" y1="65.3928" x2="81.8129" y2="69.308" gradientUnits="userSpaceOnUse">
    <stop stop-color="#FF4B55"/>
    <stop offset="1" stop-color="#FF4B55" stop-opacity="0"/>
    </linearGradient>
    <linearGradient id="paint2_linear_392_28" x1="48.5" y1="0" x2="48.5" y2="97" gradientUnits="userSpaceOnUse">
    <stop stop-color="white"/>
    <stop offset="1" stop-color="white" stop-opacity="0"/>
    </linearGradient>
    <linearGradient id="paint3_linear_392_28" x1="48.5" y1="0" x2="48.5" y2="97" gradientUnits="userSpaceOnUse">
    <stop stop-color="#FF4B55"/>
    <stop offset="1" stop-color="#FF4B55" stop-opacity="0"/>
    </linearGradient>
    <linearGradient id="paint4_linear_392_28" x1="19.6478" y1="69.6976" x2="19.6478" y2="84.083" gradientUnits="userSpaceOnUse">
    <stop stop-color="white"/>
    <stop offset="1" stop-color="white" stop-opacity="0"/>
    </linearGradient>
    <linearGradient id="paint5_linear_392_28" x1="19.6478" y1="69.6976" x2="19.6478" y2="84.083" gradientUnits="userSpaceOnUse">
    <stop stop-color="#FF4B55"/>
    <stop offset="1" stop-color="#FF4B55" stop-opacity="0"/>
    </linearGradient>
    <linearGradient id="paint6_linear_392_28" x1="27.654" y1="67.0999" x2="27.654" y2="70.9086" gradientUnits="userSpaceOnUse">
    <stop stop-color="white"/>
    <stop offset="1" stop-color="white" stop-opacity="0"/>
    </linearGradient>
    <linearGradient id="paint7_linear_392_28" x1="27.654" y1="67.0999" x2="27.654" y2="70.9086" gradientUnits="userSpaceOnUse">
    <stop stop-color="#FF4B55"/>
    <stop offset="1" stop-color="#FF4B55" stop-opacity="0"/>
    </linearGradient>
    </defs>
  </g>
  <g id="benefits" width="91" height="90" viewBox="0 0 91 90" fill="none">
    <path d="M83.5681 35.0233C85.2088 33.424 85.7881 31.0768 85.0802 28.8978C84.3721 26.7187 82.5238 25.1604 80.2564 24.8311L60.4301 21.9502C60.0409 21.8937 59.7045 21.6493 59.5304 21.2964L50.6639 3.33099C49.65 1.27633 47.5967 0 45.3055 0C43.0142 0 40.9609 1.27633 39.9471 3.33099L31.0805 21.2966C30.9062 21.6493 30.57 21.8937 30.1806 21.9503L10.3547 24.8311C8.08731 25.1604 6.23918 26.7187 5.53094 28.8978C4.82269 31.0768 5.4021 33.424 7.04299 35.0233L21.3893 49.0076C21.6709 49.2822 21.7995 49.6778 21.733 50.0655L18.3463 69.8115C17.959 72.0698 18.8698 74.3091 20.7234 75.6558C22.577 77.003 24.9888 77.1769 27.0165 76.111L44.7494 66.7882C45.0977 66.6051 45.5134 66.6051 45.8619 66.7882L63.5949 76.111C64.477 76.5747 65.4314 76.8039 66.3812 76.8037C67.6147 76.8037 68.8404 76.4172 69.8876 75.6557C71.7412 74.3087 72.6521 72.0693 72.2647 69.8113L68.8779 50.0653C68.8116 49.6776 68.94 49.2821 69.2216 49.0074L83.5681 35.0233ZM64.1667 50.8738L67.5535 70.6201C67.6667 71.2809 67.2588 71.6577 67.0781 71.7888C66.8972 71.9198 66.4127 72.1918 65.8195 71.8796L48.0864 62.5568C47.2159 62.0993 46.2609 61.8703 45.3058 61.8703C44.3507 61.8703 43.3956 62.0993 42.5252 62.5566L24.7923 71.8792C24.1988 72.1912 23.7144 71.9196 23.5337 71.7884C23.353 71.6573 22.9449 71.2805 23.0583 70.6197L26.4451 50.8738C26.7776 48.935 26.1354 46.9579 24.7265 45.5847L10.3802 31.6005C9.90005 31.1322 10.0087 30.5877 10.0779 30.3753C10.1467 30.1628 10.3791 29.6582 11.0426 29.5619L30.8684 26.681C32.8149 26.3982 34.497 25.1764 35.3677 23.4121L44.2342 5.44652C44.531 4.84535 45.0825 4.7804 45.306 4.7804C45.5292 4.7804 46.0806 4.84517 46.3776 5.44652V5.4467L55.2441 23.4123C56.1146 25.1765 57.7966 26.3984 59.7431 26.6812L79.5692 29.5621C80.2327 29.6584 80.4649 30.1629 80.5339 30.3755C80.6029 30.588 80.7118 31.1328 80.2315 31.6007L65.8851 45.5849C64.4764 46.9579 63.8342 48.935 64.1667 50.8738Z" fill="#492A78"/>
    <path d="M83.5681 35.0233C85.2088 33.424 85.7881 31.0768 85.0802 28.8978C84.3721 26.7187 82.5238 25.1604 80.2564 24.8311L60.4301 21.9502C60.0409 21.8937 59.7045 21.6493 59.5304 21.2964L50.6639 3.33099C49.65 1.27633 47.5967 0 45.3055 0C43.0142 0 40.9609 1.27633 39.9471 3.33099L31.0805 21.2966C30.9062 21.6493 30.57 21.8937 30.1806 21.9503L10.3547 24.8311C8.08731 25.1604 6.23918 26.7187 5.53094 28.8978C4.82269 31.0768 5.4021 33.424 7.04299 35.0233L21.3893 49.0076C21.6709 49.2822 21.7995 49.6778 21.733 50.0655L18.3463 69.8115C17.959 72.0698 18.8698 74.3091 20.7234 75.6558C22.577 77.003 24.9888 77.1769 27.0165 76.111L44.7494 66.7882C45.0977 66.6051 45.5134 66.6051 45.8619 66.7882L63.5949 76.111C64.477 76.5747 65.4314 76.8039 66.3812 76.8037C67.6147 76.8037 68.8404 76.4172 69.8876 75.6557C71.7412 74.3087 72.6521 72.0693 72.2647 69.8113L68.8779 50.0653C68.8116 49.6776 68.94 49.2821 69.2216 49.0074L83.5681 35.0233ZM64.1667 50.8738L67.5535 70.6201C67.6667 71.2809 67.2588 71.6577 67.0781 71.7888C66.8972 71.9198 66.4127 72.1918 65.8195 71.8796L48.0864 62.5568C47.2159 62.0993 46.2609 61.8703 45.3058 61.8703C44.3507 61.8703 43.3956 62.0993 42.5252 62.5566L24.7923 71.8792C24.1988 72.1912 23.7144 71.9196 23.5337 71.7884C23.353 71.6573 22.9449 71.2805 23.0583 70.6197L26.4451 50.8738C26.7776 48.935 26.1354 46.9579 24.7265 45.5847L10.3802 31.6005C9.90005 31.1322 10.0087 30.5877 10.0779 30.3753C10.1467 30.1628 10.3791 29.6582 11.0426 29.5619L30.8684 26.681C32.8149 26.3982 34.497 25.1764 35.3677 23.4121L44.2342 5.44652C44.531 4.84535 45.0825 4.7804 45.306 4.7804C45.5292 4.7804 46.0806 4.84517 46.3776 5.44652V5.4467L55.2441 23.4123C56.1146 25.1765 57.7966 26.3984 59.7431 26.6812L79.5692 29.5621C80.2327 29.6584 80.4649 30.1629 80.5339 30.3755C80.6029 30.588 80.7118 31.1328 80.2315 31.6007L65.8851 45.5849C64.4764 46.9579 63.8342 48.935 64.1667 50.8738Z" fill="url(#paint0_linear_392_37)" fill-opacity="0.1"/>
    <path d="M83.5681 35.0233C85.2088 33.424 85.7881 31.0768 85.0802 28.8978C84.3721 26.7187 82.5238 25.1604 80.2564 24.8311L60.4301 21.9502C60.0409 21.8937 59.7045 21.6493 59.5304 21.2964L50.6639 3.33099C49.65 1.27633 47.5967 0 45.3055 0C43.0142 0 40.9609 1.27633 39.9471 3.33099L31.0805 21.2966C30.9062 21.6493 30.57 21.8937 30.1806 21.9503L10.3547 24.8311C8.08731 25.1604 6.23918 26.7187 5.53094 28.8978C4.82269 31.0768 5.4021 33.424 7.04299 35.0233L21.3893 49.0076C21.6709 49.2822 21.7995 49.6778 21.733 50.0655L18.3463 69.8115C17.959 72.0698 18.8698 74.3091 20.7234 75.6558C22.577 77.003 24.9888 77.1769 27.0165 76.111L44.7494 66.7882C45.0977 66.6051 45.5134 66.6051 45.8619 66.7882L63.5949 76.111C64.477 76.5747 65.4314 76.8039 66.3812 76.8037C67.6147 76.8037 68.8404 76.4172 69.8876 75.6557C71.7412 74.3087 72.6521 72.0693 72.2647 69.8113L68.8779 50.0653C68.8116 49.6776 68.94 49.2821 69.2216 49.0074L83.5681 35.0233ZM64.1667 50.8738L67.5535 70.6201C67.6667 71.2809 67.2588 71.6577 67.0781 71.7888C66.8972 71.9198 66.4127 72.1918 65.8195 71.8796L48.0864 62.5568C47.2159 62.0993 46.2609 61.8703 45.3058 61.8703C44.3507 61.8703 43.3956 62.0993 42.5252 62.5566L24.7923 71.8792C24.1988 72.1912 23.7144 71.9196 23.5337 71.7884C23.353 71.6573 22.9449 71.2805 23.0583 70.6197L26.4451 50.8738C26.7776 48.935 26.1354 46.9579 24.7265 45.5847L10.3802 31.6005C9.90005 31.1322 10.0087 30.5877 10.0779 30.3753C10.1467 30.1628 10.3791 29.6582 11.0426 29.5619L30.8684 26.681C32.8149 26.3982 34.497 25.1764 35.3677 23.4121L44.2342 5.44652C44.531 4.84535 45.0825 4.7804 45.306 4.7804C45.5292 4.7804 46.0806 4.84517 46.3776 5.44652V5.4467L55.2441 23.4123C56.1146 25.1765 57.7966 26.3984 59.7431 26.6812L79.5692 29.5621C80.2327 29.6584 80.4649 30.1629 80.5339 30.3755C80.6029 30.588 80.7118 31.1328 80.2315 31.6007L65.8851 45.5849C64.4764 46.9579 63.8342 48.935 64.1667 50.8738Z" fill="url(#paint1_linear_392_37)" fill-opacity="0.2"/>
    <path d="M73.2285 3.32964C72.1603 2.55379 70.6658 2.79058 69.8899 3.85844L67.3526 7.35047C66.5768 8.41833 66.8134 9.91322 67.8814 10.6891C68.306 10.9972 68.7975 11.1457 69.2845 11.1457C70.0237 11.1457 70.7525 10.8039 71.22 10.1604L73.7573 6.66842C74.5331 5.60038 74.2965 4.10549 73.2285 3.32964Z" fill="#492A78"/>
    <path d="M73.2285 3.32964C72.1603 2.55379 70.6658 2.79058 69.8899 3.85844L67.3526 7.35047C66.5768 8.41833 66.8134 9.91322 67.8814 10.6891C68.306 10.9972 68.7975 11.1457 69.2845 11.1457C70.0237 11.1457 70.7525 10.8039 71.22 10.1604L73.7573 6.66842C74.5331 5.60038 74.2965 4.10549 73.2285 3.32964Z" fill="url(#paint2_linear_392_37)" fill-opacity="0.1"/>
    <path d="M73.2285 3.32964C72.1603 2.55379 70.6658 2.79058 69.8899 3.85844L67.3526 7.35047C66.5768 8.41833 66.8134 9.91322 67.8814 10.6891C68.306 10.9972 68.7975 11.1457 69.2845 11.1457C70.0237 11.1457 70.7525 10.8039 71.22 10.1604L73.7573 6.66842C74.5331 5.60038 74.2965 4.10549 73.2285 3.32964Z" fill="url(#paint3_linear_392_37)" fill-opacity="0.2"/>
    <path d="M23.247 7.33642L20.7097 3.84439C19.9341 2.77689 18.4393 2.5401 17.3711 3.31559C16.3033 4.09144 16.0665 5.58634 16.8423 6.65419L19.3796 10.1462C19.8473 10.7902 20.5761 11.1318 21.3155 11.1318C21.8027 11.1318 22.2943 10.9833 22.7184 10.675C23.7862 9.89935 24.023 8.40446 23.247 7.33642Z" fill="#492A78"/>
    <path d="M23.247 7.33642L20.7097 3.84439C19.9341 2.77689 18.4393 2.5401 17.3711 3.31559C16.3033 4.09144 16.0665 5.58634 16.8423 6.65419L19.3796 10.1462C19.8473 10.7902 20.5761 11.1318 21.3155 11.1318C21.8027 11.1318 22.2943 10.9833 22.7184 10.675C23.7862 9.89935 24.023 8.40446 23.247 7.33642Z" fill="url(#paint4_linear_392_37)" fill-opacity="0.1"/>
    <path d="M23.247 7.33642L20.7097 3.84439C19.9341 2.77689 18.4393 2.5401 17.3711 3.31559C16.3033 4.09144 16.0665 5.58634 16.8423 6.65419L19.3796 10.1462C19.8473 10.7902 20.5761 11.1318 21.3155 11.1318C21.8027 11.1318 22.2943 10.9833 22.7184 10.675C23.7862 9.89935 24.023 8.40446 23.247 7.33642Z" fill="url(#paint5_linear_392_37)" fill-opacity="0.2"/>
    <path d="M8.76933 53.6263C8.36141 52.3711 7.01305 51.6839 5.75743 52.0918L1.65218 53.4258C0.396561 53.8338 -0.290272 55.1825 0.117651 56.4377C0.445759 57.4481 1.38283 58.0901 2.39034 58.0901C2.63509 58.0901 2.88409 58.0521 3.12956 57.9723L7.2348 56.6382C8.49025 56.2303 9.17726 54.882 8.76933 53.6263Z" fill="#492A78"/>
    <path d="M8.76933 53.6263C8.36141 52.3711 7.01305 51.6839 5.75743 52.0918L1.65218 53.4258C0.396561 53.8338 -0.290272 55.1825 0.117651 56.4377C0.445759 57.4481 1.38283 58.0901 2.39034 58.0901C2.63509 58.0901 2.88409 58.0521 3.12956 57.9723L7.2348 56.6382C8.49025 56.2303 9.17726 54.882 8.76933 53.6263Z" fill="url(#paint6_linear_392_37)" fill-opacity="0.1"/>
    <path d="M8.76933 53.6263C8.36141 52.3711 7.01305 51.6839 5.75743 52.0918L1.65218 53.4258C0.396561 53.8338 -0.290272 55.1825 0.117651 56.4377C0.445759 57.4481 1.38283 58.0901 2.39034 58.0901C2.63509 58.0901 2.88409 58.0521 3.12956 57.9723L7.2348 56.6382C8.49025 56.2303 9.17726 54.882 8.76933 53.6263Z" fill="url(#paint7_linear_392_37)" fill-opacity="0.2"/>
    <path d="M45.306 80.1649C43.9859 80.1649 42.9158 81.235 42.9158 82.5551V86.8718C42.9158 88.1918 43.9859 89.262 45.306 89.262C46.626 89.262 47.6962 88.1918 47.6962 86.8718V82.5551C47.6962 81.2348 46.6262 80.1649 45.306 80.1649Z" fill="#492A78"/>
    <path d="M45.306 80.1649C43.9859 80.1649 42.9158 81.235 42.9158 82.5551V86.8718C42.9158 88.1918 43.9859 89.262 45.306 89.262C46.626 89.262 47.6962 88.1918 47.6962 86.8718V82.5551C47.6962 81.2348 46.6262 80.1649 45.306 80.1649Z" fill="url(#paint8_linear_392_37)" fill-opacity="0.1"/>
    <path d="M45.306 80.1649C43.9859 80.1649 42.9158 81.235 42.9158 82.5551V86.8718C42.9158 88.1918 43.9859 89.262 45.306 89.262C46.626 89.262 47.6962 88.1918 47.6962 86.8718V82.5551C47.6962 81.2348 46.6262 80.1649 45.306 80.1649Z" fill="url(#paint9_linear_392_37)" fill-opacity="0.2"/>
    <path d="M88.9579 53.4292L84.8527 52.0952C83.5976 51.6876 82.2487 52.3742 81.8408 53.6299C81.4329 54.8855 82.1197 56.2339 83.3753 56.6418L87.4806 57.9758C87.726 58.0554 87.9749 58.0933 88.2196 58.0933C89.2273 58.0933 90.1644 57.4511 90.4925 56.4409C90.9004 55.1855 90.2134 53.8371 88.9579 53.4292Z" fill="#492A78"/>
    <path d="M88.9579 53.4292L84.8527 52.0952C83.5976 51.6876 82.2487 52.3742 81.8408 53.6299C81.4329 54.8855 82.1197 56.2339 83.3753 56.6418L87.4806 57.9758C87.726 58.0554 87.9749 58.0933 88.2196 58.0933C89.2273 58.0933 90.1644 57.4511 90.4925 56.4409C90.9004 55.1855 90.2134 53.8371 88.9579 53.4292Z" fill="url(#paint10_linear_392_37)" fill-opacity="0.1"/>
    <path d="M88.9579 53.4292L84.8527 52.0952C83.5976 51.6876 82.2487 52.3742 81.8408 53.6299C81.4329 54.8855 82.1197 56.2339 83.3753 56.6418L87.4806 57.9758C87.726 58.0554 87.9749 58.0933 88.2196 58.0933C89.2273 58.0933 90.1644 57.4511 90.4925 56.4409C90.9004 55.1855 90.2134 53.8371 88.9579 53.4292Z" fill="url(#paint11_linear_392_37)" fill-opacity="0.2"/>
    <defs>
    <linearGradient id="paint0_linear_392_37" x1="45.3055" y1="0" x2="45.3055" y2="76.8037" gradientUnits="userSpaceOnUse">
    <stop stop-color="white"/>
    <stop offset="1" stop-color="white" stop-opacity="0"/>
    </linearGradient>
    <linearGradient id="paint1_linear_392_37" x1="45.3055" y1="0" x2="45.3055" y2="76.8037" gradientUnits="userSpaceOnUse">
    <stop stop-color="#FF4B55"/>
    <stop offset="1" stop-color="#FF4B55" stop-opacity="0"/>
    </linearGradient>
    <linearGradient id="paint2_linear_392_37" x1="70.555" y1="2.87305" x2="70.555" y2="11.1457" gradientUnits="userSpaceOnUse">
    <stop stop-color="white"/>
    <stop offset="1" stop-color="white" stop-opacity="0"/>
    </linearGradient>
    <linearGradient id="paint3_linear_392_37" x1="70.555" y1="2.87305" x2="70.555" y2="11.1457" gradientUnits="userSpaceOnUse">
    <stop stop-color="#FF4B55"/>
    <stop offset="1" stop-color="#FF4B55" stop-opacity="0"/>
    </linearGradient>
    <linearGradient id="paint4_linear_392_37" x1="20.0447" y1="2.85925" x2="20.0447" y2="11.1318" gradientUnits="userSpaceOnUse">
    <stop stop-color="white"/>
    <stop offset="1" stop-color="white" stop-opacity="0"/>
    </linearGradient>
    <linearGradient id="paint5_linear_392_37" x1="20.0447" y1="2.85925" x2="20.0447" y2="11.1318" gradientUnits="userSpaceOnUse">
    <stop stop-color="#FF4B55"/>
    <stop offset="1" stop-color="#FF4B55" stop-opacity="0"/>
    </linearGradient>
    <linearGradient id="paint6_linear_392_37" x1="4.44348" y1="51.9742" x2="4.44348" y2="58.0901" gradientUnits="userSpaceOnUse">
    <stop stop-color="white"/>
    <stop offset="1" stop-color="white" stop-opacity="0"/>
    </linearGradient>
    <linearGradient id="paint7_linear_392_37" x1="4.44348" y1="51.9742" x2="4.44348" y2="58.0901" gradientUnits="userSpaceOnUse">
    <stop stop-color="#FF4B55"/>
    <stop offset="1" stop-color="#FF4B55" stop-opacity="0"/>
    </linearGradient>
    <linearGradient id="paint8_linear_392_37" x1="45.306" y1="80.1649" x2="45.306" y2="89.262" gradientUnits="userSpaceOnUse">
    <stop stop-color="white"/>
    <stop offset="1" stop-color="white" stop-opacity="0"/>
    </linearGradient>
    <linearGradient id="paint9_linear_392_37" x1="45.306" y1="80.1649" x2="45.306" y2="89.262" gradientUnits="userSpaceOnUse">
    <stop stop-color="#FF4B55"/>
    <stop offset="1" stop-color="#FF4B55" stop-opacity="0"/>
    </linearGradient>
    <linearGradient id="paint10_linear_392_37" x1="86.1666" y1="51.9777" x2="86.1666" y2="58.0933" gradientUnits="userSpaceOnUse">
    <stop stop-color="white"/>
    <stop offset="1" stop-color="white" stop-opacity="0"/>
    </linearGradient>
    <linearGradient id="paint11_linear_392_37" x1="86.1666" y1="51.9777" x2="86.1666" y2="58.0933" gradientUnits="userSpaceOnUse">
    <stop stop-color="#FF4B55"/>
    <stop offset="1" stop-color="#FF4B55" stop-opacity="0"/>
    </linearGradient>
    </defs>
  </g>


</svg>
