<svg width="20" height="20" viewBox="0 0 20 20" fill="none" xmlns="http://www.w3.org/2000/svg">
<circle cx="9.6" cy="9.6" r="9.6" fill="white"/>
<mask id="mask0_41_439" style="mask-type:alpha" maskUnits="userSpaceOnUse" x="0" y="0" width="20" height="20">
<circle cx="9.6" cy="9.6" r="9.6" fill="#D9D9D9"/>
</mask>
<g mask="url(#mask0_41_439)">
<path d="M0 1.92C0 0.859614 0.61401 0 1.37143 0H17.8286C18.586 0 19.2 0.859613 19.2 1.92V17.28C19.2 18.3404 18.586 19.2 17.8286 19.2H1.37143C0.61401 19.2 0 18.3404 0 17.28V1.92Z" fill="white"/>
<path d="M0 1.92C0 0.859614 0.61401 0 1.37143 0H17.8286C18.586 0 19.2 0.859613 19.2 1.92V17.28C19.2 18.3404 18.586 19.2 17.8286 19.2H1.37143C0.61401 19.2 0 18.3404 0 17.28V1.92Z" fill="white"/>
<path d="M12.8 0H19.2V19.2H12.8V0Z" fill="#E43D4C"/>
<path fill-rule="evenodd" clip-rule="evenodd" d="M0 19.2H6.4V0H0V19.2Z" fill="#1BB65D"/>
</g>
</svg>
