<svg width="73" height="54" viewBox="0 0 73 54" fill="none" xmlns="http://www.w3.org/2000/svg">
<path d="M53.5333 15.127V13.4191C53.5333 5.76412 42.0358 0 26.7667 0C11.4975 0 0 5.76412 0 13.4191V25.6183C0 31.9924 7.96917 37.0551 19.4667 38.58V40.2574C19.4667 47.9123 30.9642 53.6765 46.2333 53.6765C61.5025 53.6765 73 47.9123 73 40.2574V28.0582C73 21.7451 65.2742 16.6824 53.5333 15.127ZM19.4667 33.6088V26.3808C21.8874 26.6927 24.326 26.8455 26.7667 26.8382C29.2073 26.8455 31.6459 26.6927 34.0667 26.3808V33.6088C31.6518 33.9861 29.2107 34.1697 26.7667 34.1578C24.3226 34.1697 21.8816 33.9861 19.4667 33.6088ZM48.6667 21.3181V25.6183C48.6667 28.1801 44.895 30.925 38.9333 32.6024V25.4658C42.8571 24.5204 46.1725 23.087 48.6667 21.3181ZM4.86667 25.6183V21.3181C7.36083 23.087 10.6763 24.5204 14.6 25.4658V32.6024C8.63833 30.925 4.86667 28.1801 4.86667 25.6183ZM24.3333 40.2574V38.9764L26.7667 39.0374C27.9631 39.0374 29.1189 39.0069 30.2342 38.9459C31.4508 39.3729 32.7283 39.7389 34.0667 40.0744V47.2414C28.105 45.564 24.3333 42.8192 24.3333 40.2574ZM38.9333 48.2478V40.9893C41.3538 41.3077 43.7921 41.4707 46.2333 41.4773C48.674 41.4845 51.1126 41.3317 53.5333 41.0198V48.2478C48.694 48.9798 43.7726 48.9798 38.9333 48.2478ZM58.4 47.2414V40.1049C62.3238 39.1594 65.6392 37.726 68.1333 35.9571V40.2574C68.1333 42.8192 64.3617 45.564 58.4 47.2414Z" fill="white"/>
</svg>
