<svg width="20" height="20" viewBox="0 0 20 20" fill="none" xmlns="http://www.w3.org/2000/svg">
<mask id="mask0_45_1997" style="mask-type:alpha" maskUnits="userSpaceOnUse" x="0" y="0" width="20" height="20">
<circle cx="9.6" cy="9.6" r="9.6" fill="#D9D9D9"/>
</mask>
<g mask="url(#mask0_45_1997)">
<rect x="-0.959961" width="26.88" height="19.2" rx="2" fill="white"/>
<mask id="mask1_45_1997" style="mask-type:alpha" maskUnits="userSpaceOnUse" x="-1" y="0" width="27" height="20">
<rect x="-0.959961" width="26.88" height="19.2" rx="2" fill="white"/>
</mask>
<g mask="url(#mask1_45_1997)">
<rect x="-0.959961" width="26.88" height="19.2" fill="#FF2936"/>
<path fill-rule="evenodd" clip-rule="evenodd" d="M-0.959961 19.2H9.28004V0H-0.959961V19.2Z" fill="#128415"/>
<path d="M9.28009 12.8267C11.0621 12.8267 12.5068 11.382 12.5068 9.60001C12.5068 7.81797 11.0621 6.37334 9.28009 6.37334C7.49805 6.37334 6.05343 7.81797 6.05343 9.60001C6.05343 11.382 7.49805 12.8267 9.28009 12.8267Z" stroke="#FAF94F" stroke-width="1.33333"/>
<path fill-rule="evenodd" clip-rule="evenodd" d="M8 8.01333C8 7.82923 8.14924 7.67999 8.33333 7.67999H10.2267C10.4108 7.67999 10.56 7.82923 10.56 8.01333V10.24C10.56 10.9469 9.98692 11.52 9.28 11.52C8.57308 11.52 8 10.9469 8 10.24V8.01333Z" fill="white"/>
<path fill-rule="evenodd" clip-rule="evenodd" d="M9.28001 10.24C9.63348 10.24 9.92001 9.31347 9.92001 8.96001C9.92001 8.60655 9.63348 8.32001 9.28001 8.32001C8.92655 8.32001 8.64001 8.60655 8.64001 8.96001C8.64001 9.31347 8.92655 10.24 9.28001 10.24Z" fill="#1D50B5"/>
</g>
</g>
</svg>
