<svg width="20" height="18" viewBox="0 0 20 18" fill="none" xmlns="http://www.w3.org/2000/svg">
<path d="M1.875 18C1.875 18 0.25 18 0.25 16.5C0.25 15 1.875 10.5 10 10.5C18.125 10.5 19.75 15 19.75 16.5C19.75 18 18.125 18 18.125 18H1.875ZM10 9C11.2929 9 12.5329 8.52589 13.4471 7.68198C14.3614 6.83807 14.875 5.69347 14.875 4.5C14.875 3.30653 14.3614 2.16193 13.4471 1.31802C12.5329 0.474106 11.2929 0 10 0C8.70707 0 7.46709 0.474106 6.55285 1.31802C5.63861 2.16193 5.125 3.30653 5.125 4.5C5.125 5.69347 5.63861 6.83807 6.55285 7.68198C7.46709 8.52589 8.70707 9 10 9V9Z" fill="#EEEEEE"/>
</svg>
