<svg width="72" height="72" viewBox="0 0 72 72" fill="none" xmlns="http://www.w3.org/2000/svg">
<path d="M36 39.6C38.1539 39.5999 40.2586 40.2438 42.0438 41.4491C43.8289 42.6543 45.2129 44.3658 46.0179 46.3636C46.8229 48.3614 47.0122 50.5543 46.5614 52.6605C46.1105 54.7667 45.0402 56.6899 43.488 58.1832L36.612 64.8H44.8C45.9046 64.8 46.8 65.6954 46.8 66.8V70C46.8 71.1046 45.9046 72 44.8 72H27.2C26.0954 72 25.2 71.1046 25.2 70V66.6444C25.2 66.1008 25.4213 65.5806 25.813 65.2035L38.4948 52.9956C38.9238 52.5833 39.2439 52.071 39.4264 51.5047C39.6089 50.9383 39.6483 50.3356 39.5409 49.7504C39.4334 49.1651 39.1826 48.6156 38.8109 48.151C38.4391 47.6864 37.958 47.3212 37.4105 47.0881C36.8631 46.8549 36.2664 46.7611 35.6738 46.815C35.0813 46.8689 34.5113 47.0689 34.0149 47.397C33.5185 47.7251 33.1112 48.1711 32.8294 48.6952C32.3648 49.5591 31.6049 50.4 30.624 50.4H27.2C26.0954 50.4 25.1812 49.497 25.3846 48.4113C25.7827 46.2865 26.813 44.3135 28.3632 42.7632C30.3886 40.7379 33.1357 39.6 36 39.6ZM55.6 39.6C56.7046 39.6 57.6 40.4954 57.6 41.6V52C57.6 53.1046 58.4954 54 59.6 54H62.8C63.9046 54 64.8 53.1046 64.8 52V41.6C64.8 40.4954 65.6954 39.6 66.8 39.6H70C71.1046 39.6 72 40.4954 72 41.6V70C72 71.1046 71.1046 72 70 72H66.8C65.6954 72 64.8 71.1046 64.8 70V63.2C64.8 62.0954 63.9046 61.2 62.8 61.2H52.4C51.2954 61.2 50.4 60.3046 50.4 59.2V41.6C50.4 40.4954 51.2954 39.6 52.4 39.6H55.6ZM5.19795 36C6.30332 36 7.19185 36.8978 7.26764 38.0005C7.51706 41.6298 8.45364 45.1852 10.0339 48.4753C11.7647 52.0788 14.2265 55.2784 17.2587 57.8726C17.7207 58.2678 18 58.8396 18 59.4475V63.7203C18 65.2596 16.3415 66.2049 15.0883 65.311C10.9065 62.3284 7.4003 58.4766 4.8191 54.005C1.99292 49.1089 0.364853 43.6242 0.0545917 37.9982C-0.00620983 36.8956 0.89487 36 1.99908 36H5.19795ZM36 1.80483e-05C53.9097 1.80483e-05 68.7671 13.0811 71.5347 30.2092C71.7234 31.3766 70.7945 32.4 69.6119 32.4H66.3404C65.3326 32.4 64.4898 31.6483 64.3027 30.658C63.3305 25.5103 60.9699 20.7131 57.4611 16.7932C53.5593 12.4342 48.4227 9.36669 42.7348 7.99874C37.0468 6.63078 31.0771 7.02724 25.62 9.13538C20.1629 11.2435 15.4771 14.9634 12.186 19.8H19.6C20.7046 19.8 21.6 20.6954 21.6 21.8V25C21.6 26.1046 20.7046 27 19.6 27H2.00001C0.895437 27 3.86599e-06 26.1046 3.86599e-06 25V7.40002C3.86599e-06 6.29545 0.895434 5.40002 2 5.40002H5.2C6.30457 5.40002 7.2 6.29545 7.2 7.40002V14.4C10.5494 9.92481 14.8968 6.29286 19.8965 3.79302C24.8962 1.29318 30.4102 -0.00558437 36 1.80483e-05Z" fill="url(#paint0_linear_9_173)"/>
<defs>
<linearGradient id="paint0_linear_9_173" x1="-0.160001" y1="6.56002" x2="72.16" y2="72.16" gradientUnits="userSpaceOnUse">
<stop stop-color="#B938C2"/>
<stop offset="0.925" stop-color="#6A83E3"/>
<stop offset="1" stop-color="#6A92FF"/>
</linearGradient>
</defs>
</svg>
