<svg width="97" height="72" viewBox="0 0 97 72" fill="none" xmlns="http://www.w3.org/2000/svg">
<path d="M57.3182 40.5C53.6439 40.5 50.5208 39.1875 47.9489 36.5625C45.3769 33.9375 44.0909 30.75 44.0909 27C44.0909 23.25 45.3769 20.0625 47.9489 17.4375C50.5208 14.8125 53.6439 13.5 57.3182 13.5C60.9924 13.5 64.1155 14.8125 66.6875 17.4375C69.2595 20.0625 70.5455 23.25 70.5455 27C70.5455 30.75 69.2595 33.9375 66.6875 36.5625C64.1155 39.1875 60.9924 40.5 57.3182 40.5ZM26.4545 54C24.0295 54 21.9543 53.118 20.2289 51.354C18.5005 49.593 17.6364 47.475 17.6364 45V9C17.6364 6.525 18.5005 4.407 20.2289 2.646C21.9543 0.881999 24.0295 0 26.4545 0H88.1818C90.6068 0 92.6835 0.881999 94.4119 2.646C96.1373 4.407 97 6.525 97 9V45C97 47.475 96.1373 49.593 94.4119 51.354C92.6835 53.118 90.6068 54 88.1818 54H26.4545ZM35.2727 45H79.3636C79.3636 42.525 80.2263 40.4055 81.9518 38.6415C83.6801 36.8805 85.7568 36 88.1818 36V18C85.7568 18 83.6801 17.118 81.9518 15.354C80.2263 13.593 79.3636 11.475 79.3636 9H35.2727C35.2727 11.475 34.4085 13.593 32.6802 15.354C30.9548 17.118 28.8795 18 26.4545 18V36C28.8795 36 30.9548 36.8805 32.6802 38.6415C34.4085 40.4055 35.2727 42.525 35.2727 45ZM8.81818 72C6.39318 72 4.31797 71.1195 2.59255 69.3585C0.864182 67.5945 0 65.475 0 63V18C0 16.725 0.423273 15.6555 1.26982 14.7915C2.11342 13.9305 3.15985 13.5 4.40909 13.5C5.65833 13.5 6.70623 13.9305 7.55277 14.7915C8.39638 15.6555 8.81818 16.725 8.81818 18V63H79.3636C80.6129 63 81.6593 63.432 82.5029 64.296C83.3495 65.157 83.7727 66.225 83.7727 67.5C83.7727 68.775 83.3495 69.843 82.5029 70.704C81.6593 71.568 80.6129 72 79.3636 72H8.81818ZM26.4545 45V9V45Z" fill="url(#paint0_linear_9_205)"/>
<defs>
<linearGradient id="paint0_linear_9_205" x1="0" y1="0" x2="97" y2="72" gradientUnits="userSpaceOnUse">
<stop stop-color="#B938C2"/>
<stop offset="1" stop-color="#6A92FF"/>
</linearGradient>
</defs>
</svg>
