<svg width="117" height="117" viewBox="0 0 117 117" fill="none" xmlns="http://www.w3.org/2000/svg">
<path d="M84.0938 40.95V38.3906C84.0938 26.9191 66.818 18.2812 43.875 18.2812C20.932 18.2812 3.65625 26.9191 3.65625 38.3906V56.6719C3.65625 66.2238 15.6305 73.8105 32.9062 76.0957V78.6094C32.9062 90.0809 50.182 98.7188 73.125 98.7188C96.068 98.7188 113.344 90.0809 113.344 78.6094V60.3281C113.344 50.8676 101.735 43.2809 84.0938 40.95ZM32.9062 68.6461V57.8145C36.5436 58.2819 40.2077 58.5109 43.875 58.5C47.5423 58.5109 51.2064 58.2819 54.8438 57.8145V68.6461C51.2152 69.2115 47.5473 69.4866 43.875 69.4688C40.2027 69.4866 36.5348 69.2115 32.9062 68.6461ZM76.7812 50.2277V56.6719C76.7812 60.5109 71.1141 64.6242 62.1562 67.1379V56.4434C68.052 55.0266 73.0336 52.8785 76.7812 50.2277ZM10.9688 56.6719V50.2277C14.7164 52.8785 19.698 55.0266 25.5938 56.4434V67.1379C16.6359 64.6242 10.9688 60.5109 10.9688 56.6719ZM40.2188 78.6094V76.6898L43.875 76.7812C45.6727 76.7812 47.4094 76.7355 49.0852 76.6441C50.9133 77.284 52.8328 77.8324 54.8438 78.3352V89.0754C45.8859 86.5617 40.2188 82.4484 40.2188 78.6094ZM62.1562 90.5836V79.7062C65.7932 80.1834 69.4569 80.4276 73.125 80.4375C76.7923 80.4484 80.4564 80.2194 84.0938 79.752V90.5836C76.8224 91.6805 69.4276 91.6805 62.1562 90.5836ZM91.4062 89.0754V78.3809C97.302 76.9641 102.284 74.816 106.031 72.1652V78.6094C106.031 82.4484 100.364 86.5617 91.4062 89.0754Z" fill="#F8F8F8"/>
</svg>
