<svg width="97" height="97" viewBox="0 0 97 97" fill="none" xmlns="http://www.w3.org/2000/svg">
<path d="M48.5 8.08331C26.1779 8.08331 8.08333 26.1779 8.08333 48.5C8.08333 70.8221 26.1779 88.9167 48.5 88.9167C70.8221 88.9167 88.9167 70.8221 88.9167 48.5C88.9167 26.1779 70.8221 8.08331 48.5 8.08331ZM44.4583 35.3646V61.6354C44.4583 62.4393 44.139 63.2103 43.5705 63.7788C43.002 64.3473 42.231 64.6666 41.4271 64.6666C40.6231 64.6666 39.8521 64.3473 39.2837 63.7788C38.7152 63.2103 38.3958 62.4393 38.3958 61.6354V35.3646C38.3958 34.5606 38.7152 33.7896 39.2837 33.2211C39.8521 32.6527 40.6231 32.3333 41.4271 32.3333C42.231 32.3333 43.002 32.6527 43.5705 33.2211C44.139 33.7896 44.4583 34.5606 44.4583 35.3646ZM68.7083 35.3646V61.6354C68.7083 62.4393 68.389 63.2103 67.8205 63.7788C67.252 64.3473 66.481 64.6666 65.6771 64.6666C64.8731 64.6666 64.1021 64.3473 63.5337 63.7788C62.9652 63.2103 62.6458 62.4393 62.6458 61.6354V35.3646C62.6458 34.5606 62.9652 33.7896 63.5337 33.2211C64.1021 32.6527 64.8731 32.3333 65.6771 32.3333C66.481 32.3333 67.252 32.6527 67.8205 33.2211C68.389 33.7896 68.7083 34.5606 68.7083 35.3646ZM56.5833 41.4271V55.5729C56.5833 56.3768 56.264 57.1478 55.6955 57.7163C55.127 58.2848 54.356 58.6041 53.5521 58.6041C52.7481 58.6041 51.9771 58.2848 51.4087 57.7163C50.8402 57.1478 50.5208 56.3768 50.5208 55.5729V41.4271C50.5208 40.6231 50.8402 39.8521 51.4087 39.2836C51.9771 38.7152 52.7481 38.3958 53.5521 38.3958C54.356 38.3958 55.127 38.7152 55.6955 39.2836C56.264 39.8521 56.5833 40.6231 56.5833 41.4271ZM32.3333 43.4479V53.5521C32.3333 54.356 32.014 55.127 31.4455 55.6955C30.877 56.264 30.106 56.5833 29.3021 56.5833C28.4981 56.5833 27.7271 56.264 27.1587 55.6955C26.5902 55.127 26.2708 54.356 26.2708 53.5521V43.4479C26.2708 42.644 26.5902 41.873 27.1587 41.3045C27.7271 40.736 28.4981 40.4166 29.3021 40.4166C30.106 40.4166 30.877 40.736 31.4455 41.3045C32.014 41.873 32.3333 42.644 32.3333 43.4479Z" fill="#F8F8F8"/>
</svg>
