<svg width="73" height="80" viewBox="0 0 73 80" fill="none" xmlns="http://www.w3.org/2000/svg">
<path d="M36.4947 0C34.1709 0 31.8353 0.510805 30.0741 1.53387L6.42973 15.1946C2.89184 17.239 0 22.2517 0 26.3372V53.663C0 57.7494 2.89184 62.7637 6.42989 64.8071L30.0741 78.4706C31.8353 79.4906 34.1707 80 36.4947 80C38.8291 80 41.1632 79.4906 42.9246 78.4706L66.5688 64.8071C70.1015 62.7637 73 57.7494 73 53.663V26.337C73 22.2516 70.1015 17.2387 66.5688 15.1945L42.9244 1.53403C41.1632 0.510805 38.8291 0 36.4947 0ZM52.479 23.2859C53.1602 23.2859 53.8407 23.5443 54.3565 24.0622L57.2326 26.9375C58.2643 27.9743 58.2643 29.6695 57.2326 30.7053L32.0232 55.9391C30.9813 56.9739 29.2937 56.9739 28.262 55.9391L17.152 44.8241C16.1203 43.7894 16.3392 41.8762 17.152 41.0596L20.0293 38.1841C21.0612 37.1473 22.7592 37.1473 23.7907 38.1841L28.262 42.656C29.2937 43.6907 30.9813 43.6907 32.0232 42.656L50.5935 24.0622C51.0945 23.5639 51.7725 23.2847 52.4788 23.2859H52.479Z" fill="white"/>
</svg>
