<?xml version="1.0" encoding="iso-8859-1"?>
<!-- Generator: Adobe Illustrator 19.0.0, SVG Export Plug-In . SVG Version: 6.00 Build 0)  -->
<svg version="1.1" id="Layer_1" xmlns="http://www.w3.org/2000/svg" xmlns:xlink="http://www.w3.org/1999/xlink" x="0px" y="0px"
	 viewBox="0 0 511.998 511.998" style="enable-background:new 0 0 511.998 511.998;" xml:space="preserve">
<g>
	<path style="fill:#9AD14B;" d="M102.512,277.438c-5.357,6.032-11.508,11.25-18.247,15.504
		c-15.247,9.686-33.462,14.529-52.095,13.19c-6.29-0.461-12.633-1.618-18.922-3.536l-5.218-1.586l1.586-5.218
		c8.1-26.572,27.923-46.352,52.073-55.384c9.011-3.375,18.622-5.261,28.458-5.432l0.396,0.043c-0.171,1.618-0.161,3.268,0.021,4.939
		C92.001,252.954,95.987,265.716,102.512,277.438z"/>
	<path style="fill:#9AD14B;" d="M156.772,235.19c0.15,1.564,0.139,3.161-0.043,4.768c-1.521,13.833-5.936,27.397-13.243,39.73
		c-4.179,7.061-9.3,13.726-15.365,19.79l-4.468,4.479l-4.479-4.479c-6.707-6.707-12.268-14.143-16.661-22.04
		c-6.525-11.722-10.511-24.483-11.947-37.48c-0.182-1.671-0.193-3.322-0.021-4.939c1.039-10.597,9.161-19.554,20.079-21.119
		c4.254-0.611,8.604-0.921,13.029-0.921c4.414,0,8.765,0.311,13.018,0.921c5.089,0.729,9.579,3.075,13.018,6.44
		C153.664,224.218,156.247,229.468,156.772,235.19z"/>
</g>
<path style="fill:#90BC42;" d="M102.512,277.438c-5.357,6.032-11.508,11.25-18.247,15.504c-4.114-4.897-7.672-10.093-10.683-15.504
	c-6.45-11.583-10.415-24.183-11.893-37.03c9.011-3.375,18.622-5.261,28.458-5.432l0.396,0.043c-0.171,1.618-0.161,3.268,0.021,4.939
	C92.001,252.954,95.987,265.716,102.512,277.438z"/>
<g>
	<path style="fill:#9AD14B;" d="M234.292,295.792l1.586,5.218l-5.218,1.586c-5.218,1.586-10.479,2.657-15.708,3.236
		c-26.937,2.968-53.316-7.104-71.467-26.144c7.307-12.333,11.722-25.897,13.243-39.73c0.182-1.607,0.193-3.204,0.043-4.768
		l0.364-0.096C191.991,237.108,223.513,260.445,234.292,295.792z"/>
	<path style="fill:#9AD14B;" d="M476.113,166.884h27.848c0,89.864-72.849,162.703-162.703,162.703
		c-9.858,0-19.501-0.879-28.865-2.55c-1.811-8.047-3.814-18.129-5.572-29.733c10.993,2.893,22.533,4.436,34.437,4.436
		C415.735,301.739,476.113,241.362,476.113,166.884z"/>
</g>
<g>
	<path style="fill:#F95428;" d="M309.745,166.884h166.367c0,74.478-60.377,134.855-134.855,134.855
		c-11.904,0-23.444-1.543-34.437-4.436C301.592,262.695,298.624,214.586,309.745,166.884z"/>
	<path style="fill:#F95428;" d="M227.874,347.962c0.043,1.114,0.064,2.229,0.064,3.354c0,51.934-46.695,131.662-104.286,131.662
		c-57.602,0-104.297-79.728-104.297-131.662c0-16.383,4.639-31.769,12.815-45.184c26.862,1.929,52.856-8.99,70.342-28.694
		c4.393,7.897,9.954,15.333,16.661,22.04l4.479,4.479l4.468-4.479c6.065-6.065,11.186-12.729,15.365-19.79
		c18.151,19.04,44.53,29.112,71.467,26.144C222.667,318.401,227.285,332.726,227.874,347.962z"/>
</g>
<path style="fill:#E54728;" d="M53.639,330.35c0-9.007,1.224-17.749,3.506-26.116c-8.078,1.83-16.482,2.508-24.975,1.898
	c-8.175,13.415-12.815,28.801-12.815,45.184c0,51.934,46.695,131.662,104.297,131.662c8.44,0,16.644-1.723,24.503-4.81
	C94.073,458.466,53.639,382.38,53.639,330.35z"/>
<path style="fill:#F7B239;" d="M217.963,133.561c-0.836,0.407-9.075,4.168-28.662,2.4c-9.493-0.868-21.644-3.032-36.912-7.511
	c-48.58-14.261-40.491,26.058-40.491,26.058l-43.92-0.064L62.707,39.722l50.091-6.418v16.758
	c93.657-52.845,175.218,10.211,175.218,10.211l54.527-27.397c0,0,18.836,24.172,24.569,29.765
	c-31.437,30.108-48.688,67.053-57.367,104.243c-11.122,47.702-8.154,95.811-2.925,130.419c1.757,11.604,3.761,21.687,5.572,29.733
	c2.968,13.126,5.411,20.819,5.411,20.819s-44.38,0.075-89.928,0.107c-0.589-15.236-5.207-29.562-12.922-42.13
	c5.229-0.579,10.49-1.65,15.708-3.236l5.218-1.586l-1.586-5.218c-10.779-35.348-42.302-58.684-77.157-60.699l-0.364,0.096
	c-0.525-5.722-3.107-10.972-7.082-14.851c15.504-37.491,37.909-61.77,52.781-74.874
	C211.117,137.847,217.235,134.011,217.963,133.561z"/>
<g>
	<path style="fill:#FFFFFF;" d="M248.361,76.903c-1.325,0-2.67-0.329-3.91-1.021c-7.356-4.107-22.403-10.918-40.745-10.537
		c-4.394,0.118-8.113-3.42-8.21-7.858c-0.098-4.437,3.421-8.112,7.858-8.21c21.003-0.474,38.203,6.583,48.93,12.57
		c3.876,2.164,5.263,7.059,3.1,10.934C253.914,75.418,251.179,76.903,248.361,76.903z"/>
	<path style="fill:#FFFFFF;" d="M182.327,422.629c-1.445,0-2.908-0.39-4.227-1.208c-3.773-2.339-4.934-7.292-2.595-11.064
		c12.185-19.652,19.754-42.276,19.754-59.042c0-0.703-0.013-1.399-0.041-2.096c-0.178-4.601-0.949-9.147-2.294-13.511
		c-1.307-4.242,1.073-8.739,5.313-10.045c4.242-1.309,8.739,1.073,10.045,5.313c1.755,5.699,2.763,11.629,2.995,17.622
		c0.034,0.902,0.051,1.805,0.051,2.716c0,19.888-8.287,45.125-22.167,67.511C187.644,421.28,185.017,422.629,182.327,422.629z"/>
</g>
<g>
	<path style="fill:#333333;" d="M503.961,158.845H320.104c0.573-2.068,1.164-4.124,1.787-6.153
		c10.275-33.472,27.361-61.817,50.781-84.251c1.573-1.506,2.468-3.588,2.477-5.766c0.01-2.178-0.865-4.268-2.425-5.789
		c-4.38-4.273-18.695-22.349-23.841-28.952c-2.357-3.025-6.522-3.961-9.946-2.242l-50.219,25.232
		c-7.806-5.242-25.962-16.165-50.983-23.304c-28.326-8.082-70.701-12.491-116.9,9.245V33.3c0-2.309-0.993-4.508-2.727-6.032
		c-1.734-1.526-4.041-2.235-6.33-1.938l-50.091,6.418c-4.151,0.531-7.198,4.159-7.006,8.339l5.272,114.722
		c0.197,4.286,3.726,7.661,8.016,7.667l43.92,0.064c0.003,0,0.007,0,0.012,0c2.39,0,4.654-1.086,6.181-2.927
		c1.529-1.844,2.153-4.296,1.706-6.65c-0.021-0.111-1.964-11.329,3.637-16.404c4.428-4.015,13.912-4.159,26.705-0.403
		c14.092,4.134,27.026,6.759,38.452,7.804c1.149,0.104,2.264,0.19,3.346,0.259c-14.289,13.574-31.966,34.526-45.744,64.131
		c-2.604-1.152-5.405-1.978-8.367-2.403c-2.15-0.309-4.322-0.537-6.503-0.703c0.062-2.634,0.333-5.841,1.083-9.223
		c2.336-10.548,8.141-17.704,17.255-21.271c4.133-1.617,6.173-6.279,4.555-10.411c-1.617-4.133-6.277-6.173-10.411-4.555
		c-22.319,8.734-28.38,30.267-28.634,45.533c-1.903,0.161-3.799,0.361-5.679,0.63l0,0c-12.268,1.76-21.839,10.259-25.488,21.305
		c-38.209,3.12-70.746,29.089-82.059,66.203l-1.587,5.213c-0.621,2.039-0.406,4.241,0.597,6.121s2.712,3.285,4.751,3.907
		l5.209,1.586c2.928,0.893,5.881,1.619,8.846,2.214c-5.533,12.254-8.432,25.476-8.432,38.825c0,27.826,12.279,62.302,32.044,89.973
		c22.903,32.063,51.417,49.719,80.29,49.719c28.87,0,57.382-17.657,80.282-49.719c18.675-26.145,30.659-58.36,31.926-85.305
		c42.618-0.034,81.958-0.102,81.958-0.102c2.56-0.004,4.964-1.229,6.474-3.297c1.51-2.067,1.945-4.732,1.171-7.171
		c-0.036-0.116-1.013-3.237-2.452-8.773c6.057,0.643,12.159,0.973,18.247,0.973c94.146,0,170.739-76.593,170.739-170.739
		C511.997,162.443,508.399,158.845,503.961,158.845z M467.816,174.917C463.656,241.114,408.487,293.7,341.258,293.7
		c-9.195,0-18.332-0.999-27.24-2.945c-1.961-14.155-3.473-30.307-3.773-47.536c-0.423-24.266,1.59-47.14,5.978-68.302
		L467.816,174.917L467.816,174.917z M225.79,295.633c-25.716,6.915-52.752,0.321-72.357-17.466
		c5.484-10.679,9.189-22.252,10.867-34.214C192.531,248.436,216.446,268.34,225.79,295.633z M111.761,221.858
		c7.819-1.121,15.955-1.121,23.773,0c8.197,1.176,14.12,8.901,13.203,17.22c-2.24,20.327-10.905,38.784-25.09,53.488
		c-14.183-14.704-22.849-33.161-25.09-53.488C97.641,230.759,103.564,223.034,111.761,221.858z M82.934,243.498
		c1.539,11.321,4.877,22.306,9.837,32.518c-19.574,19.172-48.081,26.733-74.655,19.615
		C27.905,266.974,53.166,246.847,82.934,243.498z M190.855,431.953c-11.468,16.055-35.447,42.99-67.204,42.99
		c-31.762,0-55.743-26.935-67.211-42.99c-17.648-24.706-29.051-56.356-29.051-80.631c0-12.82,3.233-25.52,9.368-37.012
		c0.458,0.006,0.916,0.025,1.373,0.025c23.021,0,45.574-8.475,62.955-24.09c3.668,5.311,7.805,10.315,12.402,14.913l4.477,4.478
		c1.508,1.507,3.551,2.354,5.683,2.354s4.176-0.848,5.683-2.354l4.477-4.478c4.065-4.065,7.768-8.45,11.109-13.079
		c17.106,14.559,38.517,22.334,60.519,22.332c1.691,0,3.387-0.062,5.083-0.154c6.149,11.504,9.387,24.22,9.387,37.064
		C219.906,375.596,208.503,407.246,190.855,431.953z M235.261,339.918c-1.194-9.672-3.896-19.143-8.016-28.089
		c1.923-0.458,3.843-0.962,5.754-1.544l5.22-1.586c2.041-0.62,3.752-2.027,4.756-3.911c1.003-1.883,1.216-4.088,0.591-6.129
		l-1.592-5.203c-10.836-35.576-41.985-61.415-78.561-65.847c-0.999-3.145-2.471-6.088-4.352-8.735
		c14.531-32.913,34.353-54.721,48.722-67.382c8.03-7.075,13.676-10.646,14.387-11.087c0.621-0.374,1.194-0.829,1.689-1.349
		c2.753-2.89,2.929-7.341,0.466-10.481c-1.96-2.497-5.16-3.538-8.135-2.859c-0.222,0.049-0.441,0.109-0.659,0.179l-0.002-0.008
		c-0.398,0.129-0.783,0.287-1.154,0.474c-0.86,0.356-8.055,3.062-24.341,1.593c-10.383-0.949-22.287-3.378-35.381-7.22
		c-18.971-5.57-33.142-4.222-42.123,4.006c-6.882,6.305-8.789,15.056-9.099,21.714l-27.776-0.041l-4.579-99.668l33.687-4.316v7.627
		c0,2.857,1.517,5.499,3.984,6.94c2.468,1.441,5.514,1.464,8.002,0.059c36.714-20.715,75.74-25.474,115.992-14.148
		c30.401,8.555,50.175,23.574,50.36,23.718c2.446,1.891,5.76,2.21,8.524,0.823l48.657-24.448
		c4.194,5.309,10.688,13.437,15.74,19.344c-22.647,23.466-39.305,52.315-49.568,85.869c-8.788,28.73-12.917,60.937-12.269,95.724
		c0.8,43.056,8.624,78.935,13.021,95.894C292.583,339.855,264.661,339.894,235.261,339.918z M341.258,321.547
		c-7.407,0-14.835-0.538-22.153-1.584c-0.794-3.765-1.605-7.884-2.401-12.314c8.082,1.399,16.298,2.122,24.555,2.122
		c76.094,0,138.479-59.789,142.661-134.855h11.799C491.523,256.478,423.846,321.547,341.258,321.547z"/>
	<path style="fill:#333333;" d="M325.718,219.386c4.438,0,8.036-3.598,8.036-8.036v-13.853c0-4.438-3.598-8.036-8.036-8.036
		c-4.438,0-8.036,3.598-8.036,8.036v13.853C317.682,215.788,321.28,219.386,325.718,219.386z"/>
	<path style="fill:#333333;" d="M374.47,219.386c4.438,0,8.036-3.598,8.036-8.036v-13.853c0-4.438-3.598-8.036-8.036-8.036
		c-4.438,0-8.036,3.598-8.036,8.036v13.853C366.434,215.788,370.032,219.386,374.47,219.386z"/>
	<path style="fill:#333333;" d="M423.222,219.386c4.438,0,8.036-3.598,8.036-8.036v-13.853c0-4.438-3.598-8.036-8.036-8.036
		c-4.438,0-8.036,3.598-8.036,8.036v13.853C415.186,215.788,418.784,219.386,423.222,219.386z"/>
	<path style="fill:#333333;" d="M350.094,264.464c4.438,0,8.036-3.598,8.036-8.036v-13.852c0-4.438-3.598-8.036-8.036-8.036
		c-4.438,0-8.036,3.598-8.036,8.036v13.852C342.058,260.866,345.656,264.464,350.094,264.464z"/>
	<path style="fill:#333333;" d="M398.846,264.464c4.438,0,8.036-3.598,8.036-8.036v-13.852c0-4.438-3.598-8.036-8.036-8.036
		s-8.036,3.598-8.036,8.036v13.852C390.81,260.866,394.408,264.464,398.846,264.464z"/>
	<path style="fill:#333333;" d="M68.161,318.406c-4.438,0-8.036,3.598-8.036,8.036v15.565c0,4.438,3.598,8.036,8.036,8.036
		c4.438,0,8.036-3.598,8.036-8.036v-15.565C76.197,322.004,72.599,318.406,68.161,318.406z"/>
	<path style="fill:#333333;" d="M123.649,318.406c-4.438,0-8.036,3.598-8.036,8.036v15.565c0,4.438,3.598,8.036,8.036,8.036
		c4.438,0,8.036-3.598,8.036-8.036v-15.565C131.685,322.004,128.087,318.406,123.649,318.406z"/>
	<path style="fill:#333333;" d="M179.137,318.406c-4.438,0-8.036,3.598-8.036,8.036v15.565c0,4.438,3.598,8.036,8.036,8.036
		s8.036-3.598,8.036-8.036v-15.565C187.173,322.004,183.575,318.406,179.137,318.406z"/>
	<path style="fill:#333333;" d="M123.649,418.2c-4.438,0-8.036,3.598-8.036,8.036v15.565c0,4.438,3.598,8.036,8.036,8.036
		c4.438,0,8.036-3.598,8.036-8.036v-15.565C131.685,421.797,128.087,418.2,123.649,418.2z"/>
	<path style="fill:#333333;" d="M95.905,368.303c-4.438,0-8.036,3.598-8.036,8.036v15.565c0,4.438,3.598,8.036,8.036,8.036
		c4.438,0,8.036-3.598,8.036-8.036v-15.565C103.941,371.901,100.343,368.303,95.905,368.303z"/>
	<path style="fill:#333333;" d="M151.393,368.303c-4.438,0-8.036,3.598-8.036,8.036v15.565c0,4.438,3.598,8.036,8.036,8.036
		c4.438,0,8.036-3.598,8.036-8.036v-15.565C159.429,371.901,155.831,368.303,151.393,368.303z"/>
</g>
<g>
	<circle style="fill:#FFFFFF;" cx="451.718" cy="188.932" r="8.036"/>
	<circle style="fill:#FFFFFF;" cx="336.364" cy="62.316" r="8.036"/>
</g>
<g>
</g>
<g>
</g>
<g>
</g>
<g>
</g>
<g>
</g>
<g>
</g>
<g>
</g>
<g>
</g>
<g>
</g>
<g>
</g>
<g>
</g>
<g>
</g>
<g>
</g>
<g>
</g>
<g>
</g>
</svg>
