<svg width="30" height="30" xmlns="http://www.w3.org/2000/svg" xmlns:xlink="http://www.w3.org/1999/xlink">
  
 <g id="inst" width="30" height="30" viewBox="0 0 30 30" fill="none">
    <rect width="30" height="30" rx="5" fill="white"/>
    <g clip-path="url(#clip0_16_171)">
    <path d="M24.9804 10.8801C24.9336 9.81738 24.7617 9.0868 24.5156 8.45374C24.2616 7.78176 23.8709 7.18014 23.359 6.68002C22.8589 6.1721 22.2533 5.77743 21.5891 5.52745C20.9524 5.28127 20.2256 5.10943 19.163 5.06257C18.0923 5.01175 17.7525 5 15.0371 5C12.3217 5 11.9818 5.01175 10.9152 5.05861C9.85253 5.10546 9.12195 5.27746 8.48904 5.52348C7.81692 5.77743 7.2153 6.16814 6.71517 6.68002C6.20726 7.18014 5.81274 7.78573 5.5626 8.44992C5.31643 9.0868 5.14458 9.81341 5.09773 10.8761C5.04691 11.9467 5.03516 12.2866 5.03516 15.002C5.03516 17.7173 5.04691 18.0572 5.09376 19.1239C5.14061 20.1865 5.31261 20.9171 5.55879 21.5502C5.81274 22.2221 6.20726 22.8238 6.71517 23.3239C7.2153 23.8318 7.82088 24.2265 8.48507 24.4765C9.12195 24.7226 9.84856 24.8945 10.9114 24.9413C11.9779 24.9883 12.3179 24.9999 15.0333 24.9999C17.7486 24.9999 18.0885 24.9883 19.1552 24.9413C20.2178 24.8945 20.9484 24.7226 21.5813 24.4765C22.9254 23.9568 23.9881 22.8941 24.5078 21.5502C24.7538 20.9133 24.9258 20.1865 24.9726 19.1239C25.0195 18.0572 25.0312 17.7173 25.0312 15.002C25.0312 12.2866 25.0273 11.9467 24.9804 10.8801ZM23.1794 19.0457C23.1364 20.0225 22.9723 20.5499 22.8355 20.9015C22.4995 21.7728 21.808 22.4643 20.9367 22.8004C20.585 22.9372 20.0538 23.1012 19.0808 23.1441C18.026 23.1911 17.7096 23.2027 15.0411 23.2027C12.3725 23.2027 12.0522 23.1911 11.0011 23.1441C10.0244 23.1012 9.49693 22.9372 9.1453 22.8004C8.71171 22.6402 8.31704 22.3862 7.9967 22.0541C7.6646 21.7298 7.41065 21.3391 7.2504 20.9055C7.11365 20.5539 6.94959 20.0225 6.9067 19.0497C6.8597 17.9948 6.8481 17.6783 6.8481 15.0097C6.8481 12.3412 6.8597 12.0209 6.9067 10.9699C6.94959 9.99319 7.11365 9.46575 7.2504 9.11412C7.41065 8.68038 7.6646 8.28586 8.00067 7.96536C8.32483 7.63327 8.71553 7.37931 9.14927 7.21921C9.5009 7.08247 10.0323 6.9184 11.0051 6.87537C12.06 6.82851 12.3765 6.81676 15.0449 6.81676C17.7174 6.81676 18.0337 6.82851 19.0848 6.87537C20.0616 6.9184 20.589 7.08247 20.9406 7.21921C21.3742 7.37931 21.7689 7.63327 22.0892 7.96536C22.4213 8.28967 22.6753 8.68038 22.8355 9.11412C22.9723 9.46575 23.1364 9.99701 23.1794 10.9699C23.2262 12.0248 23.238 12.3412 23.238 15.0097C23.238 17.6783 23.2262 17.9908 23.1794 19.0457Z" fill="#17181C"/>
    <path d="M15.0371 9.86426C12.2007 9.86426 9.89941 12.1654 9.89941 15.002C9.89941 17.8385 12.2007 20.1397 15.0371 20.1397C17.8737 20.1397 20.1749 17.8385 20.1749 15.002C20.1749 12.1654 17.8737 9.86426 15.0371 9.86426ZM15.0371 18.3347C13.197 18.3347 11.7044 16.8422 11.7044 15.002C11.7044 13.1617 13.197 11.6693 15.0371 11.6693C16.8774 11.6693 18.3698 13.1617 18.3698 15.002C18.3698 16.8422 16.8774 18.3347 15.0371 18.3347Z" fill="#17181C"/>
    <path d="M21.5775 9.66085C21.5775 10.3232 21.0404 10.8603 20.3779 10.8603C19.7155 10.8603 19.1785 10.3232 19.1785 9.66085C19.1785 8.99834 19.7155 8.46143 20.3779 8.46143C21.0404 8.46143 21.5775 8.99834 21.5775 9.66085Z" fill="#17181C"/>
    </g>
    <defs>
    <clipPath id="clip0_16_171">
    <rect width="20" height="20" fill="white" transform="translate(5 5)"/>
    </clipPath>
    </defs>
  </g>

  <g id="mail" width="30" height="30" viewBox="0 0 30 30" fill="none">
    <rect width="30" height="30" rx="5" fill="white"/>
    <path d="M8.33329 8.3335H21.6666C22.5833 8.3335 23.3333 9.0835 23.3333 10.0002V20.0002C23.3333 20.9168 22.5833 21.6668 21.6666 21.6668H8.33329C7.41663 21.6668 6.66663 20.9168 6.66663 20.0002V10.0002C6.66663 9.0835 7.41663 8.3335 8.33329 8.3335Z" stroke="#17181C" stroke-width="2" stroke-linecap="round" stroke-linejoin="round"/>
    <path d="M23.3333 10L15 15.8333L6.66663 10" stroke="#17181C" stroke-width="2" stroke-linecap="round" stroke-linejoin="round"/>
  </g>

  <g id="phone" width="30" height="30" viewBox="0 0 30 30" fill="none">
    <rect width="30" height="30" rx="5" fill="white"/>
    <g clip-path="url(#clip0_16_177)">
    <path d="M17.5418 9.16683C18.3557 9.32563 19.1038 9.72371 19.6902 10.3101C20.2766 10.8965 20.6746 11.6446 20.8334 12.4585M17.5418 5.8335C19.2328 6.02136 20.8098 6.77864 22.0136 7.981C23.2175 9.18336 23.9768 10.7593 24.1668 12.4502M23.3334 19.1002V21.6002C23.3344 21.8322 23.2868 22.062 23.1939 22.2746C23.1009 22.4873 22.9645 22.6782 22.7935 22.835C22.6225 22.9919 22.4206 23.1114 22.2007 23.1858C21.9809 23.2601 21.7479 23.2877 21.5168 23.2668C18.9525 22.9882 16.4893 22.1119 14.3251 20.7085C12.3116 19.429 10.6046 17.722 9.32511 15.7085C7.91676 13.5345 7.04031 11.0593 6.76677 8.4835C6.74595 8.25305 6.77334 8.0208 6.84719 7.80152C6.92105 7.58224 7.03975 7.38074 7.19575 7.20985C7.35174 7.03896 7.54161 6.90242 7.75327 6.80893C7.96492 6.71544 8.19372 6.66705 8.42511 6.66683H10.9251C11.3295 6.66285 11.7216 6.80606 12.0282 7.06977C12.3349 7.33349 12.5352 7.6997 12.5918 8.10016C12.6973 8.90022 12.893 9.68577 13.1751 10.4418C13.2872 10.7401 13.3115 11.0643 13.245 11.3759C13.1786 11.6875 13.0242 11.9736 12.8001 12.2002L11.7418 13.2585C12.9281 15.3448 14.6555 17.0722 16.7418 18.2585L17.8001 17.2002C18.0267 16.9761 18.3127 16.8217 18.6244 16.7552C18.936 16.6888 19.2602 16.713 19.5584 16.8252C20.3145 17.1073 21.1001 17.303 21.9001 17.4085C22.3049 17.4656 22.6746 17.6695 22.9389 17.9814C23.2032 18.2933 23.3436 18.6915 23.3334 19.1002Z" stroke="#17181C" stroke-width="2" stroke-linecap="round" stroke-linejoin="round"/>
    </g>
    <defs>
    <clipPath id="clip0_16_177">
    <rect width="20" height="20" fill="white" transform="translate(5 5)"/>
    </clipPath>
    </defs>
  </g>

  <g id="telega" width="30" height="30" viewBox="0 0 30 30" fill="none">
    <rect width="30" height="30" rx="5" fill="white"/>
    <g clip-path="url(#clip0_16_165)">
    <path d="M12.8475 17.6505L12.5167 22.3039C12.99 22.3039 13.195 22.1005 13.4409 21.8564L15.66 19.7355L20.2583 23.103C21.1017 23.573 21.6958 23.3255 21.9233 22.3272L24.9417 8.18385L24.9425 8.18302C25.21 6.93635 24.4917 6.44885 23.67 6.75469L5.92836 13.5472C4.71753 14.0172 4.73586 14.6922 5.72253 14.998L10.2584 16.4089L20.7942 9.81635C21.29 9.48802 21.7408 9.66969 21.37 9.99802L12.8475 17.6505Z" fill="#17181C"/>
    </g>
    <defs>
    <clipPath id="clip0_16_165">
    <rect width="20" height="20" fill="white" transform="translate(5 5)"/>
    </clipPath>
    </defs>
  </g>

  <g id="vk" width="30" height="30" viewBox="0 0 30 30" fill="none">
    <rect width="30" height="30" rx="5" fill="white"/>
    <g clip-path="url(#clip0_16_168)">
    <path d="M21.5958 15.857C21.2725 15.4487 21.365 15.267 21.5958 14.902C21.6 14.8978 24.2692 11.2095 24.5442 9.95866L24.5458 9.95783C24.6825 9.50199 24.5458 9.16699 23.885 9.16699H21.6983C21.1417 9.16699 20.885 9.45449 20.7475 9.77616C20.7475 9.77616 19.6342 12.4412 18.0592 14.1687C17.5508 14.6678 17.3158 14.8278 17.0383 14.8278C16.9017 14.8278 16.6892 14.6678 16.6892 14.212V9.95783C16.6892 9.41116 16.5333 9.16699 16.0725 9.16699H12.6342C12.285 9.16699 12.0775 9.42199 12.0775 9.65949C12.0775 10.1778 12.865 10.297 12.9467 11.7553V14.9195C12.9467 15.6128 12.8208 15.7403 12.5417 15.7403C11.7983 15.7403 9.99417 13.0645 8.925 10.002C8.70917 9.40783 8.49833 9.16783 7.9375 9.16783H5.75C5.12583 9.16783 5 9.45533 5 9.77699C5 10.3453 5.74333 13.1712 8.45667 16.9045C10.265 19.4528 12.8117 20.8337 15.1283 20.8337C16.5208 20.8337 16.6908 20.527 16.6908 19.9995C16.6908 17.5645 16.565 17.3345 17.2625 17.3345C17.5858 17.3345 18.1425 17.4945 19.4425 18.7237C20.9283 20.1812 21.1725 20.8337 22.0042 20.8337H24.1908C24.8142 20.8337 25.13 20.527 24.9483 19.922C24.5325 18.6495 21.7225 16.032 21.5958 15.857Z" fill="#17181C"/>
    </g>
    <defs>
    <clipPath id="clip0_16_168">
    <rect width="20" height="20" fill="white" transform="translate(5 5)"/>
    </clipPath>
    </defs>
  </g>

</svg>