<svg width="67" height="62" viewBox="0 0 67 62" fill="none" xmlns="http://www.w3.org/2000/svg">
<g clip-path="url(#clip0_1_49)">
<path d="M67 9.6875C67 11.8684 65.1287 13.8773 61.975 15.5C58.167 17.4496 52.5008 18.8301 45.9709 19.2418C45.4998 19.0359 45.0025 18.8301 44.5053 18.6363C39.3363 16.6383 32.4793 15.5 25.125 15.5C24.0389 15.5 22.9789 15.5242 21.9189 15.5727L21.775 15.5C18.6213 13.8773 16.75 11.8684 16.75 9.6875C16.75 4.33758 27.8861 0 41.875 0C55.7461 0 67 4.33758 67 9.6875ZM21.0291 19.5082C22.3639 19.4234 23.7248 19.375 25.125 19.375C33.2645 19.375 40.4879 20.8645 45.0811 23.1773C48.3264 24.8121 50.25 26.8465 50.25 29.0625C50.25 29.4379 50.1584 30.0191 49.9752 30.4793C49.3732 32.0777 47.6459 33.543 45.3951 34.7902C45.382 34.7902 45.3559 34.8023 45.3428 34.8145C45.3035 34.8387 45.2643 34.8508 45.225 34.875C40.6449 37.2242 33.343 38.75 25.125 38.75C17.3258 38.75 10.3457 37.3816 5.73688 35.2262C5.49217 35.1051 5.254 34.8871 5.02369 34.875C1.86867 33.2523 0 31.2422 0 29.0625C0 24.8484 6.99182 21.252 16.75 19.932C18.124 19.7383 19.5504 19.593 21.0291 19.5082ZM51.2838 22.5961C54.9871 22.0633 58.3764 21.2156 61.2553 20.1137C63.3883 19.2902 65.3643 18.273 67 17.0258V21.3125C67 23.6496 64.8408 25.8051 61.2684 27.4762C59.3447 28.3723 57.0285 29.123 54.4113 29.7043C54.4244 29.4984 54.4375 29.2805 54.4375 29.0625C54.4375 26.4105 53.0504 24.2309 51.2838 22.5961ZM50.25 40.6875C50.25 42.8672 48.3787 44.8773 45.225 46.5C44.9895 46.5121 44.7539 46.7301 44.5184 46.8512C39.899 49.0066 32.9242 50.375 25.125 50.375C16.907 50.375 9.60769 48.8492 5.02369 46.5C1.86867 44.8773 0 42.8672 0 40.6875V36.4008C1.6292 37.648 3.61434 38.6652 5.74865 39.4887C10.9189 41.4867 17.7707 42.625 25.125 42.625C32.4793 42.625 39.3363 41.4867 44.5053 39.4887C45.526 39.1012 46.5074 38.6531 47.4365 38.1688C48.2348 37.757 48.9807 37.2969 49.6873 36.8125C49.8836 36.6793 50.0668 36.534 50.25 36.4008V40.6875ZM54.4375 33.6762C56.8061 33.0707 59.2139 32.5258 61.2553 31.7387C63.3883 30.9152 65.3643 29.898 67 28.6508V32.9375C67 34.209 66.3457 35.4805 65.0502 36.6793C62.9172 38.6531 59.1615 40.2758 54.4113 41.3293C54.4244 41.1234 54.4375 40.9055 54.4375 40.6875V33.6762ZM25.125 54.25C32.4793 54.25 39.3363 53.1117 44.5053 51.1137C46.6383 50.2902 48.6143 49.273 50.25 48.0258V52.3125C50.25 57.6648 38.9961 62 25.125 62C11.2487 62 0 57.6648 0 52.3125V48.0258C1.6292 49.273 3.61434 50.2902 5.74865 51.1137C10.9189 53.1117 17.7707 54.25 25.125 54.25Z" fill="#FFEC00"/>
</g>
<defs>
<clipPath id="clip0_1_49">
<rect width="67" height="62" fill="white"/>
</clipPath>
</defs>
</svg>
