<svg width="96" height="64" viewBox="0 0 96 64" fill="none" xmlns="http://www.w3.org/2000/svg">
<path d="M77.4 24.16C76.0564 17.3509 72.3904 11.2194 67.0283 6.81298C61.6661 2.40653 54.9404 -0.00156897 48 7.66947e-07C36.44 7.66947e-07 26.4 6.56 21.4 16.16C15.5209 16.7953 10.084 19.5808 6.13396 23.9813C2.18388 28.3817 -0.000686807 34.0867 1.61971e-07 40C1.61971e-07 53.24 10.76 64 24 64H76C87.04 64 96 55.04 96 44C96 33.44 87.8 24.88 77.4 24.16ZM68 36L48 56L28 36H40V20H56V36H68Z" fill="white"/>
</svg>
