<svg width="86" height="64" xmlns="http://www.w3.org/2000/svg" xmlns:xlink="http://www.w3.org/1999/xlink">
  
<g id="i-1" width="68" height="66" viewBox="0 0 68 66" xmlns="http://www.w3.org/2000/svg">
  <g clip-path="url(#clip0_7_34)">
  <path d="M50.393 0.00398661C40.438 -0.212013 32.146 7.63799 31.9 17.512L31.776 22.483C31.742 23.839 32.833 24.973 34.2 25.003C35.567 25.032 36.713 23.947 36.746 22.591L36.871 17.62C37.049 10.471 43.062 4.77799 50.271 4.93399C57.478 5.09099 63.201 11.038 63.023 18.187C62.844 25.335 56.831 31.029 49.623 30.872L18.5 30.197C8.54499 29.981 0.252987 37.831 0.00698678 47.705C-0.240013 57.579 7.65099 65.78 17.607 65.995C27.562 66.211 35.854 58.362 36.1 48.488L36.223 43.572C36.257 42.215 35.166 41.082 33.799 41.052C32.432 41.022 31.286 42.108 31.252 43.464L31.129 48.38C30.951 55.529 24.938 61.222 17.729 61.066C10.522 60.909 4.79899 54.962 4.97699 47.813C5.15599 40.664 11.169 34.971 18.377 35.127L49.5 35.802C59.456 36.018 67.747 28.169 67.994 18.295C68.24 8.41999 60.349 0.219987 50.394 0.00498661L50.393 0.00398661Z"/>
  </g>
  <defs>
  <clipPath id="clip0_7_34">
  <rect width="68" height="66" fill="white"/>
  </clipPath>
  </defs>
</g>

<g id="i-1_2" width="42" height="42" viewBox="0 0 42 42" xmlns="http://www.w3.org/2000/svg">
  <g clip-path="url(#clip0_48068_53)">
  <path d="M31.1251 0.00276999C24.9762 -0.134685 19.8546 4.86079 19.7026 11.1443L19.626 14.3077C19.605 15.1706 20.2789 15.8922 21.1232 15.9113C21.9676 15.9297 22.6754 15.2393 22.6958 14.3764L22.773 11.213C22.883 6.66362 26.597 3.04078 31.0497 3.14006C35.5012 3.23997 39.0361 7.02444 38.9261 11.5738C38.8156 16.1226 35.1016 19.746 30.6495 19.6461L11.4259 19.2166C5.27709 19.0791 0.155431 24.0746 0.0034861 30.3581C-0.149077 36.6416 4.7249 41.8604 10.8744 41.9972C17.0232 42.1347 22.1449 37.1398 22.2968 30.8564L22.3728 27.728C22.3938 26.8644 21.7199 26.1434 20.8756 26.1243C20.0312 26.1052 19.3234 26.7963 19.3024 27.6593L19.2264 30.7876C19.1165 35.337 15.4024 38.9599 10.9497 38.8606C6.49821 38.7607 2.96333 34.9762 3.07327 30.4268C3.18383 25.8774 6.89784 22.2546 11.35 22.3539L30.5735 22.7834C36.7229 22.9209 41.844 17.926 41.9965 11.6425C42.1485 5.35843 37.2745 0.140225 31.1257 0.00340636L31.1251 0.00276999Z"/>
  </g>
  <defs>
  <clipPath id="clip0_48068_53">
  <rect width="42" height="42" fill="white"/>
  </clipPath>
  </defs>
</g>

<g id="i-2" width="86" height="64" viewBox="0 0 86 64" xmlns="http://www.w3.org/2000/svg">
  <path d="M79.622 20.272C79.622 22.336 79.316 24.352 78.726 26.27H83.868C85.045 26.27 86 27.227 86 28.406C86 29.586 85.045 30.541 83.868 30.541H77.47C77.268 30.541 77.073 30.513 76.888 30.461C76.0053 31.9743 74.9311 33.3675 73.692 34.606L44.972 63.374C44.7741 63.5725 44.539 63.73 44.2802 63.8375C44.0213 63.9449 43.7438 64.0002 43.4635 64.0002C43.1832 64.0002 42.9057 63.9449 42.6468 63.8375C42.388 63.73 42.1529 63.5725 41.955 63.374L13.233 34.606C12.1963 33.5688 11.2752 32.422 10.486 31.186C10.315 31.23 10.136 31.254 9.95 31.254H2.132C1.85176 31.2537 1.57431 31.1983 1.31551 31.0908C1.0567 30.9833 0.821595 30.8259 0.623621 30.6276C0.425646 30.4292 0.268677 30.1938 0.161676 29.9348C0.0546755 29.6758 -0.000261829 29.3983 9.38171e-07 29.118C9.38171e-07 27.938 0.955001 26.982 2.132 26.982H8.447C5.965 19.861 7.56 11.618 13.233 5.93801C15.1066 4.05015 17.3363 2.55313 19.793 1.5338C22.2497 0.514473 24.8843 -0.00687342 27.544 1.15198e-05C32.95 1.15198e-05 38.034 2.10901 41.856 5.93801L43.463 7.54701L45.07 5.93701C46.9438 4.04921 49.1737 2.55231 51.6306 1.53315C54.0874 0.513987 56.7222 -0.0071368 59.382 1.15198e-05C62.0417 -0.00681806 64.6763 0.514553 67.133 1.53388C69.5896 2.55321 71.8194 4.0502 73.693 5.93801C75.5791 7.8172 77.0741 10.0515 78.0918 12.5117C79.1094 14.972 79.6295 17.6096 79.622 20.272ZM70.678 8.95701C69.1987 7.46697 67.4383 6.28548 65.4989 5.48108C63.5595 4.67667 61.4796 4.26536 59.38 4.27101C57.2807 4.26563 55.2012 4.67706 53.2622 5.48146C51.3231 6.28586 49.563 7.46721 48.084 8.95701L44.969 12.077C44.7713 12.2754 44.5364 12.4329 44.2777 12.5403C44.019 12.6478 43.7416 12.7031 43.4615 12.7031C43.1814 12.7031 42.904 12.6478 42.6453 12.5403C42.3866 12.4329 42.1517 12.2754 41.954 12.077L38.84 8.95701C37.3608 7.46718 35.6005 6.28582 33.6613 5.48142C31.7221 4.67703 29.6424 4.26561 27.543 4.27101C25.4437 4.26546 23.3642 4.67682 21.4251 5.48123C19.486 6.28564 17.7259 7.46708 16.247 8.95701C11.173 14.04 10.232 21.718 13.425 27.763H28.236L33.538 16.479C33.783 15.959 34.277 15.634 34.891 15.663C35.1717 15.6764 35.4421 15.7726 35.6681 15.9396C35.8942 16.1065 36.0657 16.3367 36.161 16.601L44.051 38.487L50.542 20.168C50.6364 19.9007 50.8086 19.6678 51.0365 19.4992C51.2643 19.3306 51.5374 19.2341 51.8206 19.2221C52.1038 19.21 52.3842 19.283 52.6255 19.4316C52.8669 19.5802 53.0583 19.7977 53.175 20.056L56.351 27.051H73.852C76.612 21.125 75.554 13.842 70.677 8.95701H70.678ZM16.248 31.586L43.463 58.844L70.678 31.586C71.2253 31.038 71.7323 30.4512 72.195 29.83H55.736C55.179 29.83 54.373 29.573 54.143 29.064L52.046 24.444L45.404 43.189C45.204 43.755 44.67 44.135 44.069 44.136H44.066C43.466 44.136 42.933 43.76 42.729 43.196L34.653 20.798L30.426 29.794C30.192 30.292 29.99 30.541 29.439 30.541H15.293C15.593 30.901 15.912 31.249 16.248 31.586Z"/>
</g>

<g id="i-2_2" width="56" height="42" viewBox="0 0 56 42" xmlns="http://www.w3.org/2000/svg">
  <g clip-path="url(#clip0_48068_71)">
  <path d="M51.8469 13.3035C51.8469 14.658 51.6476 15.981 51.2634 17.2397H54.6117C55.3781 17.2397 56 17.8677 56 18.6414C56 19.4158 55.3781 20.0425 54.6117 20.0425H50.4456C50.314 20.0425 50.1871 20.0241 50.0666 19.99C49.4918 20.9831 48.7923 21.8974 47.9855 22.7102L29.2841 41.5892C29.1552 41.7194 29.0022 41.8228 28.8336 41.8933C28.665 41.9638 28.4843 42.0001 28.3018 42.0001C28.1193 42.0001 27.9386 41.9638 27.77 41.8933C27.6015 41.8228 27.4484 41.7194 27.3195 41.5892L8.61684 22.7102C7.94177 22.0295 7.34201 21.2769 6.82809 20.4658C6.71674 20.4947 6.60019 20.5104 6.47907 20.5104H1.38828C1.2058 20.5103 1.02514 20.4739 0.856609 20.4033C0.688083 20.3328 0.534992 20.2295 0.406079 20.0993C0.277165 19.9692 0.174953 19.8147 0.105278 19.6447C0.0356027 19.4747 -0.000170493 19.2926 6.10902e-07 19.1087C6.10902e-07 18.3343 0.621861 17.7069 1.38828 17.7069H5.50037C3.88419 13.0338 4.92279 7.6243 8.61684 3.8968C9.83682 2.65789 11.2888 1.67547 12.8885 1.00654C14.4881 0.337602 16.2037 -0.00453166 17.9356 -1.3421e-05C21.4558 -1.3421e-05 24.7663 1.38402 27.2551 3.8968L28.3015 4.95271L29.3479 3.89614C30.568 2.65728 32.0201 1.67493 33.6199 1.00611C35.2197 0.337283 36.9354 -0.0047045 38.6674 -1.3421e-05C40.3993 -0.00449534 42.1148 0.337655 43.7145 1.00659C45.3142 1.67552 46.7661 2.65792 47.9861 3.8968C49.2143 5.13001 50.1878 6.59625 50.8505 8.21081C51.5131 9.82538 51.8518 11.5563 51.8469 13.3035ZM46.0229 5.87802C45.0596 4.90018 43.9133 4.12483 42.6504 3.59694C41.3876 3.06904 40.0332 2.79912 38.666 2.80283C37.2991 2.7993 35.945 3.0693 34.6823 3.59719C33.4197 4.12507 32.2736 4.90034 31.3105 5.87802L29.2821 7.92552C29.1534 8.05574 29.0004 8.15907 28.832 8.22957C28.6635 8.30008 28.4829 8.33637 28.3005 8.33637C28.1181 8.33637 27.9375 8.30008 27.7691 8.22957C27.6006 8.15907 27.4476 8.05574 27.3189 7.92552L25.2912 5.87802C24.328 4.90032 23.1817 4.12505 21.919 3.59716C20.6562 3.06928 19.3021 2.79928 17.935 2.80283C16.568 2.79919 15.2139 3.06914 13.9512 3.59704C12.6886 4.12493 11.5425 4.90025 10.5794 5.87802C7.27544 9.21374 6.6627 14.2524 8.74186 18.2195H18.3862L21.8387 10.8143C21.9982 10.4731 22.3199 10.2598 22.7197 10.2788C22.9025 10.2876 23.0786 10.3508 23.2258 10.4603C23.3729 10.5699 23.4846 10.7209 23.5467 10.8944L28.6844 25.2571L32.9111 13.2352C32.9725 13.0598 33.0847 12.907 33.233 12.7963C33.3814 12.6857 33.5593 12.6224 33.7437 12.6145C33.9281 12.6065 34.1106 12.6544 34.2678 12.752C34.425 12.8495 34.5496 12.9922 34.6256 13.1617L36.6937 17.7522H48.0897C49.8869 13.8633 49.198 9.0838 46.0222 5.87802H46.0229ZM10.5801 20.7283L28.3015 38.6164L46.0229 20.7283C46.3793 20.3687 46.7094 19.9836 47.0107 19.5759H36.2932C35.9305 19.5759 35.4057 19.4073 35.2559 19.0732L33.8904 16.0414L29.5654 28.3428C29.4352 28.7142 29.0874 28.9636 28.6961 28.9642H28.6941C28.3034 28.9642 27.9564 28.7175 27.8235 28.3474L22.5647 13.6487L19.8123 19.5523C19.6599 19.8791 19.5284 20.0425 19.1696 20.0425H9.95823C10.1536 20.2788 10.3613 20.5071 10.5801 20.7283Z"/>
  </g>
  <defs>
  <clipPath id="clip0_48068_71">
  <rect width="56" height="42" fill="white"/>
  </clipPath>
  </defs>
</g>

<g id="i-3" width="64" height="64" viewBox="0 0 64 64" xmlns="http://www.w3.org/2000/svg">
  <g clip-path="url(#clip0_7_58)">
  <path d="M63.8101 15.073L53.3321 48.146L53.5791 48.926C53.7393 49.4264 53.7986 49.9537 53.7536 50.4772C53.7086 51.0008 53.5603 51.5102 53.3171 51.976C52.9241 52.732 52.3171 53.329 51.5701 53.704L51.5611 53.737L49.1941 61.207C48.8722 62.2171 48.1632 63.0585 47.2223 63.5469C46.2815 64.0354 45.1853 64.131 44.1741 63.813L32.0001 59.957L19.8261 63.813C18.8148 64.131 17.7187 64.0354 16.7778 63.5469C15.8369 63.0585 15.1279 62.2171 14.8061 61.207L0.188058 15.074C0.0280711 14.5735 -0.0310613 14.0462 0.0140824 13.5227C0.0592262 12.9991 0.20775 12.4897 0.451058 12.024C0.69167 11.5566 1.02267 11.1416 1.42487 10.8031C1.82706 10.4646 2.29245 10.2093 2.79406 10.052L33.9431 0.187C34.9542 -0.131631 36.0504 -0.0363451 36.9915 0.451969C37.9325 0.940283 38.6415 1.78178 38.9631 2.792L39.0401 3.034C39.0491 3.036 39.0581 3.037 39.0661 3.04L61.2061 10.053C61.7073 10.2103 62.1723 10.4654 62.5743 10.8035C62.9763 11.1417 63.3073 11.5561 63.5481 12.023C64.0401 12.973 64.1331 14.055 63.8101 15.073ZM48.4441 54.75L36.4161 58.559L44.9781 61.271C45.3153 61.3777 45.6811 61.3463 45.9951 61.1835C46.3092 61.0208 46.5458 60.7401 46.6531 60.403L48.4441 54.75ZM51.0371 49.732L36.4211 3.598C36.3142 3.26106 36.078 2.98029 35.7644 2.81736C35.4507 2.65442 35.0852 2.62264 34.7481 2.729L3.60006 12.595C3.26006 12.702 2.98306 12.935 2.81906 13.252C2.73787 13.4073 2.68829 13.5771 2.67319 13.7517C2.65808 13.9263 2.67775 14.1021 2.73106 14.269L17.3471 60.402C17.5691 61.103 18.3201 61.492 19.0211 61.271L31.5611 57.299C31.5891 57.289 31.6171 57.279 31.6461 57.272L50.1691 51.405C50.5091 51.298 50.7861 51.065 50.9491 50.748C51.1141 50.432 51.1451 50.071 51.0371 49.731V49.732ZM48.4971 32.885L53.4461 17.265L42.4451 13.781L48.4971 32.885ZM61.1801 13.25C61.0998 13.0945 60.9896 12.9565 60.8557 12.8439C60.7218 12.7313 60.567 12.6464 60.4001 12.594L40.0231 6.14L41.4691 10.701C41.5571 10.711 41.6451 10.729 41.7321 10.757L54.2501 14.722C54.5841 14.8269 54.894 14.9969 55.1619 15.2223C55.4299 15.4477 55.6505 15.7239 55.8111 16.035C55.9734 16.3456 56.0726 16.6852 56.1028 17.0344C56.133 17.3835 56.0937 17.7352 55.9871 18.069L49.8951 37.297L51.9331 43.731L61.2681 14.267C61.3751 13.927 61.3441 13.567 61.1801 13.25ZM30.9401 23.336C31.5152 23.6323 32.0259 24.0398 32.4425 24.5349C32.8591 25.0299 33.1733 25.6027 33.3671 26.22C33.5725 26.8654 33.633 27.5483 33.5443 28.2198C33.4557 28.8913 33.22 29.535 32.8541 30.105L29.6411 35.126C29.3916 35.5142 29.0489 35.8336 28.6441 36.0552C28.2393 36.2767 27.7855 36.3932 27.3241 36.394C26.9701 36.394 26.6161 36.326 26.2841 36.19L20.7651 33.936C20.1378 33.6806 19.5745 33.29 19.1154 32.792C18.6563 32.2941 18.3127 31.701 18.1091 31.055C17.9119 30.4388 17.8389 29.7897 17.8943 29.1451C17.9498 28.5006 18.1326 27.8734 18.4321 27.3C18.7284 26.7249 19.1359 26.2142 19.631 25.7976C20.126 25.3811 20.6988 25.0668 21.3161 24.873C22.3839 24.5378 23.5338 24.5745 24.5781 24.977C25.1998 24.0462 26.1189 23.3539 27.1851 23.013C27.8013 22.8161 28.4504 22.7433 29.0949 22.7987C29.7394 22.8541 30.3665 23.0368 30.9401 23.336ZM30.8251 27.025C30.7361 26.742 30.5919 26.4795 30.4009 26.2526C30.2098 26.0257 29.9757 25.8389 29.7121 25.703C29.4491 25.5656 29.1615 25.4818 28.8659 25.4564C28.5703 25.431 28.2726 25.4645 27.9901 25.555C27.6178 25.6716 27.2823 25.8833 27.0168 26.1692C26.7513 26.455 26.565 26.8051 26.4761 27.185C26.4221 27.4083 26.3114 27.6139 26.1547 27.7819C25.998 27.9499 25.8006 28.0747 25.5816 28.1441C25.3626 28.2135 25.1294 28.2251 24.9045 28.178C24.6797 28.1309 24.4708 28.0265 24.2981 27.875C24.0064 27.6158 23.6523 27.4371 23.2705 27.3565C22.8888 27.2758 22.4926 27.296 22.1211 27.415C21.838 27.5042 21.5755 27.6487 21.3488 27.8401C21.122 28.0315 20.9355 28.266 20.8001 28.53C20.6627 28.793 20.5789 29.0806 20.5535 29.3762C20.5281 29.6718 20.5616 29.9694 20.6521 30.252C20.8271 30.805 21.2371 31.249 21.7751 31.469L27.2931 33.723C27.3114 33.731 27.3322 33.7317 27.3511 33.725C27.3696 33.7194 27.3856 33.7074 27.3961 33.691L30.6091 28.669C30.9231 28.179 31.0021 27.581 30.8261 27.027L30.8251 27.025ZM44.1721 40.932C44.2788 41.2656 44.3183 41.6171 44.2882 41.966C44.2582 42.315 44.1592 42.6545 43.9971 42.965C43.8365 43.2764 43.6158 43.5529 43.3477 43.7785C43.0796 44.004 42.7694 44.1742 42.4351 44.279L21.2401 50.994C20.5659 51.2062 19.835 51.1426 19.2077 50.817C18.5803 50.4914 18.1076 49.9305 17.8931 49.257L8.01306 18.07C7.90624 17.7362 7.8667 17.3846 7.89674 17.0355C7.92678 16.6863 8.0258 16.3466 8.18806 16.036C8.34862 15.7249 8.56923 15.4487 8.83717 15.2233C9.1051 14.9979 9.41503 14.8279 9.74906 14.723L30.9451 8.009C31.6194 7.79619 32.3506 7.85955 32.9782 8.18519C33.6059 8.51083 34.0788 9.07215 34.2931 9.746L44.1721 40.932ZM41.6301 41.737L31.7501 10.551L21.9781 13.645L10.5531 17.264L20.4331 48.45L41.6301 41.737Z"/>
  </g>
  <defs>
  <clipPath id="clip0_7_58">
  <rect width="64" height="64" fill="white"/>
  </clipPath>
  </defs>
</g>

<g id="i-3_2" width="42" height="42" viewBox="0 0 42 42" xmlns="http://www.w3.org/2000/svg">
  <g clip-path="url(#clip0_48068_62)">
  <path d="M41.587 9.89229L34.7582 31.5964L34.9192 32.1083C35.0236 32.4367 35.0622 32.7827 35.0329 33.1263C35.0036 33.4699 34.9069 33.8042 34.7484 34.1099C34.4923 34.606 34.0967 34.9978 33.6098 35.2439L33.604 35.2655L32.0614 40.1677C31.8516 40.8306 31.3895 41.3828 30.7763 41.7033C30.1631 42.0238 29.4488 42.0866 28.7897 41.8779L20.8556 39.3474L12.9215 41.8779C12.2624 42.0866 11.5481 42.0238 10.9349 41.7033C10.3217 41.3828 9.85961 40.8306 9.64986 40.1677L0.122959 9.89294C0.0186924 9.56447 -0.0198456 9.21844 0.00957564 8.87487C0.0389969 8.53131 0.135793 8.19703 0.294363 7.89138C0.451176 7.58465 0.666896 7.31232 0.929017 7.09017C1.19114 6.86803 1.49444 6.70048 1.82135 6.59725L22.1219 0.123348C22.7809 -0.0857532 23.4953 -0.023222 24.1086 0.297234C24.7219 0.61769 25.184 1.16992 25.3936 1.83288L25.4437 1.99169C25.4496 1.993 25.4555 1.99366 25.4607 1.99563L39.8899 6.59791C40.2165 6.70113 40.5196 6.86853 40.7816 7.09044C41.0436 7.31234 41.2593 7.58435 41.4162 7.89072C41.7369 8.51416 41.7975 9.22422 41.587 9.89229ZM31.5726 35.9303L23.7336 38.43L29.3137 40.2097C29.5335 40.2798 29.7719 40.2591 29.9765 40.1523C30.1812 40.0455 30.3354 39.8613 30.4053 39.6401L31.5726 35.9303ZM33.2625 32.6373L23.7369 2.36182C23.6673 2.1407 23.5133 1.95644 23.3089 1.84952C23.1045 1.74259 22.8662 1.72174 22.6465 1.79154L2.34664 8.2661C2.12506 8.33632 1.94453 8.48922 1.83765 8.69725C1.78474 8.79916 1.75242 8.91061 1.74258 9.02517C1.73273 9.13973 1.74555 9.25512 1.78029 9.36466L11.3059 39.6394C11.4506 40.0995 11.94 40.3548 12.3969 40.2097L20.5695 37.6031C20.5877 37.5965 20.606 37.59 20.6249 37.5854L32.6968 33.7352C32.9184 33.6649 33.0989 33.512 33.2051 33.304C33.3127 33.0966 33.3329 32.8597 33.2625 32.6366V32.6373ZM31.6071 21.5814L34.8325 11.3308L27.6629 9.04441L31.6071 21.5814ZM39.8729 8.69594C39.8206 8.59393 39.7488 8.50336 39.6615 8.42947C39.5743 8.35557 39.4734 8.29983 39.3646 8.26544L26.0844 4.03L27.0268 7.02316C27.0841 7.02972 27.1415 7.04154 27.1982 7.05991L35.3565 9.66194C35.5742 9.73077 35.7762 9.84236 35.9508 9.99026C36.1254 10.1382 36.2692 10.3194 36.3738 10.5236C36.4796 10.7274 36.5443 10.9503 36.5639 11.1794C36.5836 11.4086 36.558 11.6393 36.4885 11.8584L32.5182 24.4768L33.8464 28.6991L39.9303 9.36335C40 9.14022 39.9798 8.90397 39.8729 8.69594ZM20.1648 15.3149C20.5396 15.5093 20.8724 15.7768 21.1439 16.1016C21.4154 16.4265 21.6203 16.8024 21.7465 17.2075C21.8804 17.6311 21.9198 18.0792 21.862 18.5199C21.8043 18.9605 21.6507 19.383 21.4122 19.757L19.3182 23.0521C19.1556 23.3068 18.9322 23.5165 18.6684 23.6618C18.4046 23.8072 18.1089 23.8836 17.8081 23.8842C17.5774 23.8842 17.3467 23.8396 17.1304 23.7503L13.5335 22.2711C13.1247 22.1035 12.7576 21.8472 12.4584 21.5204C12.1592 21.1936 11.9352 20.8044 11.8025 20.3805C11.674 19.9761 11.6264 19.5501 11.6626 19.1271C11.6987 18.7041 11.8178 18.2926 12.013 17.9163C12.2062 17.5388 12.4718 17.2037 12.7944 16.9303C13.117 16.6569 13.4903 16.4507 13.8926 16.3235C14.5885 16.1036 15.3379 16.1276 16.0185 16.3918C16.4237 15.781 17.0227 15.3266 17.7176 15.1029C18.1191 14.9737 18.5422 14.9259 18.9622 14.9623C19.3823 14.9987 19.791 15.1185 20.1648 15.3149ZM20.0898 17.7358C20.0318 17.5501 19.9379 17.3778 19.8134 17.2289C19.6889 17.08 19.5363 16.9574 19.3645 16.8682C19.1931 16.7781 19.0056 16.7231 18.813 16.7064C18.6204 16.6897 18.4263 16.7117 18.2422 16.7711C17.9996 16.8476 17.781 16.9866 17.6079 17.1742C17.4349 17.3617 17.3134 17.5915 17.2555 17.8408C17.2203 17.9873 17.1482 18.1223 17.0461 18.2325C16.9439 18.3428 16.8153 18.4246 16.6725 18.4702C16.5298 18.5157 16.3778 18.5234 16.2313 18.4924C16.0847 18.4615 15.9486 18.393 15.836 18.2936C15.6459 18.1235 15.4151 18.0062 15.1664 17.9533C14.9176 17.9004 14.6594 17.9136 14.4172 17.9917C14.2328 18.0503 14.0617 18.1451 13.9139 18.2707C13.7661 18.3963 13.6446 18.5502 13.5563 18.7234C13.4668 18.896 13.4122 19.0848 13.3956 19.2787C13.3791 19.4727 13.4009 19.6681 13.4598 19.8535C13.5739 20.2164 13.8411 20.5078 14.1917 20.6522L17.7879 22.1313C17.7999 22.1366 17.8134 22.1371 17.8257 22.1327C17.8379 22.129 17.8483 22.1211 17.8551 22.1103L19.9491 18.8147C20.1537 18.4931 20.2052 18.1007 20.0905 17.7371L20.0898 17.7358ZM28.7884 26.8623C28.858 27.0812 28.8837 27.3118 28.8641 27.5408C28.8445 27.7699 28.78 27.9927 28.6743 28.1964C28.5697 28.4008 28.4259 28.5822 28.2511 28.7303C28.0764 28.8783 27.8742 28.9899 27.6564 29.0587L13.8431 33.4654C13.4037 33.6047 12.9274 33.563 12.5185 33.3493C12.1096 33.1356 11.8016 32.7675 11.6617 32.3255L5.2227 11.8591C5.15308 11.64 5.12732 11.4093 5.1469 11.1802C5.16647 10.951 5.23101 10.7281 5.33675 10.5243C5.44139 10.3201 5.58518 10.1388 5.75979 9.99091C5.93441 9.84302 6.1364 9.73143 6.35409 9.6626L20.168 5.25654C20.6075 5.11688 21.0841 5.15846 21.4931 5.37216C21.9022 5.58586 22.2103 5.95423 22.35 6.39644L28.7884 26.8623ZM27.1317 27.3905L20.6927 6.92472L14.324 8.95516L6.87808 11.3301L13.3171 31.7959L27.1317 27.3905Z"/>
  </g>
  <defs>
  <clipPath id="clip0_48068_62">
  <rect width="42" height="42" fill="white"/>
  </clipPath>
  </defs>
</g>

<g id="i-4" width="65" height="65" viewBox="0 0 65 65" xmlns="http://www.w3.org/2000/svg">
  <g clip-path="url(#clip0_7_69)">
  <path d="M63.131 51.506C64.3269 52.7045 64.9985 54.3285 64.9985 56.0215C64.9985 57.7146 64.3269 59.3385 63.131 60.537L60.54 63.13C59.9482 63.7249 59.2442 64.1965 58.4689 64.5175C57.6935 64.8385 56.8622 65.0025 56.023 65C55.184 65.0024 54.3529 64.8384 53.5777 64.5174C52.8025 64.1964 52.0987 63.7249 51.507 63.13L30.988 42.613L28.126 45.475C28.2028 46.397 28.077 47.3246 27.7574 48.1928C27.4378 49.061 26.9322 49.8488 26.276 50.501L23.55 53.227C22.9583 53.8218 22.2545 54.2934 21.4793 54.6143C20.7042 54.9353 19.873 55.0994 19.034 55.097C18.1952 55.0993 17.3642 54.9352 16.5892 54.6142C15.8142 54.2932 15.1106 53.8217 14.519 53.227L1.86503 40.575C0.66925 39.3767 -0.00231934 37.7529 -0.00231934 36.06C-0.00231934 34.3671 0.66925 32.7434 1.86503 31.545L4.59103 28.819C5.24326 28.1629 6.03107 27.6573 6.89928 27.3377C7.76748 27.0182 8.69507 26.8923 9.61703 26.969L26.97 9.61902C26.8953 8.69769 27.0219 7.77112 27.341 6.90358C27.6601 6.03605 28.1641 5.24832 28.818 4.59502L31.543 1.87002C32.1347 1.27539 32.8383 0.803958 33.6133 0.48298C34.3883 0.162003 35.2192 -0.00214761 36.058 2.1214e-05C37.764 2.1214e-05 39.368 0.664021 40.574 1.87002L53.227 14.522C54.4226 15.7205 55.094 17.3442 55.094 19.037C55.094 20.7298 54.4226 22.3536 53.227 23.552L50.502 26.278C49.8497 26.9342 49.0617 27.4398 48.1933 27.7594C47.3249 28.079 46.3972 28.2048 45.475 28.128L42.613 30.99L63.131 51.506ZM31.164 35.784L35.783 31.165L39.243 27.705L44.398 22.551L44.798 22.951C45.126 23.279 45.556 23.443 45.986 23.443C46.416 23.443 46.846 23.279 47.175 22.951L49.9 20.226C50.0561 20.07 50.1798 19.8848 50.2643 19.681C50.3487 19.4771 50.3922 19.2587 50.3922 19.038C50.3922 18.8174 50.3487 18.5989 50.2643 18.3951C50.1798 18.1912 50.0561 18.006 49.9 17.85L37.246 5.19702C37.0901 5.04084 36.905 4.91699 36.7011 4.83256C36.4972 4.74813 36.2787 4.70479 36.058 4.70502C35.628 4.70502 35.198 4.86902 34.87 5.19702L32.144 7.92202C31.9879 8.07804 31.864 8.26332 31.7794 8.46725C31.6949 8.67118 31.6514 8.88977 31.6514 9.11052C31.6514 9.33128 31.6949 9.54987 31.7794 9.7538C31.864 9.95773 31.9879 10.143 32.144 10.299L32.544 10.699L10.694 32.546L10.294 32.146C10.1381 31.9898 9.95296 31.866 9.74909 31.7816C9.54523 31.6971 9.32669 31.6538 9.10603 31.654C8.67603 31.654 8.24603 31.818 7.91803 32.146L5.19303 34.87C5.03701 35.026 4.91325 35.2112 4.82881 35.4151C4.74437 35.6189 4.70091 35.8374 4.70091 36.058C4.70091 36.2787 4.74437 36.4971 4.82881 36.701C4.91325 36.9048 5.03701 37.09 5.19303 37.246L17.846 49.9C18.174 50.228 18.604 50.392 19.034 50.392C19.464 50.392 19.894 50.228 20.223 49.9L22.948 47.175C23.1042 47.019 23.2281 46.8337 23.3126 46.6298C23.3971 46.4259 23.4407 46.2073 23.4407 45.9865C23.4407 45.7658 23.3971 45.5472 23.3126 45.3433C23.2281 45.1393 23.1042 44.954 22.948 44.798L22.548 44.398L27.703 39.244L31.164 35.784ZM59.804 54.834L39.285 34.317L34.315 39.287L54.835 59.803C55.162 60.131 55.593 60.295 56.023 60.295C56.453 60.295 56.883 60.131 57.211 59.803L59.804 57.21C59.9601 57.054 60.0838 56.8688 60.1683 56.665C60.2527 56.4611 60.2962 56.2427 60.2962 56.022C60.2962 55.8014 60.2527 55.5829 60.1683 55.3791C60.0838 55.1752 59.9601 54.99 59.804 54.834Z"/>
  </g>
  <defs>
  <clipPath id="clip0_7_69">
  <rect width="65" height="65" fill="white"/>
  </clipPath>
  </defs>
</g>

<g id="i-4_2" width="42" height="42" viewBox="0 0 42 42" xmlns="http://www.w3.org/2000/svg">
  <g clip-path="url(#clip0_48068_80)">
  <path d="M40.1596 33.2808C40.9086 34.0552 41.3293 35.1045 41.3293 36.1985C41.3293 37.2925 40.9086 38.3418 40.1596 39.1162L38.5369 40.7917C38.1662 41.1761 37.7253 41.4808 37.2396 41.6882C36.754 41.8957 36.2334 42.0016 35.7078 42C35.1823 42.0016 34.6617 41.8956 34.1762 41.6882C33.6907 41.4808 33.2499 41.1761 32.8793 40.7917L20.0279 27.5346L18.2354 29.3839C18.2834 29.9796 18.2046 30.579 18.0045 31.14C17.8043 31.701 17.4876 32.21 17.0767 32.6314L15.3693 34.3928C14.9987 34.7772 14.5579 35.0819 14.0724 35.2893C13.5869 35.4967 13.0663 35.6027 12.5409 35.6012C12.0155 35.6026 11.495 35.4966 11.0097 35.2892C10.5243 35.0818 10.0836 34.7771 9.71304 34.3928L1.7876 26.2177C1.03866 25.4434 0.618042 24.3942 0.618042 23.3003C0.618042 22.2064 1.03866 21.1572 1.7876 20.3829L3.49494 18.6215C3.90344 18.1976 4.39687 17.8709 4.94064 17.6644C5.48441 17.4579 6.06538 17.3766 6.64282 17.4261L17.5113 6.21537C17.4645 5.62004 17.5438 5.02134 17.7437 4.46078C17.9435 3.90022 18.2592 3.39122 18.6688 2.96909L20.3755 1.20832C20.746 0.8241 21.1868 0.51948 21.6721 0.31208C22.1575 0.104679 22.6779 -0.00138769 23.2033 1.37075e-05C24.2718 1.37075e-05 25.2764 0.42906 26.0318 1.20832L33.9566 9.38346C34.7054 10.1579 35.1259 11.207 35.1259 12.3008C35.1259 13.3947 34.7054 14.4438 33.9566 15.2182L32.2499 16.9796C31.8413 17.4037 31.3477 17.7304 30.8039 17.9369C30.26 18.1434 29.6789 18.2246 29.1014 18.175L27.3088 20.0243L40.1596 33.2808ZM20.1381 23.122L23.0311 20.1374L25.1981 17.9017L28.4268 14.5714L28.6773 14.8299C28.8828 15.0418 29.1521 15.1478 29.4214 15.1478C29.6907 15.1478 29.96 15.0418 30.1661 14.8299L31.8728 13.0691C31.9705 12.9683 32.0481 12.8486 32.1009 12.7169C32.1538 12.5852 32.181 12.4441 32.181 12.3015C32.181 12.1589 32.1538 12.0178 32.1009 11.886C32.0481 11.7543 31.9705 11.6347 31.8728 11.5339L23.9474 3.35808C23.8498 3.25716 23.7338 3.17713 23.6061 3.12258C23.4784 3.06802 23.3415 3.04002 23.2033 3.04017C22.934 3.04017 22.6647 3.14614 22.4592 3.35808L20.7519 5.11884C20.6541 5.21966 20.5765 5.33937 20.5236 5.47114C20.4706 5.60291 20.4434 5.74416 20.4434 5.8868C20.4434 6.02944 20.4706 6.17068 20.5236 6.30245C20.5765 6.43422 20.6541 6.55394 20.7519 6.65475L21.0024 6.91321L7.31737 21.0297L7.06684 20.7713C6.96921 20.6704 6.85322 20.5903 6.72553 20.5358C6.59785 20.4812 6.46098 20.4532 6.32277 20.4534C6.05346 20.4534 5.78414 20.5593 5.57871 20.7713L3.87199 22.5314C3.77427 22.6322 3.69675 22.7519 3.64387 22.8836C3.59098 23.0153 3.56376 23.1565 3.56376 23.299C3.56376 23.4416 3.59098 23.5828 3.64387 23.7145C3.69675 23.8462 3.77427 23.9659 3.87199 24.0667L11.7968 32.2431C12.0022 32.455 12.2715 32.561 12.5409 32.561C12.8102 32.561 13.0795 32.455 13.2856 32.2431L14.9923 30.4823C15.0901 30.3815 15.1677 30.2618 15.2206 30.13C15.2736 29.9983 15.3008 29.857 15.3008 29.7144C15.3008 29.5717 15.2736 29.4305 15.2206 29.2987C15.1677 29.1669 15.0901 29.0472 14.9923 28.9464L14.7418 28.688L17.9704 25.3577L20.1381 23.122ZM38.0759 35.4312L25.2244 22.1741L22.1116 25.3855L34.9637 38.642C35.1685 38.8539 35.4385 38.9599 35.7078 38.9599C35.9771 38.9599 36.2464 38.8539 36.4518 38.642L38.0759 36.9665C38.1736 36.8657 38.2511 36.746 38.304 36.6143C38.3569 36.4826 38.3841 36.3414 38.3841 36.1988C38.3841 36.0563 38.3569 35.9151 38.304 35.7834C38.2511 35.6517 38.1736 35.532 38.0759 35.4312Z"/>
  </g>
  <defs>
  <clipPath id="clip0_48068_80">
  <rect width="42" height="42" fill="white"/>
  </clipPath>
  </defs>
</g>

<g id="phone" width="29" height="29" viewBox="0 0 29 29" xmlns="http://www.w3.org/2000/svg">
  <path d="M25.375 18.6808L19.0071 17.9437L15.9621 20.9888C12.5425 19.2487 9.73917 16.4575 7.99917 13.0258L11.0563 9.96875L10.3192 3.625H3.66125C2.96042 15.9258 13.0742 26.0396 25.375 25.3387V18.6808Z"/>
</g>

<g id="geo" width="29" height="29" viewBox="0 0 29 29" xmlns="http://www.w3.org/2000/svg">
  <path d="M14.5 2.41675C9.82374 2.41675 6.04166 6.19883 6.04166 10.8751C6.04166 15.9138 11.3825 22.8617 13.5817 25.508C14.065 26.088 14.9471 26.088 15.4304 25.508C17.6175 22.8617 22.9583 15.9138 22.9583 10.8751C22.9583 6.19883 19.1762 2.41675 14.5 2.41675ZM14.5 13.8959C12.8325 13.8959 11.4792 12.5426 11.4792 10.8751C11.4792 9.20758 12.8325 7.85425 14.5 7.85425C16.1675 7.85425 17.5208 9.20758 17.5208 10.8751C17.5208 12.5426 16.1675 13.8959 14.5 13.8959Z"/>
</g>

<g id="mail" width="29" height="29" viewBox="0 0 29 29" xmlns="http://www.w3.org/2000/svg">
  <path d="M24.1666 4.83325H4.83329C3.50413 4.83325 2.41663 5.92075 2.41663 7.24992V21.7499C2.41663 23.0791 3.50413 24.1666 4.83329 24.1666H24.1666C25.4958 24.1666 26.5833 23.0791 26.5833 21.7499V7.24992C26.5833 5.92075 25.4958 4.83325 24.1666 4.83325ZM23.6833 9.96867L15.7808 14.9108C14.9954 15.4062 14.0045 15.4062 13.2191 14.9108L5.31663 9.96867C5.01454 9.77533 4.83329 9.44909 4.83329 9.09867C4.83329 8.28909 5.71538 7.80575 6.40413 8.22867L14.5 13.2916L22.5958 8.22867C23.2845 7.80575 24.1666 8.28909 24.1666 9.09867C24.1666 9.44909 23.9854 9.77533 23.6833 9.96867Z"/>
</g>

</svg>
