<svg width="60" height="60" viewBox="0 0 60 60" fill="none" xmlns="http://www.w3.org/2000/svg">
<path d="M30 50C40.3554 50 48.75 41.6054 48.75 31.25C48.75 20.8946 40.3554 12.5 30 12.5C19.6446 12.5 11.25 20.8946 11.25 31.25C11.25 41.6054 19.6446 50 30 50Z" stroke="#F9F9F9" stroke-width="4" stroke-linecap="round" stroke-linejoin="round"/>
<path d="M25.0003 13.75C27.2561 15.0104 29.3753 16.875 29.1976 19.3068C29.0556 21.25 27.3937 21.6836 27.0461 23.0889C26.6987 24.4941 28.7093 26.0271 25.308 28.295C23.0405 29.8069 16.2137 32.6809 11.25 30" stroke="#F9F9F9" stroke-width="4" stroke-linecap="round"/>
<path d="M11.8752 30.625C8.12516 32.9853 2.58533 39.4012 5.00073 43.75C8.12503 49.375 20.0005 44.6132 33.7502 33.75C47.4999 22.8867 52.7864 7.008 52.7864 7.008L46.2506 8.74997" stroke="#F9F9F9" stroke-width="4" stroke-linecap="round" stroke-linejoin="round"/>
<path d="M32.5008 50C32.5008 50 33.1254 43.75 37.5 40C41.8747 36.25 47.5009 36.25 47.5009 36.25" stroke="#F9F9F9" stroke-width="4" stroke-linecap="round"/>
</svg>
